<svg width="60" height="60" viewBox="0 0 60 60" fill="none" xmlns="http://www.w3.org/2000/svg">
<g clip-path="url(#clip0_1102_35625)">
<path d="M17.3438 19.4531C14.7592 19.4531 12.6562 21.5561 12.6562 24.1407C12.6562 26.7252 14.7592 28.8282 17.3438 28.8282C19.9288 28.8282 22.0313 26.7252 22.0313 24.1407C22.0313 21.5561 19.9288 19.4531 17.3438 19.4531ZM17.3438 26.4844C16.0515 26.4844 15 25.4329 15 24.1407C15 22.8484 16.0515 21.7969 17.3438 21.7969C18.6365 21.7969 19.6876 22.8484 19.6876 24.1407C19.6876 25.4329 18.6365 26.4844 17.3438 26.4844Z" fill="#F57005"/>
<path d="M34.9219 18.2813C34.9219 15.6967 32.8194 13.5938 30.2344 13.5938C27.6499 13.5938 25.5469 15.6967 25.5469 18.2813C25.5469 20.8658 27.6499 22.9688 30.2344 22.9688C32.8194 22.9688 34.9219 20.8658 34.9219 18.2813ZM27.8906 18.2813C27.8906 16.989 28.9421 15.9375 30.2344 15.9375C31.5271 15.9375 32.5782 16.989 32.5782 18.2813C32.5782 19.5736 31.5271 20.6251 30.2344 20.6251C28.9421 20.6251 27.8906 19.5736 27.8906 18.2813Z" fill="#F57005"/>
<path d="M9.14062 38.2036C9.14062 40.7882 11.2436 42.8912 13.8282 42.8912C16.4132 42.8912 18.5157 40.7882 18.5157 38.2036C18.5157 35.6191 16.4132 33.5161 13.8282 33.5161C11.2436 33.5161 9.14062 35.6191 9.14062 38.2036ZM13.8282 35.8599C15.1209 35.8599 16.1719 36.9114 16.1719 38.2036C16.1719 39.4959 15.1209 40.5474 13.8282 40.5474C12.5359 40.5474 11.4844 39.4959 11.4844 38.2036C11.4844 36.9114 12.5359 35.8599 13.8282 35.8599Z" fill="#F57005"/>
<path d="M19.6875 47.5786C19.6875 50.1632 21.7905 52.2662 24.375 52.2662C26.96 52.2662 29.0626 50.1632 29.0626 47.5786C29.0626 44.9941 26.96 42.8911 24.375 42.8911C21.7905 42.8911 19.6875 44.9941 19.6875 47.5786ZM26.7188 47.5786C26.7188 48.8709 25.6678 49.9224 24.375 49.9224C23.0828 49.9224 22.0313 48.8709 22.0313 47.5786C22.0313 46.2864 23.0828 45.2349 24.375 45.2349C25.6678 45.2349 26.7188 46.2864 26.7188 47.5786Z" fill="#F57005"/>
<path d="M51.3624 11.1448C51.3624 8.35654 47.3057 1.82466 46.4922 0.543828C46.2771 0.20508 45.904 0 45.503 0C45.1015 0 44.7285 0.20508 44.5138 0.543828C43.8028 1.66307 40.6172 6.79006 39.823 9.92668C32.4575 6.90084 24.7803 6.98324 18.0388 10.1963C11.3357 13.3911 5.92993 19.6057 4.01463 27.4299C3.86036 28.0588 4.24535 28.6929 4.87386 28.8467C4.9677 28.8696 5.06154 28.8805 5.15356 28.8805C5.6809 28.8805 6.16019 28.5221 6.29111 27.987C7.95601 21.1855 12.725 15.3251 19.0473 12.3117C25.44 9.26521 32.7853 9.32518 39.7946 12.4655C40.1622 14.0562 41.1844 15.4222 42.5907 16.2288C41.9008 18.7396 41.3634 22.5505 41.0581 27.1447C40.934 29.0096 40.8502 30.9895 40.809 33.0394C36.3591 35.5928 33.4285 40.4515 33.7956 46.2546C33.9348 48.4473 34.1449 51.7611 30.6924 54.7705C28.2264 56.9206 24.5968 57.5116 21.2207 56.3132C12.8408 53.339 6.77863 45.7177 5.77566 36.8965C5.70288 36.2533 5.12105 35.7919 4.47926 35.8642C3.8361 35.9375 3.37421 36.5179 3.447 37.1611C4.57219 47.0603 11.3069 55.2813 20.437 58.5219C24.611 60.0037 29.1305 59.2415 32.2328 56.537C36.5569 52.7673 36.2822 48.4341 36.1343 46.1059C35.861 41.7813 37.7457 38.1229 40.7811 35.8546V35.8592C40.7811 41.4096 41.2064 52.2866 42.9953 57.3582C43.2499 58.0806 43.9269 60 45.4687 60C47.0109 60 47.6879 58.0806 47.9424 57.3582C49.7204 52.3182 50.1562 41.5213 50.1562 35.8592C50.1562 35.0549 50.1493 34.2634 50.1361 33.4912C50.4977 33.4861 50.8644 33.4857 51.2356 33.4916C53.4549 33.5241 55.4709 32.1737 56.2569 30.128C58.4107 24.5176 54.4075 18.9291 49.6856 15.2478C50.7449 14.1684 51.3624 12.7026 51.3624 11.1448ZM45.503 3.41861C47.1935 6.28057 49.0186 9.85527 49.0186 11.1448C49.0186 13.1796 47.3281 14.7053 45.4293 14.6627C43.5405 14.6202 41.9873 13.0789 41.9873 11.1448C41.9873 9.85527 43.812 6.28057 45.503 3.41861ZM45.503 17.0042C45.7099 17.0042 45.9159 16.9923 46.1196 16.9708C46.6936 19.1168 47.1688 22.3876 47.465 26.252C46.1466 26.4214 44.7916 26.4182 43.4728 26.2433C43.769 22.3793 44.245 19.11 44.82 16.9639C45.0457 16.9905 45.2737 17.0042 45.503 17.0042ZM45.4687 57.2246C43.5753 53.1747 43.1249 40.977 43.1249 35.8597C43.1249 35.2051 43.14 33.7635 43.1405 33.7599C43.1675 31.975 43.2279 30.2419 43.319 28.5876C44.0413 28.6773 44.7719 28.7226 45.503 28.7226C46.2116 28.7226 46.9198 28.68 47.6197 28.5953C47.6879 29.8437 47.7383 31.1259 47.7699 32.4237C47.7982 33.5232 47.8124 34.6791 47.8124 35.8597C47.8124 41.1368 47.3359 53.2315 45.4687 57.2246ZM54.0687 29.288C53.6339 30.4196 52.5087 31.1694 51.2722 31.1488C50.8699 31.1424 50.4707 31.1424 50.0775 31.1483C50.0321 29.7897 49.9662 28.4521 49.8806 27.1584C49.8802 27.1506 49.8788 27.1429 49.8779 27.1351C49.6174 23.2134 49.1871 19.863 48.6382 17.4066C53.3812 21.2454 55.4503 25.6894 54.0687 29.288Z" fill="#F57005"/>
<path d="M5.62502 32.3438C5.62502 32.991 5.10042 33.5156 4.45313 33.5156C3.80631 33.5156 3.28125 32.991 3.28125 32.3438C3.28125 31.6965 3.80631 31.1719 4.45313 31.1719C5.10042 31.1719 5.62502 31.6965 5.62502 32.3438Z" fill="#F57005"/>
</g>
<defs>
<clipPath id="clip0_1102_35625">
<rect width="60" height="60" fill="white"/>
</clipPath>
</defs>
</svg>
