<svg width="30" height="29" viewBox="0 0 30 29" fill="none" xmlns="http://www.w3.org/2000/svg">
<path d="M28.408 21.969L24.3226 17.8818C23.7739 17.3359 23.0392 17.0352 22.2541 17.0352C21.4371 17.0352 20.6657 17.3569 20.0824 17.9405L18.4921 19.5305C17.2563 18.8436 15.6138 17.8989 13.9086 16.1936C12.2053 14.4898 11.2605 12.8521 10.5701 11.6096L12.1619 10.019C13.3454 8.83303 13.3696 6.93038 12.2161 5.77787L8.13141 1.6931C7.58427 1.14444 6.84957 0.842285 6.06248 0.842285C5.2637 0.842285 4.50806 1.14982 3.92818 1.70959C3.57738 1.99211 1.81692 3.54617 1.1608 6.75112C0.242162 11.2371 2.35284 15.5533 8.44608 21.649C15.2527 28.4535 21.0636 28.9824 22.6824 28.9824C23.0194 28.9824 23.2228 28.9616 23.277 28.9553C26.4515 28.5832 27.5881 27.1734 28.418 26.1441C29.4933 24.81 29.4896 23.0545 28.408 21.969ZM27.0524 25.0431C26.2723 26.0106 25.5356 26.9244 23.073 27.2131C23.0717 27.2132 22.937 27.2283 22.6824 27.2283C21.2341 27.2283 16.0162 26.7365 9.68641 20.4086C4.06734 14.7872 2.09511 10.9322 2.87916 7.10286C3.45144 4.30742 4.97077 3.11924 5.02983 3.0741L5.08221 3.0354L5.12817 2.98933C5.3818 2.73593 5.71354 2.59631 6.06236 2.59631C6.37996 2.59631 6.6737 2.71535 6.89026 2.93261L10.9758 7.01832C11.4459 7.48793 11.4209 8.27817 10.9208 8.77936L9.12056 10.578L9.09097 10.609C8.62183 11.1258 8.67703 11.8241 8.93545 12.2789C9.68114 13.6246 10.7026 15.4676 12.668 17.4336C14.6269 19.3925 16.4672 20.4131 17.8092 21.1574C17.9435 21.2328 18.2209 21.3593 18.5681 21.3593C18.9781 21.3593 19.3545 21.1858 19.6331 20.8695L21.3226 19.1805C21.5748 18.9281 21.9055 18.7891 22.2539 18.7891C22.5722 18.7891 22.8674 18.9085 23.0835 19.1234L27.1663 23.2079C27.6849 23.7284 27.4708 24.5242 27.0524 25.0431Z" fill="#F57005"/>
<path d="M18.0795 5.13946C19.5865 5.31288 21.3608 6.22567 22.5999 7.46483C23.8505 8.71545 24.7655 10.5078 24.9307 12.0311C24.9795 12.4805 25.3595 12.8135 25.8016 12.8135C25.8331 12.8135 25.8652 12.8118 25.8972 12.8084C26.3787 12.7561 26.7267 12.3235 26.6745 11.8419C26.4655 9.91637 25.3794 7.76395 23.8402 6.22462C22.3154 4.69967 20.1849 3.61627 18.2801 3.39702C17.7991 3.34124 17.364 3.6869 17.3086 4.16797C17.2532 4.64904 17.5982 5.08404 18.0795 5.13946Z" fill="#F57005"/>
<path d="M17.2613 8.81297C18.0763 8.90687 19.2043 9.51142 19.9432 10.2503C20.6884 10.9957 21.2941 12.1344 21.3833 12.9582C21.4321 13.4077 21.8121 13.7407 22.2541 13.7407C22.2857 13.7407 22.3176 13.739 22.3497 13.7356C22.8312 13.6833 23.1793 13.2506 23.1271 12.7691C22.9746 11.3626 22.0409 9.8676 21.1833 9.01C20.3334 8.16 18.853 7.23072 17.4618 7.0704C16.9802 7.01439 16.5456 7.36017 16.4902 7.84124C16.4349 8.32242 16.7801 8.75754 17.2613 8.81297Z" fill="#F57005"/>
</svg>
