<svg width="60" height="60" viewBox="0 0 60 60" fill="none" xmlns="http://www.w3.org/2000/svg">
<path d="M11.5849 54.3897C11.4818 54.3897 11.3787 54.3729 11.2755 54.3372C10.7862 54.1666 10.5293 53.6322 10.698 53.1429L16.6755 35.9772C16.8462 35.4897 17.3805 35.2329 17.8699 35.3997C18.3593 35.5704 18.6162 36.1047 18.4474 36.5941L12.4699 53.7598C12.3368 54.1479 11.973 54.3897 11.5849 54.3897Z" fill="#F57005"/>
<path d="M11.2174 58.1248C9.75682 58.1248 8.40494 57.461 7.51057 56.306C6.61619 55.151 6.31244 53.6773 6.67994 52.2635L10.4806 37.5616C10.6099 37.0591 11.1199 36.7554 11.6224 36.8885C12.1249 37.0179 12.4249 37.5298 12.2956 38.0304L8.49494 52.7323C8.27557 53.5816 8.45744 54.4648 8.99369 55.1585C9.52994 55.8523 10.3418 56.2498 11.2174 56.2498C11.7349 56.2498 12.1549 56.6698 12.1549 57.1873C12.1549 57.7048 11.7349 58.1248 11.2174 58.1248Z" fill="#F57005"/>
<path d="M27.0712 50.6252H26.4412C24.9112 50.6252 23.5237 49.9127 22.6312 48.6695C21.7406 47.4264 21.5099 45.8833 22.0012 44.4339L24.4724 37.5883L16.7062 37.2133C15.1181 37.067 13.6856 36.2814 12.7349 35.0533C11.7843 33.8252 11.3793 32.2408 11.6287 30.707L13.4718 20.0683C13.5599 19.5583 14.0456 19.2208 14.5556 19.3052C15.0656 19.3933 15.4087 19.8789 15.3187 20.3889L13.4774 31.0164C13.3124 32.0458 13.5749 33.0752 14.2181 33.9058C14.8612 34.7364 15.7912 35.2464 16.8374 35.3439L25.8299 35.777C26.1281 35.792 26.3999 35.9458 26.5649 36.1933C26.7299 36.4408 26.7674 36.752 26.6662 37.0314L23.7712 45.0527C23.4824 45.9039 23.6212 46.8302 24.1556 47.5764C24.6899 48.3227 25.5224 48.7502 26.4412 48.7502H27.0712C27.5887 48.7502 28.0087 49.1702 28.0087 49.6877C28.0087 50.2052 27.5887 50.6252 27.0712 50.6252Z" fill="#F57005"/>
<path d="M4.6901 30.8756C4.4876 30.8756 4.28135 30.8531 4.08072 30.8081C2.56572 30.4725 1.6076 28.9668 1.94135 27.4537L3.82197 19.9893C4.0076 19.1493 4.60572 18.4162 5.41947 18.0562L12.2163 15.0356C13.7201 14.3681 15.3776 14.085 17.0257 14.2218L26.4832 15.0093C27.0626 15.0562 27.6045 15.2793 28.0507 15.6506L32.1851 19.0968L36.657 16.6631C37.2907 16.2993 38.0501 16.2 38.7757 16.4006C39.4995 16.5975 40.1032 17.0662 40.4782 17.7187C40.8513 18.3712 40.947 19.1287 40.7501 19.8543C40.5532 20.58 40.0845 21.1837 39.432 21.5568L33.2576 24.9506C32.2563 25.5206 30.972 25.4062 30.0757 24.6637L27.2726 22.9537C26.832 22.6818 26.6932 22.1043 26.9632 21.6637C27.2351 21.2212 27.8107 21.0843 28.2532 21.3543L31.1632 23.1412C31.572 23.4693 32.0013 23.5068 32.3407 23.3137L38.5132 19.9218C38.7176 19.8037 38.8732 19.6031 38.9389 19.3612C39.0045 19.1212 38.9726 18.8681 38.8489 18.6506C38.592 18.2006 38.0163 18.0468 37.5701 18.3L32.5226 21.0487C32.1851 21.2325 31.7726 21.1912 31.4726 20.9456L26.8488 17.0925C26.7007 16.9687 26.5188 16.8937 26.3257 16.8768L16.8682 16.0893C15.5407 15.9825 14.1963 16.2075 12.9795 16.7493L6.1826 19.77C5.91072 19.89 5.71197 20.1337 5.64822 20.4206L3.7676 27.885C3.6626 28.3631 3.98135 28.8656 4.48572 28.9781C4.98635 29.0925 5.49447 28.7587 5.6051 28.2675L7.28322 21.7237C7.36385 21.4087 7.60197 21.1593 7.91135 21.0618L14.1588 19.1062C14.6538 18.9487 15.1788 19.2262 15.3326 19.7212C15.4863 20.2162 15.2126 20.7412 14.7176 20.895L8.96885 22.695L7.42947 28.7043C7.15197 29.9493 5.99697 30.8756 4.6901 30.8756Z" fill="#F57005"/>
<path d="M26.5423 46.8748C26.3979 46.8748 26.2517 46.841 26.1129 46.7698C25.6517 46.5335 25.4717 45.9673 25.7098 45.5079L30.9467 35.3454C31.1698 34.8429 31.136 34.2054 30.8342 33.6842C30.5323 33.1648 29.996 32.8198 29.396 32.7598L22.0235 31.5879C21.7573 31.5467 21.521 31.391 21.3785 31.1623C21.236 30.9335 21.1967 30.6542 21.2717 30.3973L24.4704 19.5373C24.6167 19.0423 25.136 18.7554 25.6348 18.9035C26.1317 19.0498 26.4167 19.571 26.2685 20.0679L23.3717 29.9042L29.636 30.9017C30.7779 31.0123 31.8523 31.7042 32.4542 32.7429C33.056 33.7817 33.1254 35.0585 32.6342 36.1573L27.3748 46.3667C27.2117 46.691 26.8817 46.8748 26.5423 46.8748Z" fill="#F57005"/>
<path d="M22.5 13.125C19.3987 13.125 16.875 10.6012 16.875 7.5C16.875 4.39875 19.3987 1.875 22.5 1.875C25.6012 1.875 28.125 4.39875 28.125 7.5C28.125 10.6012 25.6031 13.125 22.5 13.125ZM22.5 3.75C20.4319 3.75 18.75 5.43187 18.75 7.5C18.75 9.56813 20.4319 11.25 22.5 11.25C24.5681 11.25 26.25 9.56813 26.25 7.5C26.25 5.43187 24.57 3.75 22.5 3.75Z" fill="#F57005"/>
<path d="M55.3125 58.125C54.795 58.125 54.375 57.705 54.375 57.1875V25.3125C54.375 24.795 54.795 24.375 55.3125 24.375C55.83 24.375 56.25 24.795 56.25 25.3125V57.1875C56.25 57.705 55.83 58.125 55.3125 58.125Z" fill="#F57005"/>
<path d="M49.6875 58.125C49.17 58.125 48.75 57.705 48.75 57.1875V40.3125C48.75 39.795 49.17 39.375 49.6875 39.375C50.205 39.375 50.625 39.795 50.625 40.3125V57.1875C50.625 57.705 50.205 58.125 49.6875 58.125Z" fill="#F57005"/>
<path d="M27.1875 58.125C26.67 58.125 26.25 57.705 26.25 57.1875V53.4375C26.25 52.92 26.67 52.5 27.1875 52.5C27.705 52.5 28.125 52.92 28.125 53.4375V57.1875C28.125 57.705 27.705 58.125 27.1875 58.125Z" fill="#F57005"/>
<path d="M44.0625 58.125C43.545 58.125 43.125 57.705 43.125 57.1875V47.8125C43.125 47.295 43.545 46.875 44.0625 46.875C44.58 46.875 45 47.295 45 47.8125V57.1875C45 57.705 44.58 58.125 44.0625 58.125Z" fill="#F57005"/>
<path d="M38.4375 58.125C37.92 58.125 37.5 57.705 37.5 57.1875V51.5625C37.5 51.045 37.92 50.625 38.4375 50.625C38.955 50.625 39.375 51.045 39.375 51.5625V57.1875C39.375 57.705 38.955 58.125 38.4375 58.125Z" fill="#F57005"/>
<path d="M32.8125 58.125C32.295 58.125 31.875 57.705 31.875 57.1875V55.3125C31.875 54.795 32.295 54.375 32.8125 54.375C33.33 54.375 33.75 54.795 33.75 55.3125V57.1875C33.75 57.705 33.33 58.125 32.8125 58.125Z" fill="#F57005"/>
<path d="M44.0625 45C42.5119 45 41.25 43.7381 41.25 42.1875C41.25 40.6369 42.5119 39.375 44.0625 39.375C45.6131 39.375 46.875 40.6369 46.875 42.1875C46.875 43.7381 45.6131 45 44.0625 45ZM44.0625 41.25C43.5469 41.25 43.125 41.6719 43.125 42.1875C43.125 42.7031 43.5469 43.125 44.0625 43.125C44.5781 43.125 45 42.7031 45 42.1875C45 41.6719 44.5781 41.25 44.0625 41.25Z" fill="#F57005"/>
<path d="M32.8125 52.5C31.2619 52.5 30 51.2381 30 49.6875C30 48.1369 31.2619 46.875 32.8125 46.875C34.3631 46.875 35.625 48.1369 35.625 49.6875C35.625 51.2381 34.3631 52.5 32.8125 52.5ZM32.8125 48.75C32.2969 48.75 31.875 49.1719 31.875 49.6875C31.875 50.2031 32.2969 50.625 32.8125 50.625C33.3281 50.625 33.75 50.2031 33.75 49.6875C33.75 49.1719 33.3281 48.75 32.8125 48.75Z" fill="#F57005"/>
<path d="M42.2108 42.2963L33.6289 48.0188C34.2177 48.3075 34.6245 48.8888 34.6658 49.5806L43.2477 43.86C42.657 43.5675 42.252 42.9863 42.2108 42.2963Z" fill="#F57005"/>
<path d="M31.2244 48.75H23.4375C23.1675 48.75 22.9106 48.8662 22.7325 49.0706L16.4494 56.25H11.25C10.7325 56.25 10.3125 56.67 10.3125 57.1875C10.3125 57.705 10.7325 58.125 11.25 58.125H16.875C17.145 58.125 17.4019 58.0088 17.58 57.8044L23.8631 50.625H31.2244C31.0575 50.3456 30.9375 50.0381 30.9375 49.6875C30.9375 49.3388 31.0575 49.0294 31.2244 48.75Z" fill="#F57005"/>
<path d="M55.3125 15.9375C54.7069 15.9375 54.195 15.6337 53.8519 15.1893L43.7794 40.3687C43.875 40.3537 43.9613 40.3125 44.0625 40.3125C44.6682 40.3125 45.18 40.6162 45.5232 41.0606L55.5957 15.8812C55.5 15.8962 55.4138 15.9375 55.3125 15.9375Z" fill="#F57005"/>
<path d="M55.3125 16.875C53.7619 16.875 52.5 15.6131 52.5 14.0625C52.5 12.5119 53.7619 11.25 55.3125 11.25C56.8631 11.25 58.125 12.5119 58.125 14.0625C58.125 15.6131 56.8631 16.875 55.3125 16.875ZM55.3125 13.125C54.7969 13.125 54.375 13.5469 54.375 14.0625C54.375 14.5781 54.7969 15 55.3125 15C55.8281 15 56.25 14.5781 56.25 14.0625C56.25 13.5469 55.8281 13.125 55.3125 13.125Z" fill="#F57005"/>
<path d="M21.5625 58.125C22.0803 58.125 22.5 57.7053 22.5 57.1875C22.5 56.6697 22.0803 56.25 21.5625 56.25C21.0447 56.25 20.625 56.6697 20.625 57.1875C20.625 57.7053 21.0447 58.125 21.5625 58.125Z" fill="#F57005"/>
</svg>
