<svg width="68" height="68" viewBox="0 0 68 68" fill="none" xmlns="http://www.w3.org/2000/svg">
<g clip-path="url(#clip0_759_7018)">
<path d="M65.875 61.8207V51.8666C66.5836 51.6174 67.1811 51.1253 67.5616 50.4776C67.9421 49.83 68.0811 49.0685 67.9538 48.3282C67.8265 47.5879 67.4412 46.9165 66.8662 46.4332C66.2912 45.9498 65.5637 45.6856 64.8125 45.6874H59.3042C59.4302 45.3471 59.4964 44.9877 59.5 44.6249C59.498 43.9679 59.2926 43.3276 58.9122 42.7919C58.5317 42.2562 57.9947 41.8515 57.375 41.6332V39.3124H60.7545L58.8961 28.1651C59.3631 27.7164 59.704 27.1529 59.8846 26.5309C60.0652 25.909 60.0792 25.2505 59.9251 24.6215C59.7711 23.9925 59.4544 23.415 59.0068 22.9469C58.5592 22.4788 57.9965 22.1366 57.375 21.9545V17.3298L54.6084 16.2759L63.4232 12.7499L34 0.980469L4.57682 12.7499L17 17.7193V30.8124H12.75C10.9512 30.8105 9.19822 31.3799 7.7439 32.4385C6.28958 33.4971 5.20905 34.9903 4.65812 36.7027C4.1072 38.415 4.11434 40.2581 4.67852 41.9662C5.2427 43.6742 6.33477 45.159 7.79725 46.2063C5.25655 47.0083 3.08678 48.6932 1.68047 50.9561C0.274159 53.219 -0.275819 55.9105 0.130029 58.5437C0.535876 61.1769 1.87075 63.5779 3.89316 65.3123C5.91557 67.0468 8.49195 68.0001 11.1562 67.9999H64.8125C65.5637 68.0017 66.2912 67.7375 66.8662 67.2541C67.4412 66.7707 67.8265 66.0994 67.9538 65.3591C68.0811 64.6188 67.9421 63.8573 67.5616 63.2096C67.1811 62.562 66.5836 62.0699 65.875 61.8207ZM63.75 54.1874H44.625V56.3124H63.75V61.6249H10.968C9.6999 61.6249 8.48377 61.1211 7.58711 60.2245C6.69045 59.3278 6.18672 58.1117 6.18672 56.8436C6.18672 55.5756 6.69045 54.3594 7.58711 53.4628C8.48377 52.5661 9.6999 52.0624 10.968 52.0624H63.75V54.1874ZM55.25 41.4374H12.75C12.1864 41.4374 11.6459 41.2135 11.2474 40.815C10.8489 40.4165 10.625 39.876 10.625 39.3124C10.625 38.7488 10.8489 38.2083 11.2474 37.8098C11.6459 37.4113 12.1864 37.1874 12.75 37.1874H25.474C28.2553 37.9232 31.1231 38.2806 34 38.2499C36.8769 38.2806 39.7447 37.9233 42.526 37.1874H52.2248L51.8705 39.3124H55.25V41.4374ZM50.4146 32.9374H52.9337L52.5795 35.0624H47.6651C48.6732 34.4812 49.5981 33.7664 50.4146 32.9374ZM58.2452 37.1874H54.3795L55.7175 29.1585C56.1101 29.2386 56.5149 29.2386 56.9075 29.1585L58.2452 37.1874ZM57.9062 25.4999C57.9062 25.8151 57.8128 26.1232 57.6377 26.3853C57.4625 26.6474 57.2136 26.8517 56.9224 26.9723C56.6312 27.0929 56.3107 27.1245 56.0016 27.063C55.6924 27.0015 55.4084 26.8497 55.1855 26.6268C54.9627 26.4039 54.8109 26.12 54.7494 25.8108C54.6879 25.5017 54.7194 25.1812 54.8401 24.89C54.9607 24.5988 55.165 24.3499 55.4271 24.1747C55.6891 23.9996 55.9973 23.9061 56.3125 23.9061C56.735 23.9066 57.1401 24.0747 57.4389 24.3735C57.7377 24.6722 57.9058 25.0773 57.9062 25.4999ZM55.25 18.7955V21.9551C54.6285 22.1371 54.0658 22.4793 53.6182 22.9474C53.1706 23.4155 52.8539 23.993 52.6999 24.622C52.5458 25.2511 52.5598 25.9095 52.7404 26.5315C52.921 27.1534 53.2619 27.7169 53.7289 28.1656L53.2876 30.8124H51V17.7193L51.6957 17.4409L55.25 18.7955ZM34 3.26931L57.7018 12.7499L51.6774 15.1595L34.3782 8.56938L33.6217 10.5554L48.7652 16.3248L34 22.2305L10.2982 12.7499L34 3.26931ZM34 24.5193L48.875 18.5693V31.4723C47.923 32.4593 43.7275 36.1249 34 36.1249C24.2622 36.1249 20.0682 32.4508 19.125 31.4734V18.5693L34 24.5193ZM6.37499 39.3124C6.37685 37.6222 7.04909 36.0018 8.24424 34.8066C9.43938 33.6115 11.0598 32.9392 12.75 32.9374H17.5854C18.4019 33.7664 19.3268 34.4812 20.3349 35.0624H12.75C11.6228 35.0624 10.5418 35.5102 9.74479 36.3072C8.94776 37.1042 8.49999 38.1852 8.49999 39.3124C8.49999 40.4396 8.94776 41.5206 9.74479 42.3176C10.5418 43.1146 11.6228 43.5624 12.75 43.5624H56.3125C56.5943 43.5624 56.8645 43.6743 57.0638 43.8736C57.2631 44.0728 57.375 44.3431 57.375 44.6249C57.375 44.9067 57.2631 45.1769 57.0638 45.3762C56.8645 45.5754 56.5943 45.6874 56.3125 45.6874H12.75C11.0598 45.6855 9.43938 45.0133 8.24424 43.8181C7.04909 42.623 6.37685 41.0026 6.37499 39.3124ZM64.8125 65.8749H11.1562C8.761 65.8749 6.46387 64.9234 4.77018 63.2297C3.07649 61.536 2.12499 59.2389 2.12499 56.8436C2.12499 54.4484 3.07649 52.1513 4.77018 50.4576C6.46387 48.7639 8.761 47.8124 11.1562 47.8124H64.8125C65.0943 47.8124 65.3645 47.9243 65.5638 48.1236C65.7631 48.3228 65.875 48.5931 65.875 48.8749C65.875 49.1567 65.7631 49.4269 65.5638 49.6262C65.3645 49.8254 65.0943 49.9374 64.8125 49.9374H10.968C9.13631 49.9374 7.37968 50.665 6.08451 51.9602C4.78934 53.2554 4.06172 55.012 4.06172 56.8436C4.06172 58.6753 4.78934 60.4319 6.08451 61.7271C7.37968 63.0223 9.13631 63.7499 10.968 63.7499H64.8125C65.0943 63.7499 65.3645 63.8618 65.5638 64.0611C65.7631 64.2603 65.875 64.5306 65.875 64.8124C65.875 65.0942 65.7631 65.3644 65.5638 65.5637C65.3645 65.7629 65.0943 65.8749 64.8125 65.8749Z" fill="#F57005"/>
<path d="M40.375 57.375H10.625V59.5H40.375V57.375Z" fill="#F57005"/>
</g>
<defs>
<clipPath id="clip0_759_7018">
<rect width="68" height="68" fill="white"/>
</clipPath>
</defs>
</svg>
