<svg width="71" height="70" viewBox="0 0 71 70" fill="none" xmlns="http://www.w3.org/2000/svg">
<path d="M65.7272 21.4241H50.6666C50.5605 21.4241 50.5605 21.4241 50.5605 21.4241C50.0302 21.4241 49.4999 21.5301 49.0757 21.7423C48.8636 21.8483 48.3333 22.0604 43.1363 28.5301V12.7271C43.1363 12.0907 42.7121 11.6665 42.0757 11.6665H2.62115C1.98479 11.6665 1.56055 12.0907 1.56055 12.7271V41.8938C1.56055 42.5301 1.98479 42.9544 2.62115 42.9544H20.7575L9.62115 58.6514C9.30297 59.1817 9.40903 59.818 9.83327 60.1362C10.3636 60.4544 10.9999 60.3483 11.3181 59.9241L21.7121 45.1817V55.3635C21.7121 55.9998 22.1363 56.4241 22.7727 56.4241C23.409 56.4241 23.8333 55.9998 23.8333 55.3635V45.1817L34.1212 59.9241C34.4393 60.4544 35.0757 60.5604 35.606 60.1362C36.1363 59.818 36.2424 59.1817 35.8181 58.6514L24.7878 42.8483H41.9696C42.606 42.8483 43.0302 42.4241 43.0302 41.7877V38.712C43.6666 38.4998 44.303 38.1817 44.7272 37.7574L47.4848 34.7877V60.4544C47.4848 62.3635 48.9696 64.0604 50.7727 64.2726C52.9999 64.4847 54.803 62.7877 54.803 60.6665V46.4544C54.803 45.9241 55.2272 45.3938 55.8636 45.3938C56.3939 45.3938 56.9242 45.818 56.9242 46.4544V60.4544C56.9242 62.3635 58.409 64.0604 60.2121 64.2726H60.6363C62.6515 64.2726 64.3484 62.5756 64.3484 60.5604V40.9392C64.7727 41.1514 65.303 41.2574 65.9393 41.2574C67.9545 41.2574 69.6515 39.5604 69.6515 37.5453V25.1362C69.4393 23.015 67.7424 21.4241 65.7272 21.4241ZM3.68176 40.7271V13.7877H40.909V26.7271L39.4242 24.4998C38.4696 23.1211 36.7727 22.4847 35.2878 23.015L32.6363 19.0907C32.3181 18.5604 31.6818 18.4544 31.1515 18.8786C30.6212 19.1968 30.5151 19.8332 30.9393 20.3635L33.6969 24.1817C32.6363 25.4544 32.6363 27.2574 33.3787 28.5301L38.9999 37.3332C39.4242 38.0756 40.1666 38.6059 40.909 38.818V40.8332H3.68176V40.7271ZM67.3181 37.6514C67.3181 38.4998 66.5757 39.2423 65.7272 39.2423C64.8787 39.2423 64.1363 38.4998 64.1363 37.6514V26.7271C64.1363 26.0907 63.7121 25.6665 63.0757 25.6665C62.4393 25.6665 62.0151 26.0907 62.0151 26.7271V37.5453V60.4544C62.0151 61.4089 61.2727 62.0453 60.3181 62.0453C59.5757 61.9392 58.9393 61.1968 58.9393 60.3483V46.4544C58.9393 44.7574 57.5605 43.2726 55.7575 43.2726C54.0605 43.2726 52.5757 44.6514 52.5757 46.4544V60.5604C52.5757 61.515 51.8333 62.1514 50.8787 62.1514C50.1363 62.0453 49.4999 61.3029 49.4999 60.4544V32.1362C49.4999 31.712 49.1818 31.2877 48.8636 31.1817C48.4393 31.0756 48.0151 31.0756 47.6969 31.3938L43.1363 36.2726C42.4999 37.015 41.2272 36.9089 40.6969 36.0604L35.0757 27.2574C34.0151 25.5604 36.5605 23.8635 37.7272 25.5604L41.5454 31.4998C41.9696 32.1362 42.8181 32.1362 43.2424 31.6059C45.9999 28.1059 49.1818 24.1817 49.9242 23.5453C50.1363 23.4392 50.3484 23.4392 50.5605 23.4392H50.6666H65.7272C66.5757 23.4392 67.3181 24.1817 67.3181 25.0301V37.6514Z" fill="#F57005"/>
<path d="M55.6512 19.409C59.3633 19.409 62.439 16.3333 62.439 12.6211C62.439 8.90901 59.3633 5.83325 55.6512 5.83325C51.939 5.83325 48.8633 8.90901 48.8633 12.6211C48.8633 16.3333 51.939 19.409 55.6512 19.409ZM55.6512 7.8484C58.1966 7.8484 60.3178 9.96962 60.3178 12.5151C60.3178 15.0605 58.1966 17.1817 55.6512 17.1817C53.1057 17.1817 50.9845 15.0605 50.9845 12.5151C50.9845 9.96962 53.1057 7.8484 55.6512 7.8484Z" fill="#F57005"/>
<path d="M8.13678 19.3031H21.7125C22.3489 19.3031 22.7731 18.8789 22.7731 18.2425C22.7731 17.6061 22.3489 17.1819 21.7125 17.1819H8.13678C7.50041 17.1819 7.07617 17.6061 7.07617 18.2425C7.07617 18.8789 7.50041 19.3031 8.13678 19.3031Z" fill="#F57005"/>
<path d="M8.13678 25.3485H27.0156C27.6519 25.3485 28.0762 24.9243 28.0762 24.2879C28.0762 23.6515 27.6519 23.2273 27.0156 23.2273H8.13678C7.50041 23.2273 7.07617 23.6515 7.07617 24.2879C7.07617 24.8182 7.50041 25.3485 8.13678 25.3485Z" fill="#F57005"/>
<path d="M8.13678 31.288H29.1368C29.7731 31.288 30.1974 30.8637 30.1974 30.2274C30.1974 29.591 29.7731 29.1667 29.1368 29.1667H8.13678C7.50041 29.1667 7.07617 29.591 7.07617 30.2274C7.07617 30.8637 7.50041 31.288 8.13678 31.288Z" fill="#F57005"/>
<path d="M31.258 35.1062H8.13678C7.50041 35.1062 7.07617 35.5304 7.07617 36.1668C7.07617 36.8032 7.50041 37.2274 8.13678 37.2274H31.258C31.8944 37.2274 32.3186 36.8032 32.3186 36.1668C32.3186 35.6365 31.8944 35.1062 31.258 35.1062Z" fill="#F57005"/>
<path d="M55.6524 33.7273C55.016 33.7273 54.5918 34.1515 54.5918 34.7879V36.9091C54.5918 37.5455 55.016 37.9697 55.6524 37.9697C56.2888 37.9697 56.713 37.5455 56.713 36.9091V34.7879C56.713 34.1515 56.2888 33.7273 55.6524 33.7273Z" fill="#F57005"/>
<path d="M55.6524 27.3635C55.016 27.3635 54.5918 27.7878 54.5918 28.4241V30.5453C54.5918 31.1817 55.016 31.6059 55.6524 31.6059C56.2888 31.6059 56.713 31.1817 56.713 30.5453V28.4241C56.713 27.7878 56.2888 27.3635 55.6524 27.3635Z" fill="#F57005"/>
</svg>
