<svg width="68" height="68" viewBox="0 0 68 68" fill="none" xmlns="http://www.w3.org/2000/svg">
<g clip-path="url(#clip0_1102_35324)">
<path d="M33.9986 9.06714C34.6245 9.06714 35.132 8.55966 35.132 7.93375V1.13339C35.132 0.507476 34.6245 0 33.9986 0C33.3727 0 32.8652 0.507476 32.8652 1.13339V7.93375C32.8652 8.55966 33.3726 9.06714 33.9986 9.06714Z" fill="#F57005"/>
<path d="M17.1502 5.94689L20.5504 11.8405C20.8598 12.3847 21.5518 12.575 22.0959 12.2656C22.6401 11.9561 22.8304 11.2642 22.521 10.72C22.5186 10.7156 22.516 10.7114 22.5135 10.707L19.1133 4.81336C18.8039 4.26919 18.1119 4.07892 17.5678 4.38834C17.0236 4.69775 16.8333 5.38969 17.1427 5.93386C17.1451 5.93825 17.1477 5.94264 17.1502 5.94689Z" fill="#F57005"/>
<path d="M5.94916 17.9825L11.8428 21.3827C12.387 21.6921 13.0789 21.5018 13.3883 20.9576C13.6948 20.4186 13.5112 19.7333 12.9762 19.4196L7.08255 16.0194C6.53838 15.71 5.84645 15.9003 5.53703 16.4445C5.23045 16.9835 5.41406 17.6688 5.94916 17.9825Z" fill="#F57005"/>
<path d="M10.198 32.8685C10.198 32.2426 9.69052 31.7351 9.06461 31.7351H2.26425C1.63834 31.7351 1.13086 32.2426 1.13086 32.8685C1.13086 33.4944 1.63834 34.0019 2.26425 34.0019H9.06461C9.69052 34.0019 10.198 33.4944 10.198 32.8685Z" fill="#F57005"/>
<path d="M11.8512 44.3465C11.8468 44.349 11.8424 44.3516 11.838 44.3541L5.94437 47.7543C5.4002 48.0636 5.20979 48.7555 5.51906 49.2997C5.82834 49.8438 6.52027 50.0342 7.06444 49.725C7.06884 49.7224 7.07323 49.7199 7.07762 49.7173L12.9713 46.3171C13.5154 46.0079 13.7058 45.3159 13.3966 44.7718C13.0873 44.2276 12.3954 44.0372 11.8512 44.3465Z" fill="#F57005"/>
<path d="M62.0495 47.7543L56.1559 44.3541C55.616 44.0375 54.9215 44.2185 54.6049 44.7585C54.2882 45.2984 54.4693 45.9929 55.0092 46.3095C55.0136 46.3121 55.018 46.3146 55.0224 46.3172L60.916 49.7173C61.4602 50.0266 62.1521 49.8362 62.4614 49.292C62.7678 48.7531 62.5844 48.068 62.0495 47.7543Z" fill="#F57005"/>
<path d="M65.7345 31.7351H58.9342C58.3083 31.7351 57.8008 32.2426 57.8008 32.8685C57.8008 33.4944 58.3083 34.0019 58.9342 34.0019H65.7345C66.3604 34.0019 66.8679 33.4944 66.8679 32.8685C66.8679 32.2426 66.3604 31.7351 65.7345 31.7351Z" fill="#F57005"/>
<path d="M55.5945 21.5344C55.7934 21.5344 55.9889 21.482 56.1612 21.3826L62.0548 17.9824C62.5949 17.6659 62.7759 16.9714 62.4594 16.4315C62.1458 15.8965 61.4605 15.7129 60.9214 16.0194L55.0278 19.4195C54.4857 19.7325 54.3 20.4257 54.613 20.9678C54.8154 21.3184 55.1896 21.5344 55.5945 21.5344Z" fill="#F57005"/>
<path d="M45.899 12.2554C46.441 12.5683 47.1342 12.3826 47.4472 11.8406L50.8474 5.94692C51.164 5.407 50.9829 4.71252 50.443 4.39587C49.9031 4.07923 49.2086 4.26029 48.892 4.80021C48.8894 4.8046 48.8869 4.809 48.8843 4.81339L45.4841 10.707C45.171 11.2492 45.3568 11.9424 45.899 12.2554Z" fill="#F57005"/>
<path d="M33.9989 15.8674C24.614 15.8781 17.0087 23.4834 16.998 32.8683C16.998 33.4942 17.5055 34.0017 18.1314 34.0017C18.7574 34.0017 19.2648 33.4942 19.2648 32.8683C19.2742 24.7348 25.8654 18.1436 33.9989 18.1342C34.6248 18.1342 35.1323 17.6267 35.1323 17.0008C35.1323 16.3749 34.6248 15.8674 33.9989 15.8674Z" fill="#F57005"/>
<path d="M54.7403 38.6418V38.6361C54.7766 38.5228 54.8094 38.4004 54.8378 38.2893C54.8786 38.1329 54.9126 37.9753 54.9511 37.8178C54.9896 37.6603 55.0259 37.5027 55.0474 37.3769C57.5603 25.7523 50.1739 14.2916 38.5492 11.7785C26.9246 9.26553 15.4639 16.6521 12.9508 28.2768C12.6247 29.7855 12.4618 31.3247 12.4648 32.8683C12.4648 33.3726 12.4863 33.8736 12.5214 34.3712C12.5396 34.6466 12.5668 34.9265 12.6008 35.2201C12.6642 35.7981 12.7458 36.3716 12.8558 36.9394C12.8648 36.9859 12.8683 37.0335 12.8807 37.08C12.9306 37.3395 12.9941 37.5911 13.0541 37.8427C13.0893 37.989 13.1233 38.1352 13.1607 38.2802C13.1777 38.3414 13.1867 38.3936 13.206 38.4638C13.2513 38.6327 13.3046 38.7925 13.3545 38.958C13.4077 39.1416 13.4587 39.3252 13.5177 39.5066L13.5245 39.5281C13.6265 39.8579 13.7421 40.1787 13.8815 40.5357C13.9076 40.6048 13.9348 40.6728 13.962 40.7408C13.9869 40.8253 14.0196 40.9072 14.0594 40.9856L14.0651 40.9992C14.141 41.201 14.2295 41.4016 14.3179 41.5897L14.3326 41.6181C14.3893 41.7461 14.4459 41.8731 14.5071 42.0012C14.5355 42.0646 14.5627 42.1349 14.591 42.1927C14.8946 42.8325 15.2329 43.4553 15.6043 44.0583L15.7097 44.226C15.7777 44.3393 15.8468 44.4527 15.9159 44.549L16.0553 44.7564C16.1234 44.8562 16.1936 44.957 16.2628 45.0568C16.3126 45.1293 16.3591 45.2019 16.4101 45.2733C16.435 45.3141 16.4588 45.3537 16.4906 45.3968C16.5144 45.4285 16.5404 45.4603 16.5654 45.492C16.6096 45.5532 16.6549 45.6053 16.6991 45.6654C16.885 45.917 17.0731 46.1664 17.2658 46.4101L17.2794 46.4282C17.3157 46.4713 17.3531 46.5121 17.3928 46.5551C17.6194 46.8294 17.8461 47.1014 18.0898 47.3655H18.0955C18.2972 47.5922 18.5114 47.8053 18.7245 48.0206C18.7925 48.0875 18.8548 48.1589 18.9228 48.2257C18.9523 48.2541 18.9784 48.2858 19.0078 48.3142C19.3139 48.6088 19.6312 48.8911 19.9452 49.1699C20.5402 49.6915 21.1678 50.1745 21.8243 50.6161C21.9419 50.7488 22.0891 50.8521 22.2539 50.9176L22.697 54.218C22.681 54.2785 22.6704 54.3404 22.6653 54.4027C22.6684 54.577 22.7122 54.7483 22.7934 54.9026L23.6275 61.1045C23.6413 61.2113 23.6706 61.3156 23.7148 61.4139C23.9547 61.9561 24.2437 62.475 24.5785 62.9644V62.9723L24.5875 62.9825C28.0704 68.176 35.1041 69.5629 40.2976 66.0799C41.5218 65.2589 42.574 64.2067 43.395 62.9825L43.4041 62.9723L43.4098 62.9644C43.7445 62.475 44.0336 61.9561 44.2734 61.4139C44.3176 61.3156 44.3469 61.2113 44.3607 61.1045L45.731 50.9164C45.8103 50.8899 45.8862 50.8545 45.9576 50.811C50.2342 47.9452 53.3435 43.6433 54.7233 38.6837C54.7335 38.6701 54.7403 38.6565 54.7403 38.6418ZM28.0126 63.4699H39.9858C36.5669 66.4922 31.4314 66.4922 28.0126 63.4699ZM42.146 60.6364C42.0565 60.8291 41.9579 61.0184 41.8525 61.2031H26.1458C26.0404 61.0195 25.9418 60.8302 25.8523 60.6364L25.1665 55.5361H42.8316L42.146 60.6364ZM43.1344 53.283C43.1106 53.2818 43.0902 53.2693 43.0664 53.2693H24.8618L24.5569 51.0026H43.4415L43.1344 53.283ZM31.7324 48.7358V38.1227L33.3294 39.2731C33.7251 39.5581 34.2586 39.5581 34.6543 39.2731L36.266 38.1125V48.7358H31.7324ZM53.2238 34.115C53.2023 34.4641 53.1705 34.8019 53.1286 35.1419V35.1679C53.1147 35.2298 53.1052 35.2928 53.1003 35.3561V35.3787C53.0935 35.4128 53.0889 35.4468 53.0844 35.483C53.0799 35.5193 53.0776 35.5397 53.0742 35.5703C53.0742 35.6032 53.0651 35.6349 53.0606 35.6678C53.0357 35.8434 53.0096 36.018 52.979 36.1925C52.9643 36.2719 52.9529 36.3455 52.9337 36.4351C52.9155 36.5552 52.8872 36.6844 52.8453 36.8771V36.8975C52.8169 37.0335 52.7875 37.1695 52.7557 37.3044C52.7444 37.3497 52.7365 37.3883 52.7229 37.4393C52.6847 37.6256 52.637 37.8097 52.5801 37.9912C52.5585 38.0717 52.5347 38.1522 52.5121 38.2326C52.4565 38.4378 52.3987 38.6384 52.3216 38.8571C52.2287 39.1473 52.1369 39.4374 52.0236 39.7151L51.9794 39.8284C51.9264 39.9758 51.8659 40.1203 51.798 40.2614C51.7732 40.3103 51.7524 40.3611 51.7357 40.4133L51.713 40.4643C51.6121 40.7182 51.4999 40.9607 51.3549 41.2577C51.2733 41.4413 51.1826 41.6147 51.0919 41.7881L50.9548 42.059C49.5005 44.7393 47.4289 47.035 44.9115 48.7562C44.8526 48.7443 44.7927 48.7375 44.7324 48.7358H38.5328V39.2085L38.6235 39.2731C39.0186 39.557 39.551 39.557 39.9461 39.2731L42.5937 37.3713C43.1121 37.0203 43.248 36.3158 42.8971 35.7974C42.5461 35.279 41.8416 35.1431 41.3232 35.4941C41.3059 35.5058 41.2889 35.518 41.2722 35.5306L39.2842 36.9576L37.2974 35.5306C36.902 35.2461 36.369 35.2461 35.9736 35.5306L33.9924 36.9564L32.0112 35.5306C31.6155 35.2456 31.082 35.2456 30.6863 35.5306L28.7063 36.9564L26.7285 35.5306C26.2206 35.1644 25.5119 35.2794 25.1457 35.7873C24.7795 36.2952 24.8945 37.0039 25.4024 37.3701L28.0432 39.2731C28.4389 39.5581 28.9725 39.5581 29.3682 39.2731L29.4656 39.2028V48.7358H23.266C23.2178 48.7363 23.1698 48.7397 23.1221 48.746C21.8983 47.9081 20.7745 46.9327 19.7729 45.8388C19.5564 45.6031 19.3467 45.3537 19.1359 45.0987C19.0974 45.0522 19.0554 45.0069 19.0169 44.9593C18.8254 44.7326 18.6497 44.4924 18.4751 44.2498C18.4083 44.1591 18.3369 44.0719 18.2723 43.9801V43.9733C18.2632 43.9597 18.2553 43.9472 18.2462 43.9359L18.2088 43.8803C18.1793 43.8418 18.1555 43.8021 18.1272 43.767C17.8631 43.3839 17.6172 42.9895 17.3814 42.5894C17.1547 42.2086 16.9496 41.8266 16.7592 41.4379C16.6832 41.2871 16.605 41.1375 16.5325 40.9845C16.511 40.9312 16.4849 40.8712 16.4713 40.8383L16.4158 40.725L16.4022 40.6978V40.6921C16.1255 40.0751 15.8822 39.4437 15.6734 38.8005C15.653 38.7393 15.6337 38.6747 15.6133 38.6123C15.5102 38.2825 15.4138 37.9493 15.3277 37.6115C15.3277 37.5934 15.3175 37.5764 15.3141 37.5583C15.3073 37.5129 15.2982 37.4679 15.2869 37.4234C15.2665 37.3463 15.2518 37.2658 15.2336 37.1888C15.1792 36.953 15.1203 36.7184 15.0772 36.4804C15.0772 36.4543 15.0716 36.4283 15.067 36.4022C15.007 36.0928 14.9537 35.772 14.9152 35.4513C14.9143 35.3809 14.9052 35.3109 14.888 35.2427C14.888 35.2189 14.88 35.1804 14.8732 35.1407C14.8313 34.8007 14.8007 34.4698 14.778 34.1037C14.7417 33.6923 14.7315 33.2797 14.7315 32.8683C14.7434 22.232 23.3629 13.6125 33.9992 13.6006C44.6355 13.6125 53.255 22.232 53.2669 32.8683C53.2669 33.2797 53.2567 33.6923 53.2238 34.115Z" fill="#F57005"/>
</g>
<defs>
<clipPath id="clip0_1102_35324">
<rect width="68" height="68" fill="white"/>
</clipPath>
</defs>
</svg>
