<svg width="60" height="60" viewBox="0 0 60 60" fill="none" xmlns="http://www.w3.org/2000/svg">
<path fill-rule="evenodd" clip-rule="evenodd" d="M56.1866 48.7441H3.82263C1.89885 48.7441 0.337891 47.1832 0.337891 45.2678V8.20129C0.337891 6.27751 1.89885 4.72499 3.82263 4.72499H18.5547C19.0104 4.72499 19.3732 5.08781 19.3732 5.54344C19.3732 5.99907 19.0104 6.36189 18.5547 6.36189H3.82263C2.81012 6.36189 1.98323 7.18034 1.98323 8.20129V45.2678C1.98323 46.2719 2.80168 47.1072 3.82263 47.1072H56.1866C57.1907 47.1072 58.0175 46.2803 58.0175 45.2678V8.20129C58.0175 7.18878 57.1991 6.36189 56.1866 6.36189H41.446C40.9904 6.36189 40.6276 5.99907 40.6276 5.54344C40.6276 5.08781 40.9904 4.71655 41.446 4.71655L56.1866 4.72499C58.1019 4.72499 59.6629 6.27751 59.6629 8.20129V45.2678C59.6629 47.1832 58.1019 48.7441 56.1866 48.7441Z" fill="#F57005"/>
<path fill-rule="evenodd" clip-rule="evenodd" d="M58.8444 40.1292H1.15634C0.700709 40.1292 0.337891 39.7664 0.337891 39.3108C0.337891 38.8551 0.700709 38.4923 1.15634 38.4923H58.8444C59.3001 38.4923 59.6629 38.8551 59.6629 39.3108C59.6629 39.7664 59.2832 40.1292 58.8444 40.1292Z" fill="#F57005"/>
<path fill-rule="evenodd" clip-rule="evenodd" d="M43.1589 59.9914H16.8419C16.3863 59.9914 16.0234 59.6286 16.0234 59.1729V56.6501C16.0234 56.3379 16.2091 56.0426 16.4959 55.916C17.9725 55.2325 19.601 53.6631 20.8666 51.7309C21.7273 50.4062 22.3601 49.0224 22.706 47.7231C22.8157 47.2927 23.2629 47.0227 23.7017 47.1409C24.132 47.259 24.402 47.6977 24.2839 48.1365C23.8957 49.5962 23.1954 51.1572 22.2251 52.6338C20.9004 54.6504 19.2551 56.2788 17.6435 57.1648V58.346H42.2982V57.1563C40.6866 56.2619 39.0413 54.6335 37.7166 52.6169C36.7631 51.1487 36.0459 49.5962 35.6578 48.1196C35.5397 47.6893 35.8097 47.2337 36.2484 47.124C36.6788 47.0059 37.1344 47.2759 37.2441 47.7146C37.5816 49.014 38.2144 50.3978 39.0835 51.7225C40.3407 53.6547 41.986 55.2241 43.4457 55.8991C43.7411 56.0257 43.9182 56.321 43.9182 56.6416V59.1729C43.9773 59.6286 43.5976 59.9914 43.1589 59.9914Z" fill="#F57005"/>
<path fill-rule="evenodd" clip-rule="evenodd" d="M32.435 44.4323H27.5665C27.1109 44.4323 26.748 44.0695 26.748 43.6139C26.748 43.1582 27.1109 42.7954 27.5665 42.7954H32.435C32.8906 42.7954 33.2619 43.1582 33.2619 43.6139C33.2619 44.0695 32.8906 44.4323 32.435 44.4323Z" fill="#F57005"/>
<path fill-rule="evenodd" clip-rule="evenodd" d="M30.0053 30.35C28.2249 30.35 26.6049 28.8734 25.4574 26.2071C24.4027 23.7433 23.8205 20.5117 23.8205 17.0776C23.8205 13.6435 24.4027 10.4034 25.4574 7.93963C26.6049 5.27334 28.2249 3.79675 30.0053 3.79675C31.7856 3.79675 33.3972 5.27334 34.5447 7.93963C35.5994 10.3865 36.1901 13.635 36.1901 17.0776C36.1901 20.5117 35.5994 23.7602 34.5447 26.2071C33.3972 28.8734 31.7856 30.35 30.0053 30.35ZM30.0053 5.43365C27.8537 5.43365 25.4574 10.2178 25.4574 17.0691C25.4574 23.9205 27.8537 28.7131 30.0053 28.7131C32.1484 28.7131 34.5447 23.9289 34.5447 17.0776C34.5447 10.2262 32.1484 5.43365 30.0053 5.43365Z" fill="#F57005"/>
<path fill-rule="evenodd" clip-rule="evenodd" d="M22.9597 25.667C20.8081 25.667 19.2471 25.0005 18.513 23.7179C17.6186 22.1739 18.0911 20.0391 19.8293 17.7103C21.424 15.5672 23.9469 13.4493 26.9169 11.7281C29.8954 10.0068 33.0004 8.89302 35.6499 8.57239C38.544 8.23489 40.6112 8.90146 41.514 10.4455C42.4084 11.9981 41.9359 14.1244 40.1893 16.4616C38.603 18.6047 36.0802 20.7226 33.1017 22.4439C30.1316 24.1567 27.0266 25.2789 24.3772 25.5827C23.8709 25.6333 23.4068 25.667 22.9597 25.667ZM37.0505 10.1249C36.6708 10.1249 36.2574 10.1418 35.827 10.2009C33.3886 10.4877 30.5198 11.5256 27.7269 13.1456C21.7868 16.5797 18.8505 21.0348 19.9305 22.8995C21.0021 24.7642 26.3347 24.4436 32.2748 21.0263C38.2149 17.5922 41.1512 13.1287 40.0796 11.2724C39.6577 10.5215 38.5777 10.1249 37.0505 10.1249Z" fill="#F57005"/>
<path fill-rule="evenodd" clip-rule="evenodd" d="M37.0416 25.6672C36.5944 25.6672 36.1303 25.6418 35.6325 25.5828C32.9915 25.2706 29.8865 24.1568 26.908 22.444C23.9295 20.7227 21.4151 18.6049 19.8204 16.4617C18.0907 14.1245 17.6182 11.9982 18.4957 10.4457C19.3901 8.90158 21.4741 8.23501 24.3683 8.57251C27.0177 8.89314 30.1143 10.0069 33.0928 11.7282C36.0712 13.4495 38.5857 15.5673 40.1804 17.7105C41.9185 20.0393 42.3826 22.174 41.5051 23.7181C40.7541 24.9837 39.1932 25.6672 37.0416 25.6672ZM22.9507 10.125C21.4235 10.125 20.3519 10.5216 19.9301 11.2557C18.8585 13.1204 21.8032 17.5839 27.7264 21.018C33.6665 24.4353 38.9991 24.7559 40.0791 22.8912C41.1423 21.0265 38.1975 16.5629 32.2743 13.1457C29.4815 11.5426 26.6127 10.4879 24.1826 10.201C23.7439 10.1419 23.322 10.125 22.9507 10.125Z" fill="#F57005"/>
<path fill-rule="evenodd" clip-rule="evenodd" d="M30.0037 19.7523C28.5271 19.7523 27.3205 18.5542 27.3205 17.0776C27.3205 15.601 28.5271 14.3944 30.0037 14.3944C31.4718 14.3944 32.6784 15.601 32.6784 17.0776C32.6784 18.5457 31.4718 19.7523 30.0037 19.7523ZM30.0037 16.0229C29.4299 16.0229 28.9574 16.4954 28.9574 17.0691C28.9574 17.6429 29.4299 18.0985 30.0037 18.0985C30.5774 18.0985 31.0415 17.626 31.0415 17.0691C31.0415 16.4954 30.5774 16.0229 30.0037 16.0229Z" fill="#F57005"/>
<path fill-rule="evenodd" clip-rule="evenodd" d="M30.0049 34.1385C20.5969 34.1385 12.9355 26.4856 12.9355 17.0776C12.9355 7.66123 20.5969 0.00830078 30.0049 0.00830078C39.4044 0.00830078 47.0658 7.66967 47.0658 17.0776C47.0658 26.4772 39.4044 34.1385 30.0049 34.1385ZM30.0049 1.65364C21.4997 1.65364 14.5724 8.5725 14.5724 17.0776C14.5724 25.5828 21.4997 32.4932 30.0049 32.4932C38.5016 32.4932 45.4289 25.5828 45.4289 17.0776C45.4289 8.56406 38.5016 1.65364 30.0049 1.65364Z" fill="#F57005"/>
<path fill-rule="evenodd" clip-rule="evenodd" d="M5.72861 34.3915C5.27297 34.3915 4.91016 34.0287 4.91016 33.5731V12.8165C4.91016 12.3609 5.27297 11.998 5.72861 11.998C6.18424 11.998 6.54706 12.3609 6.54706 12.8165V33.5731C6.54706 34.0287 6.1758 34.3915 5.72861 34.3915Z" fill="#F57005"/>
<path fill-rule="evenodd" clip-rule="evenodd" d="M54.2716 34.3915C53.8159 34.3915 53.4531 34.0287 53.4531 33.5731V12.8165C53.4531 12.3609 53.8159 11.998 54.2716 11.998C54.7272 11.998 55.09 12.3609 55.09 12.8165V33.5731C55.09 34.0287 54.7272 34.3915 54.2716 34.3915Z" fill="#F57005"/>
</svg>
