<svg width="68" height="68" viewBox="0 0 68 68" fill="none" xmlns="http://www.w3.org/2000/svg">
<path d="M14.3055 39.1C13.1899 38.5613 11.9446 38.25 10.625 38.25C5.93831 38.25 2.125 42.0633 2.125 46.75C2.125 51.4367 5.93831 55.25 10.625 55.25C13.566 55.25 16.1617 53.7476 17.6885 51.4707L25.7178 55.4901C25.5797 56.0968 25.5 56.7269 25.5 57.375C25.5 62.0617 29.3133 65.875 34 65.875C38.6867 65.875 42.5 62.0617 42.5 57.375C42.5 55.6134 41.9613 53.9761 41.0391 52.6171L52.3218 40.8202C53.737 41.8699 55.4816 42.5 57.375 42.5C62.0617 42.5 65.875 38.6867 65.875 34C65.875 29.3133 62.0617 25.5 57.375 25.5C55.4136 25.5 53.6116 26.1736 52.1709 27.2935L40.7065 15.8291C41.8264 14.3884 42.5 12.5864 42.5 10.625C42.5 5.93831 38.6867 2.125 34 2.125C29.3133 2.125 25.5 5.93831 25.5 10.625C25.5 11.271 25.5786 11.8989 25.7168 12.5046L18.1815 15.2501C16.7684 12.5077 13.9156 10.625 10.625 10.625C5.93831 10.625 2.125 14.4383 2.125 19.125C2.125 23.8117 5.93831 27.625 10.625 27.625C11.8341 27.625 12.9827 27.3679 14.025 26.9099L17.9361 33.4921L14.3055 39.1ZM10.625 53.125C7.10919 53.125 4.25 50.2658 4.25 46.75C4.25 43.2342 7.10919 40.375 10.625 40.375C14.1408 40.375 17 43.2342 17 46.75C17 50.2658 14.1408 53.125 10.625 53.125ZM18.6352 49.5667C18.9465 48.6838 19.125 47.7381 19.125 46.75C19.125 44.1437 17.9435 41.8104 16.0916 40.2507L19.1473 35.5311L28.3602 51.034C27.5846 51.7246 26.9354 52.5513 26.4541 53.4809L18.6352 49.5667ZM34 19.125C35.9614 19.125 37.7634 18.4514 39.2041 17.3315L50.6696 28.7969C49.9821 29.6809 49.4679 30.702 49.1714 31.8134L42.4968 30.8954C42.4958 30.8677 42.5 30.8401 42.5 30.8125C42.5 26.1258 38.6867 22.3125 34 22.3125C31.059 22.3125 28.4622 23.8149 26.9365 26.0918L25.6689 25.4586L30.3206 18.275C31.4351 18.8137 32.6804 19.125 34 19.125ZM35.0625 48.9483V39.2381C38.5156 38.8046 41.3249 36.295 42.2046 32.9991L48.8793 33.9171C48.8793 33.9448 48.875 33.9724 48.875 34C48.875 36.0294 49.5911 37.8919 50.7822 39.355L39.6259 51.0202C38.3754 49.912 36.8018 49.1672 35.0625 48.9483ZM34 24.4375C37.5158 24.4375 40.375 27.2967 40.375 30.8125C40.375 34.3283 37.5158 37.1875 34 37.1875C30.4842 37.1875 27.625 34.3283 27.625 30.8125C27.625 27.2967 30.4842 24.4375 34 24.4375ZM25.9898 27.9958C25.6785 28.8788 25.5 29.8244 25.5 30.8125C25.5 35.139 28.7512 38.7132 32.9375 39.2392V48.9494C31.9303 49.0758 30.9793 49.3776 30.1134 49.8249L20.4361 33.5399L24.5066 27.2542L25.9898 27.9958ZM34 63.75C30.4842 63.75 27.625 60.8908 27.625 57.375C27.625 53.8592 30.4842 51 34 51C37.5158 51 40.375 53.8592 40.375 57.375C40.375 60.8908 37.5158 63.75 34 63.75ZM57.375 27.625C60.8908 27.625 63.75 30.4842 63.75 34C63.75 37.5158 60.8908 40.375 57.375 40.375C53.8592 40.375 51 37.5158 51 34C51 30.4842 53.8592 27.625 57.375 27.625ZM34 4.25C37.5158 4.25 40.375 7.10919 40.375 10.625C40.375 14.1408 37.5158 17 34 17C30.4842 17 27.625 14.1408 27.625 10.625C27.625 7.10919 30.4842 4.25 34 4.25ZM26.4435 14.4999C26.9631 15.5083 27.6739 16.3997 28.5334 17.1243L23.7564 24.5023L18.6352 21.9417C18.9465 21.0587 19.125 20.1131 19.125 19.125C19.125 18.479 19.0464 17.8511 18.9082 17.2454L26.4435 14.4999ZM4.25 19.125C4.25 15.6092 7.10919 12.75 10.625 12.75C14.1408 12.75 17 15.6092 17 19.125C17 22.6408 14.1408 25.5 10.625 25.5C7.10919 25.5 4.25 22.6408 4.25 19.125ZM15.8472 25.8177C16.5591 25.2609 17.1838 24.5979 17.6885 23.8457L22.5941 26.2979L19.2249 31.501L15.8472 25.8177Z" fill="#F57005"/>
</svg>
