<svg width="38" height="38" viewBox="0 0 38 38" fill="none" xmlns="http://www.w3.org/2000/svg">
<g clip-path="url(#clip0_759_7077)">
<path d="M5.83026 6.93066H19.8154C20.1229 6.93066 20.3721 6.68151 20.3721 6.37402C20.3721 6.06654 20.1229 5.81738 19.8154 5.81738H5.83026C5.52277 5.81738 5.27362 6.06654 5.27362 6.37402C5.27362 6.68151 5.52277 6.93066 5.83026 6.93066Z" fill="white"/>
<path d="M5.83026 10.7944H19.8154C20.1229 10.7944 20.3721 10.5453 20.3721 10.2378C20.3721 9.9303 20.1229 9.68115 19.8154 9.68115H5.83026C5.52277 9.68115 5.27362 9.9303 5.27362 10.2378C5.27362 10.5453 5.52277 10.7944 5.83026 10.7944Z" fill="white"/>
<path d="M13.3518 14.1025C13.3518 13.7951 13.1027 13.5459 12.7952 13.5459H5.83026C5.52277 13.5459 5.27362 13.7951 5.27362 14.1025C5.27362 14.41 5.52277 14.6592 5.83026 14.6592H12.7952C13.1027 14.6592 13.3518 14.41 13.3518 14.1025Z" fill="white"/>
<path d="M37.9984 29.2244L37.7629 20.7975C37.7626 20.7902 37.7623 20.7829 37.7618 20.7755C37.6555 19.2048 36.5047 17.8841 34.9635 17.5639L34.7036 17.5099V15.8007C34.7036 15.4932 34.4545 15.2441 34.147 15.2441C33.8395 15.2441 33.5904 15.4932 33.5904 15.8007V17.2786L31.4443 16.8327C31.2819 16.7989 31.1641 16.654 31.1641 16.4881V15.9216C31.6285 15.4945 32.6871 14.6534 32.7253 12.867C32.7254 12.8632 32.7255 12.8594 32.7255 12.8557L32.7272 11.2784C33.0454 11.4409 33.3491 11.5408 33.5904 11.602V13.5769C33.5904 13.8844 33.8395 14.1336 34.147 14.1336C34.4545 14.1336 34.7036 13.8844 34.7036 13.5769C34.7036 12.9582 34.7036 11.1016 34.7036 10.2078C34.7036 8.21313 33.6552 6.45971 32.0812 5.46651V3.65082H32.6793C33.4296 3.65082 34.0401 3.04037 34.0401 2.2901V1.44764C34.0401 0.697363 33.4296 0.0869141 32.6793 0.0869141H1.36073C0.610449 0.0869141 0 0.697289 0 1.44764V2.29017C0 3.04045 0.610449 3.6509 1.36073 3.6509H1.95886V23.1947H1.36073C0.610449 23.1947 0 23.8051 0 24.5554V25.3979C0 26.1482 0.610449 26.7586 1.36073 26.7586H22.4793V30.5887C22.4793 31.0515 22.607 31.4849 22.8284 31.8562C22.525 32.2365 22.3333 32.6948 22.2779 33.1874L21.8724 36.7905C21.8052 37.3878 22.273 37.9132 22.8759 37.9132H34.4221C35.0241 37.9132 35.4929 37.3886 35.4256 36.7904C34.9914 32.9994 34.9914 32.9994 34.9914 32.9994C35.7288 32.854 36.4038 32.4899 36.9405 31.938C37.6512 31.2071 38.0269 30.2434 37.9984 29.2244ZM31.2179 17.9226L33.0227 18.2975C32.6783 20.0751 30.8546 21.4085 28.649 21.4085C26.4433 21.4085 24.6197 20.0752 24.2753 18.2976L26.08 17.9226C26.6635 17.8014 27.108 17.3356 27.2194 16.7666C27.6325 17.0236 28.1098 17.2144 28.6603 17.2205H28.6665C28.6665 17.2205 28.6707 17.2205 28.6728 17.2205C29.2098 17.2145 29.6768 17.0327 30.0829 16.7854C30.2003 17.3458 30.6411 17.8028 31.2179 17.9226ZM23.7075 17.2786V11.9404C23.9966 12.0247 24.2948 12.0865 24.6013 12.126L24.6076 12.8669C24.6383 14.3015 25.3004 15.1232 26.1338 15.8893V16.4881C26.1338 16.6539 26.016 16.7988 25.8536 16.8326L23.7075 17.2786ZM31.6123 12.8486C31.5828 14.113 30.8735 14.6764 30.4036 15.1085C29.9252 15.5488 29.3301 16.0965 28.6665 16.1072C28.003 16.0964 27.4079 15.5488 26.9294 15.1084C26.4648 14.681 25.748 14.1218 25.7208 12.8504L25.7151 12.1743C27.6962 12.0954 29.7484 11.1809 31.3811 10.0695C31.4544 10.1854 31.5331 10.2923 31.615 10.3924L31.6123 12.8486ZM33.5904 10.2078V10.4414C33.0931 10.2644 32.4194 9.87666 32.1079 9.03933C31.9759 8.68434 31.5344 8.5618 31.2383 8.79893C31.1963 8.83263 27.1177 12.0499 23.7075 10.7706V10.2078C23.7075 7.73189 25.7218 5.71752 28.1977 5.71752H29.1001C31.5761 5.71759 33.5904 7.73196 33.5904 10.2078ZM1.36073 2.53754C1.22431 2.53754 1.11328 2.42651 1.11328 2.2901V1.44764C1.11328 1.31123 1.22431 1.2002 1.36073 1.2002H32.6794C32.8158 1.2002 32.9268 1.31123 32.9268 1.44764V2.29017C32.9268 2.42659 32.8158 2.53762 32.6794 2.53762L1.36073 2.53754ZM1.36073 25.6453C1.22431 25.6453 1.11328 25.5343 1.11328 25.3979V24.5554C1.11328 24.4189 1.22431 24.3079 1.36073 24.3079H4.4342C4.74169 24.3079 4.99084 24.0588 4.99084 23.7513C4.99084 23.4438 4.74169 23.1946 4.4342 23.1946H3.07214V3.65082H30.968V4.92561C30.3834 4.71824 29.755 4.60431 29.1002 4.60431H28.1978C25.108 4.60431 22.5943 7.11803 22.5943 10.2078V17.5099L22.3345 17.5639C20.7931 17.8841 19.6424 19.2047 19.5362 20.7755L19.4496 22.0528C19.4458 22.115 19.3764 22.1513 19.3214 22.1139L16.107 19.9078C15.9575 19.8054 15.7959 19.7268 15.6248 19.6719C15.4064 19.4019 15.1941 19.314 14.9342 19.1281C14.2157 18.6495 13.293 18.7106 12.6461 19.2139L9.02025 16.7167C8.76709 16.5423 8.42049 16.6062 8.24607 16.8594C8.07166 17.1125 8.13564 17.4591 8.3888 17.6336L11.9982 20.1194C11.8855 20.4447 11.8606 20.7954 11.9301 21.1419C12.0329 21.6545 12.3291 22.0964 12.7641 22.3862C13.1495 22.641 13.0878 22.605 13.1824 22.6611C13.2912 22.8649 13.4356 23.0451 13.6107 23.1947H6.63946C6.33197 23.1947 6.08282 23.4438 6.08282 23.7513C6.08282 24.0588 6.33197 24.308 6.63946 24.308H15.3121L17.3973 25.6454L1.36073 25.6453ZM14.7834 20.8772L14.3201 21.5728C14.1899 21.7684 13.9247 21.8215 13.7293 21.6912L13.3814 21.4596C13.1938 21.3346 13.0661 21.1441 13.0218 20.9231C12.9774 20.702 13.0218 20.477 13.1468 20.2894C13.3092 20.0455 13.5775 19.9135 13.8506 19.9135C14.0113 19.9135 14.1737 19.9592 14.3171 20.0547L14.6649 20.2864C14.7214 20.324 14.7657 20.3731 14.7974 20.4284C14.7992 20.4317 14.8012 20.4348 14.8032 20.438C14.8757 20.5723 14.8737 20.7415 14.7834 20.8772ZM22.9916 36.8L23.3841 33.3119C23.4102 33.0805 23.4894 32.8625 23.6128 32.6712C24.0015 32.9239 24.4647 33.0714 24.9618 33.0714H33.8654C33.8654 33.0714 33.8839 33.1175 34.3064 36.8H22.9916ZM36.1425 31.1619C35.7765 31.5382 35.3189 31.79 34.8187 31.898V24.5477C34.8187 24.2402 34.5695 23.9911 34.262 23.9911C33.9546 23.9911 33.7054 24.2402 33.7054 24.5477V31.9581H24.9618C24.2068 31.9581 23.5926 31.3438 23.5926 30.5888C23.5926 29.7291 23.5926 25.3132 23.5926 24.5477C23.5926 24.2402 23.3434 23.9911 23.0359 23.9911C22.7285 23.9911 22.4793 24.2402 22.4793 24.5477V25.6453H19.9076C19.627 25.6453 19.3521 25.5684 19.1123 25.4226L14.7782 22.6429C14.9626 22.5283 15.1227 22.3759 15.2467 22.1898L15.71 21.4943C15.7908 21.3729 15.8507 21.2437 15.8932 21.1112L18.6907 23.0311C19.4528 23.5562 20.4979 23.0529 20.5603 22.1279L20.6468 20.8506C20.7195 19.7761 21.5066 18.8729 22.5609 18.6538L23.184 18.5243C23.6359 20.8115 25.9087 22.5217 28.649 22.5217C31.3893 22.5217 33.6621 20.8115 34.114 18.5243L34.7371 18.6538C35.788 18.8721 36.5734 19.7702 36.6504 20.8401L36.8857 29.2555C36.9056 29.9714 36.6417 30.6484 36.1425 31.1619Z" fill="white"/>
</g>
<defs>
<clipPath id="clip0_759_7077">
<rect width="38" height="38" fill="white"/>
</clipPath>
</defs>
</svg>
