<svg width="60" height="60" viewBox="0 0 60 60" fill="none" xmlns="http://www.w3.org/2000/svg">
<g clip-path="url(#clip0_759_6670)">
<path d="M17.2867 25.6299H55.8981C57.0306 25.6299 58.052 26.0916 58.7941 26.8332V26.8402C59.5356 27.5822 59.9978 28.6036 59.9978 29.7291V55.8999C59.9978 57.0249 59.5356 58.0533 58.7941 58.7949C58.052 59.5374 57.0306 59.9986 55.8981 59.9986H17.2867C16.1613 59.9986 15.1328 59.5374 14.3913 58.7949C13.6492 58.0533 13.1875 57.0314 13.1875 55.8999V29.7291C13.1875 28.6036 13.6492 27.5752 14.3913 26.8332C15.1333 26.0916 16.1613 25.6299 17.2867 25.6299ZM55.8981 27.5039H17.2867C16.675 27.5039 16.1219 27.7575 15.7187 28.1607C15.3152 28.5643 15.0616 29.1174 15.0616 29.7291V55.8999C15.0616 56.5116 15.3152 57.0708 15.7187 57.4744C16.1214 57.8771 16.675 58.1246 17.2867 58.1246H55.8981C56.5098 58.1246 57.0691 57.8775 57.4727 57.4744C57.8758 57.0708 58.1237 56.5111 58.1237 55.8999V29.7291C58.1237 29.1174 57.8762 28.5582 57.4727 28.1546V28.1611C57.0691 27.758 56.5098 27.5039 55.8981 27.5039Z" fill="#F57005"/>
<path d="M28.7653 17.8154H44.4272C45.3188 17.8154 46.1381 18.1796 46.7241 18.7717C47.3095 19.3637 47.6808 20.1775 47.6808 21.0686V26.5665V27.5036H46.7433H42.7875H41.8509V26.5665V23.522H31.342V26.567V27.504H30.4045H26.4488H25.5117V26.567V21.0686C25.5117 20.1775 25.8759 19.3571 26.4614 18.7717C27.0534 18.1796 27.8677 17.8154 28.7653 17.8154ZM44.4267 19.6895H28.7653C28.3875 19.6895 28.043 19.8451 27.7889 20.0992C27.5419 20.3467 27.3863 20.6912 27.3863 21.0686V25.6295H29.468V22.5845V21.6479H30.405H42.7875H43.725V22.5845V25.63H45.8067V21.069C45.8067 20.6912 45.6506 20.3467 45.4036 20.0996H45.3966C45.1491 19.8456 44.8045 19.6895 44.4267 19.6895Z" fill="#F57005"/>
<path d="M10.3519 50.857C10.8661 50.857 11.2889 51.2728 11.2889 51.7936C11.2889 52.3073 10.8661 52.7302 10.3519 52.7302H2.81109C2.04328 52.7302 1.34063 52.4114 0.826406 51.9042V51.8977C0.31875 51.39 0 50.6878 0 49.913V2.81062C0 2.04281 0.31875 1.34016 0.826406 0.826406C1.33359 0.31875 2.03625 0 2.81109 0H29.1694C29.573 0 29.9503 0.0782812 30.3023 0.234375C30.6473 0.390469 30.9595 0.617812 31.2394 0.910781L38.3123 8.47828C38.3316 8.49797 38.3447 8.51719 38.3644 8.53687C38.5913 8.79047 38.7544 9.07078 38.8716 9.36328C38.9888 9.6825 39.0539 10.0205 39.0539 10.3786V14.9723C39.0539 15.4927 38.6311 15.9094 38.1169 15.9094C37.5966 15.9094 37.1733 15.4927 37.1733 14.9723V10.3786C37.1733 10.2483 37.1606 10.1316 37.1213 10.027C37.0823 9.94266 37.0369 9.86438 36.9783 9.78609C36.9652 9.77344 36.9516 9.76688 36.9389 9.75375L29.8725 2.18625C29.7745 2.08219 29.6644 2.00391 29.5472 1.94531C29.437 1.89984 29.3133 1.87406 29.1698 1.87406H2.81109C2.5575 1.87406 2.32313 1.97812 2.15391 2.15391L2.14734 2.14734C1.97813 2.31609 1.87406 2.55703 1.87406 2.81062V49.913C1.87406 50.1731 1.97813 50.4075 2.14734 50.5767L2.15391 50.5833C2.32313 50.7464 2.55703 50.857 2.81109 50.857H10.3519Z" fill="#F57005"/>
<path d="M33.1961 42.7106L17.118 39.6581C16.0314 39.4566 15.0287 38.9817 14.3073 38.2594C13.6169 37.5699 13.1875 36.6656 13.1875 35.5786H15.0616C15.0616 36.1317 15.2833 36.5874 15.6344 36.9389C16.0834 37.381 16.7406 37.6871 17.463 37.8235L33.5411 40.875L33.1961 42.7106ZM59.9973 35.5786C59.9973 36.6652 59.568 37.5633 58.878 38.2528V38.2594C58.1556 38.9817 57.1539 39.457 56.0739 39.6581L39.9953 42.736L39.6442 40.9013L55.7223 37.8235C56.4512 37.6805 57.1084 37.3814 57.557 36.9389C57.9086 36.5874 58.1233 36.1313 58.1233 35.5786H59.9973Z" fill="#F57005"/>
<path d="M23.8795 8.37366C24.3999 8.37366 24.8166 8.79038 24.8166 9.31069C24.8166 9.82491 24.3999 10.2477 23.8795 10.2477H10.8014C10.2806 10.2477 9.86392 9.82491 9.86392 9.31069C9.86392 8.79038 10.2806 8.37366 10.8014 8.37366H23.8795ZM6.33704 8.37366C6.85783 8.37366 7.28111 8.79038 7.28111 9.31069C7.28111 9.82491 6.85829 10.2477 6.33704 10.2477H5.63486C5.12017 10.2477 4.69736 9.82491 4.69736 9.31069C4.69736 8.79038 5.12017 8.37366 5.63486 8.37366H6.33704Z" fill="#F57005"/>
<path d="M17.7174 16.8783C18.2316 16.8783 18.6544 17.3006 18.6544 17.8153C18.6544 18.3356 18.2316 18.7519 17.7174 18.7519H10.801C10.2806 18.7519 9.86392 18.3356 9.86392 17.8153C9.86392 17.3011 10.2806 16.8783 10.801 16.8783H17.7174ZM6.33751 16.8783C6.85783 16.8783 7.28111 17.3006 7.28111 17.8153C7.28111 18.3356 6.85829 18.7519 6.33751 18.7519H5.63486C5.12064 18.7519 4.69736 18.3356 4.69736 17.8153C4.69736 17.3011 5.12017 16.8783 5.63486 16.8783H6.33751Z" fill="#F57005"/>
<path d="M23.8795 12.629C24.3999 12.629 24.8166 13.0457 24.8166 13.5661C24.8166 14.0798 24.3999 14.5031 23.8795 14.5031H10.8014C10.2806 14.5031 9.86392 14.0803 9.86392 13.5661C9.86392 13.0457 10.2806 12.629 10.8014 12.629H23.8795ZM6.33704 12.629C6.85783 12.629 7.28111 13.0457 7.28111 13.5661C7.28111 14.0798 6.85829 14.5031 6.33704 14.5031H5.63486C5.12017 14.5031 4.69736 14.0803 4.69736 13.5661C4.69736 13.0457 5.12017 12.629 5.63486 12.629H6.33704Z" fill="#F57005"/>
<path d="M30.1327 0.344531L38.6625 9.60375C39.0075 9.98109 38.9883 10.5731 38.6039 10.9242C38.4281 11.0869 38.2013 11.1717 37.973 11.1717H32.0977C31.096 11.1717 30.1913 10.7616 29.5341 10.1048C29.5149 10.0852 29.4947 10.0659 29.4755 10.0462C28.8506 9.39516 28.4667 8.51062 28.4667 7.54078V0.937031C28.4667 0.422812 28.8835 0 29.4042 0C29.6963 0 29.9569 0.136406 30.1327 0.344531ZM35.8392 9.29813L30.3408 3.3375V7.54125C30.3408 8.00953 30.5231 8.43234 30.8161 8.74453C30.8288 8.75766 30.8424 8.77078 30.8555 8.78391C31.1742 9.10266 31.6163 9.29766 32.0977 9.29766L35.8392 9.29813Z" fill="#F57005"/>
<path d="M42.6061 5.04887C42.502 5.55605 42.008 5.88137 41.5003 5.77121C40.9926 5.66668 40.6673 5.17262 40.7714 4.67105L41.1295 2.96621L41.5978 0.747617C41.6887 0.305586 42.0792 -0.000976562 42.5151 -0.000976562H44.1548H45.7945C46.2694 -0.000976562 46.6603 0.350586 46.725 0.812305L47.4145 4.09168C47.8959 4.22855 48.3647 4.39121 48.8198 4.57965C49.282 4.76855 49.7306 4.9898 50.16 5.23074L53.0297 3.35668C53.4005 3.11574 53.8884 3.17434 54.1941 3.48043H54.2011L55.3594 4.63871C55.372 4.6584 55.3917 4.67152 55.4053 4.69074L56.5176 5.80355C56.8425 6.1223 56.8758 6.62996 56.6222 6.99418L54.7673 9.83715C55.0144 10.267 55.2295 10.7156 55.4245 11.1778C55.6069 11.6329 55.7695 12.1017 55.9059 12.5831L59.2505 13.2923C59.7126 13.3832 60.0248 13.8 59.9991 14.2551V15.8437V17.4834C59.9991 17.9582 59.648 18.3553 59.1858 18.4139L55.9064 19.1034C55.77 19.5914 55.6069 20.0601 55.425 20.5087C55.1517 21.1659 54.8264 21.7903 54.4556 22.3701C54.1828 22.8121 53.6034 22.9425 53.1609 22.6626C52.725 22.3828 52.5951 21.8039 52.8745 21.3675C53.1937 20.8668 53.467 20.3395 53.6948 19.7934C53.9161 19.2595 54.0914 18.7129 54.2217 18.1537C54.2803 17.7829 54.5662 17.4768 54.9506 17.3925L58.125 16.7287V15.8437H58.1316V14.9653L54.9497 14.295C54.6051 14.2237 54.3122 13.9565 54.2273 13.5857C54.1036 13.0068 53.9217 12.4471 53.6939 11.8945C53.4661 11.3479 53.1928 10.8206 52.8736 10.32C52.6851 10.0204 52.6786 9.62996 52.8801 9.31121L54.6572 6.59152L54.0839 6.01262C54.0647 5.99996 54.052 5.98637 54.0319 5.96668L53.4075 5.3423L50.7459 7.07949C50.4403 7.3134 50.017 7.33965 49.6795 7.12496C49.1784 6.80621 48.6516 6.53293 48.105 6.30512C47.5711 6.08387 47.0184 5.90809 46.4587 5.77824C46.0945 5.71965 45.7819 5.4398 45.7041 5.04934L45.0328 1.87355H44.1548H43.2694L42.9637 3.34402L42.6061 5.04887ZM44.1548 10.0396C43.6341 10.0396 43.2173 9.62293 43.2173 9.10262C43.2173 8.5823 43.6341 8.16559 44.1548 8.16559C46.2755 8.16559 48.195 9.02481 49.5876 10.417C50.9737 11.8031 51.8325 13.7226 51.8325 15.8437C51.8325 16.4034 51.7739 16.9565 51.6567 17.4834C51.5395 18.0229 51.3637 18.5442 51.1369 19.0448C50.9217 19.5136 50.3686 19.7217 49.8937 19.507C49.4255 19.2918 49.2234 18.7387 49.4386 18.2704C49.6073 17.9062 49.7376 17.5092 49.8286 17.0925C49.9134 16.6893 49.9589 16.2726 49.9589 15.8432C49.9589 14.2425 49.3083 12.7912 48.2606 11.7375C47.2064 10.6907 45.7551 10.0396 44.1548 10.0396Z" fill="#F57005"/>
<path d="M33.5043 35.6055H39.6918C40.1802 35.6055 40.6223 35.807 40.9415 36.1253L40.948 36.1319C41.2673 36.4516 41.4684 36.9002 41.4684 37.3881V44.2464C41.4684 45.5866 40.9223 46.8034 40.0368 47.688C39.1588 48.5734 37.9354 49.12 36.5948 49.12C35.2541 49.12 34.0373 48.5734 33.1527 47.688C32.2738 46.8034 31.7207 45.587 31.7207 44.2464V37.3881C31.7207 36.9002 31.9227 36.4506 32.248 36.1319V36.1253C32.5734 35.807 33.0163 35.6055 33.5043 35.6055ZM39.5948 37.4795H33.6018V44.2464C33.6018 45.0658 33.9337 45.8209 34.4802 46.3614C35.0268 46.908 35.7754 47.2459 36.5948 47.2459C37.4216 47.2459 38.1693 46.908 38.7159 46.3614C39.2559 45.8214 39.5948 45.0658 39.5948 44.2464V37.4795Z" fill="#F57005"/>
<path d="M36.5935 45.059C37.111 45.059 37.5305 44.6395 37.5305 44.122C37.5305 43.6045 37.111 43.1849 36.5935 43.1849C36.076 43.1849 35.6564 43.6045 35.6564 44.122C35.6564 44.6395 36.076 45.059 36.5935 45.059Z" fill="#F57005"/>
</g>
<defs>
<clipPath id="clip0_759_6670">
<rect width="60" height="60" fill="white"/>
</clipPath>
</defs>
</svg>
