<svg width="71" height="70" viewBox="0 0 71 70" fill="none" xmlns="http://www.w3.org/2000/svg">
<g clip-path="url(#clip0_759_6847)">
<path d="M41.6168 38.6516C41.2232 38.7887 40.9325 39.1255 40.8545 39.535C40.7764 39.9445 40.9227 40.3645 41.2383 40.6369C41.5539 40.9093 41.9908 40.9926 42.3845 40.8554C52.0743 37.4972 57.9228 27.633 56.2201 17.52C54.5173 7.40711 45.7611 0.00195312 35.5058 0.00195312C25.2505 0.00195312 16.4943 7.40711 14.7916 17.52C13.0888 27.633 18.9373 37.4972 28.6272 40.8554C29.2361 41.0671 29.9012 40.7451 30.1129 40.1362C30.3246 39.5273 30.0026 38.8621 29.3937 38.6504C27.3766 37.9465 25.4957 36.9007 23.8333 35.5588V34.2883C23.8286 30.6489 26.0695 27.3838 29.4672 26.0796C33.0815 28.6402 37.9185 28.6402 41.5328 26.0796C44.9305 27.3838 47.1714 30.6489 47.1667 34.2883V35.5634C45.5072 36.903 43.63 37.9476 41.6168 38.6516ZM27.3333 17.4999C27.3333 12.9896 30.9897 9.33326 35.5 9.33326C40.0103 9.33326 43.6667 12.9896 43.6667 17.4999C43.6667 22.0103 40.0103 25.6666 35.5 25.6666C30.9918 25.6615 27.3385 22.0081 27.3333 17.4999ZM43.4333 24.3518C47.1014 20.1154 46.7963 13.7451 42.7402 9.87863C38.6841 6.01214 32.3066 6.01214 28.2505 9.87863C24.1944 13.7451 23.8893 20.1154 27.5573 24.3518C24.122 26.1082 21.8433 29.5205 21.5373 33.3666C14.8867 25.8712 15.3406 14.4618 22.5657 7.51843C29.7908 0.575041 41.2092 0.575041 48.4343 7.51843C55.6594 14.4618 56.1133 25.8712 49.4627 33.3666C49.1557 29.5182 46.8729 26.1051 43.4333 24.3518Z" fill="#F57005"/>
<path d="M25.466 69.5463C26.1794 70.0728 27.1307 70.1457 27.916 69.7342L35.5075 65.7897L43.0979 69.7353C43.885 70.1446 44.8361 70.072 45.5521 69.5481C46.268 69.0242 46.6249 68.1396 46.473 67.2655L45.031 58.9448L51.1327 53.0637C51.7737 52.4457 52.0071 51.5168 51.7344 50.6692C51.4618 49.8216 50.7304 49.2031 49.8494 49.0748L41.3794 47.858L37.5994 40.2595C37.2069 39.4638 36.3947 38.9619 35.5075 38.9668C34.623 38.9636 33.8135 39.4636 33.4204 40.256L29.6194 47.858L21.168 49.0737C20.2864 49.2016 19.5546 49.8203 19.2818 50.6684C19.0091 51.5164 19.243 52.4458 19.8847 53.0637L25.9887 58.9448L24.5455 67.2655C24.3914 68.1392 24.7486 69.0244 25.466 69.5463ZM21.4994 51.3837L30.555 50.0805C30.9334 50.0262 31.2612 49.7899 31.4324 49.4482L35.5064 41.3002L39.5629 49.4458C39.7337 49.7888 40.0621 50.026 40.4414 50.0805L49.5157 51.3837L42.966 57.6942C42.6874 57.9629 42.5602 58.3523 42.6265 58.7337L44.1747 67.6668L36.0465 63.4423C35.7094 63.2672 35.308 63.2672 34.9709 63.4423L26.8415 67.6668L28.3897 58.736C28.456 58.3546 28.3288 57.9652 28.0502 57.6965L21.4994 51.3837Z" fill="#F57005"/>
<path d="M5.98329 51.5922L4.84345 58.1827C4.73344 58.7972 4.90091 59.4288 5.3009 59.908C5.70089 60.3872 6.29241 60.6649 6.91662 60.6666C7.25744 60.666 7.59313 60.5836 7.89545 60.4262L13.9166 57.2926L19.9343 60.4332C20.304 60.6258 20.7484 60.6065 21.1 60.3826C21.4516 60.1587 21.6571 59.7642 21.639 59.3478C21.6209 58.9313 21.382 58.5561 21.0123 58.3636L14.4556 54.9452C14.1178 54.7693 13.7154 54.7693 13.3776 54.9452L7.22112 58.1524L8.38779 51.3857C8.45407 51.0044 8.32689 50.6149 8.04829 50.3462L3.09345 45.5629L9.94995 44.5782C10.3286 44.5237 10.6564 44.2869 10.8273 43.9447L13.9166 37.7684L16.9943 43.9436C17.1654 44.2868 17.4942 44.5241 17.874 44.5782L25.1995 45.6282C25.8373 45.7194 26.4284 45.2762 26.5195 44.6383C26.6107 44.0004 26.1675 43.4094 25.5296 43.3182L18.8096 42.3557L15.8031 36.3217C15.447 35.6038 14.7133 35.1513 13.912 35.1551H13.905C13.1123 35.1535 12.388 35.6034 12.0383 36.3147L9.01662 42.3557L2.31645 43.3171C1.51433 43.424 0.845013 43.9823 0.595924 44.7522C0.346836 45.5222 0.562298 46.3667 1.14979 46.9232L5.98329 51.5922Z" fill="#F57005"/>
<path d="M70.395 44.7485C70.1514 43.9826 69.4882 43.4256 68.6917 43.3182L61.9833 42.3557L58.9687 36.3159C58.62 35.6026 57.8959 35.15 57.102 35.1492H57.095C56.2932 35.145 55.559 35.5976 55.2027 36.3159L52.1973 42.3487L45.4762 43.3112C45.0635 43.3702 44.7137 43.6448 44.5584 44.0317C44.4032 44.4185 44.4661 44.8588 44.7235 45.1867C44.9809 45.5145 45.3937 45.6802 45.8063 45.6212L53.133 44.5712C53.5127 44.5171 53.8416 44.2798 54.0127 43.9365L57.0833 37.7684L60.1668 43.9447C60.3377 44.2869 60.6655 44.5236 61.0442 44.5782L67.8972 45.5617L62.9423 50.345C62.6637 50.6138 62.5365 51.0032 62.6028 51.3845L63.7753 58.1512L57.6188 54.9405C57.281 54.7646 56.8786 54.7646 56.5408 54.9405L49.9842 58.3589C49.6144 58.5514 49.3755 58.9266 49.3575 59.3431C49.3394 59.7595 49.5448 60.154 49.8965 60.3779C50.2481 60.6018 50.6924 60.6211 51.0622 60.4285L57.0833 57.2925L63.1033 60.4332C63.8159 60.8034 64.6768 60.737 65.3241 60.2618C65.9714 59.7866 66.2927 58.9851 66.153 58.1944L65.0167 51.5922L69.8537 46.9255C70.439 46.3651 70.6497 45.5179 70.395 44.7485Z" fill="#F57005"/>
<path d="M29.0828 54.9955C29.139 54.9952 29.1952 54.9909 29.2508 54.9826L33.6386 54.3515C34.017 54.2971 34.3448 54.0609 34.516 53.7191L36.546 49.6603C36.8359 49.0836 36.6035 48.3811 36.0268 48.0911C35.4501 47.8012 34.7476 48.0336 34.4576 48.6103L32.7076 52.1231L28.9218 52.668C28.3154 52.7544 27.8791 53.295 27.9227 53.906C27.9663 54.517 28.4749 54.9902 29.0875 54.9896L29.0828 54.9955Z" fill="#F57005"/>
</g>
<defs>
<clipPath id="clip0_759_6847">
<rect width="70" height="70" fill="white" transform="translate(0.5)"/>
</clipPath>
</defs>
</svg>
