<svg width="71" height="70" viewBox="0 0 71 70" fill="none" xmlns="http://www.w3.org/2000/svg">
<mask id="mask0_759_6896" style="mask-type:luminance" maskUnits="userSpaceOnUse" x="0" y="0" width="71" height="70">
<path d="M0.498047 5.34058e-05H70.498V70H0.498047V5.34058e-05Z" fill="white"/>
</mask>
<g mask="url(#mask0_759_6896)">
<path d="M17.6895 63.531V68.9761" stroke="#F57005" stroke-width="2.05078" stroke-miterlimit="10" stroke-linecap="round" stroke-linejoin="round"/>
<path d="M53.2988 63.531V68.9761" stroke="#F57005" stroke-width="2.05078" stroke-miterlimit="10" stroke-linecap="round" stroke-linejoin="round"/>
</g>
<path d="M14.3828 9.94774V17.1382" stroke="#F57005" stroke-width="2.05078" stroke-miterlimit="10" stroke-linecap="round" stroke-linejoin="round"/>
<mask id="mask1_759_6896" style="mask-type:luminance" maskUnits="userSpaceOnUse" x="0" y="0" width="71" height="70">
<path d="M0.498047 5.34058e-05H70.498V70H0.498047V5.34058e-05Z" fill="white"/>
</mask>
<g mask="url(#mask1_759_6896)">
<path d="M8.82227 63.5935V65.6471C8.82227 67.4856 10.3126 68.9761 12.1514 68.9761H58.8448C60.6832 68.9761 62.1737 67.4856 62.1737 65.6471V55.7434C62.1737 51.5686 59.4223 47.8934 55.4167 46.7173L51.1635 45.4688L35.498 54.7776L19.8335 45.4694L15.58 46.7177C11.574 47.8935 8.82227 51.5689 8.82227 55.7439V58.7998" stroke="#F57005" stroke-width="2.05078" stroke-miterlimit="10" stroke-linecap="round" stroke-linejoin="round"/>
<path d="M51.1636 45.4688L41.6337 39.2443C41.6337 43.2268 40.4776 47.1237 38.3058 50.4618L35.498 54.7776" stroke="#F57005" stroke-width="2.05078" stroke-miterlimit="10" stroke-linecap="round" stroke-linejoin="round"/>
<path d="M19.8318 45.4688L29.3618 39.2443C29.3618 43.2268 30.5177 47.1237 32.6895 50.4618L35.4974 54.7776" stroke="#F57005" stroke-width="2.05078" stroke-miterlimit="10" stroke-linecap="round" stroke-linejoin="round"/>
<path d="M26.8581 17.2795V20.3757C26.8581 21.6179 25.8511 22.6251 24.6087 22.6251H22.375V26.3034C22.375 27.2433 23.1369 28.0052 24.0769 28.0052C24.3734 28.0052 24.6147 28.2375 24.6335 28.5335C24.9923 34.2233 29.7178 38.7275 35.4979 38.7275C41.2783 38.7275 46.0038 34.2233 46.3627 28.5335C46.3814 28.2375 46.6226 28.0052 46.9192 28.0052C47.8591 28.0052 48.6212 27.2433 48.6212 26.3034V22.6251H46.3875C45.1451 22.6251 44.138 21.6179 44.138 20.3757V17.2795" stroke="#F57005" stroke-width="2.05078" stroke-miterlimit="10" stroke-linecap="round" stroke-linejoin="round"/>
<path d="M29.3572 36.8284V39.2471L29.3618 39.2442" stroke="#F57005" stroke-width="2.05078" stroke-miterlimit="10" stroke-linecap="round" stroke-linejoin="round"/>
<path d="M41.6328 39.2446V36.8314" stroke="#F57005" stroke-width="2.05078" stroke-miterlimit="10" stroke-linecap="round" stroke-linejoin="round"/>
<path d="M41.9654 10.2165L37.9497 9.71968C36.3197 9.51816 34.6711 9.51816 33.0413 9.71982L23.9723 10.842L21.5314 11.144V16.2733C21.5314 16.7726 21.8955 17.1859 22.3723 17.2649C22.4263 17.2738 22.4812 17.2795 22.5376 17.2795H48.4574C48.5125 17.2795 48.566 17.2739 48.6185 17.2656C49.0976 17.1882 49.464 16.7741 49.464 16.2733V11.144L47.0182 10.8415L46.7307 10.806" stroke="#F57005" stroke-width="2.05078" stroke-miterlimit="10" stroke-linecap="round" stroke-linejoin="round"/>
<path d="M48.6191 22.625V17.2655" stroke="#F57005" stroke-width="2.05078" stroke-miterlimit="10" stroke-linecap="round" stroke-linejoin="round"/>
<path d="M22.373 17.2648L22.3752 22.625" stroke="#F57005" stroke-width="2.05078" stroke-miterlimit="10" stroke-linecap="round" stroke-linejoin="round"/>
<path d="M49.4616 11.1438L56.4857 9.94748C57.6858 9.74309 57.8028 8.06473 56.6426 7.69586L35.8477 1.08155C35.6187 1.00868 35.3728 1.00868 35.1436 1.08155L14.3486 7.69586C13.1885 8.06473 13.3055 9.74309 14.5057 9.94748L21.5316 11.144" stroke="#F57005" stroke-width="2.05078" stroke-miterlimit="10" stroke-linecap="round" stroke-linejoin="round"/>
<path d="M12.2083 21.0914L10.8229 29.2228C10.692 29.9904 11.2834 30.6909 12.0621 30.6909H16.7036C17.482 30.6909 18.0734 29.9904 17.9427 29.2228L16.5574 21.0914" stroke="#F57005" stroke-width="2.05078" stroke-miterlimit="10" stroke-linecap="round" stroke-linejoin="round"/>
<path d="M16.5562 18.2365C16.5562 17.6299 16.0644 17.1381 15.4578 17.1381H13.3054C12.6988 17.1381 12.207 17.6299 12.207 18.2365V21.0913H16.5562V18.2365Z" stroke="#F57005" stroke-width="2.05078" stroke-miterlimit="10" stroke-linecap="round" stroke-linejoin="round"/>
<path d="M40.7257 45.2753C39.1146 45.6301 37.3491 45.8267 35.4967 45.8267C33.6441 45.8267 31.8787 45.6301 30.2676 45.2753" stroke="#F57005" stroke-width="2.05078" stroke-miterlimit="10" stroke-linecap="round" stroke-linejoin="round"/>
</g>
</svg>
