<svg width="68" height="68" viewBox="0 0 68 68" fill="none" xmlns="http://www.w3.org/2000/svg">
<path d="M67.5604 16.3236L52.0964 5.00845C51.8416 4.8208 51.5164 4.75652 51.2093 4.8331L32.6324 9.54512C32.0638 9.69004 31.7203 10.2685 31.8652 10.837C31.9259 11.0754 32.0676 11.2853 32.2659 11.4309L37.1849 15.0219L36.1224 20.4085C35.5434 23.4152 40.3722 28.175 46.8797 29.4392C48.021 29.6596 49.1808 29.7699 50.3432 29.7686C52.1252 29.7798 53.8975 29.5035 55.5917 28.9506C58.1947 28.0847 59.9317 26.6397 60.2346 25.0939L61.2971 19.7232L67.1989 18.2305C67.7676 18.0856 68.111 17.5072 67.9661 16.9386C67.9054 16.7003 67.7637 16.4903 67.5654 16.3447L67.5604 16.3236ZM58.163 24.685C58.0407 25.3065 56.8881 26.2786 54.9278 26.9321C52.4526 27.7069 49.8226 27.8494 47.2782 27.3464C41.3019 26.183 37.9658 22.1404 38.2474 20.8124L39.1028 16.4086L47.7298 22.7408C47.9115 22.8747 48.131 22.9472 48.3566 22.948C48.4465 22.9486 48.5361 22.936 48.6223 22.9108L59.013 20.2813L58.163 24.685ZM48.601 20.7327L35.347 11.0431L51.2464 7.01642L64.4845 16.7006L48.601 20.7327Z" fill="#F57005"/>
<path d="M25.9767 29.9706C25.6516 30.1582 25.4496 30.5036 25.4454 30.879V49.833C25.4496 50.2084 25.6516 50.5536 25.9767 50.7414C26.1364 50.8402 26.3202 50.8934 26.5079 50.8955C26.6796 50.897 26.8491 50.8569 27.0019 50.7786L45.1166 41.2962C45.636 41.023 45.8354 40.3805 45.5622 39.8613C45.4621 39.6711 45.3067 39.5158 45.1166 39.4158L27.0179 29.9334C26.6882 29.7631 26.2935 29.7772 25.9767 29.9706ZM27.5704 32.6267L42.3331 40.3559L27.5864 48.0798L27.5704 32.6267Z" fill="#F57005"/>
<path d="M64.8092 56.8241H59.3536C59.448 56.5269 59.4963 56.2169 59.497 55.9051V31.3253C59.497 30.7385 59.0212 30.2628 58.4345 30.2628C57.8477 30.2628 57.372 30.7385 57.372 31.3253V55.905C57.3632 56.4212 56.9376 56.8327 56.4213 56.8239C56.4212 56.8239 56.4212 56.8239 56.421 56.8239H9.45042C8.93413 56.8328 8.50837 56.4215 8.49949 55.9052C8.49949 55.9051 8.49949 55.9051 8.49949 55.905V23.7447C8.50824 23.2284 8.93388 22.817 9.45016 22.8257H9.45042H32.9357C33.5225 22.8257 33.9982 22.35 33.9982 21.7632C33.9982 21.1764 33.5225 20.7007 32.9357 20.7007H9.45042C7.7617 20.6949 6.38628 22.056 6.37462 23.7445V55.9048C6.37525 56.2167 6.42356 56.5266 6.51802 56.8238H1.0625C0.475716 56.8238 0 57.2995 0 57.8863V58.1519C0 60.5424 1.88055 63.1985 4.4038 63.1985H61.4678C63.991 63.1985 65.8716 60.5424 65.8716 58.1519V57.8863C65.8716 57.2998 65.3959 56.8241 64.8092 56.8241ZM61.4678 61.0738H4.4038C3.48482 61.0738 2.54987 60.0964 2.23645 58.9489H63.6351C63.3217 60.0964 62.3868 61.0738 61.4678 61.0738Z" fill="#F57005"/>
</svg>
