<svg width="401" height="80" viewBox="0 0 401 80" fill="none" xmlns="http://www.w3.org/2000/svg">
<path d="M19.9342 56.5349C15.342 56.5349 11.2633 55.7191 7.6982 54.0876C4.19355 52.5166 1.92762 49.8881 0.900396 46.2022C0.719122 45.5979 0.598272 44.9937 0.537847 44.3894C0.477422 43.7248 0.447209 43.0601 0.447209 42.3954C0.447209 39.1929 1.32337 35.7789 3.07569 32.1534C4.82802 28.4675 7.39608 24.842 10.7799 21.2769C14.1637 17.6514 18.333 14.3885 23.2878 11.4881C28.2427 8.52725 33.9226 6.23111 40.3277 4.59963C41.5362 4.29751 43.1676 3.99539 45.2221 3.69326C47.337 3.39114 49.5425 3.24007 51.8386 3.24007C53.9535 3.24007 56.0079 3.42135 58.002 3.7839C59.996 4.08602 61.6879 4.66006 63.0776 5.50601C64.2257 6.17068 65.0415 6.926 65.5249 7.77194C66.0083 8.55747 66.25 9.43363 66.25 10.4004C66.25 11.3672 66.0385 12.3642 65.6155 13.3915C65.1925 14.3583 64.6185 15.3855 63.8934 16.4731C63.41 17.1982 62.8964 17.8629 62.3525 18.4672C61.8087 19.011 61.2649 19.434 60.7211 19.7361C60.6606 19.7965 60.5398 19.8267 60.3585 19.8267C59.8147 19.8267 59.5428 19.5246 59.5428 18.9203C59.5428 18.4974 59.7241 18.1952 60.0866 18.014C61.2951 17.4097 62.2015 16.5638 62.8057 15.4761C63.41 14.328 63.7121 13.18 63.7121 12.0319C63.7121 11.0651 63.5006 10.1587 63.0776 9.31278C62.6547 8.46683 61.99 7.77194 61.0836 7.22812C59.7543 6.38217 58.0926 5.80813 56.0986 5.50601C54.165 5.20388 52.2012 5.05282 50.2071 5.05282C48.1527 5.05282 46.2191 5.17367 44.4063 5.41537C42.654 5.59665 41.2945 5.83835 40.3277 6.14047C34.406 7.71152 29.149 9.88682 24.5568 12.6664C20.0249 15.3855 16.1879 18.4369 13.0458 21.8207C9.96413 25.1441 7.60756 28.5279 5.97609 31.9721C4.40504 35.4163 3.61952 38.6189 3.61952 41.5797C3.61952 43.1507 3.86122 44.6614 4.34462 46.1116C5.37184 48.9515 7.51693 51.0664 10.7799 52.4562C14.1032 53.8459 17.8798 54.5408 22.1095 54.5408C23.1368 54.5408 24.1338 54.4804 25.1006 54.3596C26.1278 54.2991 27.155 54.2085 28.1822 54.0876C29.8137 53.8459 31.8682 53.3928 34.3456 52.7281C36.8834 52.003 39.5119 51.0664 42.231 49.9183C44.9502 48.7098 47.488 47.3503 49.8446 45.8396C52.2616 44.2686 54.2254 42.5465 55.736 40.6733C57.2466 38.8001 58.002 36.7759 58.002 34.6006C58.002 32.7274 57.0956 31.247 55.2828 30.1594C53.4701 29.0717 50.6905 28.5279 46.9442 28.5279C46.4004 28.5279 45.7961 28.5581 45.1314 28.6185C44.5272 28.6185 43.8927 28.6488 43.2281 28.7092C40.8111 28.8905 38.4847 29.253 36.249 29.7968C34.0133 30.2802 32.1099 30.9751 30.5388 31.8815C28.9678 32.7274 27.9103 33.8453 27.3665 35.2351C27.1852 35.7185 26.9435 35.9602 26.6414 35.9602C26.3997 35.9602 26.1278 35.8091 25.8257 35.507C25.584 35.1444 25.4631 34.7517 25.4631 34.3287C25.4631 34.0266 25.4933 33.7849 25.5538 33.6036C26.0976 32.093 27.2457 30.8845 28.998 29.9781C30.8107 29.0717 32.9558 28.3768 35.4332 27.8934C37.9107 27.3496 40.4485 26.9871 43.0468 26.8058C44.1344 26.6849 45.1919 26.6245 46.2191 26.6245C47.3067 26.6245 48.334 26.6245 49.3008 26.6245C50.8718 26.6245 52.322 26.6547 53.6514 26.7152C54.9807 26.7756 56.0986 26.8662 57.0049 26.9871C57.5488 26.9871 58.3343 27.0475 59.3615 27.1683C60.4492 27.2892 61.5066 27.4403 62.5338 27.6215C63.6215 27.8028 64.3768 28.0143 64.7998 28.256C65.2832 28.5581 65.5249 28.8905 65.5249 29.253C65.5249 29.4947 65.404 29.676 65.1623 29.7968C64.981 29.9177 64.7091 29.8875 64.3466 29.7062C64.0444 29.5249 63.3193 29.3739 62.1713 29.253C61.0232 29.1322 60.0262 29.0415 59.1802 28.9811C60.5096 29.8875 61.1743 31.2772 61.1743 33.1504C61.1743 34.9632 60.6304 36.7759 59.5428 38.5887C58.153 40.9452 56.2194 43.0903 53.742 45.0239C51.2646 46.9575 48.5454 48.6494 45.5846 50.0996C42.6238 51.5498 39.6328 52.7583 36.6115 53.7251C33.5903 54.6919 30.8409 55.3868 28.3635 55.8098C26.9133 56.0515 25.4933 56.2327 24.1036 56.3536C22.7138 56.4744 21.324 56.5349 19.9342 56.5349ZM72.1775 53.7251C69.7001 53.7251 67.8873 53.1813 66.7392 52.0936C65.5912 50.9456 65.0171 49.4349 65.0171 47.5618C65.0171 47.0784 65.0473 46.595 65.1078 46.1116C65.2286 45.5677 65.3495 45.0239 65.4703 44.4801C65.7724 43.3924 66.2558 42.1235 66.9205 40.6733C67.6456 39.2231 68.5218 37.8031 69.549 36.4134C70.5762 35.0236 71.6941 33.8755 72.9026 32.9691C74.1111 32.0628 75.38 31.6096 76.7094 31.6096C77.797 31.6096 78.6127 32.0023 79.1566 32.7879C79.7608 33.5734 80.0629 34.51 80.0629 35.5976C80.0629 36.7457 79.7004 37.924 78.9753 39.1325C78.3106 40.2806 77.4042 41.2171 76.2562 41.9422C74.9268 42.8486 73.4162 43.3018 71.7243 43.3018C70.6367 43.3018 69.6396 43.0903 68.7333 42.6673C67.8269 44.4801 67.3737 46.2626 67.3737 48.0149C67.3737 49.2839 67.7363 50.3715 68.4614 51.2779C69.1865 52.1843 70.395 52.6375 72.0869 52.6375C74.1413 52.6375 75.954 52.1541 77.5251 51.1873C79.0961 50.16 80.5463 48.8307 81.8757 47.1992C83.2655 45.5677 84.5948 43.8154 85.8637 41.9422C86.045 41.761 86.1659 41.6703 86.2263 41.6703C86.4076 41.6703 86.4982 41.8214 86.4982 42.1235C86.4982 42.4256 86.4076 42.7278 86.2263 43.0299C85.1386 44.7218 83.8999 46.3835 82.5102 48.0149C81.1808 49.6464 79.6702 51.006 77.9783 52.0936C76.2864 53.1813 74.3528 53.7251 72.1775 53.7251ZM70.8179 42.0329C72.389 42.0329 73.8694 41.4891 75.2592 40.4014C75.9238 39.918 76.4979 39.344 76.9813 38.6793C77.4647 38.0146 77.797 37.3499 77.9783 36.6853C78.1596 36.0206 78.2502 35.4466 78.2502 34.9632C78.2502 33.5734 77.7366 32.8785 76.7094 32.8785C76.0447 32.8785 75.2894 33.2713 74.4434 34.0568C73.7183 34.7215 72.963 35.5674 72.1775 36.5946C71.4524 37.6219 70.8179 38.6189 70.2741 39.5857C69.7303 40.492 69.3677 41.1567 69.1865 41.5797C69.6094 41.8818 70.1533 42.0329 70.8179 42.0329ZM86.3028 53.6345C85.2151 53.6345 84.4296 53.2719 83.9462 52.5468C83.4628 51.8217 83.2211 50.9153 83.2211 49.8277C83.2211 48.9817 83.3117 48.166 83.493 47.3805C83.6743 46.5345 84.2483 45.1448 85.2151 43.2112C86.1819 41.2171 87.2393 39.1325 88.3874 36.9572C87.7832 37.1989 87.1185 37.4708 86.3934 37.7729C85.7287 38.0146 85.2453 38.2865 84.9432 38.5887C84.7015 38.7095 84.5504 38.7699 84.49 38.7699C84.3087 38.7699 84.2181 38.6491 84.2181 38.4074C84.2181 37.8636 84.5504 37.3499 85.2151 36.8665C85.8798 36.3831 86.5142 36.0508 87.1185 35.8695C87.7832 35.6883 88.5385 35.4768 89.3844 35.2351C90.0491 34.0266 90.744 32.7879 91.4691 31.5189C92.2546 30.1896 92.9495 29.0415 93.5538 28.0747C93.9767 27.4705 94.581 26.7152 95.3665 25.8088C96.152 24.842 97.0282 24.0565 97.995 23.4522C98.5388 23.0897 99.2639 22.9084 100.17 22.9084C100.835 22.9084 101.198 23.0292 101.258 23.2709C100.352 23.5126 99.415 24.1169 98.4482 25.0837C97.5418 26.0505 96.6656 27.1683 95.8197 28.4373C94.9737 29.7062 94.2486 30.9147 93.6444 32.0628C93.0401 33.1504 92.587 33.9964 92.2848 34.6006C93.5538 34.4193 94.6112 34.3287 95.4571 34.3287C95.9405 34.3287 96.3635 34.3589 96.7261 34.4193C97.0886 34.4193 97.3907 34.4495 97.6324 34.51C98.1158 34.5704 98.3575 34.7215 98.3575 34.9632C98.3575 35.2049 98.0554 35.3257 97.4512 35.3257C96.9678 35.3257 96.3937 35.3257 95.7291 35.3257C95.1248 35.3257 94.4601 35.3861 93.735 35.507C93.1912 35.5674 92.6172 35.7487 92.0129 36.0508C91.4691 36.3529 91.1065 36.6853 90.9253 37.0478C89.5959 39.4648 88.4176 41.7912 87.3904 44.0269C86.3632 46.2626 85.7892 47.9545 85.6683 49.1026C85.487 51.0362 86.0611 52.003 87.3904 52.003C88.7198 52.003 90.0491 51.429 91.3785 50.2809C92.7682 49.0724 94.0674 47.6826 95.2759 46.1116C96.4844 44.5405 97.4512 43.2112 98.1763 42.1235C98.418 41.8818 98.569 41.761 98.6294 41.761C98.8107 41.761 98.9014 41.912 98.9014 42.2142C98.9014 42.4559 98.8107 42.7278 98.6294 43.0299C97.6022 44.6009 96.4239 46.2022 95.0946 47.8337C93.7652 49.4651 92.3453 50.8549 90.8346 52.003C89.3844 53.0906 87.8738 53.6345 86.3028 53.6345ZM111.492 78.5597C109.679 78.5597 108.441 78.0159 107.776 76.9283C107.413 76.2636 107.232 75.5687 107.232 74.8436C107.232 74.1185 107.413 73.333 107.776 72.487C108.078 71.6411 108.471 70.7951 108.954 69.9492C109.8 68.5594 110.797 67.1999 111.945 65.8705C113.093 64.5412 114.211 63.3327 115.299 62.245C116.447 61.1574 117.384 60.3114 118.109 59.7072C119.317 58.6799 120.798 57.4714 122.55 56.0817C124.302 54.6919 126.085 53.5136 127.898 52.5468C128.018 52.4864 128.139 52.4562 128.26 52.4562C128.441 52.4562 128.532 52.5468 128.532 52.7281C128.532 53.0906 128.381 53.3323 128.079 53.4532C127.293 53.8762 126.296 54.5106 125.088 55.3566C123.879 56.2629 122.671 57.1693 121.462 58.0757C120.314 59.0425 119.347 59.8884 118.562 60.6135C117.958 61.1574 117.112 61.9731 116.024 63.0608C114.997 64.1484 113.97 65.3569 112.942 66.6862C111.855 68.076 110.948 69.4658 110.223 70.8556C109.982 71.339 109.71 71.9734 109.408 72.759C109.105 73.6049 108.954 74.3904 108.954 75.1155C108.954 75.7198 109.136 76.2032 109.498 76.5657C109.8 76.9887 110.374 77.2002 111.22 77.2002C112.489 77.2002 113.788 76.747 115.118 75.8406C116.447 74.9342 117.746 73.7862 119.015 72.3964C120.284 71.0671 121.402 69.7075 122.369 68.3177C123.396 66.9884 124.181 65.8403 124.725 64.8735C126.175 62.4565 127.475 59.828 128.623 56.988C129.831 54.2085 130.768 51.3383 131.432 48.3775C132.097 45.4167 132.309 42.6069 132.067 39.9482C132.006 38.7397 131.735 37.5614 131.251 36.4134C131.009 38.347 130.284 40.4014 129.076 42.5767C127.928 44.752 126.749 46.5647 125.541 48.0149C124.574 49.163 123.547 50.2205 122.459 51.1873C121.432 52.0936 120.405 52.7281 119.378 53.0906C118.471 53.4532 117.686 53.6345 117.021 53.6345C115.933 53.6345 115.148 53.2719 114.664 52.5468C114.181 51.8217 113.939 50.9153 113.939 49.8277C113.939 48.9817 114.03 48.166 114.211 47.3805C114.332 47.0179 114.634 46.1116 115.118 44.6614C115.661 43.2112 116.356 41.6099 117.202 39.8576C118.109 38.1053 119.075 36.5946 120.103 35.3257C121.13 33.9964 122.187 33.3317 123.275 33.3317C123.758 33.3317 124 33.4525 124 33.6942C124 33.9359 123.879 34.1776 123.638 34.4193C122.429 35.8695 121.281 37.5916 120.193 39.5857C119.166 41.5193 118.29 43.3622 117.565 45.1145C116.9 46.8669 116.507 48.1962 116.387 49.1026C116.205 51.0362 116.779 52.003 118.109 52.003C119.196 52.003 120.314 51.58 121.462 50.7341C122.61 49.8277 123.728 48.6796 124.816 47.2898C126.145 45.5979 127.233 43.8456 128.079 42.0329C128.925 40.2201 129.529 38.6491 129.892 37.3197C130.012 36.9572 130.133 36.5644 130.254 36.1414C130.435 35.7185 130.526 35.2955 130.526 34.8725V34.7819C130.526 34.3589 130.858 34.1474 131.523 34.1474C131.946 34.1474 132.339 34.4193 132.701 34.9632C133.849 36.8363 134.423 39.2835 134.423 42.3048C134.423 44.9031 134.031 47.6826 133.245 50.6434C132.52 53.6042 131.493 56.5349 130.163 59.4353C128.895 62.3961 127.414 65.1454 125.722 67.6833C124.03 70.2815 122.218 72.487 120.284 74.2998C118.411 76.1125 116.538 77.3512 114.664 78.0159C113.516 78.3785 112.459 78.5597 111.492 78.5597ZM144.372 53.3625C142.741 53.3625 141.321 52.9698 140.112 52.1843C138.904 51.3383 138.3 49.8579 138.3 47.743C138.3 46.4137 138.632 44.9635 139.297 43.3924C139.961 41.761 140.807 40.1899 141.834 38.6793C142.922 37.1082 144.1 35.8091 145.369 34.7819C145.671 34.5402 146.064 34.4193 146.548 34.4193C147.273 33.6942 148.088 33.1504 148.995 32.7879C149.962 32.4253 150.868 32.244 151.714 32.244C153.225 32.244 154.614 32.7274 155.883 33.6942C157.213 34.661 157.877 36.2019 157.877 38.3167C157.877 39.5252 157.545 40.9754 156.88 42.6673C156.276 44.2384 155.339 45.8699 154.07 47.5618C152.802 49.1932 151.321 50.583 149.629 51.7311C147.998 52.8187 146.245 53.3625 144.372 53.3625ZM144.282 52.2749C145.611 52.2749 146.971 51.7613 148.36 50.7341C149.811 49.7068 151.14 48.4077 152.348 46.8367C153.557 45.2052 154.433 43.5737 154.977 41.9422C155.581 40.3108 155.883 38.8606 155.883 37.5916C155.883 36.0206 155.46 34.9027 154.614 34.2381C153.768 33.513 152.832 33.1504 151.805 33.1504C150.173 33.1504 148.753 33.6942 147.545 34.7819C148.149 35.1444 148.209 35.507 147.726 35.8695C146.88 36.5946 145.913 37.5916 144.825 38.8606C143.798 40.1295 142.983 41.3078 142.378 42.3954C141.955 43.1205 141.563 44.0571 141.2 45.2052C140.898 46.3533 140.747 47.4409 140.747 48.4681C140.747 49.4954 140.989 50.4017 141.472 51.1873C142.016 51.9124 142.952 52.2749 144.282 52.2749ZM161.988 53.6345C160.9 53.6345 160.115 53.2719 159.631 52.5468C159.148 51.8217 158.906 50.9153 158.906 49.8277C158.906 48.9817 158.997 48.166 159.178 47.3805C159.299 47.0179 159.601 46.1116 160.084 44.6614C160.628 43.2112 161.323 41.6099 162.169 39.8576C163.075 38.1053 164.042 36.5946 165.069 35.3257C166.097 33.9964 167.154 33.3317 168.242 33.3317C168.725 33.3317 168.967 33.4525 168.967 33.6942C168.967 33.9359 168.846 34.1776 168.604 34.4193C167.396 35.8695 166.248 37.5916 165.16 39.5857C164.133 41.5193 163.257 43.3622 162.532 45.1145C161.867 46.8669 161.474 48.1962 161.353 49.1026C161.172 51.0362 161.746 52.003 163.075 52.003C164.224 52.003 165.432 51.4894 166.701 50.4622C168.03 49.3745 169.299 48.0149 170.508 46.3835C171.777 44.6916 172.864 42.9392 173.771 41.1265C174.737 39.2533 175.795 37.501 176.943 35.8695C178.091 34.1776 179.269 33.3317 180.478 33.3317C180.961 33.3317 181.203 33.4525 181.203 33.6942C181.203 33.9359 181.082 34.1776 180.84 34.4193C179.632 35.8695 178.484 37.5916 177.396 39.5857C176.369 41.5193 175.493 43.3622 174.768 45.1145C174.103 46.8669 173.71 48.1962 173.589 49.1026C173.408 51.0362 173.982 52.003 175.312 52.003C176.641 52.003 178 51.3987 179.39 50.1902C180.78 48.9817 182.079 47.592 183.288 46.0209C184.496 44.4499 185.463 43.1205 186.188 42.0329C186.43 41.7912 186.581 41.6703 186.641 41.6703C186.822 41.6703 186.913 41.8214 186.913 42.1235C186.913 42.3652 186.822 42.6371 186.641 42.9392C185.674 44.5103 184.496 46.1418 183.106 47.8337C181.777 49.4651 180.357 50.8549 178.846 52.003C177.336 53.0906 175.795 53.6345 174.224 53.6345C173.136 53.6345 172.351 53.2719 171.867 52.5468C171.384 51.8217 171.142 50.9153 171.142 49.8277C171.142 48.9817 171.233 48.166 171.414 47.3805L171.595 46.5647C170.447 48.0754 169.239 49.4349 167.97 50.6434C166.761 51.8519 165.553 52.6677 164.344 53.0906C163.438 53.4532 162.652 53.6345 161.988 53.6345ZM193.384 53.5438C192.357 53.5438 191.541 53.2115 190.937 52.5468C190.393 51.8217 190.121 50.9758 190.121 50.009C190.121 49.1026 190.332 48.2264 190.755 47.3805C191.42 45.9907 192.266 44.6311 193.293 43.3018C194.381 41.912 195.378 40.7035 196.284 39.6763C196.888 38.8908 197.191 38.2261 197.191 37.6823C197.191 36.9572 196.737 36.2321 195.831 35.507C195.106 35.0236 194.441 34.3891 193.837 33.6036C193.414 32.9994 193.112 32.3951 192.931 31.7909C191.964 33.7849 190.725 36.1112 189.214 38.7699C187.764 41.3682 186.254 43.6946 184.683 45.749C184.441 46.1116 184.199 46.2928 183.957 46.2928C183.776 46.2928 183.686 46.172 183.686 45.9303C183.686 45.8094 183.716 45.6886 183.776 45.5677C183.837 45.4469 184.018 45.175 184.32 44.752C185.891 42.5767 187.16 40.5525 188.127 38.6793C189.094 36.8061 189.94 35.0538 190.665 33.4223L192.659 28.9811C192.719 28.8602 192.779 28.7092 192.84 28.5279C192.961 28.2862 193.051 28.1351 193.112 28.0747C193.233 27.9539 193.354 27.8934 193.474 27.8934C193.716 27.8934 193.897 28.0143 194.018 28.256C194.139 28.4977 194.139 28.7998 194.018 29.1624C193.897 29.827 193.988 30.4917 194.29 31.1564C194.592 31.8211 194.985 32.4253 195.468 32.9691C195.952 33.4525 196.647 33.9057 197.553 34.3287C198.459 34.7517 199.275 35.2351 200 35.7789C200.725 36.3227 200.997 37.0176 200.816 37.8636C200.574 39.0116 199.94 40.1295 198.913 41.2171C197.885 42.3048 196.858 43.4529 195.831 44.6614C195.106 45.4469 194.441 46.2324 193.837 47.0179C193.293 47.8035 192.87 48.6192 192.568 49.4651C192.508 49.6464 192.447 49.8277 192.387 50.009C192.387 50.1902 192.387 50.3715 192.387 50.5528C192.387 51.6404 192.961 52.1843 194.109 52.1843C194.471 52.1843 194.925 52.0936 195.468 51.9124C196.979 51.3685 198.369 50.4622 199.638 49.1932C200.967 47.9243 202.085 46.6554 202.991 45.3865C203.958 44.1175 204.593 43.2414 204.895 42.758C205.378 42.0329 205.68 41.6703 205.801 41.6703C205.982 41.6703 206.073 41.8214 206.073 42.1235C206.073 42.4256 205.982 42.7278 205.801 43.0299C204.472 45.1448 202.961 47.1388 201.269 49.012C199.577 50.8851 197.765 52.2145 195.831 53C194.925 53.3625 194.109 53.5438 193.384 53.5438ZM282.309 79.0129C281.1 79.0129 279.832 78.8317 278.502 78.4691C277.233 78.167 275.964 77.6534 274.695 76.9283C273.245 76.0823 271.523 74.8436 269.529 73.2121C267.595 71.6411 265.571 69.8586 263.456 67.8645C261.341 65.9309 259.317 64.0578 257.384 62.245C255.45 60.4323 253.819 58.9519 252.489 57.8038C252.066 57.3808 251.583 56.9276 251.039 56.4442C250.556 55.9608 250.042 55.5076 249.498 55.0847C248.894 55.1451 248.259 55.1753 247.595 55.1753C246.93 55.2357 246.265 55.2659 245.601 55.2659C240.646 55.2659 236.446 54.3293 233.002 52.4562C232.398 53.1208 232.096 53.9064 232.096 54.8127C232.035 55.2357 231.854 55.7493 231.552 56.3536C231.25 56.9578 230.948 57.26 230.646 57.26C230.464 57.26 230.283 56.8974 230.102 56.1723C230.041 55.991 230.011 55.7191 230.011 55.3566C230.011 54.0272 230.464 52.7583 231.371 51.5498C229.256 50.0996 227.594 48.3171 226.386 46.2022C225.177 44.0269 224.573 41.5797 224.573 38.8606C224.573 35.7789 225.298 32.6066 226.748 29.3436C228.259 26.0203 230.525 22.848 233.546 19.8267C236.567 16.8055 240.434 14.1468 245.148 11.8506C248.35 10.2796 251.583 9.22214 254.846 8.67832C258.169 8.07407 261.19 7.77194 263.91 7.77194C267.414 7.77194 270.012 8.07407 271.704 8.67832C272.127 8.79917 272.339 9.01066 272.339 9.31278C272.339 9.67533 272.097 9.79618 271.614 9.67533C269.982 9.37321 268.018 9.22214 265.722 9.22214C262.641 9.22214 259.227 9.55448 255.48 10.2192C251.794 10.8234 248.501 11.9413 245.601 13.5727C241.613 15.748 238.32 18.2255 235.721 21.005C233.123 23.7845 231.189 26.6245 229.921 29.5249C228.712 32.4253 228.108 35.2049 228.108 37.8636C228.108 42.8788 229.921 46.7762 233.546 49.5558C234.996 48.589 236.688 48.1056 238.622 48.1056C240.555 48.1056 242.428 48.589 244.241 49.5558C246.114 50.4622 247.897 51.5196 249.589 52.7281C254.604 52.1238 259.378 50.7039 263.91 48.4681C268.502 46.172 272.55 43.3924 276.055 40.1295C279.56 36.8061 282.309 33.2713 284.303 29.5249C286.357 25.7181 287.385 22.0624 287.385 18.5578C287.385 15.8991 286.72 13.4217 285.391 11.1255C284.122 8.82938 282.037 6.86557 279.137 5.2341C277.143 4.08603 274.877 3.27029 272.339 2.78689C269.801 2.24306 267.112 1.97115 264.272 1.97115C260.042 1.97115 255.692 2.54519 251.22 3.69326C246.809 4.84133 242.761 6.50302 239.075 8.67832C235.389 10.8536 232.489 13.5123 230.374 16.6544C229.467 17.9838 229.014 19.0412 229.014 19.8267C229.014 20.3101 229.165 20.6727 229.467 20.9144C229.83 21.0956 230.192 21.1863 230.555 21.1863C230.857 21.1863 231.008 21.3676 231.008 21.7301C231.008 22.0322 230.857 22.1833 230.555 22.1833C229.588 22.1833 228.621 21.851 227.655 21.1863C226.748 20.5216 226.265 19.6757 226.204 18.6484C226.144 17.2587 226.537 15.9293 227.383 14.6604C228.229 13.3915 229.377 12.183 230.827 11.0349C233.606 8.85959 236.809 6.98642 240.434 5.41537C244.06 3.7839 247.897 2.54519 251.945 1.69924C256.054 0.792865 260.103 0.339678 264.091 0.339678C266.931 0.339678 269.68 0.61159 272.339 1.15541C274.998 1.63882 277.445 2.42434 279.68 3.51199C283.064 5.20389 285.542 7.4094 287.113 10.1285C288.684 12.8476 289.469 15.8085 289.469 19.011C289.469 22.6365 288.563 26.3828 286.75 30.25C284.937 34.1172 282.369 37.7729 279.046 41.2171C275.723 44.6009 271.765 47.5315 267.173 50.009C262.641 52.426 257.656 54.0272 252.217 54.8127C252.701 55.1753 253.124 55.5378 253.486 55.9004C253.909 56.2629 254.332 56.6255 254.755 56.988C256.085 58.1361 257.565 59.4957 259.196 61.0667C260.888 62.6982 262.61 64.3297 264.363 65.9611C266.175 67.653 267.928 69.1939 269.62 70.5837C271.312 72.0339 272.883 73.1819 274.333 74.0279C277.354 75.6593 280.194 76.4751 282.853 76.4751C285.149 76.4751 287.022 75.8406 288.472 74.5717C289.922 73.3632 290.648 71.5505 290.648 69.1335C290.648 68.4688 290.587 67.7739 290.466 67.0488C290.406 66.3237 290.225 65.5684 289.922 64.7829C289.681 63.9369 289.197 62.9097 288.472 61.7012C287.808 60.5531 287.022 59.405 286.116 58.257C285.209 57.1089 284.273 56.2327 283.306 55.6285C283.185 55.5681 283.125 55.4472 283.125 55.2659C283.125 55.0847 283.215 54.9034 283.397 54.7221C283.578 54.6013 283.759 54.6013 283.94 54.7221C284.968 55.3868 285.934 56.2932 286.841 57.4412C287.808 58.6497 288.654 59.8884 289.379 61.1574C290.164 62.4263 290.678 63.5139 290.919 64.4203C291.524 66.2935 291.826 68.076 291.826 69.7679C291.826 72.7892 290.889 75.0853 289.016 76.6564C287.203 78.2274 284.968 79.0129 282.309 79.0129ZM245.148 53H246.96C245.812 52.1541 244.574 51.429 243.244 50.8247C241.975 50.2205 240.646 49.9183 239.256 49.9183C238.531 49.9183 237.836 50.009 237.172 50.1902C236.507 50.3111 235.903 50.4924 235.359 50.7341C238.017 52.2447 241.28 53 245.148 53ZM289.004 53.6345C287.916 53.6345 287.131 53.2719 286.647 52.5468C286.164 51.8217 285.922 50.9153 285.922 49.8277C285.922 48.9817 286.013 48.166 286.194 47.3805C286.315 47.0179 286.617 46.1116 287.101 44.6614C287.645 43.2112 288.339 41.6099 289.185 39.8576C290.092 38.1053 291.059 36.5946 292.086 35.3257C293.113 33.9964 294.17 33.3317 295.258 33.3317C295.741 33.3317 295.983 33.4525 295.983 33.6942C295.983 33.9359 295.862 34.1776 295.621 34.4193C294.412 35.8695 293.264 37.5916 292.176 39.5857C291.149 41.5193 290.273 43.3622 289.548 45.1145C288.883 46.8669 288.49 48.1962 288.37 49.1026C288.188 51.0362 288.762 52.003 290.092 52.003C291.24 52.003 292.448 51.4894 293.717 50.4622C295.047 49.3745 296.315 48.0149 297.524 46.3835C298.793 44.6916 299.881 42.9392 300.787 41.1265C301.754 39.2533 302.811 37.501 303.959 35.8695C305.107 34.1776 306.286 33.3317 307.494 33.3317C307.977 33.3317 308.219 33.4525 308.219 33.6942C308.219 33.9359 308.098 34.1776 307.857 34.4193C306.648 35.8695 305.5 37.5916 304.412 39.5857C303.385 41.5193 302.509 43.3622 301.784 45.1145C301.119 46.8669 300.726 48.1962 300.606 49.1026C300.424 51.0362 300.998 52.003 302.328 52.003C303.657 52.003 305.017 51.3987 306.406 50.1902C307.796 48.9817 309.095 47.592 310.304 46.0209C311.512 44.4499 312.479 43.1205 313.204 42.0329C313.446 41.7912 313.597 41.6703 313.657 41.6703C313.839 41.6703 313.929 41.8214 313.929 42.1235C313.929 42.3652 313.839 42.6371 313.657 42.9392C312.691 44.5103 311.512 46.1418 310.123 47.8337C308.793 49.4651 307.373 50.8549 305.863 52.003C304.352 53.0906 302.811 53.6345 301.24 53.6345C300.152 53.6345 299.367 53.2719 298.884 52.5468C298.4 51.8217 298.158 50.9153 298.158 49.8277C298.158 48.9817 298.249 48.166 298.43 47.3805L298.612 46.5647C297.464 48.0754 296.255 49.4349 294.986 50.6434C293.778 51.8519 292.569 52.6677 291.361 53.0906C290.454 53.4532 289.669 53.6345 289.004 53.6345ZM327.651 53.6345C326.563 53.6345 325.748 53.2719 325.204 52.5468C324.72 51.8217 324.479 50.8851 324.479 49.7371C324.479 48.9515 324.569 48.166 324.751 47.3805C324.811 47.2596 324.902 46.9877 325.023 46.5647C325.143 46.0813 325.325 45.5375 325.566 44.9333C324.72 46.2626 323.633 47.743 322.303 49.3745C321.034 50.9456 319.614 52.1238 318.043 52.9094C317.137 53.3323 316.231 53.5438 315.324 53.5438C314.116 53.5438 313.149 53.0906 312.424 52.1843C311.699 51.2175 311.336 49.8881 311.336 48.1962C311.336 46.8064 311.638 45.326 312.243 43.755C312.847 42.1235 313.723 40.4618 314.871 38.7699C315.596 37.6823 316.533 36.6248 317.681 35.5976C318.829 34.5704 320.068 33.7244 321.397 33.0598C322.726 32.3951 323.995 32.0628 325.204 32.0628C326.412 32.0628 327.44 32.3951 328.285 33.0598C329.131 33.7244 329.585 34.7215 329.645 36.0508C329.645 36.2321 329.554 36.3831 329.373 36.504C329.252 36.5644 329.131 36.4738 329.011 36.2321C328.285 34.6006 327.107 33.7849 325.476 33.7849C324.388 33.7849 323.24 34.2985 322.031 35.3257C320.823 36.2925 319.645 37.5312 318.497 39.0418C317.349 40.5525 316.352 42.0631 315.506 43.5737C314.78 44.9031 314.237 46.1116 313.874 47.1992C313.572 48.2869 313.421 49.2234 313.421 50.009C313.421 51.6404 314.055 52.4562 315.324 52.4562C315.989 52.4562 316.714 52.2447 317.5 51.8217C318.225 51.3987 319.101 50.6434 320.128 49.5558C321.216 48.4681 322.273 47.2596 323.3 45.9303C324.388 44.6009 325.355 43.3018 326.201 42.0329C327.107 40.764 327.772 39.7669 328.195 39.0418C329.101 37.5312 330.038 36.2019 331.005 35.0538C331.971 33.9057 332.938 33.3317 333.905 33.3317C334.388 33.3317 334.63 33.4525 334.63 33.6942C334.63 33.9359 334.509 34.1776 334.268 34.4193C333.059 35.8695 331.911 37.5916 330.823 39.5857C329.796 41.5193 328.92 43.3622 328.195 45.1145C327.53 46.8669 327.137 48.1962 327.017 49.1026C326.835 51.0362 327.409 52.003 328.739 52.003C328.92 52.003 329.101 52.003 329.282 52.003C329.464 51.9426 329.675 51.8821 329.917 51.8217C331.186 51.3987 332.425 50.6132 333.633 49.4651C334.842 48.3171 335.959 47.0784 336.987 45.749C338.014 44.3592 338.86 43.1507 339.525 42.1235C339.706 41.8818 339.857 41.761 339.978 41.761C340.159 41.761 340.25 41.912 340.25 42.2142C340.25 42.3954 340.159 42.6371 339.978 42.9392C339.555 43.5435 339.162 44.1477 338.799 44.752C338.437 45.2958 338.074 45.8094 337.712 46.2928C337.591 46.5345 337.44 46.746 337.259 46.9273C337.077 47.1086 336.896 47.3201 336.715 47.5618C335.929 48.5286 334.902 49.586 333.633 50.7341C332.425 51.8217 331.216 52.6072 330.008 53.0906C329.101 53.4532 328.316 53.6345 327.651 53.6345ZM344.874 53.7251C343.423 53.7251 342.275 53.2719 341.429 52.3655C340.583 51.3987 340.009 50.1902 339.707 48.74C339.405 47.2898 339.284 45.8094 339.345 44.2988C339.526 41.7005 340.1 38.7397 341.067 35.4163C342.034 32.093 343.272 28.7092 344.783 25.265C346.354 21.7603 348.076 18.4672 349.949 15.3855C351.883 12.3038 353.907 9.64512 356.022 7.40939C358.137 5.17367 360.221 3.63284 362.276 2.78689C362.941 2.48476 363.515 2.30349 363.998 2.24307C364.481 2.12221 364.935 2.06179 365.358 2.06179C366.808 2.06179 367.775 2.75667 368.258 4.14645C368.5 4.62985 368.621 5.2341 368.621 5.95919C368.621 7.40939 368.137 9.10129 367.17 11.0349C366.324 12.7872 365.116 14.7812 363.545 17.017C361.974 19.1923 360.191 21.428 358.197 23.7241C356.264 25.9598 354.3 28.1351 352.306 30.25C350.312 32.3045 348.469 34.1474 346.777 35.7789C345.085 37.4104 343.725 38.6491 342.698 39.495C342.336 41.4891 342.154 43.3622 342.154 45.1145C342.154 46.9877 342.457 48.6192 343.061 50.009C343.725 51.3987 344.813 52.0936 346.324 52.0936C347.774 52.0936 349.194 51.5196 350.584 50.3715C351.973 49.2234 353.242 47.8639 354.39 46.2928C355.599 44.7218 356.596 43.332 357.381 42.1235C357.623 41.8818 357.774 41.761 357.835 41.761C358.016 41.761 358.107 41.912 358.107 42.2142C358.107 42.4559 358.016 42.7278 357.835 43.0299C356.747 44.7218 355.539 46.3835 354.209 48.0149C352.88 49.6464 351.43 51.006 349.859 52.0936C348.288 53.1813 346.626 53.7251 344.874 53.7251ZM343.061 37.9542C344.39 36.7457 346.112 35.0236 348.227 32.7879C350.402 30.5521 352.638 28.0747 354.934 25.3556C357.291 22.6365 359.436 19.9778 361.37 17.3795C363.303 14.7208 364.723 12.3642 365.629 10.3098C365.992 9.58469 366.294 8.79917 366.536 7.95322C366.778 7.10727 366.898 6.32175 366.898 5.59665C366.898 4.2673 366.415 3.60263 365.448 3.60263C364.119 3.60263 362.336 4.66006 360.101 6.77493C357.623 9.07108 355.236 12.0017 352.94 15.5668C350.644 19.0714 348.62 22.7875 346.868 26.7152C345.176 30.5824 343.907 34.3287 343.061 37.9542ZM367.285 26.8964C366.439 26.8964 365.925 26.3828 365.744 25.3556C365.684 24.8722 365.986 24.3888 366.651 23.9054C367.315 23.422 367.859 23.0897 368.282 22.9084C368.584 22.7875 368.826 22.6969 369.007 22.6365C369.188 22.5761 369.339 22.5458 369.46 22.5458C369.883 22.5458 370.095 22.7573 370.095 23.1803C370.095 23.6637 369.914 24.2377 369.551 24.9024C369.249 25.5671 369.098 25.8994 369.098 25.8994C369.037 26.1411 368.826 26.3828 368.463 26.6245C368.101 26.8058 367.708 26.8964 367.285 26.8964ZM358.221 53.6345C357.134 53.6345 356.348 53.2719 355.865 52.5468C355.381 51.8217 355.14 50.9153 355.14 49.8277C355.14 48.9817 355.23 48.166 355.412 47.3805C355.532 47.0179 355.835 46.1116 356.318 44.6614C356.862 43.2112 357.557 41.6099 358.403 39.8576C359.309 38.1053 360.276 36.5946 361.303 35.3257C362.33 33.9964 363.388 33.3317 364.475 33.3317C364.959 33.3317 365.2 33.4525 365.2 33.6942C365.2 33.9359 365.08 34.1776 364.838 34.4193C363.629 35.8695 362.481 37.5916 361.394 39.5857C360.366 41.5193 359.49 43.3622 358.765 45.1145C358.1 46.8669 357.708 48.1962 357.587 49.1026C357.406 51.0362 357.98 52.003 359.309 52.003C359.49 52.003 359.671 52.003 359.853 52.003C360.034 51.9426 360.246 51.8821 360.487 51.8217C361.756 51.3987 362.995 50.6132 364.203 49.4651C365.412 48.3171 366.53 47.0481 367.557 45.6584C368.584 44.2686 369.43 43.0601 370.095 42.0329C370.336 41.7912 370.488 41.6703 370.548 41.6703C370.729 41.6703 370.82 41.8214 370.82 42.1235C370.82 42.4256 370.729 42.7278 370.548 43.0299C369.219 45.0843 367.648 47.1086 365.835 49.1026C364.083 51.0966 362.33 52.426 360.578 53.0906C359.671 53.4532 358.886 53.6345 358.221 53.6345ZM370.607 53.6345C369.519 53.6345 368.734 53.2719 368.25 52.5468C367.767 51.8217 367.525 50.9153 367.525 49.8277C367.525 48.9817 367.616 48.166 367.797 47.3805C367.978 46.5345 368.552 45.1448 369.519 43.2112C370.486 41.2171 371.543 39.1325 372.691 36.9572C372.087 37.1989 371.422 37.4708 370.697 37.7729C370.033 38.0146 369.549 38.2865 369.247 38.5887C369.005 38.7095 368.854 38.7699 368.794 38.7699C368.613 38.7699 368.522 38.6491 368.522 38.4074C368.522 37.8636 368.854 37.3499 369.519 36.8665C370.184 36.3831 370.818 36.0508 371.422 35.8695C372.087 35.6883 372.842 35.4768 373.688 35.2351C374.353 34.0266 375.048 32.7879 375.773 31.5189C376.559 30.1896 377.253 29.0415 377.858 28.0747C378.281 27.4705 378.885 26.7152 379.67 25.8088C380.456 24.842 381.332 24.0565 382.299 23.4522C382.843 23.0897 383.568 22.9084 384.474 22.9084C385.139 22.9084 385.501 23.0292 385.562 23.2709C384.656 23.5126 383.719 24.1169 382.752 25.0837C381.846 26.0505 380.97 27.1683 380.124 28.4373C379.278 29.7062 378.553 30.9147 377.948 32.0628C377.344 33.1504 376.891 33.9964 376.589 34.6006C377.858 34.4193 378.915 34.3287 379.761 34.3287C380.245 34.3287 380.668 34.3589 381.03 34.4193C381.393 34.4193 381.695 34.4495 381.936 34.51C382.42 34.5704 382.662 34.7215 382.662 34.9632C382.662 35.2049 382.359 35.3257 381.755 35.3257C381.272 35.3257 380.698 35.3257 380.033 35.3257C379.429 35.3257 378.764 35.3861 378.039 35.507C377.495 35.5674 376.921 35.7487 376.317 36.0508C375.773 36.3529 375.411 36.6853 375.229 37.0478C373.9 39.4648 372.722 41.7912 371.694 44.0269C370.667 46.2626 370.093 47.9545 369.972 49.1026C369.791 51.0362 370.365 52.003 371.694 52.003C373.024 52.003 374.353 51.429 375.682 50.2809C377.072 49.0724 378.371 47.6826 379.58 46.1116C380.788 44.5405 381.755 43.2112 382.48 42.1235C382.722 41.8818 382.873 41.761 382.933 41.761C383.115 41.761 383.205 41.912 383.205 42.2142C383.205 42.4559 383.115 42.7278 382.933 43.0299C381.906 44.6009 380.728 46.2022 379.399 47.8337C378.069 49.4651 376.649 50.8549 375.139 52.003C373.688 53.0906 372.178 53.6345 370.607 53.6345ZM377.651 78.5597C375.838 78.5597 374.6 78.0159 373.935 76.9283C373.572 76.2636 373.391 75.5687 373.391 74.8436C373.391 74.1185 373.572 73.333 373.935 72.487C374.237 71.6411 374.63 70.7951 375.113 69.9492C375.959 68.5594 376.956 67.1999 378.104 65.8705C379.252 64.5412 380.37 63.3327 381.458 62.245C382.606 61.1574 383.542 60.3114 384.267 59.7072C385.476 58.6799 386.956 57.4714 388.709 56.0817C390.461 54.6919 392.244 53.5136 394.056 52.5468C394.177 52.4864 394.298 52.4562 394.419 52.4562C394.6 52.4562 394.691 52.5468 394.691 52.7281C394.691 53.0906 394.54 53.3323 394.238 53.4532C393.452 53.8762 392.455 54.5106 391.247 55.3566C390.038 56.2629 388.83 57.1693 387.621 58.0757C386.473 59.0425 385.506 59.8884 384.721 60.6135C384.116 61.1574 383.27 61.9731 382.183 63.0608C381.156 64.1484 380.128 65.3569 379.101 66.6862C378.014 68.076 377.107 69.4658 376.382 70.8556C376.14 71.339 375.868 71.9734 375.566 72.759C375.264 73.6049 375.113 74.3904 375.113 75.1155C375.113 75.7198 375.294 76.2032 375.657 76.5657C375.959 76.9887 376.533 77.2002 377.379 77.2002C378.648 77.2002 379.947 76.747 381.276 75.8406C382.606 74.9342 383.905 73.7862 385.174 72.3964C386.443 71.0671 387.561 69.7075 388.527 68.3177C389.555 66.9884 390.34 65.8403 390.884 64.8735C392.334 62.4565 393.633 59.828 394.781 56.988C395.99 54.2085 396.927 51.3383 397.591 48.3775C398.256 45.4167 398.467 42.6069 398.226 39.9482C398.165 38.7397 397.893 37.5614 397.41 36.4134C397.168 38.347 396.443 40.4014 395.235 42.5767C394.087 44.752 392.908 46.5647 391.7 48.0149C390.733 49.163 389.706 50.2205 388.618 51.1873C387.591 52.0936 386.564 52.7281 385.536 53.0906C384.63 53.4532 383.845 53.6345 383.18 53.6345C382.092 53.6345 381.307 53.2719 380.823 52.5468C380.34 51.8217 380.098 50.9153 380.098 49.8277C380.098 48.9817 380.189 48.166 380.37 47.3805C380.491 47.0179 380.793 46.1116 381.276 44.6614C381.82 43.2112 382.515 41.6099 383.361 39.8576C384.267 38.1053 385.234 36.5946 386.262 35.3257C387.289 33.9964 388.346 33.3317 389.434 33.3317C389.917 33.3317 390.159 33.4525 390.159 33.6942C390.159 33.9359 390.038 34.1776 389.796 34.4193C388.588 35.8695 387.44 37.5916 386.352 39.5857C385.325 41.5193 384.449 43.3622 383.724 45.1145C383.059 46.8669 382.666 48.1962 382.545 49.1026C382.364 51.0362 382.938 52.003 384.267 52.003C385.355 52.003 386.473 51.58 387.621 50.7341C388.769 49.8277 389.887 48.6796 390.975 47.2898C392.304 45.5979 393.392 43.8456 394.238 42.0329C395.084 40.2201 395.688 38.6491 396.05 37.3197C396.171 36.9572 396.292 36.5644 396.413 36.1414C396.594 35.7185 396.685 35.2955 396.685 34.8725V34.7819C396.685 34.3589 397.017 34.1474 397.682 34.1474C398.105 34.1474 398.498 34.4193 398.86 34.9632C400.008 36.8363 400.582 39.2835 400.582 42.3048C400.582 44.9031 400.189 47.6826 399.404 50.6434C398.679 53.6042 397.652 56.5349 396.322 59.4353C395.053 62.3961 393.573 65.1454 391.881 67.6833C390.189 70.2815 388.376 72.487 386.443 74.2998C384.57 76.1125 382.696 77.3512 380.823 78.0159C379.675 78.3785 378.618 78.5597 377.651 78.5597Z" fill="#F57005"/>
</svg>
