<svg width="307" height="96" viewBox="0 0 307 96" fill="none" xmlns="http://www.w3.org/2000/svg">
<path d="M40.1098 90.8929C38.5396 90.8929 37.1479 90.3577 35.9346 89.2871C34.7926 88.2165 33.9005 86.8962 33.2581 85.326C32.6158 83.7558 32.2946 82.2214 32.2946 80.7226C32.2946 79.652 32.5801 78.2603 33.1511 76.5473C33.7221 74.7631 34.3644 72.9431 35.0781 71.0875C35.7918 69.2318 36.3985 67.626 36.8981 66.2699L36.3628 65.6276C37.2192 64.7711 37.7902 63.879 38.0757 62.9511L39.0392 60.0606H39.2533C39.4674 60.0606 39.6102 60.0249 39.6815 59.9536C39.7529 59.8822 39.86 59.8465 40.0027 59.8465C40.2168 59.8465 40.2525 59.9179 40.1098 60.0606L41.8227 58.99C41.9654 58.5618 42.0368 58.312 42.0368 58.2407C42.0368 58.0265 41.9654 57.7054 41.8227 57.2771C41.6086 57.063 41.5015 56.7775 41.5015 56.4207C41.5015 55.7783 41.8584 54.8862 42.5721 53.7443C43.3572 52.6023 43.9281 51.6745 44.285 50.9608L44.6062 48.4985C44.7489 48.3558 45.1057 47.7491 45.6767 46.6785C46.3191 45.608 46.9257 44.5017 47.4967 43.3598C48.139 42.1465 48.5672 41.29 48.7814 40.7904L48.6743 40.2551L48.8884 39.1846C49.0312 39.0418 49.3166 38.7206 49.7449 38.2211C50.2445 37.6501 50.53 37.2575 50.6013 37.0434C50.53 36.9007 50.4586 36.7223 50.3872 36.5081C50.3158 36.294 50.2802 36.1156 50.2802 35.9729C50.2802 35.9015 50.3158 35.8658 50.3872 35.8658L50.4943 35.5446C50.7084 35.4019 51.1009 34.8309 51.6719 33.8317C52.2429 32.7612 52.8495 31.5835 53.4919 30.2989C54.2056 29.0142 54.8479 27.9079 55.4189 26.9801C55.9898 25.9809 56.311 25.4813 56.3824 25.4813C56.6679 24.1253 57.1318 22.8406 57.7741 21.6273C58.4878 20.3426 59.1302 19.0579 59.7011 17.7732C60.2721 16.4885 60.5576 15.2039 60.5576 13.9192C60.5576 12.4918 60.2007 11.4926 59.487 10.9216C58.7733 10.2793 57.7384 9.95809 56.3824 9.95809C54.3126 9.95809 51.7076 10.5291 48.5672 11.671C45.4983 12.7416 42.2866 14.1333 38.9321 15.8462C35.5777 17.5591 32.4374 19.3077 29.5112 21.092C26.5849 22.8049 24.2654 24.3037 22.5525 25.5884L20.3043 27.3013C19.9474 27.5868 19.5549 27.9079 19.1267 28.2648C18.7698 28.5503 18.4129 28.8357 18.0561 29.1212L16.7714 30.0847C16.4859 30.2275 16.2361 30.4059 16.022 30.62C15.8079 30.8341 15.5938 31.0126 15.3797 31.1553L16.022 31.0483C15.8079 31.4051 15.3083 31.869 14.5232 32.44C13.7381 32.9396 12.9174 33.4035 12.0609 33.8317C11.2045 34.1886 10.5264 34.4384 10.0268 34.5811L10.1339 35.2235H10.4551V35.5446L11.4186 35.0094L11.5256 35.7587L10.7762 35.8658L8.31393 38.9704L5.74457 42.1821H5.4234V42.9315C5.63751 42.8602 5.81594 42.8245 5.95869 42.8245C6.1728 42.7531 6.31554 42.7174 6.38691 42.7174C6.6724 42.7174 6.81514 42.8245 6.81514 43.0386C5.95869 43.5382 5.28066 44.359 4.78106 45.5009C4.35283 46.5715 4.13872 47.6064 4.13872 48.6055C4.13872 49.3906 4.31715 50.1043 4.674 50.7467C5.10223 51.389 5.78026 51.6388 6.70808 51.4961V51.8172H5.95869C4.88812 51.8172 3.81755 51.5675 2.74698 51.0679C1.67642 50.5683 1.06976 49.7118 0.92702 48.4985C1.14113 48.2844 1.31956 48.1416 1.4623 48.0703L1.89053 47.7491C1.4623 47.1781 1.24819 46.6072 1.24819 46.0362C1.24819 45.8934 1.31956 45.8221 1.4623 45.8221L1.89053 46.6785H2.2117C2.06896 46.3217 1.89053 45.8934 1.67642 45.3938C1.53368 44.8229 1.4623 44.359 1.4623 44.0021C1.4623 43.9307 1.53368 43.8237 1.67642 43.6809V43.3598L2.53287 43.0386C2.9611 43.0386 3.10384 42.8602 2.9611 42.5033H3.71049L3.28227 42.1821V41.7539C3.28227 41.5398 3.38932 41.4328 3.60344 41.4328V41.1116L3.28227 41.2186V41.5398L2.63993 42.2892H2.31876L2.2117 41.861L2.53287 41.6469L3.92461 40.4692L3.71049 38.114L4.03166 37.6858L4.78106 37.5787L5.4234 38.2211L8.31393 34.7952V34.1529C8.02845 34.2243 7.77865 34.2956 7.56454 34.367C7.42179 34.367 7.27905 34.367 7.13631 34.367C6.77945 34.367 6.60102 34.26 6.60102 34.0458L6.92219 33.9388V33.6176C7.49316 33.118 8.06413 32.6184 8.6351 32.1188C9.27744 31.5479 9.8841 31.0126 10.4551 30.513C11.026 29.942 11.597 29.4067 12.168 28.9071C12.7389 28.4075 13.3099 27.9079 13.8809 27.4083C14.3091 26.9801 14.7373 26.5519 15.1656 26.1236C15.5938 25.6954 16.0577 25.3386 16.5573 25.0531L16.8785 24.839C16.8785 24.839 16.9498 24.7676 17.0926 24.6249C17.164 24.5535 17.2353 24.5178 17.3067 24.5178H17.6279V24.1966C18.1275 23.2688 19.0196 22.6978 20.3043 22.4837C20.447 22.1269 20.5541 21.8414 20.6255 21.6273C20.6968 21.3418 20.7682 21.0563 20.8396 20.7708C21.125 20.6281 21.8388 20.2712 22.9807 19.7002C24.194 19.0579 25.3716 18.3799 26.5136 17.6662C27.6555 16.9525 28.2265 16.4172 28.2265 16.0603L28.5476 16.3815L29.9394 16.8097V16.1674C29.7966 16.0246 29.7253 15.9176 29.7253 15.8462H29.8323C30.1178 15.8462 30.4033 15.6321 30.6888 15.2039C30.9743 14.9184 31.2597 14.74 31.5452 14.6686V14.9897L34.1146 13.0627C35.0424 12.349 35.9702 11.9565 36.8981 11.8851C37.1122 11.671 37.5404 11.3855 38.1828 11.0287C38.8965 10.7432 39.2533 10.5291 39.2533 10.3863C39.2533 10.3149 39.2176 10.2793 39.1463 10.2793L40.2168 10.1722C40.9305 9.52986 41.7513 8.99457 42.6791 8.56635C43.6783 8.13812 44.6418 7.85264 45.5697 7.70989C46.3547 7.13893 47.2112 6.74639 48.139 6.53227C49.1382 6.31816 50.1017 6.13973 51.0296 5.99699L50.9225 5.67582C51.4221 5.4617 51.8146 5.35465 52.1001 5.35465C52.457 5.28328 52.8852 5.24759 53.3848 5.24759C55.8114 5.24759 58.1667 5.74719 60.4505 6.74638C62.7344 7.74558 64.4473 9.38711 65.5893 11.671L66.3387 13.1698C66.2673 13.3125 66.1959 13.4553 66.1245 13.598C66.1245 13.7408 66.1245 13.8835 66.1245 14.0262V14.8827C66.1245 15.3823 66.1245 15.8819 66.1245 16.3815C66.1959 16.8811 66.2673 17.3807 66.3387 17.8803C66.41 18.3799 66.4457 18.9152 66.4457 19.4861C66.5171 19.9857 66.5528 20.4853 66.5528 20.9849C66.5528 21.5559 66.5171 21.9484 66.4457 22.1625C66.0175 22.5908 65.5893 23.3759 65.161 24.5178C64.7328 25.5884 64.2689 26.1236 63.7693 26.1236L62.9128 28.8001C62.4132 29.2997 62.0921 29.9777 61.9493 30.8341C61.878 31.6906 61.7352 32.4757 61.5211 33.1894C61.307 33.8317 60.7717 34.1529 59.9153 34.1529V34.4741C60.4149 34.5454 60.6647 34.7952 60.6647 35.2235V35.4376C60.5933 35.5089 60.4862 35.616 60.3435 35.7587C60.2007 35.8301 60.058 35.9372 59.9153 36.0799C59.487 36.3654 59.2729 36.5795 59.2729 36.7223C59.2729 36.7936 59.3086 36.8293 59.38 36.8293L58.7376 37.1505L56.4894 40.7904L56.0612 40.3622C55.5616 41.7896 54.9193 43.11 54.1342 44.3233L53.9201 45.5009L52.1001 47.9632L51.886 50.7467C50.8868 51.8886 50.1731 52.8521 49.7449 53.6372C49.388 54.3509 49.1025 55.1003 48.8884 55.8854C48.7457 56.6705 48.4245 57.7767 47.9249 59.2042C47.3539 60.8457 46.7116 62.3445 45.9979 63.7005C45.3555 64.9852 44.4277 66.2342 43.2144 67.4475C42.9289 67.3762 42.7862 67.5189 42.7862 67.8758L43.7497 69.9098C42.9646 71.2659 42.2509 72.9074 41.6086 74.8344C40.9662 76.6901 40.6451 78.403 40.6451 79.9732C40.6451 81.1865 40.7521 82.3998 40.9662 83.6131C41.0376 84.2554 41.0733 84.8978 41.0733 85.5401C41.1447 86.1824 41.1447 86.7891 41.0733 87.3601C41.8584 87.3601 42.8932 87.0389 44.1779 86.3966C45.534 85.7542 46.89 84.9335 48.2461 83.9343C49.6735 82.9351 50.8868 81.9359 51.886 80.9367C52.9566 79.8661 53.5989 78.974 53.813 78.2603L54.2413 78.6885C54.4554 78.1889 54.7409 77.6893 55.0977 77.1897L56.1683 75.905C56.311 75.6195 56.4894 75.3697 56.7036 75.1556C56.9177 74.9415 57.1675 74.6917 57.453 74.4062C58.0239 73.978 58.4521 73.5141 58.7376 73.0145L60.0223 71.3016C59.9509 71.2302 59.9153 71.1588 59.9153 71.0875L60.0223 70.9804H60.2364L61.0929 69.9098V70.1239C61.2356 69.9812 61.3784 69.8028 61.5211 69.5887C61.7352 69.3745 61.9136 69.1604 62.0564 68.9463C62.1991 68.7322 62.4132 68.4467 62.6987 68.0899C63.0556 67.733 63.1626 67.626 63.0199 67.7687L62.9128 67.8758L63.0199 67.4475H63.234C63.3768 67.2334 63.5552 67.0193 63.7693 66.8052C63.9834 66.5911 64.1618 66.3413 64.3046 66.0558L65.3751 64.7711C65.5179 64.6284 65.6249 64.5927 65.6963 64.6641C66.0532 64.0931 66.5528 63.4507 67.1951 62.737C67.9088 61.952 68.4084 61.3096 68.6939 60.81H68.801C69.4433 60.1677 70.1213 59.3112 70.835 58.2407C71.6201 57.1701 72.3695 56.5634 73.0832 56.4207C73.6542 55.9211 74.2252 55.4215 74.7961 54.9219C75.3671 54.4223 75.9381 53.9227 76.509 53.4231L76.6161 53.1019C76.9016 52.8878 77.1514 52.6737 77.3655 52.4596C77.651 52.2455 77.9008 51.9957 78.1149 51.7102L78.4361 51.8172C78.7216 51.5318 78.9357 51.282 79.0784 51.0679C79.3639 50.7824 79.6137 50.5683 79.8278 50.4255L79.6137 50.3185H79.8278L80.0419 50.2114L83.6818 42.6104V42.1821L82.7183 42.3963V41.968H82.9324C83.0038 41.8967 83.2893 41.4328 83.7889 40.5763C84.2885 39.6485 84.8595 38.6136 85.5018 37.4717C86.1441 36.2583 86.7508 35.2235 87.3218 34.367C87.8927 33.4392 88.2139 32.9753 88.2853 32.9753C88.2853 32.8325 88.4637 32.3686 88.8206 31.5835C89.1774 30.7985 89.6056 29.9063 90.1052 28.9071C90.6762 27.9079 91.2115 27.0158 91.7111 26.2307C92.2821 25.3742 92.7103 24.839 92.9958 24.6249L92.8887 23.6613L94.2805 22.3767V22.1625C94.1377 22.1625 93.9236 22.1982 93.6381 22.2696C93.424 22.2696 93.1742 22.3053 92.8887 22.3767V22.1625H93.1028L96.1004 17.9873C96.7428 17.0595 97.171 16.1317 97.3851 15.2039C97.6706 14.2047 97.9918 13.3482 98.3486 12.6345C98.7055 11.8494 99.3835 11.3498 100.383 11.1357L100.597 10.8145H100.811V10.6004C102.238 10.6004 103.594 10.8859 104.879 11.4569C106.235 11.9565 107.484 12.5988 108.626 13.3839C108.769 13.5266 108.947 13.6694 109.161 13.8121C109.375 13.9549 109.59 14.0976 109.804 14.2404C110.303 14.5972 110.624 14.9898 110.767 15.418C110.839 15.5607 110.874 15.7035 110.874 15.8462C110.946 15.9889 110.981 16.1317 110.981 16.2744V17.8803C110.981 18.594 110.839 19.2363 110.553 19.8073C110.268 20.3783 109.911 20.9136 109.483 21.4132C109.054 21.9127 108.626 22.4123 108.198 22.9119C107.77 23.3402 107.377 23.8398 107.02 24.4107C106.877 24.6962 106.521 25.2315 105.95 26.0166C105.379 26.7303 104.95 27.0872 104.665 27.0872C103.666 28.5146 102.56 29.942 101.346 31.3694C100.204 32.7255 98.9196 33.9745 97.4922 35.1164H97.278C96.4216 36.187 95.5294 37.1862 94.6016 38.114L93.7452 41.0045L93.1028 41.6469C92.8887 41.7896 92.6389 42.0037 92.3534 42.2892C92.2107 42.4319 91.8895 43.0029 91.3899 44.0021C90.9617 45.0013 90.4978 46.0005 89.9982 46.9997C89.4986 47.9275 89.1417 48.4628 88.9276 48.6055C89.4272 47.2495 89.9625 45.9291 90.5335 44.6445C91.1044 43.3598 91.6754 42.1108 92.2464 40.8975H92.4605L92.2464 40.4692L91.1758 41.4328L90.1052 42.5033C89.6056 43.4311 89.3558 44.3947 89.3558 45.3938L88.7135 45.1797V45.3938C88.7849 45.4652 88.8206 45.6436 88.8206 45.9291C88.8206 46.0719 88.7135 46.6072 88.4994 47.535C88.2853 48.4628 87.9998 49.3906 87.6429 50.3185C87.3575 51.1749 87.0363 51.6031 86.6794 51.6031V52.2455C86.6794 52.6023 86.7151 52.8521 86.7865 52.9949C86.7865 53.2804 86.6437 53.8513 86.3583 54.7078C86.0728 55.4929 85.93 55.9925 85.93 56.2066L85.7159 56.3136L85.2877 56.0995C85.2877 56.3136 85.3234 56.4564 85.3948 56.5277V56.956C85.1806 57.4556 84.681 57.8838 83.896 58.2407C83.9673 58.5261 84.003 58.8116 84.003 59.0971C84.0744 59.3112 84.1101 59.4896 84.1101 59.6324C84.1101 60.3461 84.003 61.0241 83.7889 61.6665L83.1466 63.5935C82.4328 65.806 81.7548 68.304 81.1125 71.0875C80.5415 73.7996 80.256 76.2975 80.256 78.5814C80.256 79.7234 80.3631 80.9367 80.5772 82.2214C80.8627 83.4347 81.3266 84.4695 81.9689 85.326C82.6826 86.1824 83.6462 86.6107 84.8595 86.6107C86.3583 86.6107 88.1425 86.0397 90.2123 84.8978C92.2821 83.6845 94.4589 82.15 96.7428 80.2943C99.0266 78.4387 101.239 76.476 103.38 74.4062C105.593 72.3364 107.591 70.3737 109.375 68.5181C111.16 66.5911 112.551 65.0209 113.551 63.8076C113.693 63.6649 113.872 63.308 114.086 62.737C114.3 62.1661 114.407 61.8092 114.407 61.6665C114.407 61.5237 114.371 61.4524 114.3 61.4524C114.015 61.4524 113.372 61.9519 112.373 62.9511C111.374 63.9503 110.268 65.128 109.054 66.484C107.912 67.7687 106.877 68.9106 105.95 69.9098C105.022 70.909 104.487 71.4086 104.344 71.4086V71.3016C104.344 71.1588 104.379 70.9447 104.451 70.6592C104.594 70.3024 104.701 70.0526 104.772 69.9098C104.986 69.4816 105.414 68.9463 106.057 68.304C106.414 68.0185 106.699 67.7687 106.913 67.5546C107.199 67.2691 107.413 67.055 107.555 66.9122C108.912 65.4848 110.303 63.986 111.731 62.4159C113.229 60.7743 114.55 59.1328 115.692 57.4913L121.045 49.5691C121.045 49.0695 121.223 48.3201 121.58 47.3209C121.937 46.3217 122.365 45.3938 122.865 44.5374C123.436 43.6096 123.971 43.0743 124.47 42.9315C124.542 42.9315 124.685 42.6104 124.899 41.968C125.184 41.3257 125.434 40.6834 125.648 40.041C125.934 39.3987 126.076 39.0775 126.076 39.0775V39.1846C126.148 39.2559 126.183 39.4344 126.183 39.7198C126.183 40.0053 126.219 40.2194 126.29 40.3622V40.5763C126.29 40.6477 126.326 40.6834 126.397 40.6834C126.469 40.6834 126.505 40.6477 126.505 40.5763C126.79 40.0053 126.933 39.3273 126.933 38.5422C126.861 38.1854 126.826 37.8285 126.826 37.4717C126.826 37.1148 126.826 36.7579 126.826 36.4011C126.826 35.9015 127.183 35.5089 127.896 35.2235C128.467 34.938 128.931 34.5454 129.288 34.0458C129.502 33.689 129.788 33.0823 130.144 32.2259C130.501 31.3694 130.787 30.4773 131.001 29.5495C131.286 28.6216 131.429 27.9793 131.429 27.6224V27.5154C131.429 27.3013 131.786 26.9801 132.5 26.5519C133.142 26.195 133.463 25.8382 133.463 25.4813C133.463 25.1244 133.285 24.8746 132.928 24.7319C132.5 24.5892 132.286 24.4107 132.286 24.1966L132.393 24.0896C132.464 23.8041 132.5 23.5543 132.5 23.3402C132.571 23.1261 132.607 22.9476 132.607 22.8049C132.464 22.6621 132.393 22.5194 132.393 22.3767C132.393 22.0912 132.535 21.8057 132.821 21.5202C133.035 21.1634 133.142 20.7351 133.142 20.2355C133.142 19.8787 133.106 19.5932 133.035 19.3791C132.964 19.2363 132.928 18.9865 132.928 18.6297C132.928 18.2728 133.106 17.9873 133.463 17.7732C133.463 17.4164 133.463 17.0238 133.463 16.5956C133.535 16.1674 133.606 15.7748 133.677 15.418C133.178 14.9184 132.928 14.2404 132.928 13.3839C132.928 13.0984 132.928 12.8129 132.928 12.5274C132.999 12.1706 133.071 11.8494 133.142 11.5639C133.213 11.2784 133.249 10.993 133.249 10.7075C133.249 10.422 133.249 10.1365 133.249 9.85103C133.249 9.06594 132.964 8.53066 132.393 8.24517C131.822 7.95969 131.536 7.67421 131.536 7.38873C131.536 6.74639 131.75 6.2111 132.179 5.78287C132.107 5.49739 131.822 5.17622 131.322 4.81936C130.965 4.53388 130.822 4.14134 130.894 3.64174C130.608 3.499 130.323 3.21351 130.037 2.78528C129.823 2.35706 129.716 1.96452 129.716 1.60766C129.716 0.822582 130.144 0.430042 131.001 0.430042C131.358 0.430042 131.679 0.537097 131.964 0.751208C132.25 0.893952 132.5 1.07238 132.714 1.28649C134.355 3.07077 135.676 5.03348 136.675 7.17461C137.674 9.24437 138.174 11.5283 138.174 14.0262C138.174 15.5964 138.067 17.1309 137.853 18.6297C137.71 20.0571 137.496 21.5202 137.21 23.019C137.282 23.019 137.317 23.0904 137.317 23.2331C137.317 23.8041 137.103 24.5178 136.675 25.3742C136.175 26.1593 135.926 26.8017 135.926 27.3013C135.926 27.5868 135.926 27.8366 135.926 28.0507C135.997 28.2648 136.068 28.5146 136.14 28.8001C136.211 29.0855 136.247 29.3353 136.247 29.5495C136.318 29.7636 136.354 30.0134 136.354 30.2989C136.354 30.513 136.282 30.6914 136.14 30.8341C135.997 30.9769 135.783 31.2624 135.497 31.6906C135.212 32.0474 135.033 32.3329 134.962 32.547C135.033 32.547 135.105 32.547 135.176 32.547C135.247 32.4757 135.319 32.44 135.39 32.44C135.105 32.9396 134.819 33.6533 134.534 34.5811C134.248 35.509 134.106 36.0799 134.106 36.294V36.5081C134.106 36.5795 134.177 36.6152 134.32 36.6152L134.534 36.4011L133.57 39.3987C133.642 39.5414 133.677 39.8626 133.677 40.3622C133.677 41.861 133.071 42.9315 131.857 43.5739L129.609 48.8197C128.895 50.5326 127.932 52.1741 126.719 53.7443C126.576 53.9584 126.397 54.1725 126.183 54.3866C125.969 54.5294 125.791 54.6721 125.648 54.8148L124.578 55.8854L124.256 56.3136C124.185 56.4564 124.042 56.6348 123.828 56.8489C123.828 57.1344 123.792 57.4199 123.721 57.7054C123.721 57.9195 123.578 58.1336 123.293 58.3477C123.293 58.4191 123.329 58.4548 123.4 58.4548V58.7759C123.4 59.1328 123.221 59.3826 122.865 59.5253C122.508 59.5967 122.151 59.5967 121.794 59.5253L120.831 60.703C120.902 60.9171 120.938 61.1312 120.938 61.3453C121.009 61.488 121.045 61.6308 121.045 61.7735C121.045 62.5586 120.866 62.8798 120.509 62.737H119.332L119.118 62.8441C119.118 64.2715 118.44 65.0923 117.084 65.3064L116.12 66.484C116.049 66.9122 115.799 67.1977 115.371 67.3405C113.586 69.3389 111.802 71.3373 110.018 73.3356C108.234 75.2627 106.414 77.154 104.558 79.0097C103.63 80.0088 102.274 81.1151 100.49 82.3284C98.7768 83.5417 96.8855 84.6837 94.8157 85.7542C92.746 86.8248 90.7476 87.7169 88.8206 88.4306C86.8935 89.1444 85.252 89.5012 83.896 89.5012C79.9705 89.5012 77.1514 88.2522 75.4385 85.7542C73.7256 83.2562 72.8691 80.1516 72.8691 76.4403C72.8691 73.6568 73.2617 70.909 74.0467 68.1969C74.9032 65.4135 75.831 62.737 76.8302 60.1677L75.7596 59.9536L75.9738 59.8465C76.0451 59.7038 76.0808 59.561 76.0808 59.4183C76.0808 59.2042 76.1165 59.0257 76.1879 58.883C76.1879 58.5261 76.2236 58.2407 76.2949 58.0265L76.509 57.8124V58.2407H76.7232L76.402 56.4207L77.7937 56.2066V55.9925L77.3655 55.3501L77.5796 55.2431L78.7572 52.8878C78.4718 53.1019 78.1863 53.316 77.9008 53.5302C77.6867 53.7443 77.4369 53.9941 77.1514 54.2796L75.5455 55.9925L75.6526 55.5642H74.9032L74.7961 55.9925H74.475L74.2609 56.6348L74.6891 56.3136H75.3314C75.26 56.4564 75.0816 56.7062 74.7961 57.063C74.5107 57.4199 74.2965 57.6697 74.1538 57.8124L74.0467 57.4913L73.8326 58.0265H73.9397C73.5828 58.4548 73.1903 58.883 72.7621 59.3112C72.3338 59.6681 71.9056 60.0249 71.4774 60.3818L68.6939 62.63L68.5868 63.5935L68.2657 64.0217H67.5163L67.3022 64.3429L67.5163 64.6641L66.8739 64.9852V64.8782C66.8026 65.0209 66.7312 65.1637 66.6598 65.3064C66.5885 65.3778 66.5171 65.4848 66.4457 65.6276C66.1602 65.913 65.9818 66.1628 65.9104 66.377C65.7677 66.5197 65.4465 66.8766 64.9469 67.4475C64.5187 68.0185 64.0905 68.5538 63.6622 69.0534C63.3054 69.553 63.0913 69.8385 63.0199 69.9098H63.234L63.4481 70.9804H63.234L63.127 71.3016L62.6987 71.4086V70.9804H62.1634L62.0564 71.3016C61.2713 71.9439 60.5219 72.6219 59.8082 73.3356C59.1659 74.0494 58.4878 74.7988 57.7741 75.5838L57.56 77.2967C57.3459 77.3681 57.0604 77.2254 56.7036 76.8685L56.4894 76.9756C56.6322 77.4038 56.7036 77.6536 56.7036 77.725C56.7036 77.9391 56.6322 78.1175 56.4894 78.2603C55.7757 78.6171 55.2404 79.1167 54.8836 79.759C54.5981 80.4014 54.384 81.0794 54.2413 81.7931H52.9566L49.8519 86.7177H49.5308L49.3166 85.326C48.4602 86.9675 47.6751 88.1808 46.9614 88.9659C46.2477 89.751 45.3912 90.2863 44.392 90.5718C43.3928 90.7859 41.9654 90.8929 40.1098 90.8929ZM65.161 16.1674L65.8034 15.525H65.5893C65.5179 15.6678 65.4108 15.8462 65.2681 16.0603C65.1254 16.2031 65.0897 16.2387 65.161 16.1674ZM94.1734 36.9364L96.1004 35.2235C97.0282 34.367 97.6349 33.9031 97.9204 33.8317C98.0631 33.5462 98.527 32.9039 99.3121 31.9047C100.097 30.9055 100.989 29.7993 101.989 28.586C102.988 27.3013 103.88 26.195 104.665 25.2672C105.521 24.3394 106.057 23.8041 106.271 23.6613V23.5543C106.199 23.5543 106.164 23.5186 106.164 23.4472C106.164 23.3759 106.271 23.0904 106.485 22.5908C106.699 22.0912 106.913 21.5916 107.127 21.092C107.341 20.5924 107.448 20.3069 107.448 20.2355C106.592 20.8779 105.521 21.6273 104.237 22.4837C103.023 23.2688 101.846 24.0896 100.704 24.946C99.6333 25.8025 98.8839 26.6232 98.4557 27.4083C97.8847 28.4075 97.3494 29.371 96.8498 30.2989C96.4216 31.2267 96.029 32.2616 95.6722 33.4035V33.0823L95.5651 33.4035C95.351 33.9745 95.1012 34.5454 94.8157 35.1164C94.5303 35.6874 94.3161 36.294 94.1734 36.9364ZM61.8423 29.4424H62.2705L62.3776 28.8001H62.2705L61.8423 29.4424ZM13.0244 32.1188C13.3813 31.762 13.5954 31.5122 13.6668 31.3694C13.5954 31.4408 13.4883 31.4765 13.3456 31.4765L13.0244 32.1188ZM60.6647 32.7612H60.7717L60.8788 32.44L61.8423 31.4765H61.307L61.1999 31.7976H60.8788C60.736 31.7976 60.6647 31.9047 60.6647 32.1188C60.5933 32.1902 60.5576 32.2616 60.5576 32.3329V32.6541C60.5576 32.7255 60.5933 32.7612 60.6647 32.7612ZM135.39 32.44C135.533 32.0118 135.676 31.7976 135.818 31.7976C135.89 31.7976 135.926 31.8333 135.926 31.9047L135.39 32.44ZM9.17039 36.7223C9.24176 36.6509 9.27744 36.5795 9.27744 36.5081C9.27744 36.4368 9.31313 36.3654 9.3845 36.294C9.3845 36.1513 9.42018 36.0442 9.49156 35.9729H9.17039C9.09901 36.0442 8.95627 36.0799 8.74216 36.0799V36.4011H9.17039V36.7223ZM92.0323 38.9704L92.6746 38.4352H92.3534C92.2107 38.5779 92.1036 38.7563 92.0323 38.9704ZM4.88812 40.2551H5.10223C5.38772 40.2551 5.56614 40.2194 5.63751 40.1481C5.56614 40.0767 5.53046 39.9696 5.53046 39.8269C5.95868 39.8269 6.20848 39.7912 6.27986 39.7198V39.3987C6.20848 39.3273 6.1728 39.2202 6.1728 39.0775L5.85163 39.1846V39.5057C5.63751 39.5771 5.4234 39.6485 5.20929 39.7198C4.99517 39.7912 4.88812 39.9696 4.88812 40.2551ZM3.60344 47.1068L3.28227 46.6785L2.85404 46.2503C2.78267 46.1789 2.85404 46.3574 3.06815 46.7856C3.2109 46.9997 3.31795 47.1068 3.38932 47.1068H3.60344ZM124.065 90.0365C123.28 90.0365 122.495 89.9294 121.71 89.7153C120.568 89.2871 119.426 88.1095 118.284 86.1824L119.14 85.9683L118.391 85.4331L117.534 82.7566H117.427C117.356 82.5425 117.32 82.2214 117.32 81.7931V81.0437C117.32 80.7582 117.499 80.2586 117.855 79.5449C118.212 78.8312 118.534 78.1532 118.819 77.5109L117.748 77.725V77.1897C117.82 77.1183 117.927 76.9399 118.07 76.6544C118.141 76.4403 118.319 76.2975 118.605 76.2262C118.676 76.2975 118.712 76.4046 118.712 76.5473L118.926 76.3332V75.798C118.926 75.5125 118.926 75.227 118.926 74.9415C118.997 74.5846 119.14 74.2992 119.354 74.085C119.354 73.6568 119.39 73.407 119.461 73.3356L119.568 72.9074H119.783V72.4792L120.425 71.6227C120.782 71.2659 120.996 71.0875 121.067 71.0875V70.9804C120.996 71.0518 120.889 71.0875 120.746 71.0875C120.461 71.0875 120.318 70.9447 120.318 70.6592C120.318 70.5879 120.353 70.5165 120.425 70.4451V69.9098C120.496 69.8385 120.532 69.66 120.532 69.3745C120.532 69.0891 120.461 68.875 120.318 68.7322L121.067 67.8758L121.495 67.9828L121.388 67.8758H121.602L121.71 67.7687L122.031 66.5911L122.566 67.4475L122.887 65.6276C122.959 65.2707 123.03 64.9139 123.101 64.557C123.173 64.2001 123.244 63.8433 123.315 63.4864L124.493 63.3794V62.5229H124.172V61.9876L124.707 61.4524V61.5594L124.814 61.4524V60.9171L125.778 60.2747V59.8465C126.277 59.561 126.706 59.0614 127.062 58.3477C127.276 57.8481 127.776 57.5269 128.561 57.3842H127.919L128.026 57.2771L127.598 57.5983V56.7419H127.812L127.919 56.5277H128.026L128.24 56.0995V55.5642C128.668 55.2788 129.096 54.9219 129.525 54.4937C130.024 54.0654 130.274 53.6015 130.274 53.1019L130.702 52.7808V52.3525L131.131 52.5666L132.522 51.282V50.8537L133.379 50.3185L133.807 49.6761C133.807 49.462 133.914 49.3549 134.128 49.3549C134.199 49.3549 134.342 49.4263 134.556 49.5691C134.842 49.6404 135.056 49.7118 135.199 49.7832H135.841C136.983 49.7832 138.125 50.2114 139.267 51.0679C140.409 51.8529 141.372 52.8164 142.157 53.9584C142.942 55.1003 143.335 56.2423 143.335 57.3842C143.335 57.7411 143.442 58.0979 143.656 58.4548C143.728 58.6689 143.763 58.883 143.763 59.0971C143.835 59.3112 143.87 59.561 143.87 59.8465V60.2747C143.87 60.5602 143.835 60.7386 143.763 60.81C142.55 63.6649 140.659 66.4126 138.089 69.0534C135.591 71.6941 132.986 73.7639 130.274 75.2627C129.703 75.5482 129.061 75.8336 128.347 76.1191C127.633 76.4046 126.92 76.5473 126.206 76.5473C125.992 76.5473 125.849 76.5117 125.778 76.4403L125.028 76.2262C125.242 76.1548 125.564 75.9764 125.992 75.6909C126.135 75.6195 126.277 75.5482 126.42 75.4768C126.563 75.4054 126.706 75.334 126.848 75.2627L127.491 74.9415C127.633 74.9415 127.74 74.9058 127.812 74.8344L127.705 74.7274C127.705 74.4419 127.883 74.2992 128.24 74.2992C128.668 74.0137 129.025 73.8352 129.311 73.7639L130.381 73.4427C130.809 73.3 131.166 73.1929 131.452 73.1215C131.809 72.9788 131.987 72.7647 131.987 72.4792C132.272 72.2651 132.629 71.8012 133.058 71.0875C133.557 70.231 133.914 69.6957 134.128 69.4816L135.092 69.2675L136.162 67.6616L135.948 67.2334L136.805 66.8052V66.377H137.019C137.804 65.5205 138.41 64.7711 138.839 64.1288C139.338 63.4151 139.766 62.4872 140.123 61.3453C140.123 61.2026 140.23 61.1312 140.444 61.1312V61.0241C140.873 60.1677 141.087 59.3469 141.087 58.5618C141.087 56.8489 140.266 55.9925 138.624 55.9925C138.482 55.9925 138.303 55.9568 138.089 55.8854C137.804 55.8854 137.661 55.9568 137.661 56.0995H138.196L137.661 56.5277C137.304 56.6705 136.947 56.8846 136.59 57.1701C136.305 57.4556 136.162 57.8481 136.162 58.3477H135.734C135.877 58.3477 135.984 58.4905 136.055 58.7759C135.556 58.7759 135.199 58.9187 134.985 59.2042L135.52 59.5253C135.377 59.6681 135.199 59.8108 134.985 59.9536C134.77 60.0249 134.556 60.132 134.342 60.2747C134.128 60.3461 133.914 60.4532 133.7 60.5959C133.486 60.6673 133.307 60.7743 133.165 60.9171C132.38 61.488 131.987 62.0233 131.987 62.5229C131.987 62.5943 132.023 62.6657 132.094 62.737C132.165 62.8084 132.237 62.8798 132.308 62.9511C132.451 63.0225 132.594 63.1296 132.736 63.2723L131.88 63.1653C131.88 63.1653 131.916 63.1653 131.987 63.1653C132.058 63.0939 132.13 63.0582 132.201 63.0582C131.916 63.0582 131.701 63.0939 131.559 63.1653C131.416 63.1653 131.416 63.2366 131.559 63.3794L131.666 63.4864C131.666 63.4864 131.63 63.4864 131.559 63.4864C131.559 63.4864 131.559 63.5221 131.559 63.5935C131.487 63.6649 131.452 63.7362 131.452 63.8076H131.238C130.952 64.1645 130.667 64.5213 130.381 64.8782C130.167 65.235 129.989 65.5919 129.846 65.9487C129.56 66.5911 129.168 67.2334 128.668 67.8758L129.418 68.411H128.668L128.24 68.8393V69.3745L127.598 69.9098L127.812 70.0169L126.741 71.8369L126.42 71.9439V72.8004L125.242 74.085L125.349 74.5133H125.135V75.2627C124.636 75.7623 124.315 76.4046 124.172 77.1897C124.1 77.9034 123.815 78.6171 123.315 79.3308H123.958L123.101 79.8661V80.1873C123.03 80.2586 122.994 80.3657 122.994 80.5084C122.994 80.7939 122.994 81.0437 122.994 81.2578C123.066 81.472 123.137 81.6861 123.208 81.9002C123.28 82.1143 123.315 82.3284 123.315 82.5425C123.387 82.7566 123.422 83.0064 123.422 83.2919C123.422 83.8629 123.637 84.6123 124.065 85.5401C124.564 86.3966 125.064 86.8248 125.564 86.8248C126.92 86.8248 128.276 86.4679 129.632 85.7542C130.916 84.9691 132.237 84.5409 133.593 84.4695L135.841 82.6496C136.983 81.7218 137.982 80.6155 138.839 79.3308C139.766 78.0461 140.801 76.9399 141.943 76.0121H142.05L141.836 75.798C142.05 75.5125 142.371 75.0842 142.8 74.5133C143.228 73.9423 143.478 73.4784 143.549 73.1215C143.62 73.0502 143.656 72.9074 143.656 72.6933C143.656 72.5506 143.692 72.4435 143.763 72.3721C143.906 72.0153 144.12 71.8369 144.406 71.8369C144.691 71.8369 144.834 72.0153 144.834 72.3721C144.834 72.5862 144.798 72.729 144.727 72.8004C144.727 73.5141 144.406 74.549 143.763 75.905C143.192 77.1897 142.514 77.9748 141.729 78.2603V78.5814C141.372 78.9383 141.015 79.4379 140.659 80.0802C140.159 80.7226 139.445 81.6147 138.517 82.7566C137.661 83.8986 136.947 84.4695 136.376 84.4695L134.878 85.4331V85.8613C134.878 86.2181 134.663 86.4679 134.235 86.6107C133.95 86.9675 133.593 87.1103 133.165 87.0389C132.95 87.4671 132.594 87.7526 132.094 87.8954C131.88 87.9667 131.559 88.1452 131.131 88.4306C130.988 88.6448 130.631 88.8589 130.06 89.073C129.56 89.2871 129.204 89.4298 128.989 89.5012C128.633 89.7867 128.204 89.9651 127.705 90.0365C127.205 90.0365 126.777 90.0365 126.42 90.0365H124.065ZM148.703 94.3188C148.346 94.3188 147.989 94.2117 147.632 93.9976C147.275 93.7835 146.919 93.605 146.562 93.4623C144.706 92.3917 143.457 90.9643 142.815 89.18C142.244 87.3244 141.958 85.4331 141.958 83.506C141.958 80.7939 142.279 78.0818 142.922 75.3697C143.564 72.6576 144.278 69.9812 145.063 67.3405C146.633 61.9163 148.632 56.7062 151.058 51.7102C153.485 46.6428 156.268 41.7539 159.409 37.0434C159.908 36.2583 160.408 35.5089 160.907 34.7952C161.478 34.0815 162.049 33.3678 162.62 32.6541C163.191 31.9404 163.727 31.2267 164.226 30.513C164.726 29.7279 165.225 29.0142 165.725 28.3718L167.224 26.4448C167.509 26.1593 167.759 25.8738 167.973 25.5884C168.187 25.2315 168.401 24.9103 168.615 24.6249C168.758 24.1966 168.83 23.8755 168.83 23.6613C168.758 23.4472 168.722 23.1261 168.722 22.6978C168.722 21.9841 169.186 21.1634 170.114 20.2355C170.542 19.8073 170.899 19.4504 171.185 19.165C171.542 18.8081 171.827 18.4869 172.041 18.2015C172.469 17.7019 172.862 17.1666 173.219 16.5956C173.647 16.0246 174.04 15.4537 174.396 14.8827C174.753 14.3117 175.11 13.7408 175.467 13.1698C175.895 12.5988 176.288 12.0635 176.645 11.5639C177.144 10.993 177.644 10.422 178.143 9.85103C178.643 9.20869 179.143 8.63772 179.642 8.13812C180.142 7.56715 180.606 6.99618 181.034 6.42522C181.534 5.85425 181.962 5.2119 182.319 4.49819C183.532 4.78368 184.781 5.17622 186.066 5.67582C187.35 6.17542 188.421 6.81776 189.277 7.60284C190.205 8.38792 190.669 9.45849 190.669 10.8145C190.669 11.3141 190.455 11.8494 190.027 12.4204C188.528 13.9906 186.922 15.4893 185.209 16.9168C184.281 17.6305 183.425 18.3799 182.64 19.165C181.855 19.95 181.105 20.7351 180.392 21.5202C178.179 23.9468 175.895 26.873 173.54 30.2989C171.185 33.6533 168.972 37.1148 166.903 40.6834C164.833 44.2519 163.12 47.535 161.764 50.5326L161.229 51.389L160.372 51.9243V51.282L160.586 50.5326C160.158 51.2463 159.765 51.96 159.409 52.6737C159.052 53.3874 158.695 54.1368 158.338 54.9219L156.09 59.5253C155.447 60.81 154.805 62.1304 154.163 63.4864C153.592 64.8425 153.128 66.2342 152.771 67.6616C152.7 67.8758 152.664 68.1256 152.664 68.411C152.664 68.7679 152.628 69.0534 152.557 69.2675C152.557 69.6957 152.307 69.9098 151.808 69.9098C151.522 69.9098 151.379 69.7671 151.379 69.4816C151.379 68.411 151.665 67.3048 152.236 66.1628C152.164 66.2342 152.093 66.3413 152.022 66.484C151.95 66.5554 151.843 66.6268 151.7 66.6981C151.558 66.4126 151.486 66.2342 151.486 66.1628V66.0558C151.486 65.128 151.629 64.1645 151.915 63.1653C151.558 63.5221 151.344 63.879 151.272 64.2358C151.13 64.7354 150.951 65.2707 150.737 65.8417C150.594 66.3413 150.38 66.8766 150.095 67.4475C149.809 67.9471 149.595 68.4824 149.452 69.0534C149.31 69.553 149.167 70.0526 149.024 70.5522L148.382 74.085C148.31 74.656 148.203 75.2627 148.061 75.905C147.918 76.476 147.775 77.0469 147.632 77.6179C147.275 79.5449 147.097 81.3649 147.097 83.0778C147.097 83.2205 147.097 83.399 147.097 83.6131C147.097 83.8272 147.133 84.0413 147.204 84.2554C147.275 84.4695 147.311 84.6837 147.311 84.8978C147.311 85.1119 147.347 85.3617 147.418 85.6472L147.739 86.8248C147.811 86.9675 147.846 87.146 147.846 87.3601C147.846 87.5742 147.882 87.7526 147.953 87.8954C148.096 87.5385 148.417 87.3244 148.917 87.253V87.7883C149.202 88.0738 149.417 88.3236 149.559 88.5377C149.773 88.7518 150.059 88.8589 150.416 88.8589C151.415 88.8589 152.45 88.395 153.52 87.4671C154.591 86.5393 155.59 85.4687 156.518 84.2554C157.446 83.0421 158.124 82.0429 158.552 81.2578C158.838 80.901 159.123 80.5441 159.409 80.1873C159.694 79.8304 159.98 79.5092 160.265 79.2238C160.622 78.9383 160.907 78.6171 161.121 78.2603C161.407 77.9034 161.692 77.5465 161.978 77.1897C163.477 74.9058 164.868 72.6576 166.153 70.4451C166.296 70.1596 166.439 69.9098 166.581 69.6957C166.724 69.4816 166.867 69.3032 167.01 69.1604L167.866 68.304C168.294 67.8758 168.58 67.6616 168.722 67.6616C168.937 67.6616 169.044 67.8044 169.044 68.0899C169.044 68.1612 168.865 68.6252 168.508 69.4816C168.152 70.3381 167.83 70.9447 167.545 71.3016L167.652 71.4086C166.867 72.5506 166.117 73.6925 165.404 74.8344C164.69 75.9764 164.048 77.154 163.477 78.3673C162.906 79.5806 162.263 80.7582 161.55 81.9002C160.907 83.0421 160.194 84.1841 159.409 85.326C158.695 86.3966 157.981 87.5742 157.267 88.8589C156.554 90.0722 155.769 91.1427 154.912 92.0706C154.127 93.0698 153.092 93.6764 151.808 93.8905C151.665 93.9619 151.486 93.9976 151.272 93.9976C151.058 93.9976 150.88 93.9976 150.737 93.9976H149.666C149.381 94.2117 149.06 94.3188 148.703 94.3188ZM156.732 52.3525C157.018 52.067 157.232 51.7816 157.374 51.4961C157.589 51.1392 157.767 50.7824 157.91 50.4255C158.267 49.9259 158.588 49.4263 158.873 48.9267C159.159 48.4271 159.444 47.9275 159.73 47.4279H159.837L159.944 46.9997C159.73 46.9997 159.444 47.3209 159.087 47.9632C158.945 48.3201 158.802 48.6769 158.659 49.0338C158.516 49.3193 158.374 49.6047 158.231 49.8902L157.267 51.4961L156.732 52.3525ZM153.306 58.7759C152.45 59.9892 152.022 61.3096 152.022 62.737C152.45 61.3096 153.057 60.0249 153.842 58.883L155.019 57.063C155.305 56.5634 155.519 55.8854 155.662 55.029L155.555 54.9219C154.841 56.2779 154.091 57.5626 153.306 58.7759ZM152.771 64.9852C152.914 64.6997 152.985 64.557 152.985 64.557C153.342 63.7719 153.627 63.0225 153.842 62.3088C154.127 61.5951 154.306 60.8814 154.377 60.1677C154.306 60.81 154.02 61.6665 153.52 62.737C153.021 63.6649 152.771 64.4143 152.771 64.9852ZM171.395 91.1071C170.396 91.1071 169.432 90.9286 168.504 90.5718C167.576 90.1435 166.72 89.6796 165.935 89.18C165.649 89.0373 165.078 88.6091 164.222 87.8954C163.437 87.1816 163.009 86.6107 162.937 86.1824L162.295 85.5401L162.723 85.2189C162.509 84.5766 162.331 83.8986 162.188 83.1849C162.045 82.4712 161.974 81.7931 161.974 81.1508C161.974 79.2951 162.224 77.6536 162.723 76.2262C163.294 74.7274 163.972 73.1929 164.757 71.6227H164.329L163.473 70.8733C163.544 70.7306 163.615 70.6592 163.687 70.6592C163.758 70.5879 163.829 70.5165 163.901 70.4451H163.794L164.115 69.9098L164.436 69.6957L164.65 69.4816L164.543 69.1604C164.614 69.0891 164.686 68.982 164.757 68.8393C164.9 68.6965 165.043 68.5538 165.185 68.411C165.257 68.2683 165.364 68.1256 165.507 67.9828V67.5546L166.042 67.2334V67.0193C166.042 66.8766 166.113 66.8052 166.256 66.8052V66.2699L166.47 66.377V66.1628L167.219 65.9487L167.327 65.8417L166.791 65.9487V65.0923C167.219 64.9495 167.683 64.5213 168.183 63.8076L169.575 62.3088L169.789 61.8806C169.932 61.8806 170.039 61.8449 170.11 61.7735C170.11 61.1312 170.503 60.5959 171.288 60.1677C172.144 59.6681 172.572 59.0614 172.572 58.3477C172.572 57.9909 172.715 57.8124 173.001 57.8124H173.215L173.001 57.7054C173.357 57.4913 173.607 57.3485 173.75 57.2771C173.893 57.2058 173.857 57.0273 173.643 56.7419L175.035 55.9925L179.959 50.9608C179.888 50.8894 179.852 50.7824 179.852 50.6396C179.852 50.3541 179.924 50.2114 180.066 50.2114C180.423 49.8545 180.744 49.4977 181.03 49.1408C181.387 48.784 181.708 48.3914 181.993 47.9632C182.35 47.6064 182.707 47.2852 183.064 46.9997C183.421 46.6428 183.778 46.3217 184.134 46.0362L185.954 44.5374C186.24 44.3233 186.525 44.1092 186.811 43.8951C187.096 43.6809 187.382 43.4311 187.667 43.1457C189.237 43.2884 190.772 43.7523 192.271 44.5374C193.841 45.2511 194.626 46.393 194.626 47.9632C195.839 49.6047 196.446 51.3177 196.446 53.1019C196.446 55.1003 195.875 57.063 194.733 58.99C193.663 60.8457 192.521 62.5586 191.307 64.1288C190.879 64.6284 190.344 65.3064 189.701 66.1628C189.059 66.9479 188.488 67.5546 187.988 67.9828C186.847 68.6965 185.847 69.4102 184.991 70.1239C184.134 70.8377 183.207 71.7655 182.207 72.9074H181.672V72.5862C181.672 72.3008 181.744 72.158 181.886 72.158C181.958 72.0153 182.065 71.8725 182.207 71.7298C182.35 71.5871 182.457 71.48 182.529 71.4086L183.064 70.6592L183.813 69.9098C184.741 68.982 185.705 67.6973 186.704 66.0558C187.703 64.3429 188.524 62.9155 189.166 61.7735C189.237 61.3453 189.487 60.9884 189.916 60.703C189.844 60.3461 189.844 59.9892 189.916 59.6324C190.058 59.2042 190.272 58.8473 190.558 58.5618C190.843 58.205 191.057 57.8481 191.2 57.4913C191.414 57.1344 191.593 56.7775 191.735 56.4207C192.235 55.4215 192.556 54.4223 192.699 53.4231C192.842 52.3525 192.949 51.2463 193.02 50.1043C191.664 50.7467 190.379 51.4604 189.166 52.2455C187.953 53.0306 186.811 53.9227 185.74 54.9219L179.317 61.0241C178.532 61.8092 177.39 62.8441 175.891 64.1288C174.464 65.3421 173.108 66.5911 171.823 67.8758C170.538 69.0891 169.717 70.0526 169.361 70.7663V70.8733H169.575V71.5157H169.468C169.325 71.8012 169.147 72.0153 168.932 72.158L168.611 72.5862C168.54 72.6576 168.504 72.8004 168.504 73.0145H167.969C167.755 73.5141 167.541 74.0137 167.327 74.5133C167.112 75.0129 166.934 75.5482 166.791 76.1191V76.7615L166.684 76.9756C165.899 78.4744 165.507 80.0088 165.507 81.579C165.507 82.5068 165.721 83.5774 166.149 84.7907C166.577 86.004 167.362 86.7534 168.504 87.0389C168.576 87.0389 168.683 87.0389 168.825 87.0389C168.968 87.0389 169.147 87.0746 169.361 87.146C169.717 87.3601 169.967 87.3601 170.11 87.146H170.538C171.537 87.146 172.18 87.0746 172.465 86.9318C172.822 86.7177 173.357 86.5036 174.071 86.2895L175.035 85.9683C175.177 85.8256 175.284 85.7542 175.356 85.7542H175.677V86.1824L176.748 85.4331V85.6472C178.675 85.0762 180.709 83.8986 182.85 82.1143C185.062 80.33 187.096 78.7242 188.952 77.2967C189.095 76.9399 189.273 76.6901 189.487 76.5473V76.0121L189.916 76.4403H190.237L190.879 75.5838C191.165 75.3697 191.414 75.1199 191.628 74.8344C191.843 74.549 192.128 74.2278 192.485 73.8709C192.699 73.7282 192.877 73.5854 193.02 73.4427C193.234 73.2286 193.484 73.0145 193.77 72.8004V73.7639H193.663C193.448 74.1207 193.199 74.5133 192.913 74.9415C192.699 75.2984 192.414 75.6552 192.057 76.0121C191.628 76.2975 191.236 76.6187 190.879 76.9756C190.594 77.2611 190.272 77.5465 189.916 77.832C189.63 78.1175 189.345 78.403 189.059 78.6885C188.774 78.974 188.524 79.2951 188.31 79.652C187.881 80.223 187.31 80.7939 186.597 81.3649C186.026 81.8645 185.419 82.3998 184.777 82.9707C184.206 83.4703 183.635 84.0056 183.064 84.5766C181.779 85.6472 180.566 86.7534 179.424 87.8954C178.71 88.6091 177.461 89.3228 175.677 90.0365C173.893 90.7502 172.465 91.1071 171.395 91.1071ZM165.185 70.5522C165.185 70.6235 165.15 70.6949 165.078 70.7663C165.078 70.7663 165.078 70.802 165.078 70.8733C165.292 70.5879 165.507 70.1596 165.721 69.5887L165.614 69.6957C165.542 69.9098 165.471 70.0883 165.4 70.231C165.328 70.3024 165.257 70.4094 165.185 70.5522ZM201.041 95.8176C200.256 95.8176 199.578 95.6034 199.007 95.1752C198.507 94.8184 198.008 94.3544 197.508 93.7835C196.58 92.5702 195.795 91.5353 195.153 90.6788C194.511 89.8224 194.189 88.5377 194.189 86.8248V83.506C194.189 82.8637 194.368 81.9002 194.725 80.6155C195.082 79.2594 195.51 77.9391 196.009 76.6544C196.58 75.3697 197.08 74.5133 197.508 74.085C198.151 72.0153 198.9 69.9812 199.756 67.9828C200.613 65.9844 201.719 64.1645 203.075 62.5229C202.361 60.81 201.898 59.0614 201.683 57.2771C201.469 55.4215 201.362 53.5658 201.362 51.7102C201.362 51.1392 201.362 50.6396 201.362 50.2114C201.434 49.7118 201.505 49.1765 201.576 48.6055L201.898 48.1773L202.005 48.0703V47.642C201.933 47.5707 201.898 47.4636 201.898 47.3209C201.898 47.0354 202.005 46.5715 202.219 45.9291C202.433 45.2868 202.611 44.6445 202.754 44.0021C202.968 43.3598 203.075 43.0029 203.075 42.9315C203.075 42.7888 203.218 42.6817 203.503 42.6104L204.039 42.3963C204.11 42.3249 204.288 42.2178 204.574 42.0751L204.895 41.861C205.537 41.0045 206.465 40.3979 207.679 40.041C208.963 39.6842 210.105 39.5057 211.104 39.5057C213.246 39.5057 214.816 40.2551 215.815 41.7539C216.885 43.1813 217.706 44.8229 218.277 46.6785C218.777 46.3217 219.276 46.1432 219.776 46.1432C219.99 46.1432 220.169 46.2146 220.311 46.3574C221.453 46.6428 222.738 47.2495 224.165 48.1773C225.664 49.1051 226.413 50.1043 226.413 51.1749V51.389C226.413 51.7459 226.057 52.2455 225.343 52.8878C224.629 53.5302 223.773 54.2082 222.774 54.9219C221.846 55.5642 220.918 56.1709 219.99 56.7419C219.134 57.3128 218.527 57.7054 218.17 57.9195C217.671 58.205 217.171 58.4548 216.671 58.6689C216.386 58.7402 216.136 58.883 215.922 59.0971C215.708 59.2398 215.458 59.3826 215.173 59.5253C214.816 59.8108 214.459 60.0963 214.102 60.3818C213.816 60.6673 213.495 60.9884 213.138 61.3453L212.175 62.3088C211.961 62.5229 211.782 62.737 211.64 62.9511C211.497 63.0939 211.319 63.2366 211.104 63.3794C210.962 63.5221 210.712 63.7005 210.355 63.9147C210.07 64.1288 209.748 64.3786 209.391 64.6641C208.535 65.235 208.071 65.7703 208 66.2699C207.928 66.3413 207.786 66.6624 207.572 67.2334C207.429 67.733 207.357 68.0899 207.357 68.304C207.357 69.0891 207.464 70.0526 207.679 71.1945C207.893 72.2651 208.214 73.3 208.642 74.2992C208.856 74.8701 208.856 75.5125 208.642 76.2262C208.428 76.8685 208.035 76.9756 207.464 76.5473C206.893 75.9764 206.394 75.227 205.966 74.2992C205.537 73.3713 205.288 72.6933 205.216 72.2651C205.145 72.1223 205.181 72.0153 205.323 71.9439C205.466 71.8725 205.466 71.7655 205.323 71.6227L205.109 71.4086C205.038 71.3373 205.002 71.2302 205.002 71.0875C205.002 71.0875 204.931 71.0161 204.788 70.8733C204.217 71.4443 203.61 72.4078 202.968 73.7639C202.326 75.0486 201.862 76.0477 201.576 76.7615L200.934 78.2603C200.577 79.0453 200.327 79.4379 200.185 79.4379C199.899 79.4379 199.756 79.2594 199.756 78.9026V78.7955C199.756 78.3673 199.863 77.9034 200.078 77.4038L200.72 75.6909C200.363 76.2619 200.042 76.9042 199.756 77.6179C199.542 78.2603 199.435 78.6885 199.435 78.9026V79.0097L199.542 79.2238C199.542 79.2951 199.578 79.3665 199.649 79.4379V79.8661C199.578 79.8661 199.542 79.9375 199.542 80.0802C199.4 80.7939 199.221 81.5076 199.007 82.2214C198.793 82.9351 198.579 83.6488 198.365 84.3625C197.865 85.6472 197.615 87.146 197.615 88.8589C197.615 90.0008 197.829 91 198.258 91.8565C198.686 92.7129 199.507 93.1411 200.72 93.1411C201.362 93.1411 201.933 93.0341 202.433 92.82C203.004 92.6059 203.825 92.0706 204.895 91.2141C206.037 90.429 207.179 89.5012 208.321 88.4306C209.463 87.2887 210.426 86.2181 211.211 85.2189C212.068 84.2197 212.496 83.4703 212.496 82.9707C212.71 82.6139 212.996 82.257 213.353 81.9002C213.709 81.472 213.816 81.0794 213.674 80.7226C214.602 79.2951 215.387 77.5822 216.029 75.5838C216.743 73.5141 217.314 71.4086 217.742 69.2675C218.242 67.1264 218.563 65.235 218.705 63.5935C218.848 63.0225 218.955 62.63 219.027 62.4159C219.169 62.1304 219.276 61.9519 219.348 61.8806L219.455 61.7735C219.598 61.6308 219.669 61.4167 219.669 61.1312C219.669 60.9884 219.669 60.81 219.669 60.5959C219.669 60.3818 219.633 60.1677 219.562 59.9536C219.419 59.5253 219.348 59.1328 219.348 58.7759C219.348 58.4905 219.455 58.0979 219.669 57.5983C219.883 57.0987 220.204 56.8489 220.632 56.8489C221.132 56.8489 221.525 57.2415 221.81 58.0265C222.096 58.8116 222.31 59.6681 222.452 60.5959C222.667 61.4524 222.774 62.1304 222.774 62.63C222.774 64.2715 222.595 66.1272 222.238 68.1969C221.881 70.1953 221.418 72.0153 220.847 73.6568C220.347 75.0129 219.776 76.1905 219.134 77.1897C218.563 78.1889 217.885 79.2951 217.1 80.5084L216.029 82.2214L215.601 82.9707C215.529 82.8994 215.458 83.0421 215.387 83.399C215.387 83.6845 215.315 83.8272 215.173 83.8272C215.101 83.8272 215.03 83.8986 214.958 84.0413C214.958 84.1127 214.923 84.1841 214.851 84.2554C214.495 84.8264 214.066 85.326 213.567 85.7542C213.281 86.0397 212.996 86.3252 212.71 86.6107C212.496 86.8248 212.318 87.0746 212.175 87.3601C211.39 88.502 210.391 89.7153 209.177 91C208.035 92.3561 206.751 93.498 205.323 94.4258C203.967 95.3536 202.54 95.8176 201.041 95.8176ZM205.752 59.7394L205.859 59.5253L206.073 58.6689C206.287 57.7411 207.072 56.6348 208.428 55.3501C209.784 54.0654 210.89 52.9949 211.747 52.1384C212.389 51.5675 213.031 50.9251 213.674 50.2114C214.316 49.4977 214.958 48.891 215.601 48.3914C215.458 47.8205 215.137 47.0711 214.637 46.1432C214.209 45.2154 213.709 44.3947 213.138 43.6809C212.639 42.8959 212.139 42.5033 211.64 42.5033C210.855 42.5033 210.141 42.8245 209.499 43.4668L209.284 43.6809C209.213 43.8951 209.07 44.0021 208.856 44.0021L208.321 44.3233C208.321 44.3947 208.285 44.4303 208.214 44.4303V44.6445C207.928 45.2868 207.607 45.9648 207.25 46.6785C207.036 46.964 206.858 47.2495 206.715 47.535C206.644 47.7491 206.572 47.9275 206.501 48.0703C206.144 49.2836 205.823 50.5326 205.537 51.8172C205.323 53.1019 205.216 54.3866 205.216 55.6713C205.216 56.385 205.252 57.0987 205.323 57.8124C205.395 58.4548 205.537 59.0971 205.752 59.7394ZM273.901 91.2141C272.83 91.2141 271.974 90.8929 271.331 90.2506C270.689 89.6083 270.082 88.8946 269.511 88.1095C269.583 87.9667 269.618 87.8597 269.618 87.7883C269.69 87.7169 269.725 87.6812 269.725 87.6812C269.725 87.6099 269.654 87.5028 269.511 87.3601C268.94 86.3609 268.584 85.2903 268.441 84.1484C268.298 82.9351 268.191 81.7931 268.12 80.7226L268.334 80.5084C268.476 79.4379 268.584 78.3673 268.655 77.2967C268.726 76.2262 268.762 75.1199 268.762 73.978C268.762 73.4784 268.94 72.9788 269.297 72.4792V72.3721C269.226 72.3721 269.19 72.3364 269.19 72.2651V72.158C269.19 72.0153 269.226 71.9439 269.297 71.9439C269.369 70.8733 269.583 69.8385 269.94 68.8393C270.511 67.055 271.117 65.3421 271.76 63.7005C272.402 61.9876 273.116 60.132 273.901 58.1336C274.115 57.9195 274.15 57.7054 274.008 57.4913L273.794 57.063C273.794 56.2779 274.079 55.4215 274.65 54.4937C275.292 53.5658 275.828 52.7808 276.256 52.1384C276.256 51.7816 276.434 51.2106 276.791 50.4255C277.148 49.5691 277.505 48.7483 277.862 47.9632C278.29 47.1781 278.575 46.7142 278.718 46.5715C278.147 46.7142 277.897 46.6785 277.969 46.4644C278.112 46.1789 278.254 46.0362 278.397 46.0362L279.468 44.4303C279.824 44.0021 280.039 43.4668 280.11 42.8245C280.253 42.2535 280.431 41.6825 280.645 41.1116C280.859 40.5406 281.323 40.1838 282.037 40.041C282.18 39.8983 282.394 39.8269 282.679 39.8269C283.25 39.8269 284.035 40.0053 285.035 40.3622C286.105 40.6477 287.069 41.0402 287.925 41.5398C288.782 42.0394 289.21 42.5747 289.21 43.1457C289.21 43.788 288.924 44.6445 288.353 45.715C287.854 46.7142 287.283 47.7848 286.64 48.9267L284.606 52.1384C283.893 53.1376 283.357 54.0654 283 54.9219H282.786V55.2431L281.823 56.2066V56.6348L281.716 56.7419C281.644 57.2415 281.537 57.7767 281.395 58.3477C281.252 58.8473 281.002 59.3469 280.645 59.8465L280.003 59.7394C279.575 60.6673 279.325 60.8814 279.253 60.3818C279.253 59.8822 279.539 59.1685 280.11 58.2407L279.896 57.9195C279.61 58.4905 279.361 59.0257 279.146 59.5253C279.004 59.9536 278.968 60.4888 279.039 61.1312V61.0241L279.146 61.1312L278.718 61.3453L278.397 62.4159C278.326 62.63 278.254 62.8441 278.183 63.0582C278.112 63.2723 278.04 63.4507 277.969 63.5935C277.683 64.4499 277.291 64.9495 276.791 65.0923L276.898 65.7346L276.577 66.6981C276.434 67.1977 276.399 67.5189 276.47 67.6616H276.042V67.7687L274.436 70.4451C274.507 70.5165 274.543 70.6235 274.543 70.7663C274.543 71.1945 274.365 71.8369 274.008 72.6933C273.508 73.6211 273.223 74.3348 273.151 74.8344C273.08 74.9772 273.009 75.1199 272.937 75.2627C272.937 75.4054 272.973 75.6195 273.044 75.905L272.937 75.798C272.937 75.8693 272.937 75.9407 272.937 76.0121C273.009 76.0834 273.044 76.1191 273.044 76.1191V76.5473C273.044 77.4752 272.901 78.2603 272.616 78.9026C272.33 79.6877 272.188 80.5084 272.188 81.3649C272.188 81.7931 272.259 82.2927 272.402 82.8637C272.473 83.1492 272.509 83.4347 272.509 83.7201C272.58 83.9343 272.616 84.1841 272.616 84.4695C272.616 84.8978 272.58 85.2189 272.509 85.4331C272.438 85.5758 272.402 85.7542 272.402 85.9683C272.402 86.1824 272.402 86.3609 272.402 86.5036C272.402 87.0746 272.759 87.6812 273.472 88.3236C274.186 88.8946 274.828 89.18 275.399 89.18C276.256 89.18 276.863 89.0373 277.219 88.7518C277.362 88.6091 277.541 88.4663 277.755 88.3236C278.04 88.1095 278.326 87.931 278.611 87.7883L279.146 86.7177V88.0024L279.039 88.1095C278.683 88.8946 277.933 89.6083 276.791 90.2506C275.649 90.8929 274.686 91.2141 273.901 91.2141ZM220.801 90.3577C220.658 90.3577 220.408 90.2863 220.051 90.1435C219.694 89.9294 219.48 89.6796 219.409 89.3941H219.73C219.873 89.3228 220.051 89.2514 220.265 89.18C220.408 89.1087 220.515 89.0373 220.586 88.9659C220.729 88.8946 220.908 88.8232 221.122 88.7518C221.264 88.6804 221.407 88.6091 221.55 88.5377C222.05 88.2522 222.513 87.6812 222.942 86.8248C223.37 85.9683 223.727 85.0762 224.012 84.1484C224.369 83.1492 224.619 82.4355 224.762 82.0072L225.083 80.6155C225.083 80.33 225.083 80.0802 225.083 79.8661C225.154 79.652 225.226 79.4379 225.297 79.2238C225.511 78.4387 225.761 77.6893 226.046 76.9756C226.403 76.2619 226.76 75.5482 227.117 74.8344C227.188 74.6917 227.224 74.3705 227.224 73.8709C227.295 73.3713 227.331 73.0145 227.331 72.8004C227.26 72.8004 227.153 72.729 227.01 72.5862C226.938 72.5149 226.903 72.4435 226.903 72.3721C226.903 72.2294 226.938 72.158 227.01 72.158C227.224 71.6584 227.474 71.1231 227.759 70.5522C228.116 69.9098 228.58 69.5173 229.151 69.3745C229.294 69.0177 229.472 68.6608 229.686 68.304C229.9 67.9471 230.079 67.5903 230.222 67.2334C230.364 66.8766 230.543 66.5554 230.757 66.2699C230.971 65.913 231.149 65.5562 231.292 65.1993L232.256 62.3088C232.398 61.8092 232.541 61.3453 232.684 60.9171C232.898 60.4175 233.148 59.9536 233.433 59.5253H233.112L232.898 58.883L233.326 58.2407L232.577 58.0265C232.791 57.9552 232.969 57.8481 233.112 57.7054V57.5983C232.898 57.3842 232.791 57.1701 232.791 56.956C232.791 56.8132 232.827 56.7419 232.898 56.7419C233.041 56.4564 233.148 56.2066 233.219 55.9925C233.29 55.707 233.362 55.4215 233.433 55.136C233.576 54.565 233.826 54.1011 234.183 53.7443H233.969C233.969 53.8156 233.861 53.8513 233.647 53.8513C233.505 53.8513 233.433 53.7443 233.433 53.5302C233.433 53.1733 233.505 52.7808 233.647 52.3525C233.79 51.8529 233.933 51.4247 234.076 51.0679C234.218 50.5683 234.361 50.0687 234.504 49.5691C234.647 49.0695 234.718 48.5699 234.718 48.0703C234.718 47.7848 234.682 47.5707 234.611 47.4279C234.468 47.1424 234.397 46.8926 234.397 46.6785C234.397 46.393 234.539 46.1076 234.825 45.8221C235.039 45.6793 235.253 45.5009 235.467 45.2868C235.039 45.1441 234.754 45.0013 234.611 44.8586C234.468 44.6445 234.218 44.5017 233.861 44.4303H233.754L232.684 44.2162L231.827 43.8951C231.471 43.7523 231.292 43.5739 231.292 43.3598C231.292 43.1457 231.471 42.9672 231.827 42.8245C232.256 42.6817 232.505 42.5747 232.577 42.5033C233.576 42.7174 234.861 43.0029 236.431 43.3598C238.072 43.7166 239.607 44.1449 241.034 44.6445C242.462 45.144 243.389 45.715 243.818 46.3574C243.96 46.6428 244.032 46.9283 244.032 47.2138C244.103 47.4279 244.139 47.642 244.139 47.8562C244.139 48.3558 243.925 49.2122 243.497 50.4255C243.14 51.6388 242.676 52.7808 242.105 53.8513C241.534 54.8505 240.927 55.4572 240.285 55.6713L240.392 55.7783L240.82 56.5277C240.963 56.956 241.034 57.1701 241.034 57.1701C241.034 57.3842 240.963 57.634 240.82 57.9195C240.749 58.1336 240.57 58.2763 240.285 58.3477L240.178 58.4548C240.178 58.5261 240.142 58.5975 240.071 58.6689C239.999 58.7402 239.964 58.8473 239.964 58.99C239.964 59.2042 239.928 59.3469 239.857 59.4183H239.964V59.8465C239.964 60.2747 239.75 60.5959 239.321 60.81C239.25 61.1669 239 61.8092 238.572 62.737C238.215 63.5935 237.93 64.1288 237.715 64.3429L237.287 64.9852C237.359 65.0566 237.394 65.128 237.394 65.1993C237.394 65.4135 237.323 65.5205 237.18 65.5205L236.966 65.7346C236.895 65.9487 236.716 66.1985 236.431 66.484C236.359 66.6268 236.252 66.7695 236.11 66.9122C236.038 66.9836 235.967 67.0907 235.896 67.2334C235.467 67.733 235.325 68.2683 235.467 68.8393H235.36C235.36 68.982 235.289 69.1247 235.146 69.2675C235.003 69.553 234.825 69.8741 234.611 70.231C234.397 70.5879 234.111 70.802 233.754 70.8733C233.683 71.1588 233.612 71.48 233.54 71.8369C233.469 72.1223 233.398 72.3364 233.326 72.4792C233.255 72.6219 233.183 72.8004 233.112 73.0145C233.041 73.1572 232.969 73.3 232.898 73.4427L232.47 74.5133C232.113 75.3697 231.792 76.2619 231.506 77.1897C231.221 78.0461 230.935 78.974 230.65 79.9732H230.971C230.971 80.0445 231.007 80.0802 231.078 80.0802C231.435 80.0802 231.756 79.8661 232.041 79.4379C232.327 78.9383 232.398 78.4744 232.256 78.0461C232.612 77.9034 232.862 77.725 233.005 77.5109C233.362 77.154 233.647 76.9756 233.861 76.9756C234.218 76.6187 234.504 76.3689 234.718 76.2262L235.467 75.4768C236.538 74.4776 237.466 73.3356 238.251 72.051C238.608 71.48 239 70.909 239.428 70.3381C239.928 69.6957 240.428 69.1247 240.927 68.6252C241.498 67.9114 242.069 67.1977 242.64 66.484C243.282 65.7703 243.853 65.0209 244.353 64.2358C244.853 63.4507 245.352 62.7013 245.852 61.9876C246.423 61.2739 246.994 60.5602 247.565 59.8465C248.064 59.2755 248.564 58.7046 249.064 58.1336C249.563 57.4913 249.991 56.8132 250.348 56.0995C250.205 55.9568 250.134 55.814 250.134 55.6713C250.134 55.3144 250.491 54.8148 251.205 54.1725C251.918 53.4588 252.739 52.7451 253.667 52.0314C254.666 51.3177 255.594 50.6753 256.45 50.1043C257.378 49.5334 258.021 49.1765 258.377 49.0338C258.592 49.0338 259.055 48.9267 259.769 48.7126C260.554 48.4985 261.018 48.3914 261.161 48.3914H261.482C261.482 49.1765 261.446 49.9259 261.375 50.6396C261.375 51.3533 261.268 51.9957 261.054 52.5666C260.84 53.209 260.59 53.8513 260.304 54.4937C260.09 55.136 259.841 55.7783 259.555 56.4207C259.055 57.7767 258.52 59.0614 257.949 60.2747L256.986 62.8441C256.843 63.2723 256.665 63.7005 256.45 64.1288C256.236 64.557 256.058 64.9495 255.915 65.3064L255.487 66.377C255.416 66.7338 255.237 67.055 254.952 67.3405C254.952 67.4118 254.916 67.5546 254.845 67.7687C254.845 67.9114 254.809 68.0899 254.738 68.304C254.952 68.304 255.166 68.2683 255.38 68.1969C254.88 69.3389 254.523 70.3024 254.309 71.0875C254.095 71.8012 253.952 72.7647 253.881 73.978C254.738 72.836 255.63 71.6584 256.557 70.4451C257.557 69.1604 258.199 68.3754 258.484 68.0899C259.27 67.5189 260.09 66.8409 260.947 66.0558C261.803 65.2707 262.624 64.4856 263.409 63.7005C263.837 63.2723 264.266 62.8441 264.694 62.4159C265.122 61.9876 265.515 61.5594 265.871 61.1312C266.228 60.703 266.585 60.3104 266.942 59.9536C267.37 59.5253 267.763 59.1328 268.12 58.7759C268.405 58.4905 268.655 58.205 268.869 57.9195C269.154 57.634 269.404 57.3485 269.618 57.063C269.975 56.4921 270.439 55.9211 271.01 55.3501C271.438 54.9219 271.831 54.3509 272.188 53.6372C272.33 53.3517 272.473 53.0662 272.616 52.7808C272.759 52.4953 272.973 52.2098 273.258 51.9243L274.008 51.1749C274.293 50.8894 274.543 50.7467 274.757 50.7467C275.043 50.7467 275.185 50.9251 275.185 51.282C275.185 52.2098 274.614 53.3874 273.472 54.8148C272.33 56.1709 271.367 57.3128 270.582 58.2407C270.296 58.5261 270.047 58.8473 269.832 59.2042C269.618 59.4896 269.404 59.8108 269.19 60.1677C268.691 60.8814 268.155 61.5237 267.584 62.0947L265.015 64.9852C263.944 66.0558 263.088 67.055 262.446 67.9828C261.446 69.4102 260.412 70.8733 259.341 72.3721C258.342 73.7996 257.2 75.1199 255.915 76.3332C255.13 77.1183 254.488 78.0461 253.988 79.1167C253.56 80.1873 253.132 81.2222 252.703 82.2214C252.775 82.7923 252.739 83.2919 252.596 83.7201C252.454 84.077 251.99 84.2554 251.205 84.2554C250.491 84.2554 249.777 84.2197 249.064 84.1484C248.35 84.0056 247.815 83.506 247.458 82.6496C247.386 82.5068 247.208 82.2927 246.922 82.0072C246.708 81.8645 246.601 81.6504 246.601 81.3649C246.601 81.2935 246.637 81.2222 246.708 81.1508V80.9367L247.351 80.6155V80.5084C247.279 80.1516 247.208 79.7947 247.136 79.4379C247.136 79.081 247.136 78.7242 247.136 78.3673C247.136 77.6536 247.172 76.9756 247.244 76.3332C247.315 75.6195 247.422 74.9058 247.565 74.1921C247.707 73.5498 247.85 72.9074 247.993 72.2651C248.136 71.5514 248.243 70.8377 248.314 70.1239C248.457 70.1239 248.457 70.0526 248.314 69.9098C248.457 68.4824 248.814 67.055 249.385 65.6276C249.956 64.2001 250.491 62.8084 250.991 61.4524C251.561 60.0249 251.847 58.6689 251.847 57.3842V56.956C251.633 57.4556 251.347 57.8838 250.991 58.2407C250.848 58.5261 250.705 58.7759 250.562 58.99C250.42 59.2042 250.241 59.4183 250.027 59.6324L249.706 59.8465C249.349 60.132 249.099 60.5959 248.956 61.2382C248.885 61.5237 248.778 61.8092 248.635 62.0947C248.493 62.3088 248.35 62.5586 248.207 62.8441C248.136 62.9868 247.886 63.2723 247.458 63.7005L247.136 63.9147C246.922 64.0574 246.744 64.2358 246.601 64.4499C246.458 64.6641 246.316 64.8425 246.173 64.9852C245.745 65.8417 245.209 66.5911 244.567 67.2334C244.21 67.5903 243.853 67.9828 243.497 68.411C243.211 68.7679 242.89 69.1247 242.533 69.4816L242.105 70.1239C241.819 70.4094 241.641 70.6592 241.57 70.8733L240.285 73.1215C240.142 73.407 239.964 73.6568 239.75 73.8709C239.535 74.085 239.357 74.2635 239.214 74.4062C238.715 74.7631 238.322 75.1913 238.037 75.6909C237.037 77.0469 236.181 78.3673 235.467 79.652C235.039 80.3657 234.539 81.0437 233.969 81.6861C233.469 82.257 232.934 82.828 232.363 83.399C232.077 83.6845 231.827 83.9343 231.613 84.1484C231.399 84.3625 231.221 84.5766 231.078 84.7907C230.935 85.0048 230.757 85.2189 230.543 85.4331C230.329 85.6472 230.15 85.8256 230.007 85.9683L227.973 88.0024C226.831 88.9302 225.797 89.5012 224.869 89.7153C223.941 89.7867 222.763 90.0008 221.336 90.3577H220.801ZM233.969 69.3745H234.076C234.29 69.1604 234.432 68.982 234.504 68.8393L234.611 68.7322L234.397 68.304C234.325 68.5181 234.254 68.7322 234.183 68.9463C234.111 69.0891 234.04 69.2318 233.969 69.3745ZM252.275 76.2262C252.418 76.0834 252.525 75.9407 252.596 75.798C252.739 75.5838 252.882 75.3697 253.025 75.1556C252.953 75.1556 252.775 75.227 252.489 75.3697C252.418 75.5125 252.347 75.6552 252.275 75.798C252.204 75.9407 252.204 76.0834 252.275 76.2262ZM285.863 90.0365C285.077 90.0365 284.292 89.9294 283.507 89.7153C282.365 89.2871 281.223 88.1095 280.082 86.1824L280.938 85.9683L280.189 85.4331L279.332 82.7566H279.225C279.154 82.5425 279.118 82.2214 279.118 81.7931V81.0437C279.118 80.7582 279.296 80.2586 279.653 79.5449C280.01 78.8312 280.331 78.1532 280.617 77.5109L279.546 77.725V77.1897C279.618 77.1183 279.725 76.9399 279.867 76.6544C279.939 76.4403 280.117 76.2975 280.403 76.2262C280.474 76.2975 280.51 76.4046 280.51 76.5473L280.724 76.3332V75.798C280.724 75.5125 280.724 75.227 280.724 74.9415C280.795 74.5846 280.938 74.2992 281.152 74.085C281.152 73.6568 281.188 73.407 281.259 73.3356L281.366 72.9074H281.58V72.4792L282.223 71.6227C282.579 71.2659 282.794 71.0875 282.865 71.0875V70.9804C282.794 71.0518 282.687 71.0875 282.544 71.0875C282.258 71.0875 282.116 70.9447 282.116 70.6592C282.116 70.5879 282.151 70.5165 282.223 70.4451V69.9098C282.294 69.8385 282.33 69.66 282.33 69.3745C282.33 69.0891 282.258 68.875 282.116 68.7322L282.865 67.8758L283.293 67.9828L283.186 67.8758H283.4L283.507 67.7687L283.828 66.5911L284.364 67.4475L284.685 65.6276C284.756 65.2707 284.828 64.9139 284.899 64.557C284.97 64.2001 285.042 63.8433 285.113 63.4864L286.291 63.3794V62.5229H285.97V61.9876L286.505 61.4524V61.5594L286.612 61.4524V60.9171L287.575 60.2747V59.8465C288.075 59.561 288.503 59.0614 288.86 58.3477C289.074 57.8481 289.574 57.5269 290.359 57.3842H289.717L289.824 57.2771L289.395 57.5983V56.7419H289.61L289.717 56.5277H289.824L290.038 56.0995V55.5642C290.466 55.2788 290.894 54.9219 291.322 54.4937C291.822 54.0654 292.072 53.6015 292.072 53.1019L292.5 52.7808V52.3525L292.928 52.5666L294.32 51.282V50.8537L295.176 50.3185L295.605 49.6761C295.605 49.462 295.712 49.3549 295.926 49.3549C295.997 49.3549 296.14 49.4263 296.354 49.5691C296.64 49.6404 296.854 49.7118 296.996 49.7832H297.639C298.781 49.7832 299.923 50.2114 301.065 51.0679C302.207 51.8529 303.17 52.8164 303.955 53.9584C304.74 55.1003 305.133 56.2423 305.133 57.3842C305.133 57.7411 305.24 58.0979 305.454 58.4548C305.525 58.6689 305.561 58.883 305.561 59.0971C305.632 59.3112 305.668 59.561 305.668 59.8465V60.2747C305.668 60.5602 305.632 60.7386 305.561 60.81C304.348 63.6649 302.456 66.4126 299.887 69.0534C297.389 71.6941 294.784 73.7639 292.072 75.2627C291.501 75.5482 290.859 75.8336 290.145 76.1191C289.431 76.4046 288.717 76.5473 288.004 76.5473C287.79 76.5473 287.647 76.5117 287.575 76.4403L286.826 76.2262C287.04 76.1548 287.361 75.9764 287.79 75.6909C287.932 75.6195 288.075 75.5482 288.218 75.4768C288.361 75.4054 288.503 75.334 288.646 75.2627L289.288 74.9415C289.431 74.9415 289.538 74.9058 289.61 74.8344L289.502 74.7274C289.502 74.4419 289.681 74.2992 290.038 74.2992C290.466 74.0137 290.823 73.8352 291.108 73.7639L292.179 73.4427C292.607 73.3 292.964 73.1929 293.249 73.1215C293.606 72.9788 293.785 72.7647 293.785 72.4792C294.07 72.2651 294.427 71.8012 294.855 71.0875C295.355 70.231 295.712 69.6957 295.926 69.4816L296.889 69.2675L297.96 67.6616L297.746 67.2334L298.602 66.8052V66.377H298.816C299.602 65.5205 300.208 64.7711 300.636 64.1288C301.136 63.4151 301.564 62.4872 301.921 61.3453C301.921 61.2026 302.028 61.1312 302.242 61.1312V61.0241C302.67 60.1677 302.885 59.3469 302.885 58.5618C302.885 56.8489 302.064 55.9925 300.422 55.9925C300.28 55.9925 300.101 55.9568 299.887 55.8854C299.602 55.8854 299.459 55.9568 299.459 56.0995H299.994L299.459 56.5277C299.102 56.6705 298.745 56.8846 298.388 57.1701C298.103 57.4556 297.96 57.8481 297.96 58.3477H297.532C297.674 58.3477 297.782 58.4905 297.853 58.7759C297.353 58.7759 296.996 58.9187 296.782 59.2042L297.318 59.5253C297.175 59.6681 296.996 59.8108 296.782 59.9536C296.568 60.0249 296.354 60.132 296.14 60.2747C295.926 60.3461 295.712 60.4532 295.498 60.5959C295.284 60.6673 295.105 60.7743 294.962 60.9171C294.177 61.488 293.785 62.0233 293.785 62.5229C293.785 62.5943 293.82 62.6657 293.892 62.737C293.963 62.8084 294.035 62.8798 294.106 62.9511C294.249 63.0225 294.391 63.1296 294.534 63.2723L293.678 63.1653C293.678 63.1653 293.713 63.1653 293.785 63.1653C293.856 63.0939 293.927 63.0582 293.999 63.0582C293.713 63.0582 293.499 63.0939 293.357 63.1653C293.214 63.1653 293.214 63.2366 293.357 63.3794L293.464 63.4864C293.464 63.4864 293.428 63.4864 293.357 63.4864C293.357 63.4864 293.357 63.5221 293.357 63.5935C293.285 63.6649 293.249 63.7362 293.249 63.8076H293.035C292.75 64.1645 292.464 64.5213 292.179 64.8782C291.965 65.235 291.786 65.5919 291.644 65.9487C291.358 66.5911 290.966 67.2334 290.466 67.8758L291.215 68.411H290.466L290.038 68.8393V69.3745L289.395 69.9098L289.61 70.0169L288.539 71.8369L288.218 71.9439V72.8004L287.04 74.085L287.147 74.5133H286.933V75.2627C286.434 75.7623 286.112 76.4046 285.97 77.1897C285.898 77.9034 285.613 78.6171 285.113 79.3308H285.756L284.899 79.8661V80.1873C284.828 80.2586 284.792 80.3657 284.792 80.5084C284.792 80.7939 284.792 81.0437 284.792 81.2578C284.863 81.472 284.935 81.6861 285.006 81.9002C285.077 82.1143 285.113 82.3284 285.113 82.5425C285.185 82.7566 285.22 83.0064 285.22 83.2919C285.22 83.8629 285.434 84.6123 285.863 85.5401C286.362 86.3966 286.862 86.8248 287.361 86.8248C288.717 86.8248 290.073 86.4679 291.43 85.7542C292.714 84.9691 294.035 84.5409 295.391 84.4695L297.639 82.6496C298.781 81.7218 299.78 80.6155 300.636 79.3308C301.564 78.0461 302.599 76.9399 303.741 76.0121H303.848L303.634 75.798C303.848 75.5125 304.169 75.0842 304.597 74.5133C305.026 73.9423 305.276 73.4784 305.347 73.1215C305.418 73.0502 305.454 72.9074 305.454 72.6933C305.454 72.5506 305.49 72.4435 305.561 72.3721C305.704 72.0153 305.918 71.8369 306.203 71.8369C306.489 71.8369 306.632 72.0153 306.632 72.3721C306.632 72.5862 306.596 72.729 306.525 72.8004C306.525 73.5141 306.203 74.549 305.561 75.905C304.99 77.1897 304.312 77.9748 303.527 78.2603V78.5814C303.17 78.9383 302.813 79.4379 302.456 80.0802C301.957 80.7226 301.243 81.6147 300.315 82.7566C299.459 83.8986 298.745 84.4695 298.174 84.4695L296.675 85.4331V85.8613C296.675 86.2181 296.461 86.4679 296.033 86.6107C295.747 86.9675 295.391 87.1103 294.962 87.0389C294.748 87.4671 294.391 87.7526 293.892 87.8954C293.678 87.9667 293.357 88.1452 292.928 88.4306C292.786 88.6448 292.429 88.8589 291.858 89.073C291.358 89.2871 291.001 89.4298 290.787 89.5012C290.43 89.7867 290.002 89.9651 289.502 90.0365C289.003 90.0365 288.575 90.0365 288.218 90.0365H285.863Z" fill="#F57005"/>
</svg>
