<svg width="951" height="509" viewBox="0 0 951 509" fill="none" xmlns="http://www.w3.org/2000/svg">
<path d="M15.2011 256.177C15.2532 255.526 15.3053 254.875 15.3573 254.223C15.3971 253.938 15.4231 253.612 15.4629 253.327C15.6004 253.87 15.6004 253.87 14.2733 278.947C14.2866 278.852 14.2861 278.717 14.2993 278.622L14.8702 262.718C14.9442 260.52 15.032 258.362 15.2011 256.177Z" fill="#36305D"/>
<path d="M17.836 240.755C17.9831 240.117 18.0896 239.492 18.2504 238.895C18.3715 238.582 18.4519 238.284 18.6273 237.998C18.668 237.985 18.763 237.998 18.8173 238.025C19.7204 240.301 17.467 260.213 16.4423 262.143C16.4017 262.156 16.3473 262.129 16.2929 262.102C15.7576 260.245 16.7163 246.702 17.836 240.755Z" fill="#36305D"/>
<path d="M23.6181 224.998C23.8196 224.386 24.021 223.775 24.2769 223.191C24.5195 222.702 25.0453 221.709 25.3879 222.726C26.4298 225.951 23.33 244.292 21.6228 245.003C20.3593 244.478 21.6993 231.394 23.6181 224.998Z" fill="#36305D"/>
<path d="M32.6805 208.903C32.9364 208.319 33.2466 207.762 33.5568 207.204C33.8944 206.728 34.9209 205.341 35.2941 207.389C36.2058 212.243 31.9452 228.349 30.0562 227.446C28.6022 226.759 29.9879 215.154 32.6805 208.903Z" fill="#36305D"/>
<path d="M45.136 192.39C45.4462 191.833 45.8107 191.302 46.2296 190.799C48.0277 188.88 48.4001 190.656 48.4992 191.89C48.8581 197.791 43.842 211.118 41.8283 209.442C40.2911 208.24 41.9934 197.977 45.136 192.39Z" fill="#36305D"/>
<path d="M60.9934 175.499C61.5064 174.738 61.9527 174.316 62.2501 173.989C65.0368 171.511 64.9545 175.296 64.9572 176.11C64.6131 182.746 58.9506 193.484 57.0164 191.238C55.3957 189.385 57.7124 180.273 60.9934 175.499Z" fill="#36305D"/>
<path d="M80.3915 158.367C80.9726 157.673 81.4326 157.291 81.7707 156.951C85.276 154.321 84.7756 158.881 84.6824 159.411C83.8358 165.899 77.5037 175.187 75.7851 172.506C74.3942 170.394 76.9324 162.611 80.3915 158.367Z" fill="#36305D"/>
<path d="M103.426 141.004C103.859 140.542 104.346 140.106 104.887 139.697C108.177 137.501 108.282 140.5 107.881 142.4C106.625 148.212 100.355 155.803 98.5434 153.652C97.0313 151.853 99.7487 144.87 103.426 141.004Z" fill="#36305D"/>
<path d="M130.15 123.168C130.637 122.732 131.179 122.323 131.734 121.955C135.214 119.921 135.385 122.444 134.916 124.278C133.484 129.967 126.384 137.114 124.815 134.474C123.642 132.47 126.417 126.599 130.15 123.168Z" fill="#36305D"/>
<path d="M160.643 105.102C161.13 104.666 161.699 104.339 162.214 103.984C165.789 102.1 165.933 104.406 165.531 105.9C164.109 110.816 156.763 117.367 155.182 115.093C154.023 113.401 156.868 108.14 160.643 105.102Z" fill="#36305D"/>
<path d="M195.045 86.6697C195.559 86.3152 196.073 85.9608 196.615 85.6876C200.164 83.9933 200.347 85.8786 199.863 87.2642C198.305 91.9096 190.605 97.8102 189.416 95.2227C188.677 93.5699 191.526 89.2594 195.045 86.6697Z" fill="#36305D"/>
<path d="M233.434 67.9804C233.949 67.6259 234.45 67.3664 234.992 67.0933C238.46 65.5621 238.642 67.176 238.184 68.3715C236.664 72.3248 229.097 77.5467 227.923 75.4069C227.091 74.0122 229.901 70.2581 233.434 67.9804Z" fill="#36305D"/>
<path d="M275.824 48.9382C276.271 48.6518 276.772 48.3923 277.287 48.1735C280.633 46.8191 280.801 48.121 280.37 49.1265C278.889 52.659 271.198 57.2436 270.499 55.0344C270.074 53.774 272.655 50.8212 275.824 48.9382Z" fill="#36305D"/>
<path d="M322.282 29.6121C322.742 29.3663 323.216 29.1612 323.65 28.9698C326.658 27.82 326.797 28.9049 326.393 29.7204C325.032 32.5335 317.922 36.4242 317.333 34.6759C317.031 33.6457 319.411 31.1684 322.282 29.6121Z" fill="#36305D"/>
<path d="M373.001 9.89054C373.435 9.69914 373.827 9.52145 374.261 9.33005C377.053 8.34381 377.137 9.26613 376.8 9.87781C375.546 12.2021 369.004 15.4939 368.429 14.0576C368.155 13.2445 370.333 11.2427 373.001 9.89054Z" fill="#36305D"/>
<path d="M13.9094 295.596C13.9208 294.958 13.9185 294.28 13.9299 293.642C13.956 293.316 13.9414 293.004 13.9811 292.719C14.0505 293.194 14.071 295.27 13.9389 304.415C13.8721 308.784 13.7646 313.167 13.8336 317.535L13.924 295.908C13.8829 295.786 13.8961 295.691 13.9094 295.596Z" fill="#36305D"/>
<path d="M15.5926 279.907C15.6584 279.296 15.7512 278.631 15.8983 277.993C15.9787 277.694 16.0591 277.395 16.1939 277.124C16.2345 277.11 16.3296 277.123 16.3702 277.109C17.2053 279.318 15.8737 299.01 14.9993 301.251C14.9586 301.265 14.918 301.279 14.8636 301.252C14.4242 299.679 14.7725 286.205 15.5926 279.907Z" fill="#36305D"/>
<path d="M20.3546 263.813C20.5017 263.175 20.7031 262.564 20.9183 261.993C21.1609 261.504 21.578 260.458 21.9343 261.515C23.0444 264.808 20.7581 283.01 19.1464 283.871C17.9646 283.454 18.7885 270.182 20.3546 263.813Z" fill="#36305D"/>
<path d="M28.3601 247.396C28.5615 246.785 28.8311 246.241 29.1276 245.643C29.4245 245.181 30.3423 243.74 30.7561 245.774C31.7761 250.546 28.2757 266.758 26.4141 265.936C25.0825 265.344 26.0206 253.754 28.3601 247.396Z" fill="#36305D"/>
<path d="M39.6323 230.466C39.8881 229.882 40.2527 229.351 40.5766 228.835C42.2116 226.835 42.6789 228.624 42.8187 229.845C43.354 235.731 39.0029 249.151 37.0304 247.597C35.5745 246.367 36.8429 236.16 39.6323 230.466Z" fill="#36305D"/>
<path d="M54.3228 213.064C54.7952 212.316 55.1871 211.867 55.4708 211.5C58.0944 208.94 58.1478 212.726 58.1505 213.54C58.0234 220.148 52.9584 231.046 51.011 228.895C49.4039 227.082 51.3543 217.958 54.3228 213.064Z" fill="#36305D"/>
<path d="M72.4581 195.406C72.8364 194.916 73.2553 194.412 73.7423 193.977C77.0301 191.239 76.7061 195.785 76.6673 196.341C76.092 202.829 70.276 212.305 68.5168 209.638C67.0852 207.54 69.284 199.69 72.4581 195.406Z" fill="#36305D"/>
<path d="M94.1608 177.451C94.5797 176.947 95.0261 176.525 95.5268 176.13C98.6533 173.854 98.8534 176.865 98.534 178.738C97.5225 184.603 91.7006 192.316 89.8619 190.219C88.3905 188.406 90.7414 181.41 94.1608 177.451Z" fill="#36305D"/>
<path d="M119.524 158.941C119.998 158.464 120.498 158.069 120.999 157.674C124.316 155.56 124.542 158.246 124.168 159.956C123.007 165.645 116.356 172.913 114.719 170.34C113.505 168.486 116.076 162.412 119.524 158.941Z" fill="#36305D"/>
<path d="M148.605 140.174C149.106 139.779 149.606 139.383 150.121 139.029C153.574 137.05 153.772 139.383 153.397 140.958C152.166 146.037 145.323 152.599 143.66 150.353C142.379 148.702 145.02 143.374 148.605 140.174Z" fill="#36305D"/>
<path d="M181.497 121.028C181.957 120.647 182.485 120.333 183.013 120.019C186.399 118.244 186.65 120.197 186.221 121.609C184.879 126.227 177.586 132.262 176.303 129.797C175.51 128.117 178.101 123.712 181.497 121.028Z" fill="#36305D"/>
<path d="M218.295 101.517C218.769 101.176 219.297 100.862 219.798 100.603C223.144 98.9768 223.339 100.631 222.95 101.895C221.647 105.82 214.433 111.149 213.165 109.132C212.292 107.751 214.884 103.889 218.295 101.517Z" fill="#36305D"/>
<path d="M258.973 81.6936C259.42 81.4072 259.881 81.1614 260.382 80.902C263.606 79.453 263.787 80.7956 263.41 81.828C262.079 85.4008 254.741 90.0927 253.96 87.9109C253.536 86.6505 255.954 83.6168 258.973 81.6936Z" fill="#36305D"/>
<path d="M303.774 61.477C304.194 61.245 304.654 60.9992 305.088 60.8078C308.028 59.5905 308.167 60.6754 307.817 61.5177C306.606 64.371 299.768 68.3965 299.138 66.6619C298.727 65.5778 301.012 63.0873 303.774 61.477Z" fill="#36305D"/>
<path d="M352.686 40.8252C353.065 40.6069 353.498 40.4155 353.891 40.2378C356.574 39.1976 356.74 40.0926 356.416 40.7449C355.257 43.0825 348.973 46.4683 348.412 45.0727C348.057 44.287 350.112 42.1906 352.686 40.8252Z" fill="#36305D"/>
<path d="M405.72 19.9157C406.032 19.7654 406.384 19.6014 406.696 19.4511C409.108 18.5476 408.975 19.3621 408.88 19.6202C408.235 21.3319 402.6 24.2271 402.095 23.1298C401.849 22.5337 403.594 20.9947 405.72 19.9157Z" fill="#36305D"/>
<path d="M463.027 -1.34668C463.257 -1.46957 463.542 -1.56553 463.786 -1.64775C465.737 -2.30555 465.468 -1.62626 465.441 -1.5719C464.956 -0.457712 460.554 1.66006 460.131 0.94238C459.94 0.508851 461.496 -0.649599 463.027 -1.34668Z" fill="#36305D"/>
<path d="M14.0167 332.189C14.003 332.148 14.03 332.094 14.0026 332.013C14.6375 339.269 14.2819 346.543 14.6454 353.8L14.103 337.684L13.9898 332.243C13.9761 332.203 14.0167 332.189 14.0167 332.189Z" fill="#36305D"/>
<path d="M14.8285 319.011C14.8806 318.36 14.9464 317.749 15.0392 317.084C15.0789 316.799 15.1456 316.459 15.2667 316.147C15.3073 316.133 15.348 316.119 15.4023 316.146C16.2095 318.138 15.7332 337.949 15.0625 340.258C14.3686 339.676 14.4392 324.304 14.8285 319.011Z" fill="#36305D"/>
<path d="M35.7031 268.51C35.9589 267.926 36.2284 267.382 36.593 266.852C38.1193 264.798 38.5865 266.587 38.74 267.849C39.4516 273.721 35.7657 287.233 33.8069 285.72C32.2423 284.437 33.3472 274.013 35.7031 268.51Z" fill="#36305D"/>
<path d="M49.1845 250.745C49.4947 250.188 49.8592 249.658 50.2375 249.168C52.6573 246.541 52.8464 250.326 52.8761 251.086C53.0066 257.652 48.498 268.589 46.5374 266.534C44.9714 264.843 46.501 255.679 49.1845 250.745Z" fill="#36305D"/>
<path d="M66.1097 232.589C66.4743 232.059 66.8525 231.569 67.2851 231.107C70.3692 228.301 70.2215 232.833 70.1827 233.39C69.8651 239.836 64.5786 249.405 62.7655 246.847C61.3206 244.844 63.1531 236.982 66.1097 232.589Z" fill="#36305D"/>
<path d="M86.5501 214.109C86.9284 213.619 87.361 213.157 87.848 212.721C90.8114 210.364 91.1334 213.334 90.8684 215.234C90.0881 221.247 84.7682 228.972 82.8889 226.889C81.2685 225.171 83.3345 218.136 86.5501 214.109Z" fill="#36305D"/>
<path d="M110.487 194.993C110.92 194.53 111.407 194.095 111.908 193.699C115.061 191.504 115.382 194.068 115.103 195.927C114.173 201.629 107.984 209.058 106.266 206.513C105.011 204.672 107.283 198.518 110.487 194.993Z" fill="#36305D"/>
<path d="M138.167 175.567C138.614 175.145 139.114 174.749 139.588 174.409C142.878 172.349 143.184 174.6 142.878 176.243C141.877 181.334 135.455 188.072 133.711 185.852C132.444 184.242 134.813 178.78 138.167 175.567Z" fill="#36305D"/>
<path d="M169.566 155.748C170.026 155.366 170.499 155.025 171.014 154.671C174.277 152.801 174.569 154.74 174.248 156.207C173.151 160.878 166.225 167.061 164.887 164.569C163.946 162.984 166.319 158.472 169.566 155.748Z" fill="#36305D"/>
<path d="M204.787 135.455C205.26 135.114 205.707 134.827 206.235 134.514C209.432 132.848 209.681 134.529 209.374 135.765C208.261 139.717 201.414 145.194 200.104 143.19C199.191 141.823 201.552 137.948 204.787 135.455Z" fill="#36305D"/>
<path d="M243.888 114.85C244.294 114.577 244.782 114.277 245.242 114.031C248.317 112.542 248.593 113.898 248.23 114.971C247.089 118.57 240.118 123.41 239.242 121.215C238.736 119.982 240.991 116.867 243.888 114.85Z" fill="#36305D"/>
<path d="M286.923 93.8243C287.329 93.5516 287.749 93.3195 288.182 93.1281C291.014 91.8568 291.207 92.9688 290.871 93.8518C289.741 96.8134 283.297 100.932 282.585 99.0896C282.188 98.0462 284.269 95.4885 286.923 93.8243Z" fill="#36305D"/>
<path d="M334.053 72.325C334.432 72.1066 334.825 71.9289 335.204 71.7105C337.819 70.6028 337.985 71.4977 337.675 72.1907C336.692 74.5141 330.68 78.0347 329.997 76.6802C329.641 75.8945 331.588 73.7443 334.053 72.325Z" fill="#36305D"/>
<path d="M385.198 50.5126C385.496 50.3217 385.848 50.1577 386.174 50.048C388.897 48.9942 388.318 50.2308 388.223 50.3532C387.375 52.1335 382.309 54.8369 381.79 53.8346C381.53 53.1978 383.167 51.6048 385.198 50.5126Z" fill="#36305D"/>
<path d="M440.59 28.2655C440.82 28.1426 441.091 28.006 441.335 27.9238C443.192 27.2527 443.031 27.8503 442.991 27.9996C442.56 29.1408 438.348 31.285 437.898 30.6217C437.679 30.2425 439.005 29.0713 440.59 28.2655Z" fill="#36305D"/>
<path d="M501.596 5.62047L499.524 6.86212L498.533 6.7433L500.713 5.4199L501.596 5.62047Z" fill="#36305D"/>
<path d="M15.4783 371.314C15.5057 371.395 16.1825 383.075 16.6378 389.396L15.4646 371.273C15.5052 371.259 15.5189 371.3 15.4783 371.314Z" fill="#36305D"/>
<path d="M15.5554 357.976C15.5668 357.338 15.6189 356.687 15.671 356.036C15.697 355.71 15.7368 355.425 15.8172 355.126C15.8578 355.112 15.8985 355.099 15.9391 355.085C16.8144 357.144 17.0036 377.183 16.5897 379.179C15.9771 378.571 15.3831 363.241 15.5554 357.976Z" fill="#36305D"/>
<path d="M45.6325 288.435C45.8883 287.851 46.2529 287.32 46.5768 286.804C48.5092 284.477 49.0057 286.89 49.1587 288.016C49.8439 294.079 45.7062 306.385 43.6912 304.302C42.0846 302.625 43.2071 293.463 45.6325 288.435Z" fill="#36305D"/>
<path d="M61.3239 269.835C61.6478 269.319 62.0124 268.788 62.445 268.326C65.3116 265.412 65.3677 270.012 65.3695 270.555C65.2954 276.782 60.9307 286.132 58.8764 284.47C57.1076 282.983 58.5176 274.539 61.3239 269.835Z" fill="#36305D"/>
<path d="M80.4579 250.844C80.7955 250.368 81.2144 249.865 81.6607 249.443C84.4748 247.045 84.8781 249.988 84.7081 251.902C84.158 257.792 79.2324 265.746 77.3805 263.744C75.7876 262.107 77.5003 254.965 80.4579 250.844Z" fill="#36305D"/>
<path d="M103.105 231.258C103.483 230.768 103.93 230.346 104.43 229.951C107.421 227.675 107.823 230.211 107.626 232.043C106.899 237.812 101.172 245.402 99.4128 242.87C98.131 240.948 100.024 234.877 103.105 231.258Z" fill="#36305D"/>
<path d="M129.319 211.239C129.751 210.777 130.211 210.395 130.685 210.054C133.812 207.914 134.186 210.233 133.988 211.794C133.191 216.952 127.19 223.865 125.392 221.618C124.097 219.927 126.128 214.533 129.319 211.239Z" fill="#36305D"/>
<path d="M159.277 190.773C159.696 190.405 160.156 190.024 160.63 189.683C163.812 187.705 164.225 189.739 163.716 191.586C162.43 196.366 156.329 202.044 154.992 199.688C154.077 198.049 156.22 193.524 159.277 190.773Z" fill="#36305D"/>
<path d="M192.922 169.834C193.341 169.466 193.828 169.166 194.262 168.839C197.336 167.079 197.667 168.733 197.413 169.996C196.463 174.028 189.997 179.694 188.62 177.623C187.706 176.256 189.877 172.354 192.922 169.834Z" fill="#36305D"/>
<path d="M230.405 148.462C230.798 148.148 231.244 147.862 231.664 147.63C234.63 146.087 234.947 147.429 234.665 148.475C233.674 152.114 227.029 157.116 226.112 154.934C225.579 153.62 227.658 150.52 230.405 148.462Z" fill="#36305D"/>
<path d="M271.769 126.642C272.175 126.369 272.554 126.15 272.974 125.918C275.696 124.593 275.931 125.691 275.676 126.547C274.749 129.44 268.509 133.762 267.77 131.973C267.292 130.957 269.224 128.36 271.769 126.642Z" fill="#36305D"/>
<path d="M317.119 104.293C317.498 104.074 317.877 103.856 318.27 103.678C320.776 102.516 320.97 103.493 320.727 104.118C319.827 106.549 314.072 110.164 313.376 108.769C312.966 107.956 314.804 105.752 317.119 104.293Z" fill="#36305D"/>
<path d="M366.47 81.5915C366.768 81.4006 367.079 81.2503 367.391 81.1C369.491 80.2111 369.67 80.8753 369.441 81.4052C368.66 83.2531 363.812 86.0643 363.266 84.9807C362.979 84.3982 364.506 82.7514 366.47 81.5915Z" fill="#36305D"/>
<path d="M419.931 58.4557C420.162 58.3328 420.392 58.21 420.663 58.0734C422.18 57.4713 422.439 57.8368 422.251 58.2173C421.577 59.5763 417.608 61.6383 417.402 60.7571C417.251 60.3099 418.631 59.1656 419.931 58.4557Z" fill="#36305D"/>
<path d="M478.926 34.813L476.936 36.1629L475.972 35.9897L478.03 34.7074L478.926 34.813Z" fill="#36305D"/>
<path d="M539.848 10.8381L539.049 11.2885L538.804 11.2351L539.441 10.8394L539.848 10.8381Z" fill="#36305D"/>
<path d="M18.6564 412.711C18.9524 416.007 19.289 419.29 19.6662 422.558L18.6002 412.142C18.6144 412.318 18.6423 412.535 18.6564 412.711Z" fill="#36305D"/>
<path d="M17.7622 396.758C17.733 396.134 17.7307 395.456 17.7421 394.818C17.7682 394.492 17.7535 394.18 17.8339 393.882C18.8403 394.584 19.7275 416.425 19.5831 417.877C19.1067 417.404 17.8758 402.334 17.7622 396.758Z" fill="#36305D"/>
<path d="M58.0963 307.144C58.4064 306.587 58.7441 306.111 59.1086 305.58C61.8121 302.586 62.0039 307.185 62.0327 307.673C62.1893 313.914 58.3134 323.37 56.2591 321.708C54.5314 320.344 55.575 311.888 58.0963 307.144Z" fill="#36305D"/>
<path d="M75.9952 287.709C76.3191 287.192 76.6974 286.703 77.103 286.294C79.7134 283.83 80.2524 286.772 80.1774 288.699C79.9106 294.086 75.571 302.838 73.488 300.688C71.895 299.052 73.2821 291.883 75.9952 287.709Z" fill="#36305D"/>
<path d="M97.2852 267.584C97.6635 267.094 98.0961 266.631 98.5017 266.223C101.33 263.866 101.827 266.551 101.697 268.315C101.269 274.029 95.935 281.713 94.1087 279.249C92.8273 277.463 94.4889 271.243 97.2852 267.584Z" fill="#36305D"/>
<path d="M122.153 247.069C122.545 246.619 122.991 246.197 123.411 245.83C126.456 243.581 126.993 245.98 126.62 248.098C125.701 253.298 120.431 259.557 118.701 257.514C117.366 255.971 119.206 250.416 122.153 247.069Z" fill="#36305D"/>
<path d="M150.628 225.971C151.034 225.562 151.453 225.195 151.927 224.854C154.959 222.836 155.468 224.883 155.054 226.743C153.984 231.495 148.237 237.281 146.832 234.992C145.809 233.436 147.761 228.884 150.628 225.971Z" fill="#36305D"/>
<path d="M182.753 204.412C183.172 204.044 183.605 203.717 184.038 203.39C187.044 201.562 187.498 203.311 187.056 204.954C185.93 209.136 180.235 214.271 178.858 212.335C177.877 211.036 179.872 207.013 182.753 204.412Z" fill="#36305D"/>
<path d="M218.621 182.406C219.014 182.093 219.42 181.82 219.826 181.548C222.724 179.937 223.149 181.333 222.706 182.705C221.538 186.358 215.624 190.978 214.681 188.986C214.107 187.686 216.023 184.505 218.621 182.406Z" fill="#36305D"/>
<path d="M258.299 159.887C258.664 159.628 259.084 159.396 259.45 159.137C262.064 157.758 262.352 158.883 262.138 159.725C261.32 162.672 255.406 167.02 254.6 165.299C254.149 164.365 255.687 161.809 258.299 159.887Z" fill="#36305D"/>
<path d="M301.923 136.716C302.248 136.471 302.641 136.293 303.02 136.075C305.418 134.859 305.692 135.808 305.464 136.474C304.699 138.905 299.176 142.668 298.465 141.232C298.015 140.433 299.676 138.243 301.923 136.716Z" fill="#36305D"/>
<path d="M349.467 113.221C349.765 113.03 350.036 112.893 350.347 112.743C352.894 111.568 352.464 112.844 352.383 113.008C351.684 114.828 347.053 117.747 346.466 116.677C346.125 116.068 347.598 114.394 349.467 113.221Z" fill="#36305D"/>
<path d="M401.012 89.2367C401.242 89.1138 401.472 88.9909 401.703 88.8681C403.288 88.1979 403.398 88.6588 403.25 89.0257C402.671 90.398 398.825 92.5545 398.564 91.6464C398.481 91.1311 399.766 89.9735 401.012 89.2367Z" fill="#36305D"/>
<path d="M457.982 64.6916L456.114 66.0004L455.137 65.9222L457.113 64.5317L457.982 64.6916Z" fill="#36305D"/>
<path d="M516.906 39.7598L516.147 40.1964L515.876 40.1974L516.525 39.7067L516.906 39.7598Z" fill="#36305D"/>
<path d="M21.4318 435.32C21.3889 434.655 21.3596 434.031 21.3167 433.366C21.3021 433.054 21.3282 432.729 21.3542 432.403C22.197 432.889 24.1021 454.794 24.0527 456.26C23.658 455.895 21.789 440.678 21.4318 435.32Z" fill="#36305D"/>
<path d="M73.1486 324.664C73.4319 324.161 73.8101 323.671 74.2021 323.222C76.6493 320.677 77.2833 323.632 77.2897 325.532C77.269 331.515 73.2392 339.574 71.2653 337.614C69.5642 336.059 70.6255 328.865 73.1486 324.664Z" fill="#36305D"/>
<path d="M93.1054 304.082C93.443 303.606 93.835 303.157 94.2676 302.694C96.946 300.298 97.5243 302.819 97.4763 304.692C97.2784 310.418 92.3793 318.182 90.526 315.773C89.1227 314.027 90.4992 307.768 93.1054 304.082Z" fill="#36305D"/>
<path d="M116.575 283.041C116.927 282.606 117.332 282.198 117.779 281.775C120.674 279.486 121.279 281.818 121.015 283.99C120.327 289.202 115.45 295.555 113.653 293.58C112.277 292.051 113.873 286.442 116.575 283.041Z" fill="#36305D"/>
<path d="M143.611 261.432C143.976 261.038 144.395 260.67 144.856 260.289C147.779 258.217 148.329 260.25 148.009 262.123C147.171 266.888 141.777 272.781 140.304 270.561C139.227 268.977 140.935 264.372 143.611 261.432Z" fill="#36305D"/>
<path d="M174.228 239.296C174.607 238.942 175.026 238.574 175.459 238.247C178.316 236.379 178.81 238.114 178.463 239.77C177.541 244.02 172.172 249.18 170.754 247.258C169.773 245.959 171.537 241.923 174.228 239.296Z" fill="#36305D"/>
<path d="M208.546 216.59C208.898 216.291 209.29 215.977 209.696 215.705C212.472 213.999 212.965 215.463 212.577 216.862C211.545 220.651 205.997 225.282 204.946 223.237C204.345 221.991 206.07 218.783 208.546 216.59Z" fill="#36305D"/>
<path d="M246.593 193.398C246.958 193.139 247.324 192.88 247.689 192.621C250.465 191.052 250.565 192.557 250.257 193.522C249.263 196.618 244.039 200.598 243.165 198.945C242.633 197.902 244.306 195.21 246.593 193.398Z" fill="#36305D"/>
<path d="M288.464 169.596C288.789 169.35 289.128 169.146 289.507 168.927C291.85 167.685 292.138 168.674 291.95 169.326C291.307 171.716 286.069 175.519 285.251 174.165C284.76 173.38 286.312 171.136 288.464 169.596Z" fill="#36305D"/>
<path d="M334.162 145.319C334.419 145.142 334.717 144.951 335.029 144.8C337.467 143.571 337.091 144.875 337.065 145.065C336.487 146.844 332.06 149.83 331.406 148.829C331.024 148.233 332.429 146.491 334.162 145.319Z" fill="#36305D"/>
<path d="M383.886 120.5C384.116 120.377 384.347 120.254 384.536 120.145C386.067 119.448 386.218 119.895 386.07 120.262C385.559 121.566 381.876 123.804 381.588 122.95C381.478 122.489 382.532 121.318 383.886 120.5Z" fill="#36305D"/>
<path d="M438.885 95.0793L437.085 96.4557L436.108 96.3775L438.016 94.9194L438.885 95.0793Z" fill="#36305D"/>
<path d="M495.757 69.3006L495.053 69.7643L494.727 69.7382L495.39 69.2883L495.757 69.3006Z" fill="#36305D"/>
<path d="M26.6069 473.646C26.5233 472.995 26.4804 472.33 26.3969 471.679C26.3685 471.327 26.354 471.015 26.38 470.689C27.1004 471.08 29.9547 492.847 30.0277 494.407C29.6331 494.042 27.2217 478.963 26.6069 473.646Z" fill="#36305D"/>
<path d="M90.5687 340.616C90.9063 340.14 91.2439 339.664 91.6358 339.215C94.1649 336.778 94.8651 339.258 94.8578 341.117C94.917 346.666 90.8585 354.237 88.7092 352.562C87.0085 351.143 88.0177 344.6 90.5687 340.616Z" fill="#36305D"/>
<path d="M112.667 319.131C113.005 318.655 113.37 318.261 113.775 317.852C116.508 315.482 117.249 317.813 117.052 319.917C116.622 325.224 112.085 331.643 110.233 329.641C108.844 328.072 110.074 322.586 112.667 319.131Z" fill="#36305D"/>
<path d="M138.262 297.012C138.613 296.577 138.992 296.223 139.411 295.855C142.185 293.743 142.816 295.749 142.578 297.595C141.943 302.427 136.902 308.427 135.375 306.18C134.339 304.583 135.775 299.978 138.262 297.012Z" fill="#36305D"/>
<path d="M167.425 274.323C167.79 273.928 168.169 273.574 168.575 273.302C171.525 271.175 171.872 273.277 171.618 274.675C170.9 278.992 165.844 284.274 164.331 282.338C163.309 281.053 164.883 276.991 167.425 274.323Z" fill="#36305D"/>
<path d="M200.153 251.068C200.492 250.727 200.857 250.468 201.249 250.155C203.916 248.396 204.45 249.846 204.143 251.217C203.355 254.924 197.998 259.717 196.919 257.727C196.278 256.494 197.854 253.246 200.153 251.068Z" fill="#36305D"/>
<path d="M236.585 227.242C236.937 226.943 237.262 226.698 237.627 226.439C240.078 224.979 240.503 226.103 240.208 227.244C239.364 230.381 234.398 234.454 233.47 232.775C232.91 231.786 234.434 229.054 236.585 227.242Z" fill="#36305D"/>
<path d="M276.759 202.7C277.084 202.454 277.408 202.209 277.747 202.004C280.036 200.735 280.405 201.697 280.083 202.621C279.237 205.215 274.581 208.731 273.762 207.377C273.298 206.537 274.756 204.28 276.759 202.7Z" fill="#36305D"/>
<path d="M320.73 177.736C320.974 177.518 321.285 177.368 321.556 177.232C323.439 176.235 323.699 176.872 323.565 177.415C323.069 179.302 318.819 182.41 318.178 181.313C317.755 180.731 319.011 178.95 320.73 177.736Z" fill="#36305D"/>
<path d="M368.565 152.15C368.755 152.041 368.972 151.878 369.215 151.796C370.57 151.113 370.87 151.464 370.735 151.872C370.306 153.284 366.772 155.562 366.457 154.627C366.252 154.153 367.374 152.914 368.565 152.15Z" fill="#36305D"/>
<path d="M421.583 125.949L419.892 127.379L418.955 127.288L420.687 125.844L421.583 125.949Z" fill="#36305D"/>
<path d="M476.455 99.3498L475.765 99.8541L475.507 99.76L476.089 99.3375L476.455 99.3498Z" fill="#36305D"/>
<path d="M33.1926 511.586C33.109 510.935 32.9847 510.298 32.9012 509.647C32.8322 509.308 32.8176 508.996 32.803 508.684C33.469 509.048 37.2456 530.73 37.3863 532.222C36.9213 531.111 34.0102 516.699 33.1926 511.586Z" fill="#36305D"/>
<path d="M110.413 355.162C110.71 354.7 111.061 354.264 111.467 353.856C114.064 351.486 114.845 353.804 114.798 355.948C114.612 361.172 110.428 367.699 108.508 365.765C107.025 364.318 108.064 358.67 110.413 355.162Z" fill="#36305D"/>
<path d="M134.61 332.653C134.92 332.231 135.285 331.837 135.705 331.469C138.316 329.276 139.055 331.336 138.886 333.249C138.508 338.04 133.807 344.107 132.158 341.901C131.04 340.331 132.273 335.659 134.61 332.653Z" fill="#36305D"/>
<path d="M162.291 309.468C162.616 309.087 162.994 308.733 163.373 308.379C165.972 306.417 166.642 308.138 166.431 309.794C165.916 314.042 161.212 319.431 159.591 317.577C158.57 316.292 159.899 312.176 162.291 309.468Z" fill="#36305D"/>
<path d="M193.487 285.688C193.825 285.348 194.176 285.048 194.528 284.748C197.1 282.976 197.675 284.412 197.449 285.756C196.851 289.489 191.792 294.363 190.633 292.4C189.91 291.195 191.296 287.92 193.487 285.688Z" fill="#36305D"/>
<path d="M228.313 261.271C228.625 260.985 228.99 260.726 229.315 260.481C231.847 258.858 232.136 260.254 231.936 261.273C231.268 264.396 226.52 268.577 225.551 266.911C224.978 266.018 226.068 263.341 228.313 261.271Z" fill="#36305D"/>
<path d="M266.803 236.163C267.087 235.932 267.412 235.687 267.751 235.482C269.931 234.159 270.341 235.107 270.114 236.044C269.403 238.638 264.992 242.207 264.133 240.867C263.547 240.068 264.855 237.771 266.803 236.163Z" fill="#36305D"/>
<path d="M308.994 210.489C309.252 210.311 309.509 210.134 309.766 209.957C312.014 208.701 311.774 210.004 311.775 210.14C311.374 212.041 307.355 215.161 306.646 214.133C306.21 213.51 307.384 211.756 308.994 210.489Z" fill="#36305D"/>
<path d="M354.984 184.256C355.16 184.106 355.39 183.983 355.62 183.861C356.921 183.151 357.234 183.543 357.14 183.937C356.778 185.281 353.652 187.558 353.093 186.84C352.712 186.38 353.82 185.101 354.984 184.256Z" fill="#36305D"/>
<path d="M406.112 157.289L404.543 158.678L403.538 158.654L405.243 157.129L406.112 157.289Z" fill="#36305D"/>
<path d="M459.002 129.908L458.379 130.345L458.067 130.359L458.635 129.896L459.002 129.908Z" fill="#36305D"/>
<path d="M132.598 368.33C132.909 367.908 133.233 367.527 133.598 367.132C136.06 364.899 136.922 366.918 136.833 368.804C136.686 373.607 132.324 379.741 130.594 377.562C129.449 376.047 130.424 371.417 132.598 368.33Z" fill="#36305D"/>
<path d="M158.868 344.715C159.192 344.334 159.53 343.994 159.909 343.64C162.399 341.623 163.11 343.331 162.993 345C162.668 349.275 158.291 354.689 156.629 352.85C155.472 351.565 156.625 347.463 158.868 344.715Z" fill="#36305D"/>
<path d="M188.542 320.452C188.839 320.125 189.177 319.785 189.543 319.526C192.006 317.7 192.621 319.122 192.463 320.534C192.027 324.076 187.634 328.908 186.177 327.407C185.156 326.392 186.365 322.861 188.542 320.452Z" fill="#36305D"/>
<path d="M221.78 295.484C222.091 295.198 222.402 294.912 222.727 294.666C225.15 292.99 225.508 294.454 225.308 295.472C224.776 298.594 220.312 302.815 219.262 301.177C218.648 300.162 219.847 297.403 221.78 295.484Z" fill="#36305D"/>
<path d="M258.585 269.813C258.869 269.582 259.194 269.337 259.478 269.105C261.603 267.755 262.054 268.689 261.827 269.626C261.293 272.206 257.072 275.802 256.145 274.53C255.572 273.772 256.786 271.461 258.585 269.813Z" fill="#36305D"/>
<path d="M299.093 243.573C299.337 243.355 299.553 243.191 299.824 243.055C301.733 241.868 301.926 242.709 301.752 243.401C301.189 245.357 297.657 248.177 296.921 247.203C296.498 246.621 297.564 244.813 299.093 243.573Z" fill="#36305D"/>
<path d="M343.26 216.642C343.436 216.492 343.626 216.383 343.842 216.219C345.21 215.441 345.456 215.902 345.362 216.295C345.095 217.653 341.874 220.052 341.451 219.198C341.273 218.806 342.002 217.609 343.26 216.642Z" fill="#36305D"/>
<path d="M392.474 188.961L390.972 190.418L390.009 190.38L391.618 188.842L392.474 188.961Z" fill="#36305D"/>
<path d="M443.407 160.882L442.798 161.359L442.513 161.319L443.027 160.829L443.407 160.882Z" fill="#36305D"/>
<path d="M157.088 379.997C157.372 379.63 157.696 379.249 158.075 378.895C160.388 376.893 161.397 378.273 161.188 380.608C160.755 384.964 156.891 389.889 155.257 388.13C154.099 386.845 155.035 382.772 157.088 379.997Z" fill="#36305D"/>
<path d="M185.335 355.263C185.632 354.937 185.93 354.61 186.282 354.311C188.568 352.498 189.495 353.635 189.176 355.644C188.619 359.499 184.469 363.977 183.201 362.095C182.328 360.85 183.389 357.549 185.335 355.263Z" fill="#36305D"/>
<path d="M217.011 329.826C217.268 329.513 217.593 329.268 217.904 328.982C220.043 327.401 220.657 328.552 220.512 329.733C220.169 332.882 215.951 337.156 214.819 335.545C214.11 334.516 215.173 331.759 217.011 329.826Z" fill="#36305D"/>
<path d="M252.186 303.617C252.456 303.345 252.74 303.114 253.025 302.882C255.001 301.491 255.506 302.453 255.373 303.403C254.948 306.037 250.958 309.781 250.004 308.428C249.404 307.589 250.482 305.278 252.186 303.617Z" fill="#36305D"/>
<path d="M290.955 276.787C291.199 276.569 291.415 276.405 291.673 276.228C293.541 275.055 293.748 275.936 293.6 276.574C293.16 278.624 289.791 281.526 289.001 280.524C288.564 279.902 289.495 278.094 290.955 276.787Z" fill="#36305D"/>
<path d="M333.385 249.264C333.561 249.114 333.737 248.964 333.926 248.855C335.24 248.05 335.54 248.538 335.392 249.04C334.976 250.493 332.134 252.674 331.711 251.82C331.452 251.319 332.343 250.068 333.385 249.264Z" fill="#36305D"/>
<path d="M380.695 220.912L379.262 222.436L378.326 222.345L379.813 220.847L380.695 220.912Z" fill="#36305D"/>
<path d="M429.673 192.134L429.132 192.678L428.847 192.638L429.321 192.162L429.673 192.134Z" fill="#36305D"/>
<path d="M82.6893 508.124C82.8368 507.621 83.0657 507.092 83.3083 506.602C85.0224 503.897 86.1986 506.715 86.5846 508.532C87.7978 514.28 85.8315 522.685 83.6822 521.01C81.8864 519.578 81.3064 512.484 82.6893 508.124Z" fill="#36305D"/>
<path d="M183.809 390.098C184.093 389.73 184.35 389.417 184.702 389.118C186.839 387.265 187.847 388.375 187.623 390.397C187.256 394.279 183.391 398.796 182.041 396.942C181.142 395.751 182.013 392.424 183.809 390.098Z" fill="#36305D"/>
<path d="M213.939 364.231C214.195 363.918 214.506 363.632 214.777 363.36C216.78 361.779 217.637 362.712 217.385 364.382C216.921 367.572 213.203 371.451 212.072 369.976C211.322 368.961 212.235 366.163 213.939 364.231Z" fill="#36305D"/>
<path d="M247.538 337.512C247.768 337.253 248.052 337.022 248.336 336.79C250.258 335.373 250.79 336.28 250.712 337.257C250.423 339.89 246.65 343.607 245.628 342.321C244.96 341.55 245.889 339.2 247.538 337.512Z" fill="#36305D"/>
<path d="M284.594 310.171C284.797 309.967 285.054 309.79 285.271 309.626C287.03 308.399 287.359 309.239 287.226 309.918C286.92 311.968 283.701 314.909 282.87 313.922C282.393 313.313 283.228 311.492 284.594 310.171Z" fill="#36305D"/>
<path d="M325.259 282.112C325.434 281.962 325.61 281.813 325.8 281.703C327.059 280.871 327.4 281.345 327.266 281.888C326.945 283.355 324.212 285.589 323.748 284.749C323.475 284.208 324.312 282.929 325.259 282.112Z" fill="#36305D"/>
<path d="M370.749 253.196L369.438 254.679L368.474 254.642L369.894 253.077L370.749 253.196Z" fill="#36305D"/>
<path d="M417.839 223.787L417.325 224.277L417.013 224.291L417.513 223.761L417.839 223.787Z" fill="#36305D"/>
<path d="M212.615 398.589C212.872 398.276 213.143 398.004 213.413 397.732C215.47 396.043 216.166 397.302 216.021 398.754C215.734 401.93 212.219 405.877 210.993 404.388C210.257 403.414 211.021 400.576 212.615 398.589Z" fill="#36305D"/>
<path d="M244.639 371.496C244.869 371.237 245.153 371.006 245.397 370.788C247.332 369.275 247.905 370.305 247.719 371.499C247.334 374.119 243.994 377.509 242.932 376.372C242.306 375.588 243.098 373.238 244.639 371.496Z" fill="#36305D"/>
<path d="M280.093 343.698C280.296 343.494 280.513 343.331 280.716 343.126C282.421 341.873 282.723 342.767 282.67 343.418C282.433 345.4 279.404 348.368 278.546 347.435C278.028 346.839 278.782 345.046 280.093 343.698Z" fill="#36305D"/>
<path d="M319.032 315.09C319.208 314.94 319.343 314.804 319.533 314.694C320.778 313.822 321.119 314.296 321.026 314.825C320.786 316.264 318.189 318.498 317.698 317.713C317.371 317.28 318.004 316.07 319.032 315.09Z" fill="#36305D"/>
<path d="M362.662 285.624L361.446 287.12L360.496 287.124L361.807 285.505L362.662 285.624Z" fill="#36305D"/>
<path d="M407.879 255.623L407.379 256.154L407.107 256.155L407.567 255.638L407.879 255.623Z" fill="#36305D"/>
<path d="M833.703 478.065L834.532 478.374L835.087 477.87L834.258 477.561L833.703 478.065Z" fill="#36305D"/>
<path d="M792.687 482.247C792.552 482.247 792.416 482.247 792.28 482.248C791.236 482.374 790.967 483.053 791.565 483.485C792.395 484.066 793.995 483.708 793.87 482.935C793.801 482.596 793.298 482.312 792.687 482.247Z" fill="#36305D"/>
<path d="M750.842 485.575C750.652 485.548 750.422 485.536 750.245 485.55C748.414 485.76 748.255 486.9 749.058 487.535C750.35 488.548 752.845 488.024 752.597 486.75C752.527 486.139 751.657 485.708 750.842 485.575Z" fill="#36305D"/>
<path d="M709.007 487.723C708.722 487.683 708.451 487.684 708.22 487.671C706.009 487.828 705.526 489.349 706.737 490.389C708.342 491.795 711.515 491.269 711.51 489.641C711.493 488.65 710.188 487.868 709.007 487.723Z" fill="#36305D"/>
<path d="M667.275 488.704C666.935 488.637 666.61 488.611 666.298 488.626C663.639 488.797 663.048 490.672 664.505 492.037C666.478 493.862 670.329 493.334 670.282 491.312C670.278 490.091 668.972 489.037 667.275 488.704Z" fill="#36305D"/>
<path d="M625.879 488.53C625.485 488.437 625.119 488.424 624.698 488.385C621.198 488.478 620.867 490.989 622.487 492.571C624.896 494.883 629.521 494.366 629.526 491.829C629.535 490.377 627.97 488.958 625.879 488.53Z" fill="#36305D"/>
<path d="M584.874 487.229C584.426 487.108 583.951 487.042 583.489 487.017C579.419 487.03 579.077 490.043 580.955 491.991C583.733 494.858 589.145 494.392 589.134 491.272C589.061 489.576 587.25 487.832 584.874 487.229Z" fill="#36305D"/>
<path d="M544.338 485.045C543.836 484.898 543.306 484.804 542.804 484.792C538.34 484.712 537.904 488.119 539.987 490.405C543.079 493.801 549.101 493.4 549.076 489.832C549.042 487.851 546.987 485.782 544.338 485.045Z" fill="#36305D"/>
<path d="M504.479 481.773C503.814 481.545 503.203 481.479 502.782 481.44C498.046 481.225 496.973 484.892 499.615 487.895C502.925 491.669 509.261 491.662 509.71 487.888C509.946 485.5 507.617 482.753 504.479 481.773Z" fill="#36305D"/>
<path d="M465.295 477.549C464.534 477.308 463.909 477.201 463.421 477.094C457.965 476.76 457.478 481.225 460.04 484.392C463.663 488.83 470.543 488.956 471.017 484.585C471.293 481.912 468.731 478.745 465.295 477.549Z" fill="#36305D"/>
<path d="M427.016 472.522C426.188 472.213 425.509 472.079 424.979 471.986C419.239 471.476 418.306 476.499 421.874 480.503C425.946 485.062 432.635 485.026 433.081 480.439C433.41 477.52 430.671 473.961 427.016 472.522Z" fill="#36305D"/>
<path d="M389.671 466.5C388.828 466.15 388.095 465.99 387.552 465.856C381.091 465.091 380.759 471.225 384.192 475.365C388.51 480.52 395.702 480.631 396.159 475.542C396.501 472.257 393.584 468.17 389.671 466.5Z" fill="#36305D"/>
<path d="M353.478 459.728C352.567 459.311 351.82 459.11 351.237 458.99C344.436 458.022 344.092 464.793 347.73 469.408C352.308 475.2 359.88 475.5 360.377 469.854C360.677 466.176 357.609 461.641 353.478 459.728Z" fill="#36305D"/>
<path d="M318.447 452.248C317.509 451.749 316.721 451.562 316.124 451.401C309.553 450.311 308.382 457.044 312.552 462.566C317.009 468.534 324.352 469.365 325.446 464.015C326.233 460.037 322.986 454.567 318.447 452.248Z" fill="#36305D"/>
<path d="M284.757 443.909C283.805 443.369 283.004 443.141 282.393 442.94C275.184 441.566 274.817 449.478 278.689 455.055C283.27 461.66 290.858 462.68 291.978 456.869C292.845 452.592 289.447 446.539 284.757 443.909Z" fill="#36305D"/>
<path d="M252.559 434.885C251.58 434.264 250.765 433.996 250.113 433.808C242.753 432.123 242.389 440.713 246.358 446.845C251.063 454.088 258.828 455.365 259.96 449.052C260.785 444.382 257.304 437.813 252.559 434.885Z" fill="#36305D"/>
<path d="M221.836 425.273C220.843 424.612 220.055 424.289 219.389 424.061C212.056 422.186 211.68 431.277 215.65 437.817C220.016 445.129 227.444 447.017 229.121 441.246C230.488 436.438 226.935 428.716 221.836 425.273Z" fill="#36305D"/>
<path d="M192.86 414.937C191.895 414.221 191.093 413.858 190.414 413.589C183.052 411.361 182.678 421.131 186.664 428.255C191.155 436.339 198.475 438.445 200.123 432.185C201.476 427.065 197.934 418.706 192.86 414.937Z" fill="#36305D"/>
<path d="M165.621 403.969C164.628 403.172 163.867 402.795 163.215 402.471C155.948 399.986 155.548 410.353 159.481 417.992C163.62 426.105 170.481 428.863 172.578 423.267C174.501 418.091 171.036 408.347 165.621 403.969Z" fill="#36305D"/>
<path d="M140.278 392.454C139.353 391.589 138.537 391.185 137.926 390.848C130.888 388.104 130.531 399 134.317 407.141C138.321 415.798 144.966 418.855 147.009 412.96C148.89 407.527 145.491 397.172 140.278 392.454Z" fill="#36305D"/>
<path d="M116.955 380.349C116.057 379.429 115.309 378.957 114.738 378.606C108.229 375.683 107.667 386.105 110.721 394.494C114.172 403.925 120.699 408.381 123.177 402.972C125.602 397.673 122.333 385.826 116.955 380.349Z" fill="#36305D"/>
<path d="M95.7606 367.707C94.889 366.733 94.2225 366.233 93.624 365.801C87.467 362.579 86.9068 373.544 89.8129 382.434C92.8566 391.867 98.6531 396.841 101.27 392.382C104.198 387.366 101.182 373.984 95.7606 367.707Z" fill="#36305D"/>
<path d="M76.8033 354.582C75.9856 353.5 75.3597 352.986 74.8426 352.526C69.2818 349.058 68.7612 359.738 70.8661 368.401C73.4935 379.151 79.2677 385.536 81.8968 380.575C84.6337 375.396 81.8867 361.336 76.8033 354.582Z" fill="#36305D"/>
<path d="M60.1509 341.044C59.4146 339.933 58.8563 339.352 58.3798 338.879C53.755 335.366 53.1349 344.676 54.1773 352.067C55.9002 364.164 61.3577 373.236 64.3006 368.803C67.2842 364.356 64.9383 348.53 60.1509 341.044Z" fill="#36305D"/>
<path d="M45.9664 327.306C45.352 326.154 44.875 325.545 44.4799 325.045C41.1045 321.881 40.3953 328.912 40.5058 333.538C40.8057 346.114 45.9251 359.556 49.0339 356.018C52.0754 352.684 50.2133 335.473 45.9664 327.306Z" fill="#36305D"/>
<path d="M34.2537 313.913C33.7886 312.802 33.4474 312.192 33.1066 311.718C31.6489 309.946 30.6754 310.953 30.2405 314.767C28.9872 325.422 33.0928 344.051 36.2056 341.734C38.9667 339.716 37.7423 322.516 34.2537 313.913Z" fill="#36305D"/>
<path d="M25.2525 300.105C24.9231 298.993 24.7043 298.478 24.4855 297.963C24.1442 297.354 23.3937 296.068 22.7911 298.444C21.0103 305.519 23.6618 327.49 26.2373 326.803C28.5959 326.144 27.5999 308.278 25.2525 300.105Z" fill="#36305D"/>
<path d="M18.9645 285.879C18.8535 285.146 18.6749 284.482 18.5369 283.804C18.3451 283.235 18.304 283.113 18.0998 282.91C16.6772 283.526 17.1717 297.485 17.1722 297.621C17.4406 304.865 18.2884 310.873 19.1445 311.263C20.8023 312.018 20.4719 294.381 18.9645 285.879Z" fill="#36305D"/>
<path d="M15.59 271.169C15.547 270.505 15.5042 269.84 15.4475 269.135C15.3923 268.836 15.3776 268.524 15.3224 268.226C14.4461 269.925 14.3758 293.492 15.2232 295.335C15.2639 295.321 15.3452 295.294 15.3858 295.28C16.1104 292.862 15.9649 277.789 15.59 271.169Z" fill="#36305D"/>
<path d="M14.273 278.676C14.4723 273.357 14.6309 268.051 14.8439 262.773L14.273 278.676Z" fill="#36305D"/>
<path d="M842.588 501.603L843.443 501.858L843.957 501.368L843.102 501.113L842.588 501.603Z" fill="#36305D"/>
<path d="M801.686 507.058C801.55 507.059 801.415 507.059 801.293 507.101C800.14 507.308 800.088 507.959 800.619 508.324C801.448 508.905 803.061 508.451 802.91 507.733C802.841 507.394 802.338 507.111 801.686 507.058Z" fill="#36305D"/>
<path d="M474.239 510.937C473.478 510.695 472.813 510.602 472.338 510.536C466.869 510.297 466.504 514.721 469.187 517.711C472.973 521.958 479.811 521.962 480.136 517.687C480.385 515.068 477.729 512.024 474.239 510.937Z" fill="#36305D"/>
<path d="M435.815 506.683C434.986 506.373 434.28 506.294 433.792 506.187C427.997 505.786 427.62 510.713 430.494 514.136C434.431 518.831 441.867 518.996 442.177 514.409C442.371 511.491 439.483 508.027 435.815 506.683Z" fill="#36305D"/>
<path d="M398.296 501.49C397.413 501.154 396.734 501.021 396.15 500.901C389.934 500.325 389.559 505.794 392.638 509.691C396.971 515.158 404.747 515.525 405.096 510.246C405.302 506.962 402.263 503.051 398.296 501.49Z" fill="#36305D"/>
<path d="M361.886 495.425C360.976 495.008 360.202 494.861 359.618 494.741C353.062 493.962 352.648 499.988 355.933 504.359C360.253 510.192 368.112 511.075 369.071 505.862C369.656 502.224 366.343 497.364 361.886 495.425Z" fill="#36305D"/>
<path d="M326.574 488.583C325.609 488.139 324.862 487.938 324.224 487.79C317.464 486.809 317.079 493.323 320.46 498.115C324.904 504.449 332.994 505.616 333.966 500.037C334.645 496.141 331.167 490.793 326.574 488.583Z" fill="#36305D"/>
<path d="M292.616 480.922C291.664 480.382 290.836 480.209 290.225 480.007C283.247 478.783 282.877 485.88 286.341 491.187C290.964 498.186 299.286 499.637 300.284 493.596C301.015 489.319 297.4 483.43 292.616 480.922Z" fill="#36305D"/>
<path d="M260.052 472.429C259.046 471.862 258.231 471.594 257.566 471.365C250.125 469.843 250.059 478.242 254.203 484.225C259.139 491.345 266.985 492.459 267.913 486.214C268.604 481.68 264.932 475.221 260.052 472.429Z" fill="#36305D"/>
<path d="M228.977 463.253C227.984 462.591 227.169 462.323 226.504 462.094C219.063 460.301 219.011 469.283 223.185 475.755C227.794 482.849 235.317 484.614 236.763 478.965C238.064 474.226 234.225 466.6 228.977 463.253Z" fill="#36305D"/>
<path d="M199.609 453.366C198.603 452.663 197.774 452.354 197.136 452.071C189.938 450.06 189.628 458.813 193.219 465.571C197.479 473.507 205.168 476.575 207.212 471.087C209 466.183 205.171 457.241 199.609 453.366Z" fill="#36305D"/>
<path d="M171.91 442.78C170.917 441.983 170.075 441.633 169.422 441.31C162.319 439.041 162.011 448.336 165.603 455.637C169.907 464.373 177.434 467.767 179.504 461.818C181.319 456.724 177.487 447.103 171.91 442.78Z" fill="#36305D"/>
<path d="M146.107 431.646C145.141 430.795 144.326 430.39 143.714 430.053C136.826 427.485 136.547 437.268 140.06 445.003C144.188 454.161 151.609 457.908 153.583 451.81C155.234 446.499 151.523 436.295 146.107 431.646Z" fill="#36305D"/>
<path d="M122.256 419.854C121.317 418.948 120.569 418.476 119.958 418.139C113.327 415.258 113.049 425.584 116.415 433.822C120.191 443.144 126.908 447.49 129.223 442.136C131.512 436.837 127.85 425.168 122.256 419.854Z" fill="#36305D"/>
<path d="M100.493 407.404C99.5808 406.444 98.9144 405.944 98.2753 405.526C92.105 402.399 91.8947 412.521 94.4724 420.572C97.6946 430.669 104.145 436.508 106.843 431.751C109.608 426.789 106.199 413.586 100.493 407.404Z" fill="#36305D"/>
<path d="M80.9116 394.445C80.0532 393.376 79.3868 392.876 78.8697 392.416C73.486 389.205 72.961 398.528 74.9691 406.635C77.5691 417.304 83.6314 424.678 86.5625 420.747C89.7229 416.422 86.5249 401.427 80.9116 394.445Z" fill="#36305D"/>
<path d="M63.6497 380.975C62.9133 379.865 62.3144 379.297 61.7836 378.797C57.173 375.461 56.6055 384.255 57.9607 391.902C60.0765 403.821 65.9543 412.797 68.762 408.5C71.6236 404.095 68.6947 388.42 63.6497 380.975Z" fill="#36305D"/>
<path d="M48.7332 367.348C48.0781 366.211 47.5606 365.616 47.1517 365.074C43.5863 361.884 43.1211 368.833 43.3809 373.499C44.1281 385.925 49.8171 399.311 52.8583 395.841C55.8185 392.534 53.3328 375.487 48.7332 367.348Z" fill="#36305D"/>
<path d="M36.342 353.958C35.8226 352.82 35.4544 352.265 35.1 351.751C33.5473 349.965 32.5874 351.013 32.2744 354.786C31.3058 365.345 36.198 383.889 39.2839 381.626C42.0313 379.568 40.224 362.52 36.342 353.958Z" fill="#36305D"/>
<path d="M26.5544 340.097C26.1844 339 25.9112 338.458 25.6517 337.957C25.2561 337.32 24.4513 336.007 23.93 338.356C22.1779 345.919 26.0399 368.795 28.7051 366.493C30.8426 364.641 29.1581 347.822 26.5544 340.097Z" fill="#36305D"/>
<path d="M19.4899 325.726C19.3519 325.048 19.1596 324.343 18.9267 323.652C18.6119 322.853 18.5302 322.744 18.2858 322.691C17.3794 323.495 17.4739 331.431 18.095 338.647C18.7294 345.768 19.8874 351.219 20.7549 350.972C22.3273 350.532 21.2672 333.82 19.4899 325.726Z" fill="#36305D"/>
<path d="M15.234 310.816C15.1367 310.125 15.0938 309.46 14.9559 308.782C14.9006 308.484 14.8453 308.185 14.7493 307.901C14.7087 307.915 14.668 307.928 14.6274 307.942C13.9316 310.848 14.5749 332.771 15.7082 334.925C15.7489 334.911 15.8302 334.884 15.8708 334.87C16.6635 332.52 15.9483 317.503 15.234 310.816Z" fill="#36305D"/>
<path d="M13.9105 295.868L13.8201 317.495C13.821 317.766 13.8219 318.038 13.8228 318.309C13.9156 317.644 13.9002 313.031 13.8651 306.614C13.8802 303.032 13.8547 299.463 13.9105 295.868Z" fill="#36305D"/>
<path d="M268.79 509.236C267.784 508.67 266.928 508.415 266.276 508.227C259.081 506.894 258.997 514.438 262.72 520.111C267.439 527.259 275.6 529.172 276.978 523.455C278.062 519.015 274.104 512.108 268.79 509.236Z" fill="#36305D"/>
<path d="M237.365 500.631C236.345 500.024 235.516 499.715 234.81 499.5C227.573 497.91 227.519 505.942 231.311 512.089C236.072 519.766 244.247 521.991 245.665 515.99C246.803 511.305 242.748 503.843 237.365 500.631Z" fill="#36305D"/>
<path d="M207.621 491.234C206.574 490.545 205.745 490.236 205.079 490.007C197.787 488.119 197.748 496.735 201.61 503.356C206.468 511.725 214.672 514.302 215.993 507.88C217.062 502.857 212.978 494.77 207.621 491.234Z" fill="#36305D"/>
<path d="M179.514 481.057C178.494 480.314 177.652 479.964 176.959 479.654C169.733 477.426 169.751 486.611 173.574 493.79C178.175 502.335 185.838 505.593 187.718 499.753C189.41 494.7 185.227 485.243 179.514 481.057Z" fill="#36305D"/>
<path d="M153.211 470.318C152.217 469.521 151.402 469.116 150.75 468.793C143.713 466.32 143.786 475.939 147.529 483.552C151.955 492.519 159.525 496.17 161.309 490.181C162.906 484.844 158.816 474.858 153.211 470.318Z" fill="#36305D"/>
<path d="M128.872 458.826C127.893 457.933 127.118 457.515 126.492 457.138C119.862 454.392 119.935 463.876 122.918 471.382C126.79 481.125 134.324 486.282 136.585 480.766C138.725 475.562 134.67 464.071 128.872 458.826Z" fill="#36305D"/>
<path d="M106.554 446.608C105.628 445.607 104.894 445.175 104.255 444.757C97.922 441.685 98.0506 451.738 100.913 459.693C104.501 469.667 111.182 475.383 113.717 470.68C116.36 465.76 112.504 452.707 106.554 446.608Z" fill="#36305D"/>
<path d="M86.3625 433.854C85.4635 432.799 84.7833 432.258 84.1986 431.867C78.693 428.697 78.4663 437.964 80.7183 445.989C83.9446 457.307 90.6849 464.544 93.2318 459.339C95.7248 454.242 91.9745 440.429 86.3625 433.854Z" fill="#36305D"/>
<path d="M68.4893 420.591C67.6716 419.508 67.0727 418.941 66.5419 418.44C61.9454 415.281 61.5784 423.192 62.7811 429.85C65.0065 442.094 71.7162 452.329 74.5773 447.788C77.3307 443.464 73.819 427.941 68.4893 420.591Z" fill="#36305D"/>
<path d="M52.9094 407.007C52.2137 405.883 51.6961 405.288 51.206 404.774C47.5185 401.625 47.2297 408.559 47.6791 413.117C48.8602 425.486 55.0509 438.749 58.0376 435.252C60.9298 431.877 57.9434 415.226 52.9094 407.007Z" fill="#36305D"/>
<path d="M39.7985 393.632C39.2384 392.508 38.8159 391.926 38.4614 391.412C36.4053 389.207 35.7898 391.814 35.6358 394.447C35.0468 404.923 40.6307 423.37 43.7166 421.108C46.437 419.104 44.0331 402.166 39.7985 393.632Z" fill="#36305D"/>
<path d="M29.2653 379.842C28.8409 378.718 28.5814 378.217 28.2676 377.688C27.8313 377.066 26.9451 375.78 26.4915 378.061C24.929 385.515 29.6996 408.266 32.3785 406.004C34.516 404.152 32.208 387.498 29.2653 379.842Z" fill="#36305D"/>
<path d="M21.4009 365.378C21.2086 364.673 20.9756 363.982 20.7427 363.29C20.3873 362.505 20.3055 362.396 20.0204 362.357C19.0866 363.079 19.4387 370.974 20.3312 378.189C21.2228 385.133 22.6389 390.677 23.5744 390.498C25.2418 390.072 23.5853 373.47 21.4009 365.378Z" fill="#36305D"/>
<path d="M16.3307 350.335C16.2334 349.643 16.0818 348.924 15.9438 348.247C15.8749 347.908 15.8196 347.609 15.683 347.338C15.6423 347.352 15.6017 347.366 15.561 347.379C14.9187 350.041 16.4308 372.124 17.6999 374.277C17.7405 374.264 17.8218 374.236 17.8625 374.222C18.6418 371.968 17.3023 356.844 16.3307 350.335Z" fill="#36305D"/>
<path d="M14.0801 334.929C14.0372 334.264 14.0349 333.586 14.0056 332.962C13.9778 332.745 13.9769 332.474 13.9897 332.243L14.1029 337.683L14.6453 353.8C14.7038 355.048 14.6809 356.324 14.875 357.571C14.9152 357.422 14.9956 357.123 14.8463 353.053C14.6089 346.976 14.3038 340.966 14.0801 334.929Z" fill="#36305D"/>
<path d="M161.642 508.361C160.608 507.577 159.793 507.173 159.1 506.863C152.675 504.728 152.023 512.463 155.767 520.347C160.071 529.356 168.037 533.915 170.203 528.657C172.195 523.684 167.75 513.048 161.642 508.361Z" fill="#36305D"/>
<path d="M136.789 497.224C135.768 496.345 134.994 495.927 134.341 495.604C128.119 493.128 127.522 501.298 131.214 509.697C135.411 519.33 143.175 524.365 145.26 518.863C147.223 513.673 142.776 502.359 136.789 497.224Z" fill="#36305D"/>
<path d="M113.956 485.361C113.003 484.414 112.201 483.915 111.575 483.537C105.569 480.762 105.517 489.473 108.174 496.954C111.845 507.307 119.424 513.943 121.945 509.064C124.426 504.199 120.095 491.351 113.956 485.361Z" fill="#36305D"/>
<path d="M93.1685 472.852C92.2426 471.851 91.5217 471.324 90.9232 470.892C85.5268 467.912 85.4326 476.229 87.4238 483.345C90.7191 495.003 98.4127 503.321 100.905 497.953C103.29 492.939 99.0651 479.331 93.1685 472.852Z" fill="#36305D"/>
<path d="M74.6722 459.753C73.8138 458.684 73.1743 458.13 72.6028 457.643C67.5851 454.309 67.8577 462.774 69.1805 468.848C71.8263 480.996 78.9562 491.135 81.6954 486.635C84.3268 482.352 80.3408 467.034 74.6722 459.753Z" fill="#36305D"/>
<path d="M58.4268 446.35C57.6767 445.199 57.1185 444.617 56.642 444.144C52.3973 440.685 52.9956 449.176 53.1371 450.94C54.3046 463.269 61.4495 477.885 64.5445 474.306C67.3691 471 63.7313 454.296 58.4268 446.35Z" fill="#36305D"/>
<path d="M44.6668 433.057C44.0661 431.947 43.5892 431.338 43.2077 430.878C41.0159 428.674 40.4681 431.213 40.4224 433.764C40.118 444.144 46.4611 462.426 49.5607 460.204C52.2948 458.241 49.2673 441.468 44.6668 433.057Z" fill="#36305D"/>
<path d="M33.4119 419.147C32.9605 418.077 32.633 417.508 32.3329 417.021C31.8966 416.398 30.9154 415.099 30.4617 417.38C29.0756 424.82 34.7818 447.391 37.4743 445.17C39.5849 443.372 36.6803 426.829 33.4119 419.147Z" fill="#36305D"/>
<path d="M24.7891 404.712C24.5425 403.981 24.3095 403.289 24.0358 402.612C23.6261 401.799 23.5443 401.691 23.2593 401.651C22.2442 402.401 22.9626 410.308 24.1123 417.346C25.1231 423.435 26.827 429.833 27.8983 429.653C29.5931 429.308 27.3262 412.777 24.7891 404.712Z" fill="#36305D"/>
<path d="M18.8494 389.646C18.6977 388.928 18.5598 388.25 18.3812 387.585C18.2716 387.26 18.2026 386.921 18.0116 386.623C17.971 386.637 17.8897 386.665 17.849 386.678C17.1793 389.258 19.532 411.149 21.0728 413.437C21.1134 413.423 21.1947 413.396 21.2491 413.423C22.0691 411.154 20.1599 396.087 18.8494 389.646Z" fill="#36305D"/>
<path d="M15.7317 374.08C15.6888 373.416 15.6052 372.765 15.5623 372.1C15.5477 371.788 15.4924 371.49 15.4641 371.137C15.4778 371.178 15.4508 371.232 15.4508 371.232L16.6241 389.355C16.936 393.37 17.1612 395.784 17.3402 396.584C17.6362 395.85 16.7749 385.772 15.7317 374.08Z" fill="#36305D"/>
<path d="M101.342 511.344C100.362 510.316 99.6545 509.83 99.0154 509.412C93.4564 506.486 93.6467 514.708 95.8818 521.742C99.57 533.221 107.589 541.43 109.945 536.063C112.127 531.117 107.469 517.7 101.342 511.344Z" fill="#36305D"/>
<path d="M82.1975 498.464C81.2848 497.368 80.6183 496.869 80.0468 496.382C74.9346 493.17 75.5452 501.295 76.5652 506.068C79.2521 518.337 87.3901 529.721 90.1695 525.071C92.7059 520.775 88.1507 505.649 82.1975 498.464Z" fill="#36305D"/>
<path d="M65.3287 485.224C64.538 484.087 63.9391 483.52 63.449 483.006C59.0009 479.615 59.8838 488.01 60.093 489.706C61.667 501.898 69.3948 516.362 72.4492 512.797C75.1793 509.613 70.9315 493.116 65.3287 485.224Z" fill="#36305D"/>
<path d="M50.9297 472.058C50.2883 470.961 49.7708 470.366 49.3756 469.865C47.0888 467.647 46.5954 470.213 46.631 472.737C46.6925 482.994 53.6998 501.097 56.8131 498.916C59.4796 497.021 55.8829 480.44 50.9297 472.058Z" fill="#36305D"/>
<path d="M38.9433 458.258C38.397 457.175 38.0695 456.606 37.7287 456.132C37.2518 455.523 36.2162 454.197 35.8438 456.451C34.714 463.442 41.316 486.119 43.914 484.021C46.1196 482.236 42.5777 465.817 38.9433 458.258Z" fill="#36305D"/>
<path d="M29.5875 443.799C29.3408 443.067 29.0672 442.39 28.6985 441.699C28.2481 440.9 28.1526 440.751 27.8269 440.725C25.8639 442.02 30.9013 467.443 33.3334 468.48C35.5481 469.408 32.6142 452.241 29.5875 443.799Z" fill="#36305D"/>
<path d="M22.847 428.64C22.6684 427.975 22.4761 427.271 22.2837 426.566C22.1741 426.24 22.0645 425.915 21.8736 425.617C21.8192 425.59 21.7379 425.618 21.6972 425.632C21.0407 428.117 24.2207 449.909 25.9653 452.264C26.006 452.251 26.1009 452.264 26.1823 452.237C26.8945 450.185 24.5257 435.635 22.847 428.64Z" fill="#36305D"/>
<path d="M18.8876 412.996C18.7903 412.304 18.7067 411.653 18.6231 411.002C18.5541 410.663 18.5395 410.351 18.4842 410.053C18.4052 410.759 18.5569 411.477 18.6272 412.223L19.6932 422.64C20.7565 432.242 21.1991 434.764 21.364 435.388C21.714 434.545 19.5421 418.027 18.8876 412.996Z" fill="#36305D"/>
<path d="M58.4804 510.578C57.7847 509.454 57.2809 508.9 56.8451 508.413C54.4363 506.236 54.0648 508.761 54.1411 511.271C54.5433 522.002 62.8823 540.697 65.5831 536.889C67.717 533.952 63.5268 518.431 58.4804 510.578Z" fill="#36305D"/>
<path d="M45.9108 496.931C45.3645 495.847 44.9419 495.265 44.6148 494.832C44.1379 494.223 42.7894 492.641 42.6505 495.721C42.2305 504.012 49.2862 524.408 51.8166 522.378C53.9545 520.661 49.8028 504.448 45.9108 496.931Z" fill="#36305D"/>
<path d="M35.7545 482.515C35.4672 481.796 35.1392 481.092 34.7843 480.442C34.4024 479.846 33.8839 478.98 33.6016 479.754C32.2434 483.381 38.4018 507.294 40.5987 506.961C42.4836 506.643 38.9832 490.482 35.7545 482.515Z" fill="#36305D"/>
<path d="M28.2547 467.386C28.0624 466.681 27.8294 465.99 27.5965 465.298C27.4868 464.973 27.3229 464.621 27.1319 464.323C27.0912 464.337 27.0099 464.364 26.9555 464.337C26.3255 466.632 30.5146 489.941 32.3899 490.803C33.3885 489.199 29.9293 473.16 28.2547 467.386Z" fill="#36305D"/>
<path d="M23.4541 451.662C23.3161 450.984 23.2189 450.293 23.0946 449.655C23.0257 449.316 22.9567 448.978 22.9014 448.679C22.6607 449.711 26.0453 471.843 26.7712 473.862C27.2161 473.033 23.482 451.879 23.4541 451.662Z" fill="#36305D"/>
<path d="M35.0864 505.786C34.8534 505.095 34.5798 504.418 34.3061 503.74C34.1422 503.388 33.9919 503.076 33.8009 502.778C33.7603 502.792 33.6652 502.779 33.6246 502.793C33.0617 504.884 38.2006 528.19 40.0758 529.052C41.0475 527.502 37.279 512.291 35.0864 505.786Z" fill="#36305D"/>
<path d="M29.4708 490.066C29.3329 489.388 29.1543 488.724 29.0163 488.046C28.9474 487.707 28.8378 487.382 28.7688 487.043C28.4458 487.831 32.7939 509.999 33.6147 512.032C34.0739 511.379 30.4762 494.526 29.4708 490.066Z" fill="#36305D"/>
</svg>
