<svg width="1920" height="244" viewBox="0 0 1920 244" fill="none" xmlns="http://www.w3.org/2000/svg">
<path d="M-209.309 243.256H154.717L224.94 121.627L154.717 0H-209.309V243.256Z" fill="url(#paint0_linear_759_4339)"/>
<path d="M-258 243.256H106.025L176.248 121.627L106.025 0H-258V243.256Z" fill="url(#paint1_linear_759_4339)"/>
<path d="M48.9218 70.5957H-159.387V167.444H48.9218L76.8768 119.018L48.9218 70.5957Z" fill="#4F5DE4"/>
<path d="M120.391 118.093L75.7333 40.7459L75.2001 39.8208H-159.387V41.671H74.1304L118.788 119.022L74.1304 196.369H-159.387V198.22H75.2001L75.7333 197.294L120.391 119.947L120.924 119.022L120.391 118.093Z" fill="#F57005"/>
<path d="M2130.25 -0.000411987L1766.22 -0.000443811L1696 121.629L1766.22 243.256L2130.25 243.256L2130.25 -0.000411987Z" fill="url(#paint2_linear_759_4339)"/>
<path d="M2178.94 -0.000411987L1814.92 -0.000443811L1744.69 121.629L1814.92 243.256L2178.94 243.256L2178.94 -0.000411987Z" fill="url(#paint3_linear_759_4339)"/>
<path d="M1872.02 172.66L2080.33 172.66L2080.33 75.8118L1872.02 75.8118L1844.06 124.238L1872.02 172.66Z" fill="#4F5DE4"/>
<path d="M1800.55 125.162L1845.21 202.51L1845.74 203.435L2080.33 203.435L2080.33 201.585L1846.81 201.585L1802.15 124.234L1846.81 46.8865L2080.33 46.8865L2080.33 45.0363L1845.74 45.0363L1845.21 45.9614L1800.55 123.309L1800.02 124.234L1800.55 125.162Z" fill="#F57005"/>
<defs>
<linearGradient id="paint0_linear_759_4339" x1="285.501" y1="121.628" x2="5.30105" y2="121.628" gradientUnits="userSpaceOnUse">
<stop offset="0.1161" stop-color="#E8E8E8"/>
<stop offset="0.3015" stop-color="#F2F2F2"/>
<stop offset="0.6048" stop-color="#FCFCFC"/>
<stop offset="1" stop-color="white"/>
</linearGradient>
<linearGradient id="paint1_linear_759_4339" x1="236.81" y1="121.628" x2="-43.3905" y2="121.628" gradientUnits="userSpaceOnUse">
<stop offset="0.1161" stop-color="#E8E8E8"/>
<stop offset="0.3015" stop-color="#F2F2F2"/>
<stop offset="0.6048" stop-color="#FCFCFC"/>
<stop offset="1" stop-color="white"/>
</linearGradient>
<linearGradient id="paint2_linear_759_4339" x1="1635.44" y1="121.628" x2="1915.64" y2="121.628" gradientUnits="userSpaceOnUse">
<stop offset="0.1161" stop-color="#E8E8E8"/>
<stop offset="0.3015" stop-color="#F2F2F2"/>
<stop offset="0.6048" stop-color="#FCFCFC"/>
<stop offset="1" stop-color="white"/>
</linearGradient>
<linearGradient id="paint3_linear_759_4339" x1="1684.13" y1="121.628" x2="1964.33" y2="121.628" gradientUnits="userSpaceOnUse">
<stop offset="0.1161" stop-color="#E8E8E8"/>
<stop offset="0.3015" stop-color="#F2F2F2"/>
<stop offset="0.6048" stop-color="#FCFCFC"/>
<stop offset="1" stop-color="white"/>
</linearGradient>
</defs>
</svg>
