<svg width="311" height="332" viewBox="0 0 311 332" fill="none" xmlns="http://www.w3.org/2000/svg">
<path d="M290.28 88.2948C284.492 69.3278 276.816 53.5269 267.789 46.5794C263.501 43.2781 258.943 42.0627 254.43 43.008C250.082 32.129 245.059 23.0056 239.272 17.0334C232.944 10.521 226.107 8.19515 218.955 10.1159C212.598 11.8265 207.215 15.6079 202.822 21.4301C202.087 20.4997 201.338 19.5844 200.573 18.684C189.268 5.3591 177.588 -0.913219 165.893 0.107159C155.937 0.962476 146.476 7.2348 138.2 18.3989C134.017 18.504 130.088 19.4943 126.445 21.355C123.326 17.6336 119.953 14.4675 116.294 12.0066C108.228 6.57455 99.8611 5.19404 91.4497 7.91005C77.2658 12.4867 66.3054 27.6724 60.248 41.1474C50.3672 32.6992 40.0816 29.9082 29.6011 32.8493C-14.3302 45.1988 2.11782 135.352 7.53051 164.973C13.9928 200.401 28.3116 240.001 47.8483 276.494C48.4331 277.59 49.7975 278.01 50.892 277.41C51.9865 276.825 52.3914 275.459 51.8066 274.364C32.4799 238.275 18.3259 199.141 11.9536 164.163C9.37473 150.028 4.00702 120.632 4.59177 93.2616C5.26648 60.7596 14.0977 41.8826 30.8156 37.1859C40.1266 34.5749 49.3926 37.381 58.4188 45.544C58.3138 45.8141 58.2239 46.0692 58.1189 46.3393C41.446 91.551 51.4768 163.848 68.8244 215.452C69.649 217.928 70.5786 220.779 71.5982 223.93C81.1791 253.446 97.1923 302.829 121.137 313.408C121.707 313.663 122.337 313.663 122.906 313.423C123.476 313.183 123.926 312.733 124.136 312.148C125.875 307.586 127.03 300.908 127.614 292.595C128.559 294.321 129.518 296.017 130.508 297.697C136.76 308.291 152.264 332 165.743 332C166.418 332 167.077 331.94 167.737 331.82C174.829 330.514 179.492 322.757 181.996 308.111C182.221 306.791 182.431 305.47 182.626 304.15C190.318 312.283 198.774 319.065 207.98 323.852C217.276 328.699 224.098 329.509 228.821 326.358C237.337 320.671 235.913 303.955 234.519 287.794C234.459 287.088 234.399 286.398 234.339 285.708C243.455 299.588 254.265 309.582 266.89 311.397C267.49 311.487 268.089 311.322 268.569 310.962C269.049 310.602 269.364 310.062 269.439 309.462C271.523 293.571 271.343 277.155 269.829 260.709C271.733 262.644 273.742 264.43 275.856 266.021C276.441 266.456 277.205 266.591 277.91 266.366C278.615 266.141 279.155 265.585 279.365 264.88C282.243 255.307 282.873 230.938 281.449 201.647C285.392 204.453 288.945 204.213 291.434 203.342C296.112 201.707 299.306 195.735 300.94 185.606C302.5 175.942 302.605 162.857 301.45 148.527C301.765 147.927 302.05 147.282 302.305 146.606C303.114 146.786 303.969 146.726 304.809 146.426C306.998 145.676 309.816 143.77 310.716 138.984C312.2 131.136 307.702 118.321 301 109.408C298.616 101.185 294.973 93.4117 290.28 88.2948ZM295.168 132.681C294.883 133.281 294.868 134.017 295.183 134.662C295.303 134.887 295.408 135.142 295.528 135.427C296.052 139.539 296.487 143.62 296.832 147.582C295.723 149.292 294.283 150.448 292.469 150.778C285.947 151.933 281.134 143.08 279.005 135.142C275.616 122.552 277.175 107.202 284.882 104.396C285.407 104.201 285.932 104.126 286.471 104.126C287.716 104.126 288.975 104.576 290.145 105.221C292.229 114.194 293.923 123.528 295.168 132.681ZM288.855 99.8941C286.606 99.3689 284.747 99.639 283.353 100.149C276.936 102.475 273.712 109.543 272.932 117.946C271.748 110.458 270.368 102.61 268.794 94.7022C268.944 94.3871 269.079 94.0719 269.244 93.7718C271.778 88.73 274.971 86.4191 279.035 86.7642C281.584 86.9743 284.027 88.3548 286.307 90.6207C287.206 93.6368 288.046 96.7429 288.855 99.8941ZM276.171 187.211C266.185 166.684 261.327 126.829 265.975 103.916C268.299 116.505 270.353 130.205 272.138 144.866C273.937 159.661 275.256 173.947 276.171 187.211ZM265.061 50.1507C272.437 55.8378 278.885 68.2174 284.073 83.553C282.588 82.8628 281.029 82.4276 279.409 82.2926C275.961 82.0075 271.343 82.9228 267.445 88.1297C264.386 73.8295 260.638 59.6192 256.094 47.2996C259.078 46.8795 262.032 47.8248 265.061 50.1507ZM220.14 14.4825C225.687 12.9819 230.89 14.8576 236.063 20.1846C241.026 25.3015 245.764 33.5695 250.157 44.5836C239.017 50.2857 234.159 65.0812 232.495 82.5327C225.987 61.5549 217.531 41.4625 205.731 25.2565C209.449 19.9295 214.172 16.0881 220.14 14.4825ZM166.268 4.60883C176.433 3.7385 186.824 9.47062 197.14 21.6251C198.174 22.8556 199.194 24.101 200.183 25.3915C193.616 36.3906 189.703 52.9417 188.503 74.9098C178.667 50.0006 164.034 22.4954 143.567 18.8191C150.584 10.1459 158.321 5.28407 166.268 4.60883ZM134.886 23.2307C134.346 24.071 133.822 24.9263 133.297 25.8117C132.757 26.727 132.232 27.6424 131.723 28.5577C130.928 27.3272 130.103 26.1418 129.279 24.9864C131.078 24.1611 132.952 23.5758 134.886 23.2307ZM92.8291 12.1866C99.8611 9.90578 106.908 11.1062 113.775 15.7429C116.924 17.8737 119.848 20.5597 122.576 23.7259C121.032 24.8363 119.563 26.1268 118.138 27.5973C102.68 43.5182 97.3272 76.8456 95.513 100.734C87.0566 78.121 77.1308 58.9739 65.9606 46.7144C65.2259 45.9041 64.4912 45.1388 63.7415 44.3885C69.589 30.7185 80.3394 16.2231 92.8291 12.1866ZM120.747 308.171C99.7711 296.167 84.3277 248.539 75.8863 222.549C74.8518 219.383 73.9222 216.502 73.0975 214.026C56.1398 163.593 46.214 93.2616 61.9573 49.0103C62.1822 49.2504 62.4221 49.5054 62.647 49.7605C74.267 62.5003 85.3023 84.0332 94.8682 112.004C94.5534 119.776 94.6133 125.404 94.6433 127.309C95.513 175.582 99.7412 235.874 123.566 284.748C123.296 294.591 122.367 302.619 120.747 308.171ZM99.1414 127.219C99.1264 126.544 99.1264 125.854 99.1114 125.163C104.659 143.335 109.607 163.773 113.775 185.936C119.878 218.378 123.266 250.025 123.626 274.049C103.684 227.606 99.9661 172.161 99.1414 127.219ZM177.588 307.376C175.504 319.59 171.815 326.523 166.942 327.423C159.341 328.834 146.881 316.574 134.406 295.446C132.142 291.605 130.028 287.674 128.034 283.667C129.009 240.991 118.453 167.929 99.3363 111.538C100.491 83.9282 105.979 46.5794 121.362 30.7485C122.651 29.428 123.986 28.2576 125.38 27.2672C126.745 29.1129 128.064 31.0786 129.324 33.1494C107.883 76.6805 115.32 133.341 124.481 178.583C131.108 211.28 148.875 265.45 178.667 299.813C178.383 302.349 178.008 304.885 177.588 307.376ZM179.327 293.646C151.814 259.988 135.231 208.894 128.904 177.668C120.087 134.107 112.861 79.8617 132.052 37.9062C146.356 64.7811 153.493 105.836 158.666 135.652C160.225 144.626 161.575 152.384 162.924 158.716L164.304 165.183C172.67 204.333 182.881 252.05 179.327 293.646ZM226.332 322.637C223.138 324.767 217.666 323.837 210.064 319.876C200.288 314.789 191.397 307.346 183.375 298.388C188.128 255.097 177.423 205.038 168.697 164.268L167.317 157.801C165.983 151.543 164.648 143.83 163.089 134.902C157.676 103.781 150.195 60.6546 134.421 33.0293C135.291 31.3637 136.191 29.7281 137.15 28.1075C138.23 26.2768 139.339 24.5512 140.464 22.9306C162.729 24.5062 178.443 59.6642 188.128 86.6592C187.739 121.892 193.376 158.356 195.82 172.401C197.409 181.554 208.01 238.996 229.226 277.215C229.241 277.515 229.256 277.83 229.271 278.13C229.451 281.326 229.736 284.672 230.036 288.199C231.265 302.364 232.644 318.42 226.332 322.637ZM192.776 100.179C193.181 101.425 193.586 102.61 193.961 103.751C194.786 106.256 195.535 108.507 196.18 110.428C213.093 159.811 224.428 214.522 228.461 265.886C214.592 236.94 204.981 198.766 200.273 171.651C198.609 162.137 193.706 131.661 192.776 100.179ZM265.285 306.551C253.291 303.67 242.69 291.935 233.649 275.909C230.38 221.244 218.595 162.047 200.423 108.972C199.778 107.067 199.029 104.831 198.219 102.355C196.66 97.6132 194.801 92.0012 192.642 85.9389C192.911 66.4167 195.265 44.0284 203.167 29.413C216.406 48.0799 225.133 71.5636 231.79 96.0227C231.55 114.164 233.664 133.296 235.223 147.222C235.763 152.008 236.213 156.15 236.453 159.166C238.072 180.444 243.965 227.861 264.806 254.916C266.755 272.293 267.28 289.594 265.285 306.551ZM236.903 116.445C239.332 126.964 241.506 137.468 243.62 147.672C245.254 155.58 246.798 163.037 248.403 170.18C249.242 173.932 250.112 177.728 250.967 181.554C255.735 202.562 260.578 223.915 263.576 245.208C247.338 218.558 242.405 177.893 240.936 158.806C240.696 155.715 240.231 151.543 239.691 146.711C238.792 138.533 237.592 127.819 236.903 116.445ZM275.871 260.243C273.442 258.113 271.178 255.712 269.064 253.071C266.185 228.267 260.578 203.537 255.36 180.549C254.49 176.738 253.635 172.941 252.796 169.19C251.207 162.092 249.662 154.634 248.028 146.756C244.699 130.701 241.071 113.174 236.363 95.7976C236.678 74.6998 240.216 55.1475 251.791 48.8002C256.334 61.1047 260.488 76.4104 264.116 94.237C254.505 118.411 261.642 176.828 276.786 196.905C278.39 226.196 277.88 249.364 275.871 260.243ZM296.532 184.916C295.228 193.049 292.904 198.09 289.98 199.111C288.96 199.471 285.857 200.566 281.509 195.615C281.389 195.479 281.254 195.329 281.134 195.179C280.204 178.928 278.69 161.447 276.606 144.311C276.486 143.26 276.351 142.18 276.201 141.084C280.039 151.108 286.322 156.435 293.249 155.19C294.718 154.919 296.067 154.364 297.267 153.539C298.047 165.738 297.852 176.693 296.532 184.916ZM299.981 134.287C298.946 126.304 297.567 118.171 295.887 110.203C296.277 110.653 296.667 111.133 297.042 111.613C298.646 117.331 299.681 123.453 299.951 129.305C300.026 130.956 300.041 132.636 299.981 134.287ZM304.434 129.095C304.359 127.519 304.224 125.884 304.029 124.218C306.038 129.425 307.013 134.557 306.323 138.173C305.798 140.949 304.434 141.775 303.624 142.105C304.389 138.428 304.674 134.077 304.434 129.095Z" fill="#6371F8" fill-opacity="0.18"/>
</svg>
