<svg width="1169" height="990" viewBox="0 0 1169 990" fill="none" xmlns="http://www.w3.org/2000/svg">
<path d="M711.989 791.995L803.393 950.328L801.09 950.331L709.689 791.995H711.989Z" fill="#F6F6F6"/>
<path d="M691.679 791.995L783.086 950.328L780.783 950.331L689.379 791.995H691.679Z" fill="#F6F6F6"/>
<path d="M671.368 791.995L762.775 950.328H760.472L669.071 791.995H671.368Z" fill="#F6F6F6"/>
<path d="M651.061 791.995L742.465 950.331H740.162L648.761 791.995H651.061Z" fill="#F6F6F6"/>
<path d="M630.751 791.995L722.154 950.331L719.852 950.328L628.453 791.995H630.751Z" fill="#F6F6F6"/>
<path d="M610.44 791.995L701.847 950.331H699.544L608.14 791.995H610.44Z" fill="#F6F6F6"/>
<path d="M590.136 791.995L681.537 950.328L679.234 950.331L587.833 791.995H590.136Z" fill="#F6F6F6"/>
<path d="M569.825 791.995L661.226 950.328L658.926 950.331L567.525 791.995H569.825Z" fill="#F6F6F6"/>
<path d="M549.515 791.995L640.919 950.331H638.616L547.215 791.995H549.515Z" fill="#F6F6F6"/>
<path d="M711.992 475.326L803.396 633.656L801.096 633.662L709.692 475.326H711.992Z" fill="#F6F6F6"/>
<path d="M691.682 475.329L783.086 633.659L780.783 633.665L689.382 475.329H691.682Z" fill="#F6F6F6"/>
<path d="M671.377 475.326L762.778 633.656L760.475 633.662L669.071 475.326H671.377Z" fill="#F6F6F6"/>
<path d="M651.061 475.326L742.468 633.662H740.165L648.764 475.326H651.061Z" fill="#F6F6F6"/>
<path d="M630.754 475.326L722.157 633.662H719.857L628.453 475.326H630.754Z" fill="#F6F6F6"/>
<path d="M610.443 475.329L701.847 633.662H699.547L608.146 475.326L610.443 475.329Z" fill="#F6F6F6"/>
<path d="M590.136 475.329L681.54 633.662H679.237L587.836 475.329H590.136Z" fill="#F6F6F6"/>
<path d="M569.828 475.326L661.229 633.659L658.929 633.662L567.525 475.326H569.828Z" fill="#F6F6F6"/>
<path d="M549.521 475.329L640.919 633.662H638.619L547.215 475.326L549.521 475.329Z" fill="#F6F6F6"/>
<path d="M373.422 1124.28L464.82 965.945L465.973 967.942L374.57 1126.27L373.422 1124.28Z" fill="#F6F6F6"/>
<path d="M383.576 1141.87L474.974 983.539L476.13 985.53L384.723 1143.86L383.576 1141.87Z" fill="#F6F6F6"/>
<path d="M393.73 1159.46L485.128 1001.13L486.284 1003.12L394.88 1161.45L393.73 1159.46Z" fill="#F6F6F6"/>
<path d="M403.884 1177.06L495.287 1018.72L496.44 1020.71L405.036 1179.04L403.884 1177.06Z" fill="#F6F6F6"/>
<path d="M414.037 1194.64L505.441 1036.31L506.591 1038.3L415.19 1196.63L414.037 1194.64Z" fill="#F6F6F6"/>
<path d="M424.194 1212.23L515.595 1053.9L516.748 1055.89L425.344 1214.23L424.194 1212.23Z" fill="#F6F6F6"/>
<path d="M434.348 1229.82L525.749 1071.49L526.904 1073.48L435.498 1231.82L434.348 1229.82Z" fill="#F6F6F6"/>
<path d="M444.501 1247.42L535.905 1089.08L537.055 1091.07L445.651 1249.41L444.501 1247.42Z" fill="#F6F6F6"/>
<path d="M454.658 1265L546.059 1106.67L547.212 1108.66L455.808 1267L454.658 1265Z" fill="#F6F6F6"/>
<path d="M464.826 965.945L556.224 807.612L557.377 809.603L465.973 967.939L464.826 965.945Z" fill="#F6F6F6"/>
<path d="M474.98 983.536L566.381 825.203L567.534 827.194L476.13 985.53L474.98 983.536Z" fill="#F6F6F6"/>
<path d="M485.134 1001.13L576.535 842.796L577.688 844.784L486.284 1003.12L485.134 1001.13Z" fill="#F6F6F6"/>
<path d="M495.287 1018.72L586.691 860.384L587.841 862.381L496.44 1020.71L495.287 1018.72Z" fill="#F6F6F6"/>
<path d="M505.441 1036.31L596.845 877.975L597.995 879.969L506.594 1038.3L505.441 1036.31Z" fill="#F6F6F6"/>
<path d="M515.598 1053.9L606.999 895.565L608.149 897.559L516.748 1055.89L515.598 1053.9Z" fill="#F6F6F6"/>
<path d="M525.752 1071.49L617.153 913.156L618.308 915.15L526.904 1073.48L525.752 1071.49Z" fill="#F6F6F6"/>
<path d="M535.905 1089.08L627.309 930.744L628.459 932.74L537.055 1091.07L535.905 1089.08Z" fill="#F6F6F6"/>
<path d="M546.062 1106.67L637.466 948.334L638.616 950.331L547.212 1108.66L546.062 1106.67Z" fill="#F6F6F6"/>
<path d="M282.024 649.279L373.425 490.943L374.575 492.937L283.174 651.267L282.024 649.279Z" fill="#F6F6F6"/>
<path d="M292.178 666.867L383.579 508.534L384.735 510.528L293.331 668.861L292.178 666.867Z" fill="#F6F6F6"/>
<path d="M302.332 684.457L393.733 526.124L394.886 528.118L303.485 686.449L302.332 684.457Z" fill="#F6F6F6"/>
<path d="M312.486 702.054L403.889 543.715L405.042 545.709L313.638 704.042L312.486 702.054Z" fill="#F6F6F6"/>
<path d="M322.639 719.642L414.043 561.306L415.196 563.3L323.792 721.63L322.639 719.642Z" fill="#F6F6F6"/>
<path d="M332.796 737.229L424.2 578.896L425.35 580.89L333.946 739.223L332.796 737.229Z" fill="#F6F6F6"/>
<path d="M342.95 754.82L434.354 596.487L435.504 598.481L344.103 756.814L342.95 754.82Z" fill="#F6F6F6"/>
<path d="M353.103 772.411L444.507 614.08L445.66 616.072L354.256 774.407L353.103 772.411Z" fill="#F6F6F6"/>
<path d="M363.26 790.001L454.661 631.665L455.814 633.662L364.41 791.995L363.26 790.001Z" fill="#F6F6F6"/>
<path d="M373.428 490.943L464.829 332.607L465.979 334.604L374.575 492.934L373.428 490.943Z" fill="#F6F6F6"/>
<path d="M383.582 508.534L474.983 350.201L476.136 352.192L384.735 510.528L383.582 508.534Z" fill="#F6F6F6"/>
<path d="M393.736 526.124L485.137 367.791L486.292 369.783L394.889 528.118L393.736 526.124Z" fill="#F6F6F6"/>
<path d="M403.889 543.718L495.293 385.382L496.446 387.376L405.042 545.709L403.889 543.718Z" fill="#F6F6F6"/>
<path d="M414.046 561.309L505.45 402.973L506.6 404.967L415.196 563.3L414.046 561.309Z" fill="#F6F6F6"/>
<path d="M424.2 578.896L515.604 420.56L516.754 422.554L425.35 580.89L424.2 578.896Z" fill="#F6F6F6"/>
<path d="M434.354 596.484L525.757 438.154L526.907 440.148L435.504 598.481L434.354 596.484Z" fill="#F6F6F6"/>
<path d="M444.507 614.075L535.911 455.742L537.064 457.736L445.66 616.072L444.507 614.075Z" fill="#F6F6F6"/>
<path d="M454.664 631.665L546.065 473.332L547.218 475.326L455.814 633.662L454.664 631.665Z" fill="#F6F6F6"/>
<path d="M464.829 649.279L556.23 490.943L557.38 492.94L465.976 651.27L464.829 649.279Z" fill="#F6F6F6"/>
<path d="M474.983 666.867L566.384 508.534L567.537 510.528L476.133 668.861L474.983 666.867Z" fill="#F6F6F6"/>
<path d="M485.134 684.457L576.538 526.124L577.691 528.118L486.284 686.451L485.134 684.457Z" fill="#F6F6F6"/>
<path d="M495.29 702.051L586.694 543.715L587.847 545.709L496.443 704.042L495.29 702.051Z" fill="#F6F6F6"/>
<path d="M505.447 719.642L596.848 561.306L598.001 563.3L506.597 721.63L505.447 719.642Z" fill="#F6F6F6"/>
<path d="M515.601 737.229L607.002 578.896L608.155 580.89L516.751 739.223L515.601 737.229Z" fill="#F6F6F6"/>
<path d="M525.755 754.823L617.156 596.487L618.308 598.481L526.904 756.814L525.755 754.823Z" fill="#F6F6F6"/>
<path d="M535.908 772.411L627.312 614.08L628.462 616.072L537.058 774.407L535.908 772.411Z" fill="#F6F6F6"/>
<path d="M546.062 790.001L637.466 631.665L638.619 633.662L547.215 791.995L546.062 790.001Z" fill="#F6F6F6"/>
<path d="M90.1983 950.331L181.599 1108.66L182.752 1106.67L91.3484 948.337L90.1983 950.331Z" fill="#F6F6F6"/>
<path d="M100.355 932.74L191.753 1091.07L192.909 1089.08L101.505 930.746L100.355 932.74Z" fill="#F6F6F6"/>
<path d="M110.506 915.15L201.91 1073.49L203.063 1071.49L111.659 913.156L110.506 915.15Z" fill="#F6F6F6"/>
<path d="M120.662 897.556L212.066 1055.89L213.216 1053.9L121.815 895.565L120.662 897.556Z" fill="#F6F6F6"/>
<path d="M130.816 879.969L222.22 1038.3L223.373 1036.31L131.966 877.975L130.816 879.969Z" fill="#F6F6F6"/>
<path d="M140.973 862.378L232.374 1020.71L233.524 1018.72L142.12 860.384L140.973 862.378Z" fill="#F6F6F6"/>
<path d="M151.127 844.787L242.528 1003.12L243.68 1001.13L152.277 842.796L151.127 844.787Z" fill="#F6F6F6"/>
<path d="M161.283 827.197L252.684 985.53L253.834 983.539L162.43 825.203L161.283 827.197Z" fill="#F6F6F6"/>
<path d="M171.434 809.603L262.838 967.942L263.991 965.945L172.584 807.612L171.434 809.603Z" fill="#F6F6F6"/>
<path d="M821.418 316.996L912.819 475.332L913.969 473.338L822.568 315.005L821.418 316.996Z" fill="#F6F6F6"/>
<path d="M831.575 299.408L922.973 457.741L924.128 455.747L832.725 297.414L831.575 299.408Z" fill="#F6F6F6"/>
<path d="M841.728 281.821L933.129 440.151L934.282 438.157L842.878 279.824L841.728 281.821Z" fill="#F6F6F6"/>
<path d="M851.882 264.224L943.283 422.56L944.436 420.566L853.032 262.233L851.882 264.224Z" fill="#F6F6F6"/>
<path d="M862.036 246.637L953.44 404.97L954.593 402.973L863.186 244.643L862.036 246.637Z" fill="#F6F6F6"/>
<path d="M872.192 229.046L963.593 387.379L964.746 385.385L873.339 227.052L872.192 229.046Z" fill="#F6F6F6"/>
<path d="M882.343 211.455L973.747 369.788L974.897 367.797L883.496 209.464L882.343 211.455Z" fill="#F6F6F6"/>
<path d="M892.5 193.865L983.904 352.198L985.054 350.207L893.65 191.871L892.5 193.865Z" fill="#F6F6F6"/>
<path d="M902.656 176.274L994.06 334.607L995.207 332.613L903.807 174.283L902.656 176.274Z" fill="#F6F6F6"/>
<path d="M547.209 158.666L638.61 316.999L639.76 315.005L548.359 156.672L547.209 158.666Z" fill="#F6F6F6"/>
<path d="M557.363 141.075L648.764 299.408L649.92 297.414L558.516 139.081L557.363 141.075Z" fill="#F6F6F6"/>
<path d="M567.517 123.485L658.918 281.821L660.07 279.827L568.669 121.491L567.517 123.485Z" fill="#F6F6F6"/>
<path d="M577.673 105.891L669.074 264.23L670.227 262.233L578.823 103.9L577.673 105.891Z" fill="#F6F6F6"/>
<path d="M587.827 88.3036L679.231 246.637L680.381 244.643L588.977 86.3096L587.827 88.3036Z" fill="#F6F6F6"/>
<path d="M597.981 70.7101L689.385 229.049L690.535 227.052L599.131 68.7218L597.981 70.7101Z" fill="#F6F6F6"/>
<path d="M608.137 53.1223L699.538 211.455L700.688 209.464L609.287 51.1283L608.137 53.1223Z" fill="#F6F6F6"/>
<path d="M618.291 35.5317L709.692 193.865L710.845 191.874L619.441 33.5377L618.291 35.5317Z" fill="#F6F6F6"/>
<path d="M628.445 17.944L719.846 176.277L721.002 174.283L629.595 15.95L628.445 17.944Z" fill="#F6F6F6"/>
<path d="M273.006 316.999L90.1983 317.002L91.3484 315.005L274.156 315.008L273.006 316.999Z" fill="#F6F6F6"/>
<path d="M283.157 299.408L100.355 299.411L101.502 297.414L284.31 297.417L283.157 299.408Z" fill="#F6F6F6"/>
<path d="M293.314 281.821H110.509L111.659 279.827H294.464L293.314 281.821Z" fill="#F6F6F6"/>
<path d="M303.467 264.227L120.662 264.23L121.815 262.233L304.617 262.236L303.467 264.227Z" fill="#F6F6F6"/>
<path d="M313.624 246.637L130.816 246.639L131.969 244.643L314.774 244.648L313.624 246.637Z" fill="#F6F6F6"/>
<path d="M323.775 229.049H-84.1634L-83.0133 227.055H324.928L323.775 229.049Z" fill="#F6F6F6"/>
<path d="M333.931 211.455L151.127 211.458L152.277 209.464H335.081L333.931 211.455Z" fill="#F6F6F6"/>
<path d="M344.088 193.865L161.283 193.87L162.43 191.874H345.235L344.088 193.865Z" fill="#F6F6F6"/>
<path d="M354.242 176.277H171.434L172.584 174.283H355.392L354.242 176.277Z" fill="#F6F6F6"/>
<path d="M455.808 316.996L273.006 316.999L274.156 315.005L456.958 315.008L455.808 316.996Z" fill="#F6F6F6"/>
<path d="M465.962 299.408H283.157L284.307 297.414H467.112L465.962 299.408Z" fill="#F6F6F6"/>
<path d="M476.118 281.821H293.314L294.461 279.827L477.268 279.824L476.118 281.821Z" fill="#F6F6F6"/>
<path d="M486.272 264.227H303.467L304.617 262.233H487.422L486.272 264.227Z" fill="#F6F6F6"/>
<path d="M496.426 246.637H313.621L314.771 244.643H497.579L496.426 246.637Z" fill="#F6F6F6"/>
<path d="M506.58 229.049H323.775L324.928 227.052H507.733L506.58 229.049Z" fill="#F6F6F6"/>
<path d="M516.733 211.455H333.931L335.081 209.464H517.886L516.733 211.455Z" fill="#F6F6F6"/>
<path d="M526.89 193.865H344.088L345.235 191.871H528.04L526.89 193.865Z" fill="#F6F6F6"/>
<path d="M537.047 176.274H354.242L355.389 174.28L538.194 174.283L537.047 176.274Z" fill="#F6F6F6"/>
<path d="M730.017 791.995H547.215L548.365 790.001L731.17 790.004L730.017 791.995Z" fill="#F6F6F6"/>
<path d="M740.174 774.402L557.369 774.407L558.519 772.411H741.324L740.174 774.402Z" fill="#F6F6F6"/>
<path d="M750.327 756.814H567.525L568.672 754.823H751.48L750.327 756.814Z" fill="#F6F6F6"/>
<path d="M760.484 739.223H577.676L578.826 737.229H761.634L760.484 739.223Z" fill="#F6F6F6"/>
<path d="M851.307 721.63H587.83L588.983 719.636L852.457 719.642L851.307 721.63Z" fill="#F6F6F6"/>
<path d="M861.461 704.042H597.986L599.136 702.051H862.614L861.461 704.042Z" fill="#F6F6F6"/>
<path d="M964.168 686.451H608.14L609.29 684.457H965.321L964.168 686.451Z" fill="#F6F6F6"/>
<path d="M801.102 668.861L618.297 668.864L619.444 666.867H802.252L801.102 668.861Z" fill="#F6F6F6"/>
<path d="M811.258 651.27H628.451L629.601 649.276H812.406L811.258 651.27Z" fill="#F6F6F6"/>
<path d="M364.404 791.998L455.805 950.331L456.955 948.34L365.554 790.004L364.404 791.998Z" fill="#F6F6F6"/>
<path d="M374.558 774.41L465.959 932.743L467.112 930.746L375.711 772.413L374.558 774.41Z" fill="#F6F6F6"/>
<path d="M384.712 756.817L476.116 915.15L477.268 913.159L385.865 754.826L384.712 756.817Z" fill="#F6F6F6"/>
<path d="M394.868 739.223L486.272 897.559L487.422 895.568L396.021 737.232L394.868 739.223Z" fill="#F6F6F6"/>
<path d="M405.022 721.636L496.426 879.969L497.576 877.975L406.172 719.644L405.022 721.636Z" fill="#F6F6F6"/>
<path d="M415.176 704.045L506.58 862.381L507.73 860.387L416.326 702.054L415.176 704.045Z" fill="#F6F6F6"/>
<path d="M425.332 686.454L516.733 844.787L517.886 842.796L426.482 684.46L425.332 686.454Z" fill="#F6F6F6"/>
<path d="M435.486 668.867L526.887 827.197L528.04 825.206L436.636 666.873L435.486 668.867Z" fill="#F6F6F6"/>
<path d="M445.64 651.273L537.047 809.609L538.197 807.612L446.793 649.282L445.64 651.273Z" fill="#F6F6F6"/>
<path d="M647.634 332.613L464.829 332.607L465.976 334.607L648.781 334.604L647.634 332.613Z" fill="#F6F6F6"/>
<path d="M657.788 350.204L474.983 350.201L476.13 352.195L658.935 352.192L657.788 350.204Z" fill="#F6F6F6"/>
<path d="M667.942 367.791H485.137L486.284 369.785H669.089L667.942 367.791Z" fill="#F6F6F6"/>
<path d="M678.098 385.385L495.29 385.382L496.443 387.379H679.245L678.098 385.385Z" fill="#F6F6F6"/>
<path d="M688.252 402.973H505.447L506.597 404.97L689.402 404.967L688.252 402.973Z" fill="#F6F6F6"/>
<path d="M698.403 420.563H515.601L516.751 422.554L699.556 422.557L698.403 420.563Z" fill="#F6F6F6"/>
<path d="M708.557 438.157H525.755L526.904 440.151L709.709 440.148L708.557 438.157Z" fill="#F6F6F6"/>
<path d="M718.713 455.742H535.911L537.061 457.739H719.866L718.713 455.742Z" fill="#F6F6F6"/>
<path d="M728.867 473.335H546.062L547.215 475.332L730.02 475.329L728.867 473.335Z" fill="#F6F6F6"/>
<path d="M99.2165 649.279H-83.5884L-82.4383 651.273L100.369 651.27L99.2165 649.279Z" fill="#F6F6F6"/>
<path d="M109.37 666.873L-73.4346 666.87L-72.2846 668.867L110.523 668.864L109.37 666.873Z" fill="#F6F6F6"/>
<path d="M119.524 684.457H-63.278L-62.1309 686.451H120.677L119.524 684.457Z" fill="#F6F6F6"/>
<path d="M129.681 702.054L-53.1243 702.051L-51.9742 704.045L130.831 704.042L129.681 702.054Z" fill="#F6F6F6"/>
<path d="M139.834 719.644L-116 719.642L-114.847 721.636H140.984L139.834 719.644Z" fill="#F6F6F6"/>
<path d="M149.988 737.232H-32.8168L-31.6668 739.226H151.141L149.988 737.232Z" fill="#F6F6F6"/>
<path d="M160.142 754.823H-22.6601L-21.513 756.817H161.295L160.142 754.823Z" fill="#F6F6F6"/>
<path d="M170.298 772.411H-12.5064L-11.3564 774.41L171.448 774.407L170.298 772.411Z" fill="#F6F6F6"/>
<path d="M180.452 790.001L-2.35267 790.004L-1.19976 791.998L181.605 791.995L180.452 790.001Z" fill="#F6F6F6"/>
<path d="M282.021 649.279L99.2194 649.276L100.369 651.27L283.174 651.267L282.021 649.279Z" fill="#F6F6F6"/>
<path d="M292.175 666.87L109.373 666.867L110.523 668.864H293.328L292.175 666.87Z" fill="#F6F6F6"/>
<path d="M302.332 684.457H119.527L120.677 686.451H303.482L302.332 684.457Z" fill="#F6F6F6"/>
<path d="M312.486 702.054L129.681 702.048L130.834 704.042H313.636L312.486 702.054Z" fill="#F6F6F6"/>
<path d="M322.639 719.642H139.834L140.987 721.636L323.792 721.63L322.639 719.642Z" fill="#F6F6F6"/>
<path d="M332.793 737.232L149.991 737.229L151.141 739.223H333.946L332.793 737.232Z" fill="#F6F6F6"/>
<path d="M342.95 754.823H160.145L161.295 756.814H344.1L342.95 754.823Z" fill="#F6F6F6"/>
<path d="M353.103 772.411H170.298L171.448 774.402L354.256 774.407L353.103 772.411Z" fill="#F6F6F6"/>
<path d="M363.26 790.001L180.452 790.001L181.605 791.995H364.41L363.26 790.001Z" fill="#F6F6F6"/>
<path d="M364.407 158.666L455.811 0.336004L453.508 0.333113L362.107 158.666H364.407Z" fill="#F6F6F6"/>
<path d="M344.1 158.666L435.504 0.333113H433.198L341.797 158.666H344.1Z" fill="#F6F6F6"/>
<path d="M323.789 158.666L415.193 0.333113H412.89L321.489 158.666H323.789Z" fill="#F6F6F6"/>
<path d="M303.482 158.666L394.883 0.333113H392.583L301.179 158.666H303.482Z" fill="#F6F6F6"/>
<path d="M283.169 158.666L374.572 0.333113H372.27L280.868 158.666H283.169Z" fill="#F6F6F6"/>
<path d="M262.861 158.666L354.265 0.333113H351.965L260.561 158.666H262.861Z" fill="#F6F6F6"/>
<path d="M242.554 158.666L333.955 0.333113H331.655L240.251 158.666H242.554Z" fill="#F6F6F6"/>
<path d="M222.243 158.666L313.644 0.333113H311.347L219.94 158.666H222.243Z" fill="#F6F6F6"/>
<path d="M201.933 158.666L293.337 0.333113H291.034L199.63 158.666H201.933Z" fill="#F6F6F6"/>
<path d="M1077.59 475.329L1169 316.999L1166.69 316.996L1075.29 475.332L1077.59 475.329Z" fill="#F6F6F6"/>
<path d="M1057.28 475.329L1148.69 316.996H1146.39L1054.99 475.329H1057.28Z" fill="#F6F6F6"/>
<path d="M1036.98 475.332L1128.38 316.996H1126.08L1034.68 475.332H1036.98Z" fill="#F6F6F6"/>
<path d="M1016.66 475.332L1108.07 316.996H1105.77L1014.36 475.329L1016.66 475.332Z" fill="#F6F6F6"/>
<path d="M996.355 475.332L1087.76 316.996H1085.46L994.057 475.332H996.355Z" fill="#F6F6F6"/>
<path d="M976.044 475.329L1067.45 316.996H1065.15L973.747 475.332L976.044 475.329Z" fill="#F6F6F6"/>
<path d="M955.743 475.329L1047.14 316.996H1044.84L953.44 475.332L955.743 475.329Z" fill="#F6F6F6"/>
<path d="M935.432 475.332L1026.83 316.996H1024.53L933.126 475.332H935.432Z" fill="#F6F6F6"/>
<path d="M915.119 475.332L1006.52 316.996H1004.22L912.819 475.332H915.119Z" fill="#F6F6F6"/>
<path d="M181.602 475.332L273.006 316.999L270.703 316.996L179.299 475.332H181.602Z" fill="#F6F6F6"/>
<path d="M161.292 475.329L252.696 316.996H250.393L158.989 475.332L161.292 475.329Z" fill="#F6F6F6"/>
<path d="M140.984 475.332L232.385 316.996H230.082L138.681 475.332H140.984Z" fill="#F6F6F6"/>
<path d="M120.671 475.332L212.078 316.996H209.775L118.371 475.329L120.671 475.332Z" fill="#F6F6F6"/>
<path d="M100.361 475.332L191.765 316.996H189.465L98.0636 475.332H100.361Z" fill="#F6F6F6"/>
<path d="M80.0562 475.329L171.457 316.996H169.157L77.7532 475.332L80.0562 475.329Z" fill="#F6F6F6"/>
<path d="M59.7458 475.332L151.147 316.996H148.844L57.4458 475.332H59.7458Z" fill="#F6F6F6"/>
<path d="M39.4354 475.332L130.839 316.999L128.539 316.996L37.1354 475.332H39.4354Z" fill="#F6F6F6"/>
<path d="M19.1279 475.332L110.529 316.996H108.226L16.825 475.332H19.1279Z" fill="#F6F6F6"/>
<path d="M547.206 158.666L638.61 0.333113H636.307L544.906 158.666H547.206Z" fill="#F6F6F6"/>
<path d="M526.899 158.663L618.303 0.333113L616 0.330223L524.596 158.663H526.899Z" fill="#F6F6F6"/>
<path d="M506.588 158.666L597.989 0.333113H595.692L504.288 158.663L506.588 158.666Z" fill="#F6F6F6"/>
<path d="M486.278 158.666L577.682 0.333113H575.382L483.978 158.663L486.278 158.666Z" fill="#F6F6F6"/>
<path d="M465.968 158.666L557.371 0.333113H555.071L463.668 158.666H465.968Z" fill="#F6F6F6"/>
<path d="M445.663 158.663L537.064 0.333113H534.764L443.36 158.666L445.663 158.663Z" fill="#F6F6F6"/>
<path d="M425.353 158.663L516.754 0.333113H514.451L423.05 158.663H425.353Z" fill="#F6F6F6"/>
<path d="M405.042 158.666L496.443 0.333113H494.143L402.739 158.666H405.042Z" fill="#F6F6F6"/>
<path d="M384.735 158.666L476.136 0.333334H473.833L382.432 158.666H384.735Z" fill="#F6F6F6"/>
<path d="M90.1983 317.002L181.602 158.669L179.299 158.666L87.9012 317.002H90.1983Z" fill="#F6F6F6"/>
<path d="M69.8909 316.999L161.295 158.669L158.989 158.666L67.5879 316.999H69.8909Z" fill="#F6F6F6"/>
<path d="M49.5805 317.002L140.984 158.669L138.681 158.666L47.2805 316.999L49.5805 317.002Z" fill="#F6F6F6"/>
<path d="M29.2701 317.002L120.674 158.666H118.374L26.9701 316.999L29.2701 317.002Z" fill="#F6F6F6"/>
<path d="M8.95977 317.002L100.364 158.666H98.0636L6.65973 317.002H8.95977Z" fill="#F6F6F6"/>
<path d="M-11.3477 316.999L80.0562 158.669L77.7561 158.666L-13.6478 317.002L-11.3477 316.999Z" fill="#F6F6F6"/>
<path d="M-31.6552 316.999L59.7458 158.669L57.4458 158.666L-33.9552 317.002L-31.6552 316.999Z" fill="#F6F6F6"/>
<path d="M-51.9656 317.002L39.4354 158.669L37.1383 158.666L-54.2656 317.002H-51.9656Z" fill="#F6F6F6"/>
<path d="M-72.2759 317.002L19.1279 158.666H16.825L-74.576 317.002H-72.2759Z" fill="#F6F6F6"/>
<path d="M191.75 809.568H354.265L355.415 807.574H190.6L191.75 809.568Z" fill="#F6F6F6"/>
<path d="M200.763 825.165L201.913 827.159H344.114L345.261 825.162L200.763 825.165Z" fill="#F6F6F6"/>
<path d="M335.107 842.756H210.919L212.069 844.747H333.955L335.107 842.756Z" fill="#F6F6F6"/>
<path d="M324.954 860.346H100.369L101.519 862.337H323.801L324.954 860.346Z" fill="#F6F6F6"/>
<path d="M314.8 877.937L231.238 877.934L232.391 879.931H313.647L314.8 877.937Z" fill="#F6F6F6"/>
<path d="M304.643 895.528H241.398L242.548 897.522L303.493 897.519L304.643 895.528Z" fill="#F6F6F6"/>
<path d="M251.554 913.118L252.707 915.112H293.337L294.49 913.115L251.554 913.118Z" fill="#F6F6F6"/>
<path d="M284.333 930.706H261.717L262.867 932.7H283.186L284.333 930.706Z" fill="#F6F6F6"/>
<path d="M271.873 948.299L273.026 950.294L274.179 948.299H271.873Z" fill="#F6F6F6"/>
<path d="M437.824 950.328L355.415 807.574L354.262 809.568L435.524 950.328H437.824Z" fill="#F6F6F6"/>
<path d="M344.108 827.159L415.211 950.322H417.513L345.261 825.162L344.108 827.159Z" fill="#F6F6F6"/>
<path d="M333.955 844.747L394.9 950.319H397.203L335.107 842.756L333.955 844.747Z" fill="#F6F6F6"/>
<path d="M323.801 862.337L374.587 950.317H376.89L324.951 860.346L323.801 862.337Z" fill="#F6F6F6"/>
<path d="M313.644 879.931L354.274 950.311H356.577L314.797 877.934L313.644 879.931Z" fill="#F6F6F6"/>
<path d="M303.493 897.519L333.963 950.305H336.266L304.643 895.528L303.493 897.519Z" fill="#F6F6F6"/>
<path d="M293.337 915.112L313.653 950.302H315.953L294.49 913.115L293.337 915.112Z" fill="#F6F6F6"/>
<path d="M283.183 932.7L293.34 950.296L295.643 950.299L284.333 930.706L283.183 932.7Z" fill="#F6F6F6"/>
<path d="M273.026 950.291V950.294H275.332L274.179 948.299L273.026 950.291Z" fill="#F6F6F6"/>
<path d="M565.237 1108.66H567.537L648.773 967.942L647.62 965.948L565.237 1108.66Z" fill="#F6F6F6"/>
<path d="M587.847 1108.67L658.929 985.53L657.776 983.541L585.547 1108.67H587.847Z" fill="#F6F6F6"/>
<path d="M608.155 1108.67L669.083 1003.12L667.927 1001.13L605.852 1108.66L608.155 1108.67Z" fill="#F6F6F6"/>
<path d="M628.465 1108.67L679.237 1020.72L678.087 1018.72L626.162 1108.67H628.465Z" fill="#F6F6F6"/>
<path d="M689.39 1038.3L688.24 1036.31L646.472 1108.67H648.773L689.39 1038.3Z" fill="#F6F6F6"/>
<path d="M669.083 1108.67L699.544 1055.89L698.397 1053.9L666.783 1108.67H669.083Z" fill="#F6F6F6"/>
<path d="M709.704 1073.49L708.551 1071.49L687.087 1108.67H689.387L709.704 1073.49Z" fill="#F6F6F6"/>
<path d="M719.857 1091.07L718.704 1089.08L707.398 1108.67H709.698L719.857 1091.07Z" fill="#F6F6F6"/>
<path d="M730.011 1108.67L728.858 1106.67L727.708 1108.67H730.011Z" fill="#F6F6F6"/>
<path d="M273.003 633.665L364.407 475.332H362.107L271.853 631.671L273.003 633.665Z" fill="#F6F6F6"/>
<path d="M262.849 616.072L344.1 475.332L341.797 475.329L261.699 614.083L262.849 616.072Z" fill="#F6F6F6"/>
<path d="M252.696 598.484L323.789 475.332L321.486 475.329L251.546 596.49L252.696 598.484Z" fill="#F6F6F6"/>
<path d="M303.482 475.332H301.176L241.389 578.899L242.542 580.893L303.482 475.332Z" fill="#F6F6F6"/>
<path d="M232.385 563.303L283.169 475.332H280.868L231.235 561.311L232.385 563.303Z" fill="#F6F6F6"/>
<path d="M262.861 475.332H260.561L221.082 543.718L222.232 545.712L262.861 475.332Z" fill="#F6F6F6"/>
<path d="M212.078 528.124L242.554 475.332L240.251 475.329L210.925 526.13L212.078 528.124Z" fill="#F6F6F6"/>
<path d="M222.243 475.332H219.94L200.771 508.54L201.921 510.531L222.243 475.332Z" fill="#F6F6F6"/>
<path d="M191.768 492.943L201.933 475.329L199.63 475.332L190.618 490.946L191.768 492.943Z" fill="#F6F6F6"/>
<path d="M364.407 475.332L273.006 316.999H273L271.853 318.99L362.107 475.332H364.407Z" fill="#F6F6F6"/>
<path d="M344.1 475.332L262.847 334.587L261.697 336.581L341.797 475.335L344.1 475.332Z" fill="#F6F6F6"/>
<path d="M323.789 475.332L252.696 352.177L251.543 354.169L321.486 475.332H323.789Z" fill="#F6F6F6"/>
<path d="M303.482 475.332L242.539 369.771L241.389 371.765L301.176 475.332H303.482Z" fill="#F6F6F6"/>
<path d="M283.169 475.332L232.385 387.359L231.235 389.353L280.868 475.332H283.169Z" fill="#F6F6F6"/>
<path d="M262.861 475.332L222.232 404.952L221.079 406.943L260.561 475.332H262.861Z" fill="#F6F6F6"/>
<path d="M242.551 475.332L212.078 422.54L210.925 424.537L240.251 475.332H242.551Z" fill="#F6F6F6"/>
<path d="M222.243 475.332L201.918 440.131L200.771 442.125L219.94 475.332H222.243Z" fill="#F6F6F6"/>
<path d="M199.63 475.332L201.933 475.332L191.765 457.724L190.618 459.715L199.63 475.332Z" fill="#F6F6F6"/>
<path d="M364.407 475.332L455.811 316.999H453.511L363.257 473.341L364.407 475.332Z" fill="#F6F6F6"/>
<path d="M354.25 457.744L435.504 316.999L433.201 316.996L353.103 455.753L354.25 457.744Z" fill="#F6F6F6"/>
<path d="M344.1 440.154L415.193 316.999H412.89L342.95 438.16L344.1 440.154Z" fill="#F6F6F6"/>
<path d="M333.943 422.56L394.883 316.999H392.583L332.793 420.569L333.943 422.56Z" fill="#F6F6F6"/>
<path d="M323.789 404.972L374.572 316.999H372.272L322.639 402.978L323.789 404.972Z" fill="#F6F6F6"/>
<path d="M354.262 316.999H351.965L312.483 385.391L313.636 387.382L354.262 316.999Z" fill="#F6F6F6"/>
<path d="M333.955 316.999H331.655L302.329 367.8L303.479 369.794L333.955 316.999Z" fill="#F6F6F6"/>
<path d="M313.644 316.999H311.347L292.172 350.209L293.322 352.203L313.644 316.999Z" fill="#F6F6F6"/>
<path d="M283.169 334.616L293.337 316.999H291.034L282.018 332.619L283.169 334.616Z" fill="#F6F6F6"/>
<path d="M647.634 332.61L648.781 334.604L750.347 158.666H748.047L647.634 332.61Z" fill="#F6F6F6"/>
<path d="M658.938 352.195L770.661 158.666H768.358L657.791 350.201L658.938 352.195Z" fill="#F6F6F6"/>
<path d="M790.968 158.666H788.665L667.942 367.791L669.092 369.785L790.968 158.666Z" fill="#F6F6F6"/>
<path d="M679.248 387.373L811.279 158.666H808.976L678.098 385.385L679.248 387.373Z" fill="#F6F6F6"/>
<path d="M831.586 158.666H829.286L688.252 402.973L689.402 404.967L831.586 158.666Z" fill="#F6F6F6"/>
<path d="M699.556 422.557L851.896 158.666H849.593L698.406 420.56L699.556 422.557Z" fill="#F6F6F6"/>
<path d="M872.207 158.666H869.904L708.559 438.154L709.709 440.148L872.207 158.666Z" fill="#F6F6F6"/>
<path d="M892.514 158.666L890.211 158.663L718.713 455.742L719.866 457.739L892.514 158.666Z" fill="#F6F6F6"/>
<path d="M912.819 158.675V158.663H910.525L728.867 473.335L730.02 475.329L912.819 158.675Z" fill="#F6F6F6"/>
<path d="M629.601 332.613L538.197 174.286L537.05 176.277L627.298 332.613H629.601Z" fill="#F6F6F6"/>
<path d="M609.29 332.613L528.043 191.874L526.893 193.87L606.99 332.616L609.29 332.613Z" fill="#F6F6F6"/>
<path d="M588.983 332.613L517.889 209.467L516.736 211.458L586.68 332.616L588.983 332.613Z" fill="#F6F6F6"/>
<path d="M568.672 332.613L507.733 227.058L506.583 229.049L566.367 332.616L568.672 332.613Z" fill="#F6F6F6"/>
<path d="M548.362 332.616L497.579 244.651L496.429 246.639L546.059 332.613L548.362 332.616Z" fill="#F6F6F6"/>
<path d="M528.052 332.613L487.425 262.239L486.275 264.23L525.752 332.613H528.052Z" fill="#F6F6F6"/>
<path d="M507.744 332.613L477.271 279.827L476.118 281.824L505.441 332.616L507.744 332.613Z" fill="#F6F6F6"/>
<path d="M487.434 332.613L467.118 297.417L465.965 299.411L485.134 332.616L487.434 332.613Z" fill="#F6F6F6"/>
<path d="M464.82 332.613L467.123 332.616L456.961 315.011L455.808 317.002L464.82 332.613Z" fill="#F6F6F6"/>
<path d="M1145.63 639.303H962.819L963.969 637.309H1146.78L1145.63 639.303Z" fill="#F6F6F6"/>
<path d="M988.989 140.078H806.181L807.331 138.084H990.139L988.989 140.078Z" fill="#F6F6F6"/>
<path d="M799.388 1127.27H616.583L617.733 1125.28H800.538L799.388 1127.27Z" fill="#F6F6F6"/>
<path d="M180.455 579.893H-2.35267L-1.20264 577.899H181.605L180.455 579.893Z" fill="#F6F6F6"/>
<path d="M436.09 -18.0031H253.282L254.432 -20H437.24L436.09 -18.0031Z" fill="#F6F6F6"/>
<path d="M881.213 966.948H698.406L699.556 964.951H882.363L881.213 966.948Z" fill="#F6F6F6"/>
<path d="M150.575 493.813H-32.2331L-31.0831 491.819H151.725L150.575 493.813Z" fill="#F6F6F6"/>
</svg>
