<svg width="530" height="381" viewBox="0 0 530 381" fill="none" xmlns="http://www.w3.org/2000/svg">
<mask id="mask0_759_7096" style="mask-type:luminance" maskUnits="userSpaceOnUse" x="0" y="0" width="530" height="381">
<path d="M1.76758 2.10645L527.729 2.10645V378.783L1.76758 378.783L1.76758 2.10645Z" fill="white" stroke="white" stroke-width="3.53422"/>
</mask>
<g mask="url(#mask0_759_7096)">
<path d="M192.256 239.685C197.31 242.76 196.073 247.284 199.925 247.602C204.625 248.026 202.682 241.629 205.65 240.18C211.482 237.353 207.311 232.051 201.48 233.324C196.249 234.455 193.068 232.157 190.736 234.313C188.827 236.116 190.241 238.484 192.256 239.685Z" stroke="#E4E4E4" stroke-width="0.511048" stroke-miterlimit="10"/>
<path d="M175.574 213.956C170.803 220.105 172.323 226.431 175.15 232.652C177.377 237.564 180.416 242.406 182.113 247.389C183.95 252.726 183.42 258.133 185.152 263.47C188.792 274.673 199.324 281.07 210.492 279.869C212.79 279.621 214.91 279.056 216.783 278.172C222.544 275.486 225.866 269.62 225.902 263.152C225.972 256.119 221.13 249.899 223.392 243.784C225.619 237.812 230.531 232.899 231.874 227.421C233.854 219.54 231.274 209.573 220.494 207.877C215.97 207.17 211.447 207.983 207.135 208.76C202.258 209.644 197.875 209.821 193.139 209.361C186.672 208.76 179.815 208.478 175.574 213.956Z" stroke="#E4E4E4" stroke-width="0.695888" stroke-miterlimit="10"/>
<path d="M159.915 193.74C151.503 205.085 154.507 216.571 159.667 227.986C163.696 236.963 169.104 245.764 171.472 255.235C173.946 264.99 171.896 274.956 174.617 284.675C180.201 304.538 201.018 314.893 220.562 312.278C224.556 311.747 228.302 310.687 231.695 309.061C241.873 304.184 248.093 293.758 247.811 282.343C247.528 269.867 237.95 259.37 240.707 247.601C243.181 237.069 251.84 228.587 254.985 218.974C259.509 205.191 257.282 186.636 239.117 182.642C231.235 180.911 223.283 182.501 215.649 184.091C207.097 185.823 199.463 186.318 190.981 185.505C179.671 184.374 167.337 183.844 159.915 193.74Z" stroke="#E4E4E4" stroke-width="0.881081" stroke-miterlimit="10"/>
<path d="M144.224 173.56C132.137 190.065 136.661 206.711 144.153 223.322C150.02 236.328 157.76 249.157 160.8 263.082C163.874 277.289 160.305 291.78 164.051 305.917C171.579 334.438 202.68 348.751 230.601 344.722C236.291 343.909 241.698 342.319 246.54 339.951C261.171 332.847 270.219 317.898 269.654 301.499C269.017 283.58 254.775 268.772 257.92 251.419C260.677 236.328 273.082 224.241 277.994 210.528C285.063 190.878 283.154 163.664 257.637 157.373C246.398 154.617 235.018 156.985 224.062 159.353C211.869 161.968 200.948 162.781 188.72 161.579C172.604 159.989 154.756 159.211 144.224 173.56Z" stroke="#E4E4E4" stroke-width="1.06592" stroke-miterlimit="10"/>
<path d="M128.495 153.344C112.768 175.009 118.811 196.815 128.601 218.621C136.27 235.691 146.413 252.514 150.089 270.928C153.8 289.588 148.711 308.567 153.446 327.157C162.954 364.302 204.304 382.609 240.6 377.166C247.987 376.071 255.02 373.95 261.382 370.84C280.431 361.51 292.377 342.072 291.458 320.654C290.468 297.328 271.56 278.173 275.094 255.2C278.134 235.479 294.285 219.894 300.965 202.046C310.578 176.493 308.987 140.692 276.119 132.103C261.523 128.287 246.679 131.503 232.436 134.648C216.603 138.147 202.395 139.278 186.421 137.688C165.533 135.602 142.172 134.577 128.495 153.344Z" stroke="#E4E4E4" stroke-width="1.25076" stroke-miterlimit="10"/>
<path d="M112.771 133.129C93.368 159.954 100.931 186.955 113.054 213.921C122.525 235.056 135.072 255.873 139.383 278.739C143.731 301.817 137.122 325.355 142.847 348.328C154.298 394.131 205.933 416.397 250.605 409.54C259.724 408.162 268.383 405.547 276.193 401.694C299.66 390.173 314.504 366.176 313.267 339.775C311.924 311.006 288.386 287.539 292.309 258.983C295.631 234.667 315.494 215.512 323.976 193.6C336.134 162.145 334.897 117.72 294.642 106.87C276.688 102.028 258.416 106.022 240.851 109.98C221.377 114.327 203.883 115.776 184.127 113.832C158.433 111.252 129.558 109.945 112.771 133.129Z" stroke="#E4E4E4" stroke-width="1.4356" stroke-miterlimit="10"/>
<path d="M97.006 112.912C73.9276 144.933 83.0458 177.059 97.4655 209.22C108.775 234.419 123.689 259.229 128.637 286.584C133.656 314.116 125.527 342.142 132.207 369.568C145.743 423.994 207.521 450.254 260.57 441.948C271.384 440.252 281.669 437.142 290.999 432.547C318.92 418.799 336.626 390.313 335.071 358.894C333.375 324.718 305.172 296.904 309.483 262.728C313.124 233.818 336.697 211.128 346.946 185.081C361.648 147.725 360.729 94.7112 313.088 81.5639C291.777 75.6971 270.077 80.4683 249.154 85.2042C226.005 90.4348 205.259 92.2019 181.757 89.8693C151.327 86.8653 116.974 85.3102 97.006 112.912Z" stroke="#E4E4E4" stroke-width="1.62044" stroke-miterlimit="10"/>
<path d="M81.2803 92.6971C54.5262 129.877 65.1642 167.163 81.9164 204.52C95.0284 233.748 112.346 262.552 117.965 294.395C123.62 326.38 113.972 358.93 121.676 390.738C137.156 453.824 209.219 484.041 270.644 474.322C283.155 472.343 295.101 468.703 305.88 463.401C338.218 447.462 358.823 414.417 356.949 378.05C354.935 338.431 322.067 306.305 326.767 266.51C330.726 232.97 358.01 206.782 370.026 176.6C387.273 133.341 386.708 71.7039 331.68 56.2947C307.011 49.3676 281.847 54.9517 257.638 60.5004C230.848 66.6146 206.816 68.6998 179.567 65.9784C144.225 62.4795 104.359 60.6418 81.2803 92.6971Z" stroke="#E4E4E4" stroke-width="1.80528" stroke-miterlimit="10"/>
<path d="M65.5168 72.481C35.1225 114.821 47.2802 157.302 66.3297 199.854C81.2441 233.147 100.965 265.944 107.221 302.276C113.512 338.714 102.308 375.788 111.038 412.013C128.461 483.758 210.809 517.934 280.609 506.801C294.817 504.539 308.388 500.404 320.688 494.325C357.443 476.16 380.911 438.591 378.719 397.24C376.351 352.179 338.853 315.741 343.907 270.362C348.148 232.228 379.179 202.47 392.962 168.188C412.754 119.027 412.542 48.6603 350.128 31.0953C322.101 23.1079 293.509 29.5402 265.978 35.8665C235.548 42.8289 208.229 45.2321 177.234 42.1574C137.12 38.093 91.7407 36.0432 65.5168 72.481Z" stroke="#E4E4E4" stroke-width="1.99012" stroke-miterlimit="10"/>
<path d="M49.7901 52.266C15.7202 99.7659 29.3977 147.407 50.815 195.154C67.5672 232.511 89.6208 269.302 96.5478 310.087C103.475 350.943 90.7517 392.541 100.471 433.22C119.838 513.623 212.47 551.757 290.647 539.211C306.551 536.666 321.784 532.001 335.532 525.18C376.741 504.787 403.071 462.73 400.561 416.361C397.84 365.893 355.712 325.108 361.12 274.109C365.679 231.38 400.385 198.088 415.971 159.671C438.307 104.608 438.448 25.6533 368.647 5.75564C337.299 -3.29196 305.244 3.95319 274.39 11.057C240.32 18.9029 209.714 21.6243 174.972 18.1608C130.017 13.7076 79.1241 11.3751 49.7901 52.266Z" stroke="#E4E4E4" stroke-width="2.17496" stroke-miterlimit="10"/>
<path d="M34.026 32.0496C-3.7195 84.7448 11.513 137.511 35.2276 190.453C53.7823 231.874 78.3451 272.659 85.8023 317.933C93.4362 363.241 79.0873 409.363 89.8313 454.424C111.143 543.487 214.059 585.579 300.612 571.619C318.248 568.792 335.071 563.596 350.339 556.068C395.965 533.485 425.193 486.868 422.366 435.516C419.291 379.605 372.534 334.473 378.33 277.925C383.172 230.567 421.624 193.74 438.977 151.223C463.858 90.2582 464.317 2.71554 387.165 -19.4794C352.459 -29.5519 316.94 -21.5292 282.764 -13.6126C245.054 -4.91838 211.161 -1.84361 172.673 -5.69591C122.876 -10.6792 66.5054 -13.2591 34.026 32.0496Z" stroke="#E4E4E4" stroke-width="2.3598" stroke-miterlimit="10"/>
<path d="M18.2653 11.8344C-23.1558 69.6896 -6.40356 127.651 19.6436 185.753C40.0007 231.203 66.9315 276.017 75.0602 325.744C83.3303 375.506 67.4616 426.151 79.1952 475.63C102.486 573.351 215.651 619.402 310.545 603.993C329.877 600.848 348.361 595.193 365.078 586.887C415.123 562.077 447.249 510.972 444.103 454.601C440.675 393.283 389.288 343.804 395.437 281.637C400.597 229.684 442.76 189.323 461.881 142.707C489.341 75.8391 490.119 -20.2917 405.58 -44.7838C367.517 -55.8812 328.57 -47.081 291.072 -38.3869C249.686 -28.8091 212.541 -25.4516 170.307 -29.6573C115.774 -35.0647 53.8902 -37.8921 18.2653 11.8344Z" stroke="#E4E4E4" stroke-width="2.54499" stroke-miterlimit="10"/>
<path d="M2.53785 -8.38139C-42.5588 54.6338 -24.2869 117.755 4.0929 181.053C26.2878 230.567 55.5865 279.339 64.3514 333.59C73.2576 387.769 55.8692 442.974 68.5924 496.835C93.8267 603.215 217.277 653.225 320.547 636.402C341.576 632.973 361.685 626.789 379.887 617.741C434.349 590.704 469.338 535.076 465.874 473.757C462.092 406.995 406.04 353.205 412.613 285.418C418.091 228.835 463.93 184.976 484.853 134.224C514.858 61.4548 515.954 -43.2995 424.064 -70.0535C382.643 -82.1759 340.268 -72.5628 299.448 -63.0911C254.422 -52.6298 213.99 -48.9542 168.01 -53.5487C108.67 -59.4509 41.2729 -62.5256 2.53785 -8.38139Z" stroke="#E4E4E4" stroke-width="2.72983" stroke-miterlimit="10"/>
<path d="M-13.2235 -28.5972C-61.9604 39.5779 -42.1687 107.859 -11.4917 176.352C12.5056 229.931 44.1723 282.697 53.6086 341.4C63.151 400.033 44.2076 459.726 57.9557 518.041C85.1339 633.079 218.869 687.047 330.515 668.81C353.24 665.099 375.011 658.384 394.696 648.63C453.612 619.402 491.463 559.214 487.682 492.912C483.582 420.708 422.864 362.606 429.791 289.235C435.552 228.023 485.137 180.629 507.827 125.778C540.377 47.1058 541.826 -66.2367 442.55 -95.288C397.771 -108.435 351.932 -98.0447 307.825 -87.7601C259.159 -76.4506 215.441 -72.4216 165.714 -77.4048C101.568 -83.8371 28.6924 -87.1593 -13.2235 -28.5972Z" stroke="#E4E4E4" stroke-width="2.91467" stroke-miterlimit="10"/>
<path d="M-29.1286 -48.8135C-81.5411 24.5569 -60.2298 97.9979 -27.2202 171.651C-1.42035 229.259 32.6495 286.054 42.7221 349.21C52.8653 412.296 32.4375 476.513 47.1752 539.245C76.2972 662.943 220.317 720.869 340.339 701.219C364.76 697.225 388.157 690.015 409.327 679.483C472.66 648.029 513.409 583.352 509.31 512.032C504.857 434.42 439.509 371.971 446.789 292.981C452.868 227.174 506.164 176.246 530.621 117.259C565.716 32.6856 567.483 -89.245 460.82 -120.629C412.684 -134.836 363.417 -123.633 315.988 -112.571C263.681 -100.378 216.676 -96.0661 163.204 -101.403C94.251 -108.188 15.8973 -111.793 -29.1286 -48.8135Z" stroke="#E4E4E4" stroke-width="3.09951" stroke-miterlimit="10"/>
<path d="M-44.8576 -69.0295C-100.946 9.50083 -78.0793 88.1019 -42.7724 166.986C-15.1348 228.658 21.2676 289.446 32.0117 357.091C42.791 424.63 20.8082 493.371 36.5708 560.486C67.672 692.842 221.941 754.726 350.339 733.662C376.457 729.386 401.514 721.646 424.169 710.407C491.92 676.726 535.567 607.526 531.15 531.222C526.343 448.168 456.471 381.407 464.035 296.833C470.502 226.431 527.439 171.934 553.663 108.848C591.302 18.4071 593.422 -112.182 479.373 -145.828C427.88 -161.061 375.184 -149.08 324.398 -137.205C268.416 -124.128 218.159 -119.498 160.94 -125.188C87.1809 -132.575 3.3138 -136.427 -44.8576 -69.0295Z" stroke="#E4E4E4" stroke-width="3.28435" stroke-miterlimit="10"/>
<path d="M-60.5499 -89.2446C-120.314 -5.55427 -95.9274 78.2421 -58.288 162.286C-28.8479 228.022 9.95781 292.805 21.338 364.903C32.7535 436.895 9.25097 510.159 26.0032 581.692C59.0481 722.707 223.601 788.55 360.376 766.037C388.225 761.477 414.873 753.243 439.012 741.226C511.216 705.354 557.727 631.63 552.955 550.308C547.795 461.846 473.259 390.702 481.211 300.545C487.961 225.513 548.608 167.516 576.635 100.296C616.819 3.95277 619.257 -135.225 497.857 -171.168C443.006 -187.425 386.847 -174.631 332.773 -162.014C273.151 -148.089 219.608 -143.106 158.642 -149.185C80.1121 -156.96 -9.26834 -161.095 -60.5499 -89.2446Z" stroke="#E4E4E4" stroke-width="3.46919" stroke-miterlimit="10"/>
<path d="M-76.2769 -109.46C-139.681 -20.6101 -113.775 68.3462 -73.803 157.585C-42.5251 227.386 -1.35145 296.162 10.6649 372.749C22.7166 449.194 -2.30568 526.947 15.4361 602.897C50.4249 752.571 225.263 822.372 370.413 798.445C399.959 793.568 428.268 784.839 453.891 772.08C530.513 733.981 579.886 655.734 574.832 569.463C569.319 475.559 490.117 400.104 498.493 304.326C505.526 224.665 569.92 163.134 599.713 91.8488C642.442 -10.3962 645.234 -158.162 516.447 -196.402C458.239 -213.685 398.652 -200.113 341.256 -186.683C277.993 -171.875 221.163 -166.609 156.416 -173.041C73.0439 -181.346 -21.8499 -185.729 -76.2769 -109.46Z" stroke="#E4E4E4" stroke-width="3.65403" stroke-miterlimit="10"/>
<path d="M-89.3529 152.885C-56.2726 226.715 -12.731 299.519 -0.0431615 380.559C12.6447 461.422 -13.9326 543.734 4.83407 624.102C49.2946 814.632 308.353 882.701 468.7 802.969C549.74 762.679 602.011 679.872 596.639 588.619C590.772 489.272 506.905 409.504 515.67 308.143C522.951 223.887 591.126 158.822 622.686 83.4019C667.96 -24.7452 671.07 -181.099 534.932 -221.637C473.366 -239.944 410.35 -225.595 349.633 -211.352C282.73 -195.66 222.613 -190.076 154.12 -196.897C65.9761 -205.733 -34.3958 -210.398 -91.9682 -129.676C-159.048 -35.6659 -131.622 58.4503 -89.3529 152.885Z" stroke="#E4E4E4" stroke-width="3.83887" stroke-miterlimit="10"/>
</g>
</svg>
