<svg width="376" height="404" viewBox="0 0 376 404" fill="none" xmlns="http://www.w3.org/2000/svg">
<path d="M345.936 -337C346.025 -263.239 312.064 -190.117 255.64 -142.605C206.704 -101.412 144.212 -80.1855 90.9114 -44.8491C37.5928 -9.51272 -9.16082 50.174 2.54976 113.073C10.5875 156.254 45.0272 190.579 83.956 210.883C122.903 231.187 166.587 239.99 209.135 250.851C251.683 261.731 294.871 275.539 328.601 303.67C371.344 339.343 394.411 397.255 387.916 452.558" stroke="#F57005" stroke-miterlimit="10"/>
<path d="M348.615 -312.295C348.704 -243.148 316.855 -174.605 263.98 -130.058C218.113 -91.4381 159.525 -71.5425 109.56 -38.4246C59.5769 -5.28897 15.7509 50.6529 26.734 109.612C34.2749 150.095 66.55 182.272 103.048 201.298C139.546 220.342 180.515 228.577 220.402 238.765C260.289 248.952 300.779 261.908 332.38 288.282C372.445 321.719 394.074 376.01 387.97 427.852" stroke="#F57005" stroke-miterlimit="10"/>
<path d="M351.313 -287.589C351.384 -223.057 321.682 -159.075 272.32 -117.527C229.523 -81.4808 174.838 -62.9164 128.209 -31.9992C81.5619 -1.08211 40.6636 51.1327 50.9192 106.152C57.9456 143.937 88.0737 173.949 122.141 191.715C156.208 209.481 194.427 217.166 231.652 226.679C268.878 236.192 306.653 248.278 336.161 272.895C373.546 304.114 393.72 354.767 388.024 403.148" stroke="#F57005" stroke-miterlimit="10"/>
<path d="M354.008 -262.885C354.079 -202.967 326.488 -143.564 280.675 -104.98C240.93 -71.5249 190.166 -54.2738 146.873 -25.5751C103.579 3.12348 65.5905 51.6112 75.1009 102.69C81.6305 137.76 109.594 165.643 141.23 182.13C172.849 198.618 208.353 205.771 242.899 214.592C277.463 223.43 312.542 234.647 339.937 257.506C374.643 286.489 393.38 333.521 388.093 378.442" stroke="#F57005" stroke-miterlimit="10"/>
<path d="M356.706 -238.161C356.777 -182.876 331.315 -128.052 289.015 -92.4315C252.34 -61.5499 205.48 -45.6476 165.522 -19.1498C125.564 7.34809 90.5033 52.091 99.2863 99.2298C105.319 131.602 131.118 157.337 160.323 172.547C189.511 187.775 222.265 194.359 254.168 202.506C286.07 210.652 318.451 221.017 343.718 242.102C375.762 268.848 393.062 312.26 388.183 353.719" stroke="#F57005" stroke-miterlimit="10"/>
</svg>
