<svg width="199" height="64" viewBox="0 0 199 64" fill="none" xmlns="http://www.w3.org/2000/svg">
<path d="M6.86426 50.4683C10.0694 50.4683 12.687 52.9988 12.8691 56.1792L12.8789 56.4888C12.8758 59.8003 10.1765 62.4976 6.86426 62.4976C3.55023 62.4975 0.849609 59.797 0.849609 56.4829C0.849704 53.1689 3.55029 50.4684 6.86426 50.4683Z" stroke="#F57005" stroke-width="1.7"/>
<path d="M6.86426 0.876465C10.0694 0.876465 12.687 3.40699 12.8691 6.5874L12.8789 6.89697C12.8758 10.2085 10.1765 12.9058 6.86426 12.9058C3.55023 12.9057 0.849609 10.2052 0.849609 6.89111C0.849705 3.57715 3.55029 0.876561 6.86426 0.876465Z" stroke="#F57005" stroke-width="1.7"/>
<path d="M53.0244 50.4683C56.3385 50.4683 59.039 53.1689 59.0391 56.4829C59.0391 59.797 56.3385 62.4976 53.0244 62.4976C49.7104 62.4975 47.0098 59.797 47.0098 56.4829C47.0099 53.1689 49.7104 50.4684 53.0244 50.4683Z" stroke="#F57005" stroke-width="1.7"/>
<path d="M53.0244 0.876465C56.3385 0.876465 59.039 3.57709 59.0391 6.89111C59.0391 10.2052 56.3385 12.9058 53.0244 12.9058C49.7104 12.9057 47.0098 10.2052 47.0098 6.89111C47.0099 3.57715 49.7104 0.876562 53.0244 0.876465Z" stroke="#F57005" stroke-width="1.7"/>
<path d="M99.21 50.4683C102.524 50.4683 105.225 53.1689 105.225 56.4829C105.225 59.797 102.524 62.4976 99.21 62.4976C95.8959 62.4975 93.1953 59.797 93.1953 56.4829C93.1954 53.1689 95.896 50.4684 99.21 50.4683Z" stroke="#F57005" stroke-width="1.7"/>
<path d="M99.21 0.876465C102.524 0.876465 105.225 3.57709 105.225 6.89111C105.225 10.2052 102.524 12.9058 99.21 12.9058C95.8959 12.9057 93.1953 10.2052 93.1953 6.89111C93.1954 3.57715 95.896 0.876562 99.21 0.876465Z" stroke="#F57005" stroke-width="1.7"/>
<path d="M145.368 50.4683C148.682 50.4683 151.383 53.1689 151.383 56.4829C151.383 59.797 148.682 62.4976 145.368 62.4976C142.054 62.4975 139.354 59.797 139.354 56.4829C139.354 53.1689 142.054 50.4684 145.368 50.4683Z" stroke="#F57005" stroke-width="1.7"/>
<path d="M145.368 0.876465C148.682 0.876465 151.383 3.57709 151.383 6.89111C151.383 10.2052 148.682 12.9058 145.368 12.9058C142.054 12.9057 139.354 10.2052 139.354 6.89111C139.354 3.57715 142.054 0.876562 145.368 0.876465Z" stroke="#F57005" stroke-width="1.7"/>
<path d="M191.556 50.4683C194.87 50.4683 197.57 53.1689 197.57 56.4829C197.57 59.797 194.87 62.4976 191.556 62.4976C188.242 62.4975 185.541 59.797 185.541 56.4829C185.541 53.1689 188.242 50.4684 191.556 50.4683Z" stroke="#F57005" stroke-width="1.7"/>
<path d="M191.556 0.849609C194.87 0.849609 197.57 3.55023 197.57 6.86426C197.57 10.1784 194.87 12.8789 191.556 12.8789C188.239 12.8788 185.541 10.2031 185.541 6.86426C185.541 3.55029 188.242 0.849707 191.556 0.849609Z" stroke="#F57005" stroke-width="1.7"/>
</svg>
