<svg width="16" height="258" viewBox="0 0 16 258" fill="none" xmlns="http://www.w3.org/2000/svg">
<path d="M1.07581 249.955C1.07581 246.244 4.07993 243.24 7.79086 243.24C11.5018 243.24 14.5059 246.244 14.5059 249.955C14.5059 253.666 11.5018 256.67 7.79086 256.67C4.07993 256.67 1.07581 253.666 1.07581 249.955Z" stroke="#4F5DE4" stroke-width="2" stroke-miterlimit="10"/>
<path d="M7.79086 196.306C11.4995 196.306 14.5059 193.299 14.5059 189.591C14.5059 185.882 11.4995 182.875 7.79086 182.875C4.08225 182.875 1.07581 185.882 1.07581 189.591C1.07581 193.299 4.08225 196.306 7.79086 196.306Z" stroke="#4F5DE4" stroke-width="2" stroke-miterlimit="10"/>
<path d="M1.07581 129.19C1.07581 125.479 4.07993 122.475 7.79086 122.475C11.5018 122.475 14.5059 125.479 14.5059 129.19C14.5059 132.901 11.5018 135.905 7.79086 135.905C4.07993 135.905 1.07581 132.901 1.07581 129.19Z" stroke="#4F5DE4" stroke-width="2" stroke-miterlimit="10"/>
<path d="M1.07581 68.8263C1.07581 65.1154 4.07993 62.1113 7.79086 62.1113C11.5018 62.1113 14.5059 65.1154 14.5059 68.8263C14.5059 72.5373 11.5018 75.5413 7.79086 75.5413C4.07993 75.506 1.07581 72.5019 1.07581 68.8263Z" stroke="#4F5DE4" stroke-width="2" stroke-miterlimit="10"/>
<path d="M1.07593 8.42644C1.07593 4.71551 4.08005 1.71143 7.79098 1.71143C11.5019 1.71143 14.506 4.71551 14.506 8.42644C14.506 12.1374 11.5019 15.1415 7.79098 15.1415C4.08005 15.1415 1.07593 12.1374 1.07593 8.42644Z" stroke="#4F5DE4" stroke-width="2" stroke-miterlimit="10"/>
</svg>
