<svg width="169" height="159" viewBox="0 0 169 159" fill="none" xmlns="http://www.w3.org/2000/svg">
<g clip-path="url(#clip0_759_7160)">
<path d="M7.21987 155.411C7.21987 157.401 5.6111 159 3.60994 159C1.60878 159 0 157.362 0 155.411C0 153.422 1.60878 151.822 3.60994 151.822C5.6111 151.783 7.21987 153.422 7.21987 155.411Z" fill="#2A254D"/>
<path d="M30.3313 155.411C30.3313 157.401 28.7225 159 26.7214 159C24.7202 159 23.1115 157.401 23.1115 155.411C23.1115 153.422 24.7202 151.822 26.7214 151.822C28.7225 151.783 30.3313 153.422 30.3313 155.411Z" fill="#2A254D"/>
<path d="M53.4428 155.411C53.4428 157.401 51.834 159 49.8328 159C47.8317 159 46.2229 157.401 46.2229 155.411C46.2229 153.422 47.8317 151.822 49.8328 151.822C51.834 151.783 53.4428 153.422 53.4428 155.411Z" fill="#2A254D"/>
<path d="M76.5539 155.411C76.5539 157.401 74.9451 159 72.9439 159C70.9428 159 69.334 157.401 69.334 155.411C69.334 153.422 70.9428 151.822 72.9439 151.822C74.9451 151.783 76.5539 153.422 76.5539 155.411Z" fill="#2A254D"/>
<path d="M99.6652 155.411C99.6652 157.401 98.0564 159 96.0553 159C94.0541 159 92.4453 157.401 92.4453 155.411C92.4453 153.422 94.0541 151.822 96.0553 151.822C98.0564 151.783 99.6652 153.422 99.6652 155.411Z" fill="#2A254D"/>
<path d="M122.777 155.411C122.777 157.401 121.168 159 119.167 159C117.165 159 115.557 157.401 115.557 155.411C115.557 153.422 117.165 151.822 119.167 151.822C121.168 151.783 122.777 153.422 122.777 155.411Z" fill="#2A254D"/>
<path d="M145.888 155.411C145.888 157.401 144.279 159 142.278 159C140.277 159 138.668 157.401 138.668 155.411C138.668 153.422 140.277 151.822 142.278 151.822C144.279 151.783 145.888 153.422 145.888 155.411Z" fill="#2A254D"/>
<path d="M168.999 155.411C168.999 157.401 167.39 159 165.389 159C163.388 159 161.779 157.401 161.779 155.411C161.779 153.422 163.388 151.822 165.389 151.822C167.39 151.783 168.999 153.422 168.999 155.411Z" fill="#2A254D"/>
<path d="M7.21987 133.722C7.21987 135.712 5.6111 137.311 3.60994 137.311C1.60878 137.311 0 135.673 0 133.722C0 131.733 1.60878 130.133 3.60994 130.133C5.6111 130.133 7.21987 131.733 7.21987 133.722Z" fill="#2A254D"/>
<path d="M30.3313 133.722C30.3313 135.712 28.7225 137.311 26.7214 137.311C24.7202 137.311 23.1115 135.712 23.1115 133.722C23.1115 131.733 24.7202 130.133 26.7214 130.133C28.7225 130.133 30.3313 131.733 30.3313 133.722Z" fill="#2A254D"/>
<path d="M53.4428 133.722C53.4428 135.712 51.834 137.311 49.8328 137.311C47.8317 137.311 46.2229 135.712 46.2229 133.722C46.2229 131.733 47.8317 130.133 49.8328 130.133C51.834 130.133 53.4428 131.733 53.4428 133.722Z" fill="#2A254D"/>
<path d="M76.5539 133.722C76.5539 135.712 74.9451 137.311 72.9439 137.311C70.9428 137.311 69.334 135.712 69.334 133.722C69.334 131.733 70.9428 130.133 72.9439 130.133C74.9451 130.133 76.5539 131.733 76.5539 133.722Z" fill="#2A254D"/>
<path d="M99.6652 133.722C99.6652 135.712 98.0564 137.311 96.0553 137.311C94.0541 137.311 92.4453 135.712 92.4453 133.722C92.4453 131.733 94.0541 130.133 96.0553 130.133C98.0564 130.133 99.6652 131.733 99.6652 133.722Z" fill="#2A254D"/>
<path d="M122.777 133.722C122.777 135.712 121.168 137.311 119.167 137.311C117.165 137.311 115.557 135.712 115.557 133.722C115.557 131.733 117.165 130.133 119.167 130.133C121.168 130.133 122.777 131.733 122.777 133.722Z" fill="#2A254D"/>
<path d="M145.888 133.722C145.888 135.712 144.279 137.311 142.278 137.311C140.277 137.311 138.668 135.712 138.668 133.722C138.668 131.733 140.277 130.133 142.278 130.133C144.279 130.133 145.888 131.733 145.888 133.722Z" fill="#2A254D"/>
<path d="M168.999 133.722C168.999 135.712 167.39 137.311 165.389 137.311C163.388 137.311 161.779 135.712 161.779 133.722C161.779 131.733 163.388 130.133 165.389 130.133C167.39 130.133 168.999 131.733 168.999 133.722Z" fill="#2A254D"/>
<path d="M7.21987 112.033C7.21987 114.023 5.6111 115.622 3.60994 115.622C1.60878 115.622 0 113.984 0 112.033C0 110.044 1.60878 108.444 3.60994 108.444C5.6111 108.444 7.21987 110.044 7.21987 112.033Z" fill="#2A254D"/>
<path d="M30.3313 112.033C30.3313 114.023 28.7225 115.622 26.7214 115.622C24.7202 115.622 23.1115 114.023 23.1115 112.033C23.1115 110.044 24.7202 108.444 26.7214 108.444C28.7225 108.444 30.3313 110.044 30.3313 112.033Z" fill="#2A254D"/>
<path d="M53.4428 112.033C53.4428 114.023 51.834 115.622 49.8328 115.622C47.8317 115.622 46.2229 114.023 46.2229 112.033C46.2229 110.044 47.8317 108.444 49.8328 108.444C51.834 108.444 53.4428 110.044 53.4428 112.033Z" fill="#2A254D"/>
<path d="M76.5539 112.033C76.5539 114.023 74.9451 115.622 72.9439 115.622C70.9428 115.622 69.334 114.023 69.334 112.033C69.334 110.044 70.9428 108.444 72.9439 108.444C74.9451 108.444 76.5539 110.044 76.5539 112.033Z" fill="#2A254D"/>
<path d="M99.6652 112.033C99.6652 114.023 98.0564 115.622 96.0553 115.622C94.0541 115.622 92.4453 114.023 92.4453 112.033C92.4453 110.044 94.0541 108.444 96.0553 108.444C98.0564 108.444 99.6652 110.044 99.6652 112.033Z" fill="#2A254D"/>
<path d="M122.777 112.033C122.777 114.023 121.168 115.622 119.167 115.622C117.165 115.622 115.557 114.023 115.557 112.033C115.557 110.044 117.165 108.444 119.167 108.444C121.168 108.444 122.777 110.044 122.777 112.033Z" fill="#2A254D"/>
<path d="M145.888 112.033C145.888 114.023 144.279 115.622 142.278 115.622C140.277 115.622 138.668 114.023 138.668 112.033C138.668 110.044 140.277 108.444 142.278 108.444C144.279 108.444 145.888 110.044 145.888 112.033Z" fill="#2A254D"/>
<path d="M168.999 112.033C168.999 114.023 167.39 115.622 165.389 115.622C163.388 115.622 161.779 114.023 161.779 112.033C161.779 110.044 163.388 108.444 165.389 108.444C167.39 108.444 168.999 110.044 168.999 112.033Z" fill="#2A254D"/>
<path d="M7.21987 90.3447C7.21987 92.3341 5.6111 93.9335 3.60994 93.9335C1.60878 93.9335 0 92.3341 0 90.3447C0 88.3552 1.60878 86.7559 3.60994 86.7559C5.6111 86.7559 7.21987 88.3552 7.21987 90.3447Z" fill="#2A254D"/>
<path d="M30.3313 90.3447C30.3313 92.3341 28.7225 93.9335 26.7214 93.9335C24.7202 93.9335 23.1115 92.3341 23.1115 90.3447C23.1115 88.3552 24.7202 86.7559 26.7214 86.7559C28.7225 86.7559 30.3313 88.3552 30.3313 90.3447Z" fill="#2A254D"/>
<path d="M53.4428 90.3447C53.4428 92.3341 51.834 93.9335 49.8328 93.9335C47.8317 93.9335 46.2229 92.3341 46.2229 90.3447C46.2229 88.3552 47.8317 86.7559 49.8328 86.7559C51.834 86.7559 53.4428 88.3552 53.4428 90.3447Z" fill="#2A254D"/>
<path d="M76.5539 90.3447C76.5539 92.3341 74.9451 93.9335 72.9439 93.9335C70.9428 93.9335 69.334 92.3341 69.334 90.3447C69.334 88.3552 70.9428 86.7559 72.9439 86.7559C74.9451 86.7559 76.5539 88.3552 76.5539 90.3447Z" fill="#2A254D"/>
<path d="M99.6652 90.3447C99.6652 92.3341 98.0564 93.9335 96.0553 93.9335C94.0541 93.9335 92.4453 92.3341 92.4453 90.3447C92.4453 88.3552 94.0541 86.7559 96.0553 86.7559C98.0564 86.7559 99.6652 88.3552 99.6652 90.3447Z" fill="#2A254D"/>
<path d="M122.777 90.3447C122.777 92.3341 121.168 93.9335 119.167 93.9335C117.165 93.9335 115.557 92.3341 115.557 90.3447C115.557 88.3552 117.165 86.7559 119.167 86.7559C121.168 86.7559 122.777 88.3552 122.777 90.3447Z" fill="#2A254D"/>
<path d="M145.888 90.3447C145.888 92.3341 144.279 93.9335 142.278 93.9335C140.277 93.9335 138.668 92.3341 138.668 90.3447C138.668 88.3552 140.277 86.7559 142.278 86.7559C144.279 86.7559 145.888 88.3552 145.888 90.3447Z" fill="#2A254D"/>
<path d="M168.999 90.3447C168.999 92.3341 167.39 93.9335 165.389 93.9335C163.388 93.9335 161.779 92.3341 161.779 90.3447C161.779 88.3552 163.388 86.7559 165.389 86.7559C167.39 86.7559 168.999 88.3552 168.999 90.3447Z" fill="#2A254D"/>
<path d="M7.21987 68.6557C7.21987 70.6452 5.6111 72.2445 3.60994 72.2445C1.60878 72.2445 0 70.6452 0 68.6557C0 66.6663 1.60878 65.0669 3.60994 65.0669C5.6111 65.0669 7.21987 66.6663 7.21987 68.6557Z" fill="#2A254D"/>
<path d="M30.3313 68.6557C30.3313 70.6452 28.7225 72.2445 26.7214 72.2445C24.7202 72.2445 23.1115 70.6452 23.1115 68.6557C23.1115 66.6663 24.7202 65.0669 26.7214 65.0669C28.7225 65.0669 30.3313 66.6663 30.3313 68.6557Z" fill="#2A254D"/>
<path d="M53.4428 68.6557C53.4428 70.6452 51.834 72.2445 49.8328 72.2445C47.8317 72.2445 46.2229 70.6452 46.2229 68.6557C46.2229 66.6663 47.8317 65.0669 49.8328 65.0669C51.834 65.0669 53.4428 66.6663 53.4428 68.6557Z" fill="#2A254D"/>
<path d="M76.5539 68.6557C76.5539 70.6452 74.9451 72.2445 72.9439 72.2445C70.9428 72.2445 69.334 70.6452 69.334 68.6557C69.334 66.6663 70.9428 65.0669 72.9439 65.0669C74.9451 65.0669 76.5539 66.6663 76.5539 68.6557Z" fill="#2A254D"/>
<path d="M99.6652 68.6557C99.6652 70.6452 98.0564 72.2445 96.0553 72.2445C94.0541 72.2445 92.4453 70.6452 92.4453 68.6557C92.4453 66.6663 94.0541 65.0669 96.0553 65.0669C98.0564 65.0669 99.6652 66.6663 99.6652 68.6557Z" fill="#2A254D"/>
<path d="M122.777 68.6557C122.777 70.6452 121.168 72.2445 119.167 72.2445C117.165 72.2445 115.557 70.6452 115.557 68.6557C115.557 66.6663 117.165 65.0669 119.167 65.0669C121.168 65.0669 122.777 66.6663 122.777 68.6557Z" fill="#2A254D"/>
<path d="M145.888 68.6557C145.888 70.6452 144.279 72.2445 142.278 72.2445C140.277 72.2445 138.668 70.6452 138.668 68.6557C138.668 66.6663 140.277 65.0669 142.278 65.0669C144.279 65.0669 145.888 66.6663 145.888 68.6557Z" fill="#2A254D"/>
<path d="M168.999 68.6557C168.999 70.6452 167.39 72.2445 165.389 72.2445C163.388 72.2445 161.779 70.6452 161.779 68.6557C161.779 66.6663 163.388 65.0669 165.389 65.0669C167.39 65.0669 168.999 66.6663 168.999 68.6557Z" fill="#2A254D"/>
<path d="M7.21987 46.9667C7.21987 48.9562 5.6111 50.5556 3.60994 50.5556C1.60878 50.5556 0 48.9562 0 46.9667C0 44.9773 1.60878 43.3779 3.60994 43.3779C5.6111 43.3779 7.21987 44.9773 7.21987 46.9667Z" fill="#2A254D"/>
<path d="M30.3313 46.9667C30.3313 48.9562 28.7225 50.5556 26.7214 50.5556C24.7202 50.5556 23.1115 48.9562 23.1115 46.9667C23.1115 44.9773 24.7202 43.3779 26.7214 43.3779C28.7225 43.3779 30.3313 44.9773 30.3313 46.9667Z" fill="#2A254D"/>
<path d="M53.4428 46.9667C53.4428 48.9562 51.834 50.5556 49.8328 50.5556C47.8317 50.5556 46.2229 48.9562 46.2229 46.9667C46.2229 44.9773 47.8317 43.3779 49.8328 43.3779C51.834 43.3779 53.4428 44.9773 53.4428 46.9667Z" fill="#2A254D"/>
<path d="M76.5539 46.9667C76.5539 48.9562 74.9451 50.5556 72.9439 50.5556C70.9428 50.5556 69.334 48.9562 69.334 46.9667C69.334 44.9773 70.9428 43.3779 72.9439 43.3779C74.9451 43.3779 76.5539 44.9773 76.5539 46.9667Z" fill="#2A254D"/>
<path d="M99.6652 46.9667C99.6652 48.9562 98.0564 50.5556 96.0553 50.5556C94.0541 50.5556 92.4453 48.9562 92.4453 46.9667C92.4453 44.9773 94.0541 43.3779 96.0553 43.3779C98.0564 43.3779 99.6652 44.9773 99.6652 46.9667Z" fill="#2A254D"/>
<path d="M122.777 46.9667C122.777 48.9562 121.168 50.5556 119.167 50.5556C117.165 50.5556 115.557 48.9562 115.557 46.9667C115.557 44.9773 117.165 43.3779 119.167 43.3779C121.168 43.3779 122.777 44.9773 122.777 46.9667Z" fill="#2A254D"/>
<path d="M145.888 46.9667C145.888 48.9562 144.279 50.5556 142.278 50.5556C140.277 50.5556 138.668 48.9562 138.668 46.9667C138.668 44.9773 140.277 43.3779 142.278 43.3779C144.279 43.3779 145.888 44.9773 145.888 46.9667Z" fill="#2A254D"/>
<path d="M168.999 46.9667C168.999 48.9562 167.39 50.5556 165.389 50.5556C163.388 50.5556 161.779 48.9562 161.779 46.9667C161.779 44.9773 163.388 43.3779 165.389 43.3779C167.39 43.3779 168.999 44.9773 168.999 46.9667Z" fill="#2A254D"/>
<path d="M7.21987 25.2778C7.21987 27.2672 5.6111 28.8666 3.60994 28.8666C1.60878 28.8666 0 27.2672 0 25.2778C0 23.2883 1.60878 21.689 3.60994 21.689C5.6111 21.689 7.21987 23.2883 7.21987 25.2778Z" fill="#2A254D"/>
<path d="M30.3313 25.2778C30.3313 27.2672 28.7225 28.8666 26.7214 28.8666C24.7202 28.8666 23.1115 27.2672 23.1115 25.2778C23.1115 23.2883 24.7202 21.689 26.7214 21.689C28.7225 21.689 30.3313 23.2883 30.3313 25.2778Z" fill="#2A254D"/>
<path d="M53.4428 25.2778C53.4428 27.2672 51.834 28.8666 49.8328 28.8666C47.8317 28.8666 46.2229 27.2672 46.2229 25.2778C46.2229 23.2883 47.8317 21.689 49.8328 21.689C51.834 21.689 53.4428 23.2883 53.4428 25.2778Z" fill="#2A254D"/>
<path d="M76.5539 25.2778C76.5539 27.2672 74.9451 28.8666 72.9439 28.8666C70.9428 28.8666 69.334 27.2672 69.334 25.2778C69.334 23.2883 70.9428 21.689 72.9439 21.689C74.9451 21.689 76.5539 23.2883 76.5539 25.2778Z" fill="#2A254D"/>
<path d="M99.6652 25.2778C99.6652 27.2672 98.0564 28.8666 96.0553 28.8666C94.0541 28.8666 92.4453 27.2672 92.4453 25.2778C92.4453 23.2883 94.0541 21.689 96.0553 21.689C98.0564 21.689 99.6652 23.2883 99.6652 25.2778Z" fill="#2A254D"/>
<path d="M122.777 25.2778C122.777 27.2672 121.168 28.8666 119.167 28.8666C117.165 28.8666 115.557 27.2672 115.557 25.2778C115.557 23.2883 117.165 21.689 119.167 21.689C121.168 21.689 122.777 23.2883 122.777 25.2778Z" fill="#2A254D"/>
<path d="M145.888 25.2778C145.888 27.2672 144.279 28.8666 142.278 28.8666C140.277 28.8666 138.668 27.2672 138.668 25.2778C138.668 23.2883 140.277 21.689 142.278 21.689C144.279 21.689 145.888 23.2883 145.888 25.2778Z" fill="#2A254D"/>
<path d="M168.999 25.2778C168.999 27.2672 167.39 28.8666 165.389 28.8666C163.388 28.8666 161.779 27.2672 161.779 25.2778C161.779 23.2883 163.388 21.689 165.389 21.689C167.39 21.689 168.999 23.2883 168.999 25.2778Z" fill="#2A254D"/>
<path d="M7.21987 3.58881C7.21987 5.57826 5.6111 7.17763 3.60994 7.17763C1.60878 7.17763 0 5.57826 0 3.58881C0 1.59936 1.60878 0 3.60994 0C5.6111 0 7.21987 1.59936 7.21987 3.58881Z" fill="#2A254D"/>
<path d="M30.3313 3.58881C30.3313 5.57826 28.7225 7.17763 26.7214 7.17763C24.7202 7.17763 23.1115 5.57826 23.1115 3.58881C23.1115 1.59936 24.7202 0 26.7214 0C28.7225 0 30.3313 1.59936 30.3313 3.58881Z" fill="#2A254D"/>
<path d="M53.4428 3.58881C53.4428 5.57826 51.834 7.17763 49.8328 7.17763C47.8317 7.17763 46.2229 5.57826 46.2229 3.58881C46.2229 1.59936 47.8317 0 49.8328 0C51.834 0 53.4428 1.59936 53.4428 3.58881Z" fill="#2A254D"/>
<path d="M76.5539 3.58881C76.5539 5.57826 74.9451 7.17763 72.9439 7.17763C70.9428 7.17763 69.334 5.57826 69.334 3.58881C69.334 1.59936 70.9428 0 72.9439 0C74.9451 0 76.5539 1.59936 76.5539 3.58881Z" fill="#2A254D"/>
<path d="M99.6652 3.58881C99.6652 5.57826 98.0564 7.17763 96.0553 7.17763C94.0541 7.17763 92.4453 5.57826 92.4453 3.58881C92.4453 1.59936 94.0541 0 96.0553 0C98.0564 0 99.6652 1.59936 99.6652 3.58881Z" fill="#2A254D"/>
<path d="M122.777 3.58881C122.777 5.57826 121.168 7.17763 119.167 7.17763C117.165 7.17763 115.557 5.57826 115.557 3.58881C115.557 1.59936 117.165 0 119.167 0C121.168 0 122.777 1.59936 122.777 3.58881Z" fill="#2A254D"/>
<path d="M145.888 3.58881C145.888 5.57826 144.279 7.17763 142.278 7.17763C140.277 7.17763 138.668 5.57826 138.668 3.58881C138.668 1.59936 140.277 0 142.278 0C144.279 0 145.888 1.59936 145.888 3.58881Z" fill="#2A254D"/>
<path d="M168.999 3.58881C168.999 5.57826 167.39 7.17763 165.389 7.17763C163.388 7.17763 161.779 5.57826 161.779 3.58881C161.779 1.59936 163.388 0 165.389 0C167.39 0 168.999 1.59936 168.999 3.58881Z" fill="#2A254D"/>
</g>
<defs>
<clipPath id="clip0_759_7160">
<rect width="169" height="159" fill="white"/>
</clipPath>
</defs>
</svg>
