<svg width="220" height="204" viewBox="0 0 220 204" fill="none" xmlns="http://www.w3.org/2000/svg">
<path d="M155.663 196.463C155.68 196.447 155.696 196.431 155.715 196.409C155.792 196.337 155.859 196.259 155.919 196.17C155.927 196.156 155.941 196.144 155.952 196.125L215.681 98.4341C215.952 97.9928 215.952 97.4354 215.682 96.9851C215.415 96.53 208.905 85.7578 195.215 76.6304C182.747 68.3204 161.798 59.9777 132.471 66.9758C118.996 36.9451 100.379 23.727 87.0531 17.9408C72.359 11.5583 60.9981 12.5177 60.5249 12.5625C60.039 12.6062 59.6176 12.8984 59.4013 13.3265L7.94932 115.789C7.91663 115.854 7.88886 115.923 7.86599 115.994C7.85933 116.017 7.85556 116.034 7.8489 116.056C7.83471 116.114 7.81761 116.175 7.81612 116.234C7.81147 116.264 7.80972 116.289 7.80998 116.322C7.80647 116.372 7.80497 116.43 7.80636 116.484C7.80952 116.512 7.80776 116.537 7.81091 116.565C7.81633 116.634 7.82955 116.701 7.85056 116.766C7.85258 116.774 7.8566 116.789 7.85861 116.797C7.87875 116.875 7.90957 116.946 7.9453 117.019C7.95913 117.041 7.96807 117.059 7.97901 117.086C8.0038 117.133 8.03348 117.184 8.06605 117.229C8.0848 117.254 8.10354 117.278 8.12228 117.303C8.13901 117.319 8.14795 117.338 8.16467 117.354C8.18341 117.378 8.20995 117.401 8.23648 117.423C8.25811 117.443 8.27686 117.467 8.29849 117.487C8.35848 117.542 8.42917 117.591 8.49784 117.632C8.49784 117.632 8.49784 117.632 8.50274 117.635C8.52236 117.647 8.53707 117.656 8.55669 117.668L145.913 192.195L154.061 196.613C154.076 196.622 154.089 196.623 154.103 196.632C154.128 196.646 154.158 196.651 154.183 196.666C154.284 196.707 154.379 196.738 154.48 196.759C154.498 196.763 154.512 196.772 154.525 196.773C154.533 196.771 154.541 196.769 154.551 196.775C154.675 196.79 154.8 196.793 154.916 196.777C154.944 196.774 154.967 196.769 154.991 196.763C155.094 196.746 155.193 196.714 155.291 196.674C155.309 196.665 155.333 196.659 155.354 196.646C155.472 196.605 155.571 196.539 155.663 196.463ZM147.634 189.932C136.222 168.707 103.941 159.55 90.0231 156.512C95.6909 156.782 105.092 157.694 114.961 160.63C134.452 166.433 147.011 177.14 152.35 192.493L147.634 189.932ZM12.8428 116.796C28.6979 112.491 45.0819 117.353 61.5837 131.267C70.7044 138.957 77.495 147.569 80.8805 152.252C43.4101 116.195 23.3002 119.271 19.4004 120.354L12.8428 116.796ZM74.8501 150.44L23.6147 122.641C30.6368 122.43 47.5181 125.359 74.8501 150.44ZM142.563 187.184L92.514 160.03C106.118 163.359 131.002 171.361 142.563 187.184ZM193.545 78.8975C204.771 86.3531 211.106 95.1703 212.782 97.6894L155.158 191.943C149.586 175.664 136.006 163.926 115.675 157.902C103.233 154.212 91.7844 153.637 86.9013 153.58L132.621 69.8534C161.177 62.8731 181.5 70.8933 193.545 78.8975ZM85.9428 20.53C98.8617 26.1384 116.967 39.0308 130.081 68.5428L84.3613 152.27C81.4796 148.091 74.0947 138.146 63.4643 129.171C46.3942 114.761 28.6752 109.591 12.0015 114.095L61.5884 15.3378C64.3107 15.2421 74.031 15.3538 85.9428 20.53Z" fill="#6371F8" fill-opacity="0.18"/>
<path d="M68.3456 42.1012C68.5918 42.1239 93.1682 44.7528 109.093 69.1781C109.218 69.3707 109.381 69.5209 109.563 69.6295C110.014 69.8997 110.598 69.9147 111.063 69.616C111.721 69.1962 111.909 68.325 111.477 67.6663C94.8002 42.0823 69.6433 39.388 68.5851 39.2859C67.8035 39.2116 67.1177 39.7785 67.0457 40.5554C66.9834 41.3382 67.5639 42.0268 68.3456 42.1012Z" fill="#6371F8" fill-opacity="0.18"/>
<path d="M56.8355 64.1088C57.0817 64.1315 81.8072 66.6004 95.3778 89.6948C95.5035 89.9078 95.6806 90.0794 95.8817 90.1998C96.3133 90.4582 96.8632 90.4856 97.3287 90.2198C98.0072 89.8322 98.2308 88.9689 97.836 88.293C83.4915 63.8759 58.1292 61.3801 57.0526 61.2866C56.268 61.2172 55.5842 61.7918 55.5278 62.5649C55.4627 63.3526 56.0509 64.0393 56.8355 64.1088Z" fill="#6371F8" fill-opacity="0.18"/>
<path d="M43.7722 83.9716C42.9941 83.8469 42.2728 84.3729 42.1529 85.1408C42.0379 85.9116 42.5776 86.6349 43.3528 86.7644C43.6207 86.8067 70.0998 91.2765 84.1729 113.832C84.2994 114.032 84.4647 114.19 84.6559 114.305C85.0974 114.569 85.6657 114.588 86.1351 114.305C86.8017 113.904 87.0028 113.033 86.5895 112.366C71.8244 88.7074 44.9091 84.1536 43.7722 83.9716Z" fill="#6371F8" fill-opacity="0.18"/>
<path d="M140.889 87.6154C140.874 88.1513 141.155 88.6278 141.587 88.8862C141.788 89.0066 142.018 89.0787 142.265 89.0888C171.297 90.3634 186.139 110.165 186.302 110.394C186.769 111.027 187.657 111.179 188.294 110.727C188.931 110.275 189.067 109.392 188.603 108.753C187.973 107.891 172.851 87.6004 142.352 86.2611C141.57 86.2323 140.915 86.8372 140.889 87.6154Z" fill="#6371F8" fill-opacity="0.18"/>
<path d="M130.87 111.151C131.091 111.283 131.347 111.357 131.615 111.354C158.349 111.28 173.059 131.258 173.251 131.517C173.707 132.157 174.598 132.317 175.239 131.868C175.878 131.424 176.027 130.541 175.566 129.898C174.937 129.023 159.878 108.449 131.574 108.529C130.787 108.53 130.161 109.165 130.173 109.946C130.176 110.453 130.454 110.902 130.87 111.151Z" fill="#6371F8" fill-opacity="0.18"/>
<path d="M116.599 130.462C115.811 130.443 115.168 131.061 115.162 131.839C115.157 132.36 115.438 132.824 115.865 133.08C116.071 133.203 116.314 133.276 116.569 133.284C143.087 133.927 160.462 154.451 160.636 154.66C161.141 155.264 162.036 155.36 162.638 154.867C163.239 154.375 163.324 153.487 162.819 152.883C162.079 151.994 144.459 131.134 116.599 130.462Z" fill="#6371F8" fill-opacity="0.18"/>
</svg>
