<svg width="94" height="89" viewBox="0 0 94 89" fill="none" xmlns="http://www.w3.org/2000/svg">
<path d="M16.3876 38.8561L17.6902 38.0614L19.1409 37.5253C19.286 37.4748 19.4027 37.3518 19.4468 37.2004L20.005 35.3649L21.2918 35.2104L23.102 35.6425C23.3354 35.6961 23.572 35.5825 23.676 35.3649L24.4645 33.6807L25.8742 34.0308C26.0571 34.075 26.2464 34.0182 26.3694 33.8763L27.3754 32.7472L28.8798 33.9331C28.9618 33.9993 29.0627 34.034 29.1668 34.0403L30.7279 34.1223C30.8414 34.1286 30.9486 34.0971 31.0433 34.0308L32.3205 33.132L33.6199 33.7376C33.765 33.8069 33.9353 33.7975 34.074 33.7218C34.1276 33.6871 35.8149 32.4666 35.8149 32.4666L35.2252 31.6497L33.7744 32.6968L32.4782 32.0945C32.3142 32.0188 32.125 32.0313 31.9768 32.1386L30.6049 33.1036L29.3781 33.0406L27.6277 31.6592C27.4164 31.4952 27.1136 31.5204 26.9402 31.7191L25.8206 32.9743L24.3036 32.599C24.0703 32.5422 23.8274 32.6558 23.7265 32.8734L22.9349 34.5607L21.4337 34.2043C21.3769 34.1917 21.317 34.1885 21.2571 34.1948L19.554 34.3998C19.3585 34.4219 19.1914 34.5638 19.1346 34.7531L18.5543 36.6643L17.2928 37.131C17.2613 37.1405 17.2329 37.1562 17.2045 37.172L15.9398 37.9447L14.2305 38.26L14.4134 39.2504L16.2142 38.9192C16.2773 38.9097 16.334 38.8845 16.3876 38.8561Z" fill="#F57005"/>
<path d="M21.0853 47.1453L21.1831 45.1552L22.4541 44.4866L23.7597 43.7013L25.4628 43.6572C25.652 43.654 25.8255 43.5405 25.9043 43.367L26.6549 41.7712L28.1403 41.8942C28.2192 41.9005 28.2949 41.8879 28.3674 41.8595L29.8024 41.2887L31.313 41.2382L32.9277 41.5315C32.9751 41.541 33.0224 41.541 33.0697 41.5378L34.634 41.3738C34.6876 41.3675 34.7412 41.3549 34.7885 41.3328L36.2361 40.68L37.7089 40.8188C37.753 40.8219 37.7972 40.8219 37.8413 40.8125L39.5097 40.5286L39.3394 39.5352L37.7373 39.8096L36.1951 39.6645C36.1099 39.655 36.0216 39.6708 35.9428 39.7086L34.4479 40.3835L33.035 40.5318L31.4392 40.2416C31.4045 40.2353 31.3666 40.2321 31.3319 40.2321L29.6794 40.289C29.6226 40.2921 29.5658 40.3015 29.5122 40.3236L28.1056 40.885L26.39 40.7431C26.1818 40.7242 25.9831 40.8408 25.8917 41.03L25.1253 42.6606L23.5989 42.6984C23.5106 42.7016 23.4286 42.7268 23.3529 42.7709L21.9589 43.6099L20.4577 44.3983C20.2969 44.4866 20.1991 44.6443 20.1896 44.8209L20.0919 46.8078L18.8556 47.4449L19.316 48.3406L20.8109 47.571C20.9718 47.5016 21.0759 47.325 21.0853 47.1453Z" fill="#F57005"/>
<path d="M24.6896 55.0105L25.4055 53.5913L26.2885 52.5442L27.6951 52.131C27.8055 52.0963 27.9064 52.027 27.9695 51.9292L28.8746 50.5762L29.8712 49.4188L31.1611 48.9899L32.8137 49.0813C32.9367 49.0877 33.0534 49.0498 33.1512 48.9741L34.3401 48.0469L35.7436 47.6685C35.8098 47.6495 35.8697 47.6211 35.9233 47.5801L37.1722 46.6088L38.5126 46.2997L40.1021 46.5741L41.679 46.7097L41.7673 45.7068L40.2346 45.5775L38.5883 45.2905C38.522 45.2779 38.4527 45.281 38.3864 45.2968L36.8411 45.6564C36.7717 45.6722 36.7023 45.7036 36.6455 45.7509L35.3903 46.7286L33.9838 47.1071C33.9207 47.126 33.8576 47.1544 33.804 47.1954L32.6844 48.069L31.1264 47.9807C31.0634 47.9775 31.0003 47.9839 30.9404 48.0059L29.4265 48.5105C29.3382 48.5389 29.2625 48.5925 29.2026 48.6619L28.0799 49.9739L27.241 51.2228L25.8628 51.6265C25.7682 51.6548 25.683 51.7085 25.6199 51.7842L24.6013 52.9889C24.576 53.0173 24.554 53.0519 24.5382 53.0866L23.9106 54.3324L22.3652 54.5973L22.5355 55.5908L24.33 55.2848C24.4814 55.2533 24.617 55.1524 24.6896 55.0105Z" fill="#F57005"/>
<path d="M30.6477 56.5117L32.2971 56.4392C32.417 56.4329 32.5305 56.3856 32.6188 56.3036L33.7227 55.2786L35.2901 55.2218C35.3815 55.2187 35.473 55.1903 35.5487 55.1398L36.7913 54.3262L38.324 54.4933C38.3808 54.4996 38.4407 54.4965 38.4975 54.4807L40.0428 54.1085C40.1027 54.0959 40.1627 54.0675 40.21 54.0328L41.4431 53.1845L42.7645 54.2252C42.8623 54.3009 42.9821 54.3388 43.1051 54.3325L44.6379 54.2473L44.5811 53.2412L43.2407 53.3138L41.7774 52.1627C41.6039 52.0271 41.3737 52.0113 41.1813 52.1437L39.7211 53.1498L38.3524 53.4809L36.7282 53.3044C36.6115 53.2918 36.498 53.3201 36.397 53.3832L35.1198 54.2189L33.505 54.2788C33.3852 54.282 33.2685 54.3324 33.1802 54.4144L32.0732 55.4426L30.3481 55.5214C30.1841 55.5277 30.0359 55.6161 29.9476 55.7517L29.0141 57.215L28.0553 58.4481L26.6393 59.2019C26.5257 59.2618 26.4469 59.3596 26.4027 59.4731L25.7909 61.1257L26.737 61.4758L27.2826 60.003L28.623 59.2902C28.7018 59.2429 28.7397 59.2113 28.7838 59.1546L29.834 57.7985L30.6477 56.5117Z" fill="#F57005"/>
<path d="M68.1144 0.00533832C67.8716 0.0431837 44.1362 3.97594 37.4692 24.7593C16.3578 19.215 0.289262 37.1252 0.125266 37.3082C-0.0198081 37.4753 -0.0418761 37.715 0.0748137 37.9043L24.6711 78.2253C24.7563 78.364 24.9045 78.4523 25.0653 78.465C25.2262 78.4776 25.387 78.4082 25.4911 78.2821C25.9989 77.6608 26.5224 77.0773 27.0522 76.5096L30.5781 83.817C30.6633 83.9936 30.8431 84.104 31.0418 84.1008C31.1238 84.0976 31.2057 84.0787 31.2751 84.0377C31.3697 83.9841 31.4486 83.9021 31.4927 83.798C31.6031 83.5426 31.7293 83.2902 31.868 83.0348L33.8707 88.2291C33.9401 88.4057 34.0978 88.5287 34.287 88.5477C34.3911 88.5603 34.4951 88.5381 34.5834 88.4877C34.6528 88.4498 34.7127 88.3962 34.7601 88.3268C34.8452 88.1975 43.5276 75.3459 59.3911 64.7051C76.8945 57.0414 92.3985 56.622 92.553 56.6188C92.635 56.6157 92.7139 56.5935 92.7833 56.5557C92.8716 56.5052 92.9473 56.4295 92.9914 56.3381C93.0734 56.1678 93.0576 55.9691 92.9441 55.8177L89.6358 51.3362C89.9291 51.3583 90.2098 51.3898 90.481 51.4308C90.5945 51.4497 90.7049 51.4276 90.8027 51.374C90.8721 51.3362 90.9351 51.2794 90.9793 51.21C91.0897 51.046 91.0928 50.8347 90.9888 50.6676L86.7185 43.7702C87.4786 43.6283 88.2544 43.5022 89.0492 43.4076C89.2132 43.3887 89.3551 43.2909 89.4308 43.149C89.5096 43.007 89.5128 42.8336 89.4402 42.6854L68.6442 0.279677C68.5465 0.0841427 68.3352 -0.0261995 68.1144 0.00533832ZM1.13448 37.7055C3.23174 35.4884 18.25 20.5837 37.4597 25.7906L58.2462 63.6738C55.1808 63.4498 45.3252 63.248 35.5927 68.5874C31.9816 70.5679 28.3863 73.3149 25.1631 77.1026L1.13448 37.7055ZM27.7934 75.737C38.2954 65.1087 51.8315 64.437 56.969 64.6136C51.5319 66.9158 36.6082 73.7753 31.5337 81.6156C31.3508 81.8994 31.1837 82.1802 31.0323 82.4545L27.7934 75.737ZM32.524 81.9562C36.8857 75.4689 48.5547 69.5146 54.9631 66.6068C43.4708 75.163 36.4126 84.3121 34.4668 86.9959L32.524 81.9562ZM63.3585 61.9991C69.2561 58.1546 80.5498 51.5065 88.3648 51.3141L91.5722 55.6632C88.267 55.8619 76.7526 56.8994 63.3585 61.9991ZM89.5885 50.3238C89.2794 50.3049 88.9514 50.2955 88.6108 50.2955C79.2756 50.3648 65.4779 59.2616 60.6084 62.6141C63.2197 58.183 71.0569 47.1291 85.6652 43.9816L89.5885 50.3238ZM88.226 42.5025C70.0193 45.0318 61.1288 59.4792 59.1293 63.1912L38.3428 25.3081C44.2719 6.30658 64.9133 1.64842 67.9094 1.07128L88.226 42.5025Z" fill="#F57005"/>
<path d="M57.0284 14.0925C56.8581 14.1398 56.7256 14.2691 56.6783 14.4394L56.1422 16.3033L54.8775 16.5903L52.9663 16.5745C52.7046 16.5713 52.4901 16.7669 52.4617 17.0224L52.2504 18.9052L50.8186 19.167C50.6105 19.2048 50.4465 19.3719 50.4118 19.5801L50.1658 21.0686L48.2199 21.0529C48.0937 21.0529 47.9707 21.0971 47.8761 21.1854L46.6493 22.3113C46.5547 22.3996 46.4979 22.5194 46.4885 22.6487L46.3749 24.3013L45.1229 25.1622C44.9557 25.2789 44.8737 25.4808 44.9147 25.6795L45.3436 27.72L46.3308 27.5119L45.9712 25.7993L47.1476 24.9888C47.2738 24.9005 47.3526 24.7618 47.3652 24.6072L47.4819 22.9105L48.4123 22.0558L50.5915 22.0747C50.8375 22.0779 51.052 21.8981 51.093 21.6521L51.3516 20.0879L52.8023 19.8229C53.0199 19.7819 53.1871 19.6053 53.2123 19.3846L53.4142 17.5806L54.928 17.5932C54.9658 17.5932 55.0037 17.5901 55.0447 17.5806L56.6562 17.2179C56.8328 17.18 56.9779 17.0413 57.0284 16.8647L57.5677 14.9851L58.9207 14.6097L60.3083 14.1051L61.9357 14.3795L62.1028 13.3861L60.3462 13.0896C60.261 13.0739 60.1727 13.0833 60.0907 13.1117L58.6147 13.6509L57.0284 14.0925Z" fill="#F57005"/>
<path d="M64.5506 20.4571L63.5067 22.2233L62.1411 22.4188C62.1064 22.4251 62.0717 22.4314 62.037 22.444L60.6147 22.9738L58.8485 22.9675C58.6341 22.9644 58.4386 23.1063 58.3692 23.3113L57.7983 25.0206L56.3255 25.2635C56.2214 25.2792 56.1268 25.3297 56.0543 25.4022L54.9284 26.5123L53.6006 27.3702L52.0585 28.2217C51.9985 28.2533 51.9481 28.2974 51.9071 28.351L50.8663 29.6724C50.8222 29.7292 50.7875 29.7955 50.7717 29.868L50.3807 31.5111L49.5007 32.7916C49.4597 32.8515 49.4345 32.9145 49.4219 32.9871L49.1191 34.6523L50.1094 34.8321L50.3933 33.2741L51.2637 32.0031C51.2984 31.9527 51.3236 31.8959 51.3394 31.836L51.7242 30.2086L52.6325 29.0543L54.1179 28.2344L55.5181 27.3292C55.5465 27.3103 55.5749 27.2882 55.6002 27.263L56.6472 26.2285L58.2619 25.9636C58.4449 25.9321 58.5994 25.8028 58.6593 25.6262L59.2112 23.9768L60.7061 23.983C60.766 23.983 60.826 23.9736 60.8827 23.9515L62.3398 23.4091L63.8914 23.1852C64.0428 23.1631 64.1753 23.0748 64.2541 22.9423L65.2507 21.2519L66.6731 21.4348L66.8024 20.435L65.0489 20.208C64.847 20.189 64.6515 20.2837 64.5506 20.4571Z" fill="#F57005"/>
<path d="M69.0844 27.6765L67.8418 28.7425L66.6244 29.5372L65.1295 29.6665C64.9971 29.6791 64.8741 29.7422 64.7889 29.84L62.7011 32.2369L61.4617 32.7257L59.8091 32.8802C59.6703 32.8929 59.541 32.9654 59.4559 33.0726L58.5224 34.2837L57.3271 35.1162C57.2577 35.1667 57.1978 35.233 57.1631 35.3118L56.4882 36.7152L55.5389 37.655L54.1701 38.3583C54.1354 38.3741 54.1102 38.393 54.0818 38.4151L52.8613 39.4054L53.4952 40.1875L54.6748 39.2319L56.0656 38.516C56.1129 38.4939 56.1539 38.4624 56.1886 38.4245L57.2545 37.3681C57.2955 37.3271 57.3302 37.2797 57.3523 37.2292L58.0083 35.8669L59.1563 35.0658C59.1973 35.0374 59.2351 35.0027 59.2666 34.9617L60.115 33.8642L61.6194 33.7254C61.6667 33.7223 61.714 33.7096 61.7581 33.6907L63.1773 33.1293C63.2499 33.1009 63.3161 33.0537 63.3697 32.9969L65.4134 30.6537L66.8294 30.5338C66.9146 30.5275 66.9934 30.4991 67.0628 30.4549L68.4378 29.553L69.5164 28.632L71.0082 29.1272L71.3235 28.1716L69.5606 27.5882C69.3997 27.5251 69.2168 27.5598 69.0844 27.6765Z" fill="#F57005"/>
<path d="M72.5978 34.7415L71.0619 34.65C70.9673 34.6437 70.8758 34.6658 70.7938 34.7099L69.3305 35.5015C69.2895 35.5173 69.2611 35.5457 69.2327 35.5709L68.1288 36.5707L66.4952 36.3972C66.347 36.3814 66.1988 36.4319 66.0947 36.536L64.9845 37.5988L63.4045 37.93C63.291 37.9521 63.1869 38.0182 63.1144 38.1097L62.1493 39.3334L60.6418 39.9515C60.5629 39.9831 60.4967 40.0335 60.4431 40.0997L59.3834 41.3991C59.3267 41.4685 59.2888 41.5536 59.2762 41.6451L59.046 43.1968L57.3682 43.796C57.2262 43.8433 57.1096 43.9631 57.0591 44.1113L56.504 45.7765L57.4596 46.0951L57.9359 44.6633L59.6673 44.0451C59.8376 43.9821 59.9669 43.8275 59.9953 43.6446L60.2507 41.9321L61.1432 40.8409L62.6571 40.2227C62.7359 40.1912 62.8084 40.1376 62.8621 40.0682L63.7956 38.8855L65.3378 38.5607C65.4292 38.5418 65.5144 38.4976 65.5838 38.4314L66.6277 37.4285L68.255 37.5988C68.3969 37.6146 68.5388 37.5672 68.6461 37.4695L69.8697 36.3593L71.1533 35.6655L72.705 35.757C72.8091 35.7633 72.9068 35.7381 72.9983 35.6845L74.4995 34.7636L73.9728 33.9058L72.5978 34.7415Z" fill="#F57005"/>
</svg>
