<svg width="94" height="99" viewBox="0 0 94 99" fill="none" xmlns="http://www.w3.org/2000/svg">
<path d="M25.2757 79.2832L29.1028 83.1093" stroke="#4F5DE4" stroke-width="0.88376" stroke-miterlimit="10" stroke-linecap="round" stroke-linejoin="round"/>
<path d="M12.135 66.1401L19.1697 73.1793" stroke="#4F5DE4" stroke-width="0.88376" stroke-miterlimit="10" stroke-linecap="round" stroke-linejoin="round"/>
<path d="M24.0549 66.9917L50.5608 93.4838" stroke="#4F5DE4" stroke-width="0.88376" stroke-miterlimit="10" stroke-linecap="round" stroke-linejoin="round"/>
<path d="M10.5471 53.4814L15.9167 58.856" stroke="#4F5DE4" stroke-width="0.88376" stroke-miterlimit="10" stroke-linecap="round" stroke-linejoin="round"/>
<path d="M43.1077 74.96L66.4253 98.2712" stroke="#F57005" stroke-width="0.88376" stroke-miterlimit="10" stroke-linecap="round" stroke-linejoin="round"/>
<path d="M7.92212 39.7837L32.7823 64.6435" stroke="#F57005" stroke-width="0.88376" stroke-miterlimit="10" stroke-linecap="round" stroke-linejoin="round"/>
<path d="M27.4124 48.2036L68.5749 89.3484" stroke="#4F5DE4" stroke-width="0.88376" stroke-miterlimit="10" stroke-linecap="round" stroke-linejoin="round"/>
<path d="M10.3909 31.1895L19.1035 39.8997" stroke="#4F5DE4" stroke-width="0.88376" stroke-miterlimit="10" stroke-linecap="round" stroke-linejoin="round"/>
<path d="M61.3967 71.1021L71.2904 80.9931" stroke="#4F5DE4" stroke-width="0.88376" stroke-miterlimit="10" stroke-linecap="round" stroke-linejoin="round"/>
<path d="M0.537598 10.2588L50.9936 60.701" stroke="#4F5DE4" stroke-width="0.88376" stroke-miterlimit="10" stroke-linecap="round" stroke-linejoin="round"/>
<path d="M41.0043 39.6479L90.2987 88.9223" stroke="#F57005" stroke-width="0.88376" stroke-miterlimit="10" stroke-linecap="round" stroke-linejoin="round"/>
<path d="M19.2328 17.8789L30.6819 29.3313" stroke="#F57005" stroke-width="0.88376" stroke-miterlimit="10" stroke-linecap="round" stroke-linejoin="round"/>
<path d="M50.5745 38.1382L82.4112 69.9662" stroke="#4F5DE4" stroke-width="0.88376" stroke-miterlimit="10" stroke-linecap="round" stroke-linejoin="round"/>
<path d="M18.0667 5.63916L41.5973 29.1634" stroke="#4F5DE4" stroke-width="0.88376" stroke-miterlimit="10" stroke-linecap="round" stroke-linejoin="round"/>
<path d="M76.8362 53.3198L93.4677 69.9468" stroke="#F57005" stroke-width="0.88376" stroke-miterlimit="10" stroke-linecap="round" stroke-linejoin="round"/>
<path d="M32.4456 8.94287L64.7534 41.2419" stroke="#F57005" stroke-width="0.88376" stroke-miterlimit="10" stroke-linecap="round" stroke-linejoin="round"/>
<path d="M60.725 26.1377L83.1908 48.6038" stroke="#4F5DE4" stroke-width="0.88376" stroke-miterlimit="10" stroke-linecap="round" stroke-linejoin="round"/>
<path d="M35.1114 0.535645L51.9172 17.3304" stroke="#4F5DE4" stroke-width="0.88376" stroke-miterlimit="10" stroke-linecap="round" stroke-linejoin="round"/>
<path d="M80.6936 35.0347L89.4321 43.7708" stroke="#F57005" stroke-width="0.88376" stroke-miterlimit="10" stroke-linecap="round" stroke-linejoin="round"/>
<path d="M48.5549 2.90332L70.7109 25.0468" stroke="#F57005" stroke-width="0.88376" stroke-miterlimit="10" stroke-linecap="round" stroke-linejoin="round"/>
<path d="M76.1506 19.4209L81.5202 24.789" stroke="#4F5DE4" stroke-width="0.88376" stroke-miterlimit="10" stroke-linecap="round" stroke-linejoin="round"/>
<path d="M66.7231 9.99414L70.4276 13.6912" stroke="#4F5DE4" stroke-width="0.88376" stroke-miterlimit="10" stroke-linecap="round" stroke-linejoin="round"/>
</svg>
