<svg width="938" height="595" viewBox="0 0 938 595" fill="none" xmlns="http://www.w3.org/2000/svg">
<path d="M115.978 55.4516C283.177 -111.529 334.923 154.357 573.599 128.113C947.567 87.0169 976.305 347.546 864.648 525.777C752.973 704.007 588.407 814.987 358.862 731.954C92.11 635.466 -65.4737 236.656 115.978 55.4516Z" fill="#4F5DE4"/>
<path d="M115.978 55.4516C283.177 -111.529 334.923 154.357 573.599 128.113C947.567 87.0169 976.305 347.546 864.648 525.777C752.973 704.007 588.407 814.987 358.862 731.954C92.11 635.466 -65.4737 236.656 115.978 55.4516Z" fill="#4F5DE4"/>
<circle cx="76" cy="424" r="63.7419" stroke="#F57005" stroke-width="24.5161"/>
<circle cx="50" cy="173" r="15" stroke="#F1F2FD" stroke-width="2"/>
<rect x="810.5" y="159.5" width="123" height="123" rx="61.5" fill="#F57005"/>
<rect x="810.5" y="159.5" width="123" height="123" rx="61.5" stroke="#E7E9F4" stroke-width="9"/>
<path d="M887.072 207.246C884.527 203.068 880.478 200.211 875.672 199.187C867.079 197.374 858.181 202.49 855.424 210.835C854.083 214.896 854.257 219.286 855.915 223.204C857.877 227.836 858.305 232.847 857.157 237.696C857.02 238.273 857.237 238.844 857.66 239.192L856.797 242.309L855.816 245.848L855.269 247.817C854.946 248.984 855.635 250.201 856.803 250.524L858.082 250.878C857.964 252.306 858.87 253.66 860.299 254.057L862.757 254.74C864.186 255.137 865.657 254.436 866.29 253.15L867.569 253.504C868.737 253.827 869.954 253.138 870.277 251.971L870.823 250.002L871.804 246.463L872.661 243.371C873.226 243.309 873.729 242.924 873.915 242.34C875.412 237.634 878.386 233.536 882.515 230.487C885.694 228.14 887.935 224.874 888.997 221.055C890.282 216.405 889.581 211.369 887.072 207.246ZM871.27 228.444C870.724 227.786 869.985 227.271 869.103 227.029C868.215 226.786 867.321 226.842 866.514 227.128L866.377 218.559C866.47 218.671 866.601 218.739 866.744 218.764C866.899 218.783 867.048 218.733 867.172 218.634L868.041 217.907L869.004 217.715C869.14 217.684 869.265 217.609 869.352 217.491L870.215 216.312L870.68 217.342C870.705 217.398 870.742 217.448 870.78 217.491L871.668 218.448C871.866 218.665 872.201 218.69 872.437 218.503L873.468 217.684L873.518 219.006C873.524 219.193 873.623 219.366 873.785 219.466C873.946 219.565 874.145 219.578 874.319 219.497L875.275 219.05L875.008 220.59C874.965 220.838 875.095 221.086 875.325 221.198L875.672 221.366L871.27 228.444ZM865.415 229.276L865.44 230.686L866.57 230.667L866.533 228.351C867.216 228.01 868.01 227.898 868.799 228.121C869.587 228.339 870.215 228.848 870.624 229.487L869.407 231.456L870.37 232.052L871.115 230.853C871.158 231.238 871.133 231.642 871.022 232.039L868.501 241.154L862.366 239.453L864.887 230.338C864.993 229.941 865.179 229.587 865.415 229.276ZM858.715 239.621L861.516 240.397L868.743 242.396L871.543 243.172L870.867 245.619L858.045 242.073L858.715 239.621ZM857.74 243.16L870.562 246.705L869.885 249.152L857.064 245.606L857.74 243.16ZM863.062 253.641L860.603 252.958C859.777 252.728 859.231 251.995 859.206 251.182L865.173 252.834C864.732 253.523 863.887 253.871 863.062 253.641ZM869.184 251.666C869.029 252.231 868.439 252.567 867.874 252.411L866.104 251.921L858.877 249.922L857.107 249.431C856.542 249.276 856.207 248.686 856.362 248.121L856.753 246.699L869.575 250.244L869.184 251.666ZM881.838 229.574C877.517 232.766 874.4 237.062 872.829 241.999C872.767 242.185 872.593 242.291 872.419 242.241L869.587 241.459L872.108 232.343C872.375 231.381 872.276 230.406 871.916 229.549L876.517 222.136L876.716 222.446L877.666 221.831L877.175 221.074L878.715 218.59L877.752 217.994L876.256 220.403C876.182 220.366 876.567 218.181 876.567 218.181C876.604 217.976 876.523 217.764 876.355 217.634C876.188 217.504 875.964 217.479 875.772 217.572L874.604 218.112L874.542 216.516C874.536 216.305 874.406 216.113 874.213 216.02C874.015 215.933 873.791 215.958 873.623 216.094L872.127 217.286L871.661 216.784L870.829 214.952C870.749 214.772 870.575 214.641 870.37 214.623C870.171 214.604 869.972 214.691 869.854 214.852L868.551 216.641L867.663 216.821C867.57 216.839 867.483 216.883 867.414 216.945L866.893 217.38L866.34 216.659L866.309 214.821L865.179 214.84L865.191 215.585C864.993 215.604 864.819 215.715 864.732 215.889L863.987 217.355L864.993 217.87L865.222 217.423L865.384 227.73C864.639 228.283 864.055 229.065 863.788 230.028L861.267 239.143L858.486 238.373C858.312 238.323 858.212 238.143 858.256 237.957C859.46 232.871 859.007 227.618 856.952 222.763C855.4 219.099 855.238 214.989 856.492 211.195C859.075 203.39 867.396 198.603 875.436 200.298C875.784 200.373 876.126 200.453 876.467 200.547C880.515 201.664 883.912 204.222 886.104 207.836C888.482 211.748 889.121 216.336 887.904 220.751C886.911 224.321 884.818 227.376 881.838 229.574Z" fill="white"/>
<path d="M878.888 189.65L876.793 197.22L877.882 197.522L879.977 189.951L878.888 189.65Z" fill="white"/>
<path d="M891.3 196.647L885.701 202.156L886.494 202.961L892.092 197.453L891.3 196.647Z" fill="white"/>
<path d="M898.791 208.937L891.188 210.907L891.473 212.007L899.076 210.036L898.791 208.937Z" fill="white"/>
<path d="M891.403 221.368L891.102 222.457L898.672 224.552L898.973 223.463L891.403 221.368Z" fill="white"/>
<path d="M886.452 230.304L885.646 231.097L891.155 236.696L891.96 235.904L886.452 230.304Z" fill="white"/>
<path d="M865.545 189.54L864.451 189.824L866.422 197.427L867.516 197.143L865.545 189.54Z" fill="white"/>
<path d="M852.981 196.353L852.176 197.146L857.685 202.744L858.49 201.952L852.981 196.353Z" fill="white"/>
<path d="M845.44 208.647L845.139 209.736L852.709 211.831L853.01 210.742L845.44 208.647Z" fill="white"/>
<path d="M852.504 220.997L844.9 222.968L845.185 224.068L852.789 222.097L852.504 220.997Z" fill="white"/>
<path d="M784.149 433.33C769.213 428.144 752.84 436.078 747.653 451.014C742.466 465.949 750.401 482.322 765.336 487.509C780.272 492.696 796.645 484.761 801.832 469.826C807.019 454.886 799.084 438.517 784.149 433.33ZM765.659 486.576C751.236 481.567 743.577 465.761 748.582 451.337C753.591 436.913 769.398 429.251 783.822 434.259C798.246 439.268 805.904 455.075 800.899 469.499C795.894 483.927 780.083 491.585 765.659 486.576Z" fill="white"/>
<path d="M777.916 460.712C778.046 459.281 777.208 457.891 775.789 457.401C775.201 457.198 774.591 457.184 774.025 457.314C773.633 456.305 773.11 455.155 772.478 453.957C770.664 450.509 768.671 447.986 768.029 448.324C767.386 448.661 768.341 451.732 770.155 455.18C770.831 456.461 771.527 457.616 772.174 458.541C771.988 458.792 771.825 459.064 771.72 459.376C771.139 461.045 772.025 462.868 773.691 463.445C775.342 464.018 777.139 463.154 777.738 461.521C779.93 461.851 783.077 462.225 786.597 462.563C793.25 463.198 798.673 463.441 798.702 463.111C798.735 462.78 793.363 461.996 786.71 461.365C783.247 461.027 780.126 460.802 777.916 460.712Z" fill="white"/>
<path d="M757.767 425.498C759.012 421.858 762.547 420.486 762.583 420.471L762.238 419.549C762.075 419.611 758.235 421.088 756.834 425.182L757.767 425.498Z" fill="white"/>
<path d="M809.154 450.426C813.256 447.279 814.755 441.816 812.896 437.029L813.64 436.452C814.236 435.995 814.617 435.334 814.715 434.586C814.813 433.839 814.617 433.102 814.159 432.507C813.702 431.911 813.041 431.53 812.294 431.432C811.546 431.334 810.809 431.53 810.214 431.987L809.641 432.43C805.477 428.862 799.405 428.666 795.035 432.02L794.015 432.79C788.966 429.265 782.883 427.153 776.735 426.79L776.412 425.56C775.058 420.217 770.169 416.609 764.692 416.827L764.51 416.123C764.129 414.62 762.598 413.705 761.088 414.086C759.585 414.471 758.674 416.006 759.051 417.506L759.28 418.413C754.852 421.03 752.645 426.245 753.912 431.258L754.496 433.483C749.114 437.512 745.103 442.996 742.889 449.37C739.034 460.469 741.158 472.49 748.54 481.626L746.522 483.589C745.938 484.159 745.611 484.925 745.6 485.749C745.589 486.569 745.898 487.346 746.468 487.93C746.813 488.282 747.219 488.533 747.655 488.685C748.718 489.055 749.948 488.823 750.809 487.988L752.823 486.025C756.01 488.758 759.658 490.859 763.679 492.253C767.697 493.647 771.857 494.26 776.052 494.09L776.423 496.881C776.528 497.69 776.945 498.412 777.599 498.913C777.867 499.12 778.161 499.276 778.47 499.385C778.912 499.538 779.388 499.588 779.867 499.527C780.676 499.421 781.399 499.004 781.9 498.351C782.401 497.697 782.618 496.895 782.513 496.082L782.143 493.28C793.598 490.692 802.708 482.577 806.563 471.474C808.773 465.104 809.027 458.313 807.307 451.812L809.154 450.426ZM812.17 432.405C812.657 432.47 813.085 432.717 813.383 433.102C813.677 433.487 813.807 433.966 813.742 434.452C813.677 434.938 813.43 435.367 813.041 435.664L812.497 436.085C812.174 435.417 811.775 434.771 811.299 434.154C811.009 433.78 810.697 433.436 810.374 433.105L810.816 432.764C811.205 432.47 811.684 432.343 812.17 432.405ZM809.299 433.421C809.731 433.82 810.145 434.271 810.519 434.757C811.074 435.483 811.524 436.256 811.855 437.051C813.756 441.512 812.399 446.691 808.559 449.638L807.031 450.792C804.947 443.831 800.657 437.697 794.857 433.389L795.638 432.797C799.739 429.65 805.485 429.911 809.299 433.421ZM761.342 415.037C762.318 414.791 763.316 415.382 763.563 416.362L763.701 416.903C763.222 416.961 762.754 417.041 762.322 417.153C761.585 417.342 760.877 417.622 760.195 417.948L760.021 417.262C759.774 416.282 760.369 415.288 761.342 415.037ZM760.1 419.074C760.873 418.652 761.705 418.326 762.569 418.104C763.124 417.959 763.726 417.861 764.358 417.814C769.523 417.426 774.19 420.779 775.464 425.795L775.711 426.739C768.481 426.525 761.313 428.681 755.371 432.855L754.885 431C753.694 426.311 755.839 421.404 760.1 419.074ZM750.137 487.277C749.317 488.079 747.996 488.061 747.194 487.237C746.809 486.841 746.598 486.315 746.606 485.756C746.613 485.197 746.834 484.678 747.23 484.29L749.19 482.381C750.112 483.455 751.088 484.453 752.097 485.364L750.137 487.277ZM781.13 497.745C780.789 498.187 780.299 498.471 779.751 498.543C779.203 498.616 778.655 498.467 778.212 498.126C777.769 497.784 777.486 497.295 777.413 496.746L777.054 494.035C778.419 493.944 779.805 493.763 781.185 493.491L781.544 496.209C781.62 496.757 781.471 497.302 781.13 497.745ZM781.504 492.424C779.824 492.783 778.129 493.008 776.47 493.088C772.245 493.317 768.056 492.725 764.017 491.32C759.973 489.916 756.311 487.785 753.139 484.987C751.898 483.905 750.707 482.682 749.6 481.353C742.203 472.446 740.051 460.607 743.84 449.693C746.025 443.403 750.01 437.998 755.367 434.071C761.422 429.621 768.866 427.378 776.332 427.748C779.435 427.897 782.509 428.492 785.475 429.523C788.44 430.554 791.224 431.991 793.75 433.795C799.833 438.129 804.287 444.502 806.287 451.747C808.051 458.153 807.829 464.861 805.648 471.147C801.851 482.068 792.828 490.021 781.504 492.424Z" fill="white"/>
<path d="M806.536 434.474L807.011 433.61C806.859 433.527 803.237 431.57 799.219 433.167L799.582 434.086C803.157 432.663 806.503 434.456 806.536 434.474Z" fill="white"/>
</svg>
