<svg width="85" height="101" viewBox="0 0 85 101" fill="none" xmlns="http://www.w3.org/2000/svg">
<path d="M0.414326 76.8207L1.80732 77.218L1.2281 79.2572C1.14193 79.5588 1.31905 79.8747 1.62062 79.9609L3.65982 80.5401L2.96093 83.0005C2.87477 83.302 3.05189 83.6179 3.35346 83.7041L63.4188 100.745C63.5672 100.788 63.7252 100.769 63.8593 100.688C63.9933 100.611 64.089 100.482 64.1273 100.334C70.2353 75.7579 77.1906 51.235 84.8017 27.4491C84.8927 27.1571 84.7395 26.8412 84.4475 26.7407L82.3556 25.9987C82.5902 25.2376 82.8248 24.4717 83.0689 23.7106C83.1598 23.4186 83.0066 23.1026 82.7146 23.0021L82.0684 22.7723C81.7908 22.6766 81.5179 22.5809 81.2403 22.4803C81.4461 21.8437 81.652 21.2166 81.8626 20.5752C81.9583 20.2832 81.8052 19.9673 81.5132 19.862C79.517 19.1487 77.3342 18.3876 74.711 17.5068L75.4291 14.9793C75.812 13.6342 75.027 12.2317 73.6819 11.8488C72.3367 11.4658 70.9342 12.2509 70.5561 13.596L69.8955 15.9272C64.8453 14.2949 59.5511 12.6865 54.1324 11.1355L54.7116 9.10112C55.0945 7.75602 54.3095 6.35345 52.9644 5.97051C51.6193 5.58756 50.2167 6.37261 49.8338 7.71772L49.2546 9.76171C43.9364 8.29694 38.4554 6.86564 33.3144 5.60191L33.9893 3.22286C34.3722 1.87775 33.5872 0.475194 32.2469 0.0970326C30.9018 -0.285915 29.4992 0.49914 29.1163 1.84424L28.3887 4.4052C24.0279 3.37602 21.3999 2.81598 21.3712 2.80641C21.0792 2.74418 20.7872 2.92127 20.7058 3.20848L0.0218003 76.1218C-0.064363 76.4234 0.112754 76.7393 0.414326 76.8207ZM63.1604 99.4865L4.21029 82.7611L4.75121 80.8464L61.6812 96.9972C61.8296 97.0403 61.9876 97.0212 62.1216 96.9446C62.2557 96.868 62.3514 96.7388 62.3897 96.5904C68.2249 73.513 74.8259 50.1531 82.0158 27.0853L83.5476 27.6262C76.0514 51.0866 69.1966 75.2554 63.1604 99.4865ZM80.8813 23.567C81.1494 23.6627 81.4126 23.7536 81.6807 23.8494L81.8147 23.8972C81.5801 24.644 81.3504 25.4003 81.1063 26.1854C73.9068 49.2245 67.2914 72.6274 61.4323 95.7479L2.47746 79.0227L2.8987 77.5291L60.4749 93.8619C60.6233 93.905 60.7861 93.8858 60.9201 93.8044C61.0541 93.723 61.1499 93.5938 61.1834 93.4406C66.0325 72.2732 72.4852 49.3777 80.8813 23.567ZM71.6474 13.9071C71.8581 13.1651 72.6288 12.7343 73.3707 12.9449C74.1127 13.1555 74.5435 13.9263 74.3329 14.6682L72.1166 22.4851C71.906 23.2271 71.1352 23.6579 70.3933 23.4473C69.6513 23.2367 69.2205 22.466 69.4311 21.724L71.6474 13.9071ZM50.93 8.03367C51.1406 7.29171 51.9113 6.86088 52.6532 7.07151C53.3952 7.28213 53.826 8.0528 53.6154 8.79476L51.3991 16.6117C51.1884 17.3536 50.4178 17.7844 49.6758 17.5738C48.9339 17.3632 48.503 16.5925 48.7137 15.8506L50.93 8.03367ZM30.2077 2.1554C30.4183 1.41344 31.189 0.982618 31.931 1.19324C32.6729 1.40386 33.1037 2.17453 32.8931 2.91649L30.6768 10.7334C30.4662 11.4754 29.6955 11.9062 28.9535 11.6956C28.2116 11.4849 27.7807 10.7143 27.9914 9.97231L30.2077 2.1554ZM21.6536 4.03181C22.6157 4.24243 24.8799 4.74508 28.0776 5.5014L26.8952 9.66115C26.5122 11.0063 27.2973 12.4088 28.6424 12.787C29.9875 13.1699 31.39 12.3849 31.7682 11.0398L32.9984 6.69333C38.1395 7.95705 43.6156 9.38829 48.9386 10.8531L47.6127 15.5346C47.2297 16.8797 48.0148 18.2823 49.3599 18.6604C50.705 19.0434 52.1075 18.2583 52.4905 16.9132L53.8212 12.2222C59.2399 13.7731 64.5342 15.3814 69.5843 17.0137L68.3397 21.4081C67.9568 22.7532 68.7418 24.1558 70.0822 24.5339C71.4273 24.9169 72.8298 24.1318 73.2128 22.7867L74.4047 18.5934C76.7694 19.3928 78.7799 20.0869 80.6084 20.7379C71.882 47.3576 65.2091 70.8754 60.2164 92.5885L1.27595 75.8681L21.6536 4.03181Z" fill="#F57005"/>
<path d="M25.574 23.1791L26.9335 23.6722L28.0919 23.8732L28.3695 28.2771C28.3791 28.459 28.4796 28.6266 28.6328 28.7223C28.7908 28.8228 28.9823 28.8372 29.1498 28.7654L30.8013 28.0904L32.0219 28.7558C32.2373 28.8755 32.5102 28.8372 32.6873 28.6649L34.8366 26.5969L35.9471 26.6113L36.8997 28.325C36.9524 28.4159 37.0289 28.4973 37.1199 28.5452L38.5751 29.3493C38.7139 29.4259 38.8814 29.4403 39.0346 29.3877L40.4467 28.9042L41.3275 30.5078C41.4424 30.7184 41.6818 30.8381 41.9211 30.795L43.2423 30.5748L44.0656 32.5757C44.1422 32.7624 44.3145 32.8964 44.5156 32.9204C44.7166 32.9491 44.9177 32.8629 45.0421 32.7001L47.0095 30.12L47.5121 32.1305C47.5265 32.1976 47.5552 32.2598 47.5935 32.3124L48.7854 34.0597C48.8716 34.1889 49.0009 34.2703 49.1588 34.299L50.6523 34.5574L51.9831 35.4047C52.0309 35.4334 52.0788 35.4574 52.1315 35.4717C52.3181 35.5244 52.5287 35.4765 52.6771 35.3377L54.7642 33.3751L55.9514 33.581L57.2246 34.5574C57.3874 34.6867 57.6124 34.7106 57.8039 34.6245L59.2112 33.9878L59.9963 35.8212C60.0633 35.9791 60.1973 36.0988 60.3648 36.1419C60.4797 36.2041 60.7095 36.1563 60.8531 36.0557L62.4423 34.9117L63.2274 36.4291C63.2705 36.5153 63.3375 36.5871 63.414 36.6397L64.7687 37.5492L65.9942 38.9661C66.1043 39.0954 66.2718 39.1672 66.4441 39.1624L68.153 39.1049L68.1147 37.9705L66.6787 38.0231L65.5825 36.7546C65.549 36.7164 65.5107 36.6828 65.4676 36.6541L64.1704 35.7829L63.146 33.8107C63.0694 33.6623 62.9258 33.557 62.7726 33.5187C62.6099 33.4804 62.4423 33.5139 62.3083 33.6097L60.7573 34.725L60.0202 33.0113C59.958 32.8725 59.8431 32.7624 59.7042 32.7049C59.5606 32.6523 59.4027 32.6523 59.2639 32.7193L57.6411 33.4517L56.5258 32.5996C56.454 32.5422 56.3678 32.5087 56.2769 32.4895L54.6733 32.2119C54.4962 32.1832 54.3143 32.2358 54.185 32.3603L52.2128 34.2128L51.1549 33.5426C51.0927 33.4996 51.0257 33.4757 50.9443 33.4613L49.5753 33.2267L48.5796 31.7619L47.8185 28.6983C47.7659 28.4877 47.6079 28.325 47.3829 28.2771C47.1675 28.234 46.9473 28.3154 46.818 28.4878L44.7358 31.221L44.1182 29.7179C44.0177 29.4738 43.7592 29.3302 43.5008 29.3733L42.1317 29.6031L41.2174 27.9325C41.0834 27.6883 40.7962 27.5782 40.5329 27.6692L38.9054 28.2292L37.814 27.6261L36.78 25.764C36.6795 25.5869 36.4928 25.472 36.2918 25.472L34.6164 25.4481C34.468 25.4481 34.3196 25.5007 34.2143 25.6061L32.199 27.5495L31.1076 26.9559C30.9544 26.8698 30.7773 26.865 30.6194 26.9272L29.4514 27.4059L29.1976 23.3467C29.1785 23.0834 28.9822 22.8632 28.7285 22.8201L27.2255 22.5664L25.7033 22.0063C25.5405 21.9489 25.3586 21.9632 25.2102 22.0542L23.1758 23.2988L23.7694 24.2705L25.574 23.1791Z" fill="#F57005"/>
<path d="M62.1838 49.2627L61.4131 46.1992C61.3605 45.9886 61.193 45.8257 60.9776 45.7827C60.7621 45.7396 60.542 45.821 60.4127 45.9934L58.3256 48.7266L57.6986 47.2187C57.598 46.9746 57.3395 46.831 57.081 46.8741L55.7072 47.1038L54.7929 45.4332C54.6589 45.1891 54.3717 45.079 54.1084 45.1699L52.4761 45.7301L51.3847 45.1269L50.3507 43.2648C50.2502 43.0877 50.0635 42.9776 49.8625 42.9728L48.1823 42.9489C48.0339 42.9489 47.8855 43.0016 47.7802 43.1069L45.7602 45.0455L44.6687 44.4471C44.5156 44.3657 44.3384 44.3563 44.1805 44.4185L43.0077 44.8972L42.7492 40.8379C42.7301 40.5747 42.5338 40.3592 42.2801 40.3113L40.7722 40.0576L39.25 39.4976C39.0873 39.4354 38.9054 39.4544 38.757 39.5454L36.9667 40.6368L35.7987 40.1485L34.4919 39.105C34.2861 38.9471 34.0036 38.9375 33.7978 39.0954L31.9692 40.4645L30.964 39.8614L29.8295 38.2577C29.7338 38.1237 29.5854 38.0328 29.4178 38.0184C29.2551 38.004 29.0876 38.0615 28.9679 38.1764L27.4122 39.6651L26.9335 37.1424C26.876 36.8409 26.5888 36.6398 26.2872 36.6877L24.5879 36.9557L21.2132 37.1616L19.5426 37.1233L19.5139 38.2625L21.2371 38.3009L24.7028 38.0903L25.9139 37.8987L26.4835 40.9097C26.5218 41.1155 26.6702 41.283 26.8712 41.3452C27.0723 41.3979 27.2877 41.3596 27.4361 41.216L29.2695 39.4593L30.088 40.6224C30.1359 40.6847 30.1933 40.7421 30.2603 40.7804L31.6964 41.6421C31.8927 41.7618 32.1464 41.7474 32.3283 41.6085L34.109 40.273L35.1381 41.0916C35.1812 41.1252 35.2243 41.149 35.2722 41.173L36.78 41.8001C36.9571 41.8719 37.139 41.8527 37.297 41.7618L39.1016 40.6608L40.4659 41.1538L41.6291 41.3548L41.9115 45.7588C41.9259 45.9407 42.0216 46.1082 42.1748 46.204C42.2227 46.2327 42.2705 46.2566 42.3232 46.2709C42.4429 46.3044 42.5721 46.2996 42.6918 46.2518L44.348 45.5769L45.5687 46.247C45.7841 46.3666 46.0569 46.3284 46.2341 46.1561L48.3833 44.0881L49.4987 44.1025L50.4513 45.821C50.5039 45.9119 50.5805 45.9885 50.6714 46.0412L52.1267 46.8453C52.2655 46.9219 52.433 46.9363 52.5862 46.8837L54.0031 46.4002L54.8839 48.0038C54.9988 48.2144 55.2381 48.3341 55.4775 48.291L56.8034 48.0708L57.6315 50.0765C57.7081 50.2631 57.8757 50.3973 58.0815 50.4212C58.2826 50.4499 58.4836 50.3637 58.6081 50.2009L60.5754 47.6209L61.0828 49.6361C61.0972 49.7031 61.1259 49.7654 61.1642 49.8181L62.361 51.5652C62.4471 51.6897 62.5811 51.7758 62.7343 51.8046L64.3475 52.0822L64.5438 50.9621L63.1651 50.7227L62.1838 49.2627Z" fill="#F57005"/>
<path d="M59.3588 62.532L58.2579 61.9336C58.1095 61.8522 57.9275 61.8428 57.7696 61.905L56.592 62.3837L56.3335 58.3196C56.3144 58.0564 56.1325 57.8457 55.8644 57.793L54.3518 57.5393L52.8248 56.9793C52.662 56.9171 52.4801 56.9361 52.3317 57.0271L50.5415 58.1185L49.3735 57.6302L48.0619 56.5867C47.856 56.4288 47.5736 56.4192 47.3678 56.5772L45.5392 57.9463L44.5292 57.3431L43.3947 55.7395C43.299 55.6054 43.1505 55.5145 42.983 55.5001C42.8202 55.4858 42.6527 55.5432 42.533 55.6533L40.9725 57.1468L40.4939 54.6241C40.4364 54.3225 40.1492 54.1215 39.8476 54.1694L38.1435 54.4375L34.7592 54.6433L33.4428 54.6098L32.5477 52.6711C32.4184 52.3935 32.0977 52.2642 31.8153 52.3839L29.9101 53.169C29.867 53.1881 29.8239 53.212 29.7856 53.2407L28.3544 54.3274L27.8087 51.8574C27.7656 51.6707 27.6316 51.5175 27.4545 51.4457C27.2726 51.3787 27.0715 51.4073 26.9183 51.5174L25.219 52.7621L24.3382 51.7329L23.1607 49.9665C23.1319 49.9234 23.0936 49.8803 23.0553 49.8468L21.7007 48.7028C21.4853 48.5209 21.1646 48.5257 20.9539 48.7124L19.1684 50.3159L18.326 49.1815C18.235 49.0618 18.1058 48.9853 17.9622 48.9565L16.3537 48.6932L16.1719 49.8182L17.5505 50.0432L18.6275 51.4936C18.7232 51.6228 18.8716 51.7042 19.0296 51.7186C19.1876 51.7329 19.3455 51.6802 19.4652 51.5749L21.3465 49.8852L22.2607 50.6559L23.4335 52.4078L24.6973 53.8918C24.8887 54.1216 25.2238 54.1598 25.4679 53.9827L26.8896 52.9392L27.4353 55.4236C27.4784 55.615 27.6124 55.7682 27.7943 55.8352C28.005 55.8974 28.1916 55.8639 28.3352 55.7538L30.4175 54.1789L31.7531 53.6285L32.5668 55.3948C32.6578 55.5911 32.854 55.7203 33.0694 55.7251L34.7927 55.7634L38.268 55.5528L39.4886 55.3661L40.063 58.377C40.1013 58.5829 40.2497 58.7504 40.4508 58.8126C40.6518 58.8652 40.8672 58.8271 41.0156 58.6834L42.8538 56.9218L43.6771 58.0851C43.7202 58.1521 43.7824 58.2047 43.8494 58.243L45.2903 59.1046C45.4865 59.2195 45.7402 59.2099 45.9221 59.0711L47.7076 57.7355L48.7368 58.5542C48.7799 58.5877 48.823 58.6116 48.8708 58.6355L50.3787 59.2674C50.5462 59.3344 50.7377 59.3248 50.8957 59.2291L52.7003 58.1281L54.0646 58.6212L55.2326 58.827L55.515 63.231C55.5293 63.4129 55.6251 63.5804 55.7831 63.6761C55.9362 63.7718 56.1325 63.7909 56.3 63.7191L57.9611 63.0442L59.1913 63.7143C59.4067 63.834 59.6795 63.7957 59.8566 63.6234L62.1831 61.3928L61.398 60.5694L59.3588 62.532Z" fill="#F57005"/>
<path d="M56.578 72.9813C56.4153 72.9669 56.2477 73.0244 56.1328 73.1345L54.5675 74.628L54.084 72.0957C54.0266 71.7941 53.7394 71.5931 53.4378 71.641L51.7289 71.9091L48.3398 72.1101L47.0186 72.0766L46.1187 70.1379C45.9895 69.8603 45.6688 69.7358 45.3863 69.8507L43.4812 70.6358C43.4381 70.6549 43.395 70.6788 43.3567 70.7076L41.9207 71.7942L41.375 69.3194C41.3319 69.1327 41.1979 68.9795 41.0207 68.9077C40.8293 68.8407 40.6378 68.8694 40.4846 68.9794L38.7805 70.2241L37.8997 69.1902L36.7174 67.419C36.6886 67.376 36.6503 67.3329 36.612 67.2994L35.2526 66.1553C35.0372 65.9734 34.7213 65.9781 34.5058 66.1648L32.7108 67.7685L31.8635 66.6291C31.7773 66.5095 31.6433 66.4329 31.4997 66.409L29.8913 66.1457C29.7956 66.1313 29.6998 66.1409 29.6089 66.1696L26.0618 67.4333L24.755 66.902C24.6832 66.8733 24.6018 66.8589 24.5252 66.8589L22.9695 66.902L21.6914 66.2701L20.4134 65.1022C20.2697 64.9681 20.0639 64.9203 19.8724 64.9777L18.4794 65.3846L17.5795 63.7427L16.4307 61.871C16.3158 61.6844 16.1004 61.579 15.885 61.603L14.3819 61.7705L13.1948 60.8228L12.4863 61.713L13.8554 62.8045C13.9702 62.8954 14.1234 62.9433 14.2718 62.9241L15.6504 62.7709L16.5934 64.3076L17.6992 66.3276C17.8284 66.5622 18.1013 66.677 18.355 66.6004L19.882 66.1553L20.983 67.1605C21.0213 67.1988 21.0691 67.2275 21.1122 67.2515L22.5914 67.9791C22.6249 67.9934 22.6536 68.0078 22.6871 68.0174C22.7445 68.0318 22.802 68.0412 22.8594 68.0365L24.4343 67.9887L25.8321 68.5583C25.9613 68.6109 26.1097 68.6157 26.2389 68.5678L29.8435 67.285L31.0832 67.4908L32.1651 68.946C32.2608 69.0753 32.4092 69.1566 32.5624 69.171C32.7203 69.1854 32.8783 69.1375 32.998 69.0274L34.8888 67.3376L35.8126 68.1131L36.9902 69.8651L38.2539 71.3538C38.4454 71.5836 38.7805 71.6219 39.0246 71.4447L40.4511 70.4012L41.0016 72.8904C41.0447 73.0819 41.1787 73.235 41.3606 73.302C41.5377 73.3738 41.7484 73.3403 41.9015 73.2206L43.9838 71.641L45.3193 71.0905L46.1379 72.8568C46.2288 73.0531 46.4203 73.1823 46.6405 73.1871L48.3685 73.2254L51.8486 73.0196L53.0692 72.8329L53.6485 75.8486C53.6867 76.0545 53.8351 76.222 54.0362 76.2842C54.242 76.3416 54.4526 76.2987 54.601 76.155L56.4487 74.3934L57.2769 75.5614L58.2055 74.9056L56.9945 73.2015C56.8939 73.0866 56.7455 73.0005 56.578 72.9813Z" fill="#F57005"/>
</svg>
