<svg width="767" height="904" viewBox="0 0 767 904" fill="none" xmlns="http://www.w3.org/2000/svg">
<g clip-path="url(#clip0_105_15162)">
<path opacity="0.12" d="M766.998 903.997C728.094 885.553 693.782 859.684 667.576 828.544C621.106 773.451 600.303 702.07 610.57 634.043C618.134 583.501 641.909 536.313 653.527 486.49C665.144 436.667 662.713 379.658 624.619 341.812C600.033 317.14 563.83 303.965 528.168 294.863C418.478 266.359 298.523 266.598 195.858 221.805C97.5156 178.689 24.2994 94.3736 0.52437 -0.00271432L766.998 -0.00274404L766.998 903.997Z" fill="url(#paint0_linear_105_15162)"/>
</g>
<g clip-path="url(#clip1_105_15162)">
<path d="M625.309 104.77C620.619 104.77 616.867 101.441 616.867 97.281C616.867 93.1205 620.619 89.792 625.309 89.792C630 89.792 633.752 93.1205 633.752 97.281C633.752 101.441 629.765 104.77 625.309 104.77ZM625.309 92.7044C622.495 92.7044 620.15 94.7847 620.15 97.281C620.15 99.7773 622.495 101.858 625.309 101.858C628.123 101.858 630.469 99.7773 630.469 97.281C630.469 94.7847 628.123 92.7044 625.309 92.7044Z" fill="white"/>
<path d="M724.74 350.24C720.05 350.24 716.298 346.912 716.298 342.751C716.298 338.591 720.05 335.263 724.74 335.263C729.43 335.263 733.182 338.591 733.182 342.751C733.182 346.912 729.43 350.24 724.74 350.24ZM724.74 338.175C721.926 338.175 719.581 340.255 719.581 342.751C719.581 345.248 721.926 347.328 724.74 347.328C727.554 347.328 729.899 345.248 729.899 342.751C730.134 340.255 727.789 338.175 724.74 338.175Z" fill="white"/>
<path d="M416.598 541C411.908 541 408.156 537.672 408.156 533.511C408.156 529.351 411.908 526.022 416.598 526.022C421.289 526.022 425.041 529.351 425.041 533.511C424.806 537.672 421.054 541 416.598 541ZM416.598 528.935C413.784 528.935 411.439 531.015 411.439 533.511C411.439 536.007 413.784 538.088 416.598 538.088C419.413 538.088 421.758 536.007 421.758 533.511C421.758 531.015 419.413 528.935 416.598 528.935Z" fill="white"/>
<path d="M54.0526 516.037C49.3625 516.037 45.6104 512.709 45.6104 508.548C45.6104 504.388 49.3625 501.059 54.0526 501.059C58.7427 501.059 62.4948 504.388 62.4948 508.548C62.4948 512.709 58.5082 516.037 54.0526 516.037ZM54.0526 503.971C51.2385 503.971 48.8934 506.052 48.8934 508.548C48.8934 511.044 51.2385 513.125 54.0526 513.125C56.8667 513.125 59.2117 511.044 59.2117 508.548C59.2117 506.052 56.8667 503.971 54.0526 503.971Z" fill="white"/>
</g>
<defs>
<linearGradient id="paint0_linear_105_15162" x1="383.724" y1="903.997" x2="383.724" y2="-0.109993" gradientUnits="userSpaceOnUse">
<stop offset="0.00130208" stop-color="#FFA35A"/>
<stop offset="1" stop-color="#FF2574"/>
</linearGradient>
<clipPath id="clip0_105_15162">
<rect width="904" height="766.474" fill="white" transform="translate(0.524414 903.997) rotate(-90)"/>
</clipPath>
<clipPath id="clip1_105_15162">
<rect width="687.572" height="451" fill="white" transform="translate(45.6104 90.0001)"/>
</clipPath>
</defs>
</svg>
