<svg width="222" height="422" viewBox="0 0 222 422" fill="none" xmlns="http://www.w3.org/2000/svg">
<g clip-path="url(#clip0_759_6683)">
<path fill-rule="evenodd" clip-rule="evenodd" d="M-45.4648 0.428711H58.2908L-45.4648 193.854V0.428711Z" fill="url(#paint0_linear_759_6683)"/>
<path fill-rule="evenodd" clip-rule="evenodd" d="M-45.4648 0.428711H0.613396L-45.4648 193.854V0.428711Z" fill="url(#paint1_linear_759_6683)"/>
<path fill-rule="evenodd" clip-rule="evenodd" d="M-45.4648 273.103L222 0.428711L-0.772518 422.004H-45.4648V273.103Z" fill="#F57005"/>
<path fill-rule="evenodd" clip-rule="evenodd" d="M222 0.428711L-0.772518 422.004H-45.4648V375.761L222 0.428711Z" fill="url(#paint2_linear_759_6683)"/>
<path fill-rule="evenodd" clip-rule="evenodd" d="M74.9841 0.428711L-45.4648 206.829V248.71L197.674 0.428711H74.9841Z" fill="url(#paint3_linear_759_6683)"/>
<path fill-rule="evenodd" clip-rule="evenodd" d="M176.139 -47.5051L-83.8793 277.316L-85.4121 276.094L174.609 -48.7271L176.139 -47.5051Z" fill="url(#paint4_radial_759_6683)"/>
</g>
<defs>
<linearGradient id="paint0_linear_759_6683" x1="6.41297" y1="0.428711" x2="6.41297" y2="193.854" gradientUnits="userSpaceOnUse">
<stop stop-color="#4F5DE4"/>
<stop offset="1" stop-color="#4F5DE4" stop-opacity="0"/>
</linearGradient>
<linearGradient id="paint1_linear_759_6683" x1="-82.1784" y1="80.1714" x2="159.286" y2="148.745" gradientUnits="userSpaceOnUse">
<stop stop-color="#3D69B2"/>
<stop offset="1" stop-color="#0B74BB"/>
</linearGradient>
<linearGradient id="paint2_linear_759_6683" x1="14.6352" y1="20.1901" x2="274.785" y2="277.396" gradientUnits="userSpaceOnUse">
<stop stop-color="#FF7200"/>
<stop offset="1" stop-color="white" stop-opacity="0"/>
</linearGradient>
<linearGradient id="paint3_linear_759_6683" x1="182.5" y1="7" x2="-45" y2="201" gradientUnits="userSpaceOnUse">
<stop offset="0.481068" stop-color="#4F5DE4"/>
<stop offset="1" stop-color="#4F5DE4" stop-opacity="0"/>
</linearGradient>
<radialGradient id="paint4_radial_759_6683" cx="0" cy="0" r="1" gradientTransform="matrix(-53.8083 88.561 -89.095 -32.0089 48.8523 74.644)" gradientUnits="userSpaceOnUse">
<stop stop-color="#FF7200"/>
<stop offset="1" stop-color="white" stop-opacity="0"/>
</radialGradient>
<clipPath id="clip0_759_6683">
<rect width="268" height="422.004" fill="white" transform="translate(-46)"/>
</clipPath>
</defs>
</svg>
